%TF.GenerationSoftware,KiCad,Pcbnew,7.0.7*%
%TF.CreationDate,2023-11-21T19:35:23-10:00*%
%TF.ProjectId,Controller,436f6e74-726f-46c6-9c65-722e6b696361,New*%
%TF.SameCoordinates,Original*%
%TF.FileFunction,Copper,L2,Bot*%
%TF.FilePolarity,Positive*%
%FSLAX46Y46*%
G04 Gerber Fmt 4.6, Leading zero omitted, Abs format (unit mm)*
G04 Created by KiCad (PCBNEW 7.0.7) date 2023-11-21 19:35:23*
%MOMM*%
%LPD*%
G01*
G04 APERTURE LIST*
G04 Aperture macros list*
%AMRoundRect*
0 Rectangle with rounded corners*
0 $1 Rounding radius*
0 $2 $3 $4 $5 $6 $7 $8 $9 X,Y pos of 4 corners*
0 Add a 4 corners polygon primitive as box body*
4,1,4,$2,$3,$4,$5,$6,$7,$8,$9,$2,$3,0*
0 Add four circle primitives for the rounded corners*
1,1,$1+$1,$2,$3*
1,1,$1+$1,$4,$5*
1,1,$1+$1,$6,$7*
1,1,$1+$1,$8,$9*
0 Add four rect primitives between the rounded corners*
20,1,$1+$1,$2,$3,$4,$5,0*
20,1,$1+$1,$4,$5,$6,$7,0*
20,1,$1+$1,$6,$7,$8,$9,0*
20,1,$1+$1,$8,$9,$2,$3,0*%
%AMFreePoly0*
4,1,19,0.500000,-0.750000,0.000000,-0.750000,0.000000,-0.744911,-0.071157,-0.744911,-0.207708,-0.704816,-0.327430,-0.627875,-0.420627,-0.520320,-0.479746,-0.390866,-0.500000,-0.250000,-0.500000,0.250000,-0.479746,0.390866,-0.420627,0.520320,-0.327430,0.627875,-0.207708,0.704816,-0.071157,0.744911,0.000000,0.744911,0.000000,0.750000,0.500000,0.750000,0.500000,-0.750000,0.500000,-0.750000,
$1*%
%AMFreePoly1*
4,1,19,0.000000,0.744911,0.071157,0.744911,0.207708,0.704816,0.327430,0.627875,0.420627,0.520320,0.479746,0.390866,0.500000,0.250000,0.500000,-0.250000,0.479746,-0.390866,0.420627,-0.520320,0.327430,-0.627875,0.207708,-0.704816,0.071157,-0.744911,0.000000,-0.744911,0.000000,-0.750000,-0.500000,-0.750000,-0.500000,0.750000,0.000000,0.750000,0.000000,0.744911,0.000000,0.744911,
$1*%
G04 Aperture macros list end*
%TA.AperFunction,SMDPad,CuDef*%
%ADD10RoundRect,0.250000X-0.625000X0.400000X-0.625000X-0.400000X0.625000X-0.400000X0.625000X0.400000X0*%
%TD*%
%TA.AperFunction,ComponentPad*%
%ADD11R,1.600000X1.600000*%
%TD*%
%TA.AperFunction,ComponentPad*%
%ADD12C,1.600000*%
%TD*%
%TA.AperFunction,ComponentPad*%
%ADD13C,1.800000*%
%TD*%
%TA.AperFunction,ComponentPad*%
%ADD14R,1.800000X1.800000*%
%TD*%
%TA.AperFunction,SMDPad,CuDef*%
%ADD15RoundRect,0.250000X0.400000X0.625000X-0.400000X0.625000X-0.400000X-0.625000X0.400000X-0.625000X0*%
%TD*%
%TA.AperFunction,SMDPad,CuDef*%
%ADD16RoundRect,0.250000X-0.400000X-0.625000X0.400000X-0.625000X0.400000X0.625000X-0.400000X0.625000X0*%
%TD*%
%TA.AperFunction,ComponentPad*%
%ADD17C,2.500000*%
%TD*%
%TA.AperFunction,SMDPad,CuDef*%
%ADD18RoundRect,0.150000X-0.825000X-0.150000X0.825000X-0.150000X0.825000X0.150000X-0.825000X0.150000X0*%
%TD*%
%TA.AperFunction,SMDPad,CuDef*%
%ADD19RoundRect,0.150000X-0.150000X0.587500X-0.150000X-0.587500X0.150000X-0.587500X0.150000X0.587500X0*%
%TD*%
%TA.AperFunction,SMDPad,CuDef*%
%ADD20RoundRect,0.250000X0.650000X-0.412500X0.650000X0.412500X-0.650000X0.412500X-0.650000X-0.412500X0*%
%TD*%
%TA.AperFunction,ComponentPad*%
%ADD21RoundRect,0.341000X-0.759000X0.759000X-0.759000X-0.759000X0.759000X-0.759000X0.759000X0.759000X0*%
%TD*%
%TA.AperFunction,ComponentPad*%
%ADD22C,2.200000*%
%TD*%
%TA.AperFunction,ComponentPad*%
%ADD23R,2.000000X1.905000*%
%TD*%
%TA.AperFunction,ComponentPad*%
%ADD24O,2.000000X1.905000*%
%TD*%
%TA.AperFunction,ComponentPad*%
%ADD25O,1.600000X2.500000*%
%TD*%
%TA.AperFunction,ComponentPad*%
%ADD26O,3.500000X7.000000*%
%TD*%
%TA.AperFunction,ComponentPad*%
%ADD27RoundRect,0.249997X-0.790003X-1.550003X0.790003X-1.550003X0.790003X1.550003X-0.790003X1.550003X0*%
%TD*%
%TA.AperFunction,ComponentPad*%
%ADD28O,2.080000X3.600000*%
%TD*%
%TA.AperFunction,ComponentPad*%
%ADD29C,3.000000*%
%TD*%
%TA.AperFunction,ComponentPad*%
%ADD30R,1.800000X2.600000*%
%TD*%
%TA.AperFunction,ComponentPad*%
%ADD31O,1.800000X2.600000*%
%TD*%
%TA.AperFunction,ComponentPad*%
%ADD32R,1.850000X1.850000*%
%TD*%
%TA.AperFunction,ComponentPad*%
%ADD33C,1.850000*%
%TD*%
%TA.AperFunction,ComponentPad*%
%ADD34R,2.000000X2.000000*%
%TD*%
%TA.AperFunction,ComponentPad*%
%ADD35O,2.000000X1.600000*%
%TD*%
%TA.AperFunction,ComponentPad*%
%ADD36C,2.000000*%
%TD*%
%TA.AperFunction,ComponentPad*%
%ADD37C,3.200000*%
%TD*%
%TA.AperFunction,ComponentPad*%
%ADD38C,1.620000*%
%TD*%
%TA.AperFunction,SMDPad,CuDef*%
%ADD39RoundRect,0.250000X0.625000X-0.400000X0.625000X0.400000X-0.625000X0.400000X-0.625000X-0.400000X0*%
%TD*%
%TA.AperFunction,SMDPad,CuDef*%
%ADD40RoundRect,0.250000X-0.650000X0.412500X-0.650000X-0.412500X0.650000X-0.412500X0.650000X0.412500X0*%
%TD*%
%TA.AperFunction,SMDPad,CuDef*%
%ADD41R,1.500000X2.000000*%
%TD*%
%TA.AperFunction,SMDPad,CuDef*%
%ADD42R,3.800000X2.000000*%
%TD*%
%TA.AperFunction,SMDPad,CuDef*%
%ADD43RoundRect,0.250000X0.412500X0.650000X-0.412500X0.650000X-0.412500X-0.650000X0.412500X-0.650000X0*%
%TD*%
%TA.AperFunction,SMDPad,CuDef*%
%ADD44RoundRect,0.250000X1.000000X0.650000X-1.000000X0.650000X-1.000000X-0.650000X1.000000X-0.650000X0*%
%TD*%
%TA.AperFunction,SMDPad,CuDef*%
%ADD45RoundRect,0.250000X-1.000000X-0.650000X1.000000X-0.650000X1.000000X0.650000X-1.000000X0.650000X0*%
%TD*%
%TA.AperFunction,SMDPad,CuDef*%
%ADD46RoundRect,0.250000X0.650000X-1.000000X0.650000X1.000000X-0.650000X1.000000X-0.650000X-1.000000X0*%
%TD*%
%TA.AperFunction,SMDPad,CuDef*%
%ADD47RoundRect,0.225000X-0.375000X0.225000X-0.375000X-0.225000X0.375000X-0.225000X0.375000X0.225000X0*%
%TD*%
%TA.AperFunction,SMDPad,CuDef*%
%ADD48RoundRect,0.225000X0.375000X-0.225000X0.375000X0.225000X-0.375000X0.225000X-0.375000X-0.225000X0*%
%TD*%
%TA.AperFunction,SMDPad,CuDef*%
%ADD49RoundRect,0.250000X-1.075000X0.400000X-1.075000X-0.400000X1.075000X-0.400000X1.075000X0.400000X0*%
%TD*%
%TA.AperFunction,SMDPad,CuDef*%
%ADD50FreePoly0,180.000000*%
%TD*%
%TA.AperFunction,SMDPad,CuDef*%
%ADD51FreePoly1,180.000000*%
%TD*%
%TA.AperFunction,SMDPad,CuDef*%
%ADD52RoundRect,0.250000X-0.412500X-0.650000X0.412500X-0.650000X0.412500X0.650000X-0.412500X0.650000X0*%
%TD*%
%TA.AperFunction,SMDPad,CuDef*%
%ADD53RoundRect,0.150000X0.825000X0.150000X-0.825000X0.150000X-0.825000X-0.150000X0.825000X-0.150000X0*%
%TD*%
%TA.AperFunction,SMDPad,CuDef*%
%ADD54R,1.560000X0.650000*%
%TD*%
%TA.AperFunction,SMDPad,CuDef*%
%ADD55RoundRect,0.150000X0.150000X-0.725000X0.150000X0.725000X-0.150000X0.725000X-0.150000X-0.725000X0*%
%TD*%
%TA.AperFunction,SMDPad,CuDef*%
%ADD56R,0.650000X1.560000*%
%TD*%
%TA.AperFunction,SMDPad,CuDef*%
%ADD57RoundRect,0.250000X0.450000X-0.350000X0.450000X0.350000X-0.450000X0.350000X-0.450000X-0.350000X0*%
%TD*%
%TA.AperFunction,ViaPad*%
%ADD58C,1.200000*%
%TD*%
%TA.AperFunction,Conductor*%
%ADD59C,0.381000*%
%TD*%
%TA.AperFunction,Conductor*%
%ADD60C,1.016000*%
%TD*%
%TA.AperFunction,Conductor*%
%ADD61C,0.508000*%
%TD*%
%TA.AperFunction,Profile*%
%ADD62C,0.050000*%
%TD*%
G04 APERTURE END LIST*
D10*
%TO.P,R13,1*%
%TO.N,+3.3V*%
X128524000Y-127482000D03*
%TO.P,R13,2*%
%TO.N,T2in*%
X128524000Y-130582000D03*
%TD*%
D11*
%TO.P,C3,1*%
%TO.N,+5V*%
X154472000Y-77216000D03*
D12*
%TO.P,C3,2*%
%TO.N,GND*%
X156972000Y-77216000D03*
%TD*%
D13*
%TO.P,D16,3,K*%
%TO.N,Net-(D16-K)*%
X158496000Y-71120000D03*
%TO.P,D16,2,A2*%
%TO.N,GND*%
X155956000Y-71120000D03*
D14*
%TO.P,D16,1,A1*%
%TO.N,Net-(D16-A1)*%
X153416000Y-71120000D03*
%TD*%
D15*
%TO.P,R53,1*%
%TO.N,Net-(D16-K)*%
X155474000Y-66040000D03*
%TO.P,R53,2*%
%TO.N,Net-(U1-D38)*%
X152374000Y-66040000D03*
%TD*%
D16*
%TO.P,R52,1*%
%TO.N,Net-(U1-D34)*%
X152374000Y-68580000D03*
%TO.P,R52,2*%
%TO.N,Net-(D16-A1)*%
X155474000Y-68580000D03*
%TD*%
D17*
%TO.P,TP2,1,1*%
%TO.N,GNDA*%
X157480000Y-116840000D03*
%TD*%
D18*
%TO.P,U10,1,CH0*%
%TO.N,T1amp*%
X97601000Y-99187000D03*
%TO.P,U10,2,CH1*%
%TO.N,T2amp*%
X97601000Y-97917000D03*
%TO.P,U10,3,CH2*%
%TO.N,In2*%
X97601000Y-96647000D03*
%TO.P,U10,4,CH3*%
%TO.N,In1*%
X97601000Y-95377000D03*
%TO.P,U10,5,CH4*%
%TO.N,SupV*%
X97601000Y-94107000D03*
%TO.P,U10,6,CH5*%
%TO.N,Net-(U10-CH5)*%
X97601000Y-92837000D03*
%TO.P,U10,7,CH6*%
%TO.N,Out1*%
X97601000Y-91567000D03*
%TO.P,U10,8,CH7*%
%TO.N,Out2*%
X97601000Y-90297000D03*
%TO.P,U10,9,DGND*%
%TO.N,GND*%
X102551000Y-90297000D03*
%TO.P,U10,10,~{CS}/SHDN*%
X102551000Y-91567000D03*
%TO.P,U10,11,Din*%
%TO.N,MOSI*%
X102551000Y-92837000D03*
%TO.P,U10,12,Dout*%
%TO.N,MISO*%
X102551000Y-94107000D03*
%TO.P,U10,13,CLK*%
%TO.N,SPCK*%
X102551000Y-95377000D03*
%TO.P,U10,14,AGND*%
%TO.N,GND*%
X102551000Y-96647000D03*
%TO.P,U10,15,Vref*%
%TO.N,Net-(U10-Vref)*%
X102551000Y-97917000D03*
%TO.P,U10,16,Vdd*%
%TO.N,+3.3V*%
X102551000Y-99187000D03*
%TD*%
D19*
%TO.P,U9,1,K*%
%TO.N,Net-(U10-Vref)*%
X110302000Y-99138500D03*
%TO.P,U9,2,REF*%
%TO.N,Net-(U9-REF)*%
X112202000Y-99138500D03*
%TO.P,U9,3,A*%
%TO.N,GND*%
X111252000Y-101013500D03*
%TD*%
D16*
%TO.P,R26,1*%
%TO.N,+3.3V*%
X109194000Y-91440000D03*
%TO.P,R26,2*%
%TO.N,Net-(U10-Vref)*%
X112294000Y-91440000D03*
%TD*%
%TO.P,R28,2*%
%TO.N,Net-(U9-REF)*%
X112294000Y-93980000D03*
%TO.P,R28,1*%
%TO.N,GND*%
X109194000Y-93980000D03*
%TD*%
D15*
%TO.P,R27,1*%
%TO.N,Net-(U9-REF)*%
X112294000Y-96520000D03*
%TO.P,R27,2*%
%TO.N,Net-(U10-Vref)*%
X109194000Y-96520000D03*
%TD*%
D20*
%TO.P,C23,1*%
%TO.N,Net-(U10-Vref)*%
X106680000Y-99098500D03*
%TO.P,C23,2*%
%TO.N,GND*%
X106680000Y-95973500D03*
%TD*%
D17*
%TO.P,TP4,1,1*%
%TO.N,T1amp*%
X104648000Y-108712000D03*
%TD*%
%TO.P,TP1,1,1*%
%TO.N,+5V*%
X157480000Y-87884000D03*
%TD*%
%TO.P,TP3,1,1*%
%TO.N,/WQ*%
X157480000Y-111252000D03*
%TD*%
%TO.P,TP5,1,1*%
%TO.N,T2amp*%
X104648000Y-112268000D03*
%TD*%
%TO.P,TP0,1,1*%
%TO.N,GND*%
X157480000Y-83820000D03*
%TD*%
D21*
%TO.P,K1,1*%
%TO.N,+12V*%
X74930000Y-114935000D03*
D17*
%TO.P,K1,2*%
%TO.N,Net-(J1-Pin_4)*%
X67330000Y-125135000D03*
%TO.P,K1,3*%
%TO.N,Net-(J1-Pin_3)*%
X67330000Y-132835000D03*
D22*
%TO.P,K1,5*%
%TO.N,Net-(D2-K)*%
X67330000Y-114935000D03*
%TD*%
D21*
%TO.P,K2,1*%
%TO.N,+12V*%
X86360000Y-114935000D03*
D17*
%TO.P,K2,2*%
%TO.N,Net-(J1-Pin_6)*%
X78760000Y-125135000D03*
%TO.P,K2,3*%
%TO.N,Net-(J1-Pin_5)*%
X78760000Y-132835000D03*
D22*
%TO.P,K2,5*%
%TO.N,Net-(D3-K)*%
X78760000Y-114935000D03*
%TD*%
D23*
%TO.P,U2,1,IN*%
%TO.N,+12V*%
X63500000Y-120015000D03*
D24*
%TO.P,U2,2,GND*%
%TO.N,GND*%
X63500000Y-117475000D03*
%TO.P,U2,3,OUT*%
%TO.N,+5V*%
X63500000Y-114935000D03*
%TD*%
D25*
%TO.P,J3,1,In*%
%TO.N,Net-(J3-In)*%
X146600000Y-127600000D03*
D26*
%TO.P,J3,2,Ext*%
%TO.N,GNDA*%
X151680000Y-132680000D03*
D25*
X149140000Y-127600000D03*
X144060000Y-127600000D03*
D26*
X141520000Y-132680000D03*
%TD*%
D27*
%TO.P,J1,1,Pin_1*%
%TO.N,VS*%
X53600000Y-138600000D03*
X53600000Y-143680000D03*
D28*
%TO.P,J1,2,Pin_2*%
%TO.N,GND*%
X58680000Y-138600000D03*
X58680000Y-143680000D03*
%TO.P,J1,3,Pin_3*%
%TO.N,Net-(J1-Pin_3)*%
X63760000Y-138600000D03*
X63760000Y-143680000D03*
%TO.P,J1,4,Pin_4*%
%TO.N,Net-(J1-Pin_4)*%
X68840000Y-138600000D03*
X68840000Y-143680000D03*
%TO.P,J1,5,Pin_5*%
%TO.N,Net-(J1-Pin_5)*%
X73920000Y-138600000D03*
X73920000Y-143680000D03*
%TO.P,J1,6,Pin_6*%
%TO.N,Net-(J1-Pin_6)*%
X79000000Y-138600000D03*
X79000000Y-143680000D03*
%TO.P,J1,7,Pin_7*%
%TO.N,Net-(D4-K)*%
X84080000Y-138600000D03*
X84080000Y-143680000D03*
%TO.P,J1,8,Pin_8*%
%TO.N,Net-(D5-K)*%
X89160000Y-138600000D03*
X89160000Y-143680000D03*
%TD*%
D27*
%TO.P,J2,1,Pin_1*%
%TO.N,Net-(J2-Pin_1)*%
X97600000Y-138600000D03*
X97600000Y-143680000D03*
D28*
%TO.P,J2,2,Pin_2*%
%TO.N,Net-(J2-Pin_2)*%
X102680000Y-138600000D03*
X102680000Y-143680000D03*
%TO.P,J2,3,Pin_3*%
%TO.N,T1in*%
X107760000Y-138600000D03*
X107760000Y-143680000D03*
%TO.P,J2,4,Pin_4*%
%TO.N,T1bias*%
X112840000Y-138600000D03*
X112840000Y-143680000D03*
%TO.P,J2,5,Pin_5*%
%TO.N,GND*%
X117920000Y-138600000D03*
X117920000Y-143680000D03*
%TO.P,J2,6,Pin_6*%
%TO.N,T2in*%
X123000000Y-138600000D03*
X123000000Y-143680000D03*
%TO.P,J2,7,Pin_7*%
%TO.N,T2bias*%
X128080000Y-138600000D03*
X128080000Y-143680000D03*
%TO.P,J2,8,Pin_8*%
%TO.N,GND*%
X133160000Y-138600000D03*
X133160000Y-143680000D03*
%TD*%
D29*
%TO.P,DS1,*%
%TO.N,*%
X45100900Y-73100000D03*
X45100900Y-104100700D03*
X120099480Y-104100700D03*
X120100000Y-73100000D03*
D30*
%TO.P,DS1,1,VSS*%
%TO.N,GND*%
X50600000Y-73100000D03*
D31*
%TO.P,DS1,2,VDD*%
%TO.N,+5V*%
X53140000Y-73100000D03*
%TO.P,DS1,3,VO*%
%TO.N,Net-(DS1-VO)*%
X55680000Y-73100000D03*
%TO.P,DS1,4,RS*%
%TO.N,DispRS*%
X58220000Y-73100000D03*
%TO.P,DS1,5,R/W*%
%TO.N,DispRW*%
X60760000Y-73100000D03*
%TO.P,DS1,6,E*%
%TO.N,DispE*%
X63300000Y-73100000D03*
%TO.P,DS1,7,D0*%
%TO.N,DispD0*%
X65840000Y-73100000D03*
%TO.P,DS1,8,D1*%
%TO.N,DispD1*%
X68380000Y-73100000D03*
%TO.P,DS1,9,D2*%
%TO.N,DispD2*%
X70920000Y-73100000D03*
%TO.P,DS1,10,D3*%
%TO.N,DispD3*%
X73460000Y-73100000D03*
%TO.P,DS1,11,D4*%
%TO.N,DispD4*%
X76000000Y-73100000D03*
%TO.P,DS1,12,D5*%
%TO.N,DispD5*%
X78540000Y-73100000D03*
%TO.P,DS1,13,D6*%
%TO.N,DispD6*%
X81080000Y-73100000D03*
%TO.P,DS1,14,D7*%
%TO.N,DispD7*%
X83620000Y-73100000D03*
%TO.P,DS1,15,LED(+)*%
%TO.N,+5V*%
X86160000Y-73100000D03*
%TO.P,DS1,16,LED(-)*%
%TO.N,GND*%
X88700000Y-73100000D03*
%TD*%
D11*
%TO.P,C8,1*%
%TO.N,+5VA*%
X155637113Y-94867000D03*
D12*
%TO.P,C8,2*%
%TO.N,GNDA*%
X153137113Y-94867000D03*
%TD*%
D11*
%TO.P,C2,1*%
%TO.N,+12V*%
X49784000Y-131708651D03*
D12*
%TO.P,C2,2*%
%TO.N,GND*%
X49784000Y-129208651D03*
%TD*%
D32*
%TO.P,PS1,1,+Vin*%
%TO.N,+5V*%
X139700000Y-100584000D03*
D33*
%TO.P,PS1,2,-Vin*%
%TO.N,GND*%
X142240000Y-100584000D03*
%TO.P,PS1,4,-Vout*%
%TO.N,-5VA*%
X147320000Y-100584000D03*
%TO.P,PS1,5,0V*%
%TO.N,GNDA*%
X149860000Y-100584000D03*
%TO.P,PS1,6,+Vout*%
%TO.N,+5VA*%
X152400000Y-100584000D03*
%TD*%
D11*
%TO.P,C7,1*%
%TO.N,+5V*%
X139025621Y-94867000D03*
D12*
%TO.P,C7,2*%
%TO.N,GND*%
X141525621Y-94867000D03*
%TD*%
D11*
%TO.P,C9,1*%
%TO.N,GNDA*%
X148502380Y-94867000D03*
D12*
%TO.P,C9,2*%
%TO.N,-5VA*%
X146002380Y-94867000D03*
%TD*%
D11*
%TO.P,C1,1*%
%TO.N,+12V*%
X59944000Y-131708651D03*
D12*
%TO.P,C1,2*%
%TO.N,GND*%
X59944000Y-129208651D03*
%TD*%
D34*
%TO.P,U1,1,~{EN}*%
%TO.N,unconnected-(U1-~{EN}-Pad1)*%
X127000000Y-58420000D03*
D35*
%TO.P,U1,2,D2*%
%TO.N,DispRS*%
X127000000Y-60960000D03*
%TO.P,U1,3,D4*%
%TO.N,DispE*%
X127000000Y-63500000D03*
%TO.P,U1,4,D12*%
%TO.N,DispD1*%
X127000000Y-66040000D03*
%TO.P,U1,5,D13*%
%TO.N,DispD3*%
X127000000Y-68580000D03*
%TO.P,U1,6,D11*%
%TO.N,DispD5*%
X127000000Y-71120000D03*
%TO.P,U1,7,D10*%
%TO.N,DispD7*%
X127000000Y-73660000D03*
%TO.P,U1,8,3V3*%
%TO.N,unconnected-(U1-3V3-Pad8)*%
X127000000Y-76200000D03*
%TO.P,U1,9,Vbus*%
%TO.N,+5V*%
X149860000Y-76200000D03*
%TO.P,U1,10,GND*%
%TO.N,GND*%
X149860000Y-73660000D03*
%TO.P,U1,11,D16*%
%TO.N,SPCK*%
X149860000Y-71120000D03*
%TO.P,U1,12,D18*%
%TO.N,MISO*%
X149860000Y-68580000D03*
%TO.P,U1,13,D35*%
%TO.N,SDA*%
X149860000Y-66040000D03*
%TO.P,U1,14,D36*%
%TO.N,SCK*%
X149860000Y-63500000D03*
%TO.P,U1,15,D44*%
%TO.N,MOSI*%
X149860000Y-60960000D03*
%TO.P,U1,16,D43*%
%TO.N,unconnected-(U1-D43-Pad16)*%
X149860000Y-58420000D03*
%TO.P,U1,17,D1*%
%TO.N,unconnected-(U1-D1-Pad17)*%
X129540000Y-58420000D03*
%TO.P,U1,18,D3*%
%TO.N,DispRW*%
X129540000Y-60960000D03*
%TO.P,U1,19,D5*%
%TO.N,DispD0*%
X129540000Y-63500000D03*
%TO.P,U1,20,D6*%
%TO.N,DispD2*%
X129540000Y-66040000D03*
%TO.P,U1,21,D7*%
%TO.N,DispD4*%
X129540000Y-68580000D03*
%TO.P,U1,22,D8*%
%TO.N,DispD6*%
X129540000Y-71120000D03*
%TO.P,U1,23,D9*%
%TO.N,Rly2*%
X129540000Y-73660000D03*
%TO.P,U1,24,D14*%
%TO.N,Rly1*%
X129540000Y-76200000D03*
%TO.P,U1,25,D15*%
%TO.N,EncPB*%
X147320000Y-76200000D03*
%TO.P,U1,26,GND*%
%TO.N,GND*%
X147320000Y-73660000D03*
%TO.P,U1,27,D17*%
%TO.N,EncA*%
X147320000Y-71120000D03*
%TO.P,U1,28,D21*%
%TO.N,EncB*%
X147320000Y-68580000D03*
%TO.P,U1,29,D34*%
%TO.N,Net-(U1-D34)*%
X147320000Y-66040000D03*
%TO.P,U1,30,D38*%
%TO.N,Net-(U1-D38)*%
X147320000Y-63500000D03*
%TO.P,U1,31,D37*%
%TO.N,Out2d*%
X147320000Y-60960000D03*
%TO.P,U1,32,D33*%
%TO.N,Out1d*%
X147320000Y-58420000D03*
%TD*%
D36*
%TO.P,S1,S2,S2*%
%TO.N,GND*%
X115100000Y-130600000D03*
%TO.P,S1,S1,S1*%
%TO.N,Net-(R47-Pad1)*%
X110100000Y-130600000D03*
D37*
%TO.P,S1,MP*%
%TO.N,N/C*%
X107000000Y-123600000D03*
X118200000Y-123600000D03*
D36*
%TO.P,S1,C,C*%
%TO.N,GND*%
X112600000Y-116100000D03*
%TO.P,S1,B,B*%
%TO.N,Net-(R45-Pad1)*%
X110100000Y-116100000D03*
D34*
%TO.P,S1,A,A*%
%TO.N,Net-(R46-Pad1)*%
X115100000Y-116100000D03*
%TD*%
D38*
%TO.P,R51,1,1*%
%TO.N,GND*%
X60285000Y-64770000D03*
%TO.P,R51,2,2*%
%TO.N,Net-(DS1-VO)*%
X57785000Y-59770000D03*
%TO.P,R51,3,3*%
%TO.N,+5V*%
X55285000Y-64770000D03*
%TD*%
D39*
%TO.P,R47,1*%
%TO.N,Net-(R47-Pad1)*%
X109728000Y-128042000D03*
%TO.P,R47,2*%
%TO.N,+3.3V*%
X109728000Y-124942000D03*
%TD*%
D40*
%TO.P,C29,1*%
%TO.N,EncB*%
X111252000Y-110197500D03*
%TO.P,C29,2*%
%TO.N,GND*%
X111252000Y-113322500D03*
%TD*%
%TO.P,C30,1*%
%TO.N,EncA*%
X113792000Y-110197500D03*
%TO.P,C30,2*%
%TO.N,GND*%
X113792000Y-113322500D03*
%TD*%
%TO.P,C31,1*%
%TO.N,EncPB*%
X114808000Y-124929500D03*
%TO.P,C31,2*%
%TO.N,GND*%
X114808000Y-128054500D03*
%TD*%
D10*
%TO.P,R48,1*%
%TO.N,EncA*%
X116332000Y-110210000D03*
%TO.P,R48,2*%
%TO.N,Net-(R46-Pad1)*%
X116332000Y-113310000D03*
%TD*%
%TO.P,R49,1*%
%TO.N,EncB*%
X108712000Y-110210000D03*
%TO.P,R49,2*%
%TO.N,Net-(R45-Pad1)*%
X108712000Y-113310000D03*
%TD*%
D39*
%TO.P,R50,1*%
%TO.N,Net-(R47-Pad1)*%
X112268000Y-128042000D03*
%TO.P,R50,2*%
%TO.N,EncPB*%
X112268000Y-124942000D03*
%TD*%
D41*
%TO.P,Q1,1,B*%
%TO.N,Net-(Q1-B)*%
X62216000Y-101498000D03*
%TO.P,Q1,2,C*%
%TO.N,Net-(D2-K)*%
X64516000Y-101498000D03*
D42*
X64516000Y-107798000D03*
D41*
%TO.P,Q1,3,E*%
%TO.N,GND*%
X66816000Y-101498000D03*
%TD*%
D43*
%TO.P,C5,1*%
%TO.N,+5V*%
X53632500Y-69215000D03*
%TO.P,C5,2*%
%TO.N,GND*%
X50507500Y-69215000D03*
%TD*%
D44*
%TO.P,D1,1,K*%
%TO.N,+12V*%
X56864000Y-134112000D03*
%TO.P,D1,2,A*%
%TO.N,VS*%
X52864000Y-134112000D03*
%TD*%
D40*
%TO.P,C4,1*%
%TO.N,+5V*%
X60325000Y-114350000D03*
%TO.P,C4,2*%
%TO.N,GND*%
X60325000Y-117475000D03*
%TD*%
D41*
%TO.P,Q3,1,B*%
%TO.N,Net-(Q3-B)*%
X78472000Y-101498000D03*
%TO.P,Q3,2,C*%
%TO.N,Net-(D4-K)*%
X80772000Y-101498000D03*
D42*
X80772000Y-107798000D03*
D41*
%TO.P,Q3,3,E*%
%TO.N,GND*%
X83072000Y-101498000D03*
%TD*%
D45*
%TO.P,D2,1,K*%
%TO.N,Net-(D2-K)*%
X67310000Y-111125000D03*
%TO.P,D2,2,A*%
%TO.N,GND*%
X71310000Y-111125000D03*
%TD*%
D46*
%TO.P,D4,1,K*%
%TO.N,Net-(D4-K)*%
X90932000Y-116808000D03*
%TO.P,D4,2,A*%
%TO.N,GND*%
X90932000Y-112808000D03*
%TD*%
D39*
%TO.P,R12,2*%
%TO.N,Net-(D10-K)*%
X122174000Y-120852000D03*
%TO.P,R12,1*%
%TO.N,+3.3V*%
X122174000Y-123952000D03*
%TD*%
%TO.P,R18,1*%
%TO.N,Net-(D10-K)*%
X127762000Y-123952000D03*
%TO.P,R18,2*%
%TO.N,Net-(U8B--)*%
X127762000Y-120852000D03*
%TD*%
%TO.P,R17,1*%
%TO.N,T1in*%
X118364000Y-130582000D03*
%TO.P,R17,2*%
%TO.N,Net-(U8B-+)*%
X118364000Y-127482000D03*
%TD*%
D47*
%TO.P,D8,1,K*%
%TO.N,In1*%
X94996000Y-123344000D03*
%TO.P,D8,2,A*%
%TO.N,GND*%
X94996000Y-126644000D03*
%TD*%
D48*
%TO.P,D11,1,K*%
%TO.N,T1in*%
X123444000Y-130682000D03*
%TO.P,D11,2,A*%
%TO.N,GND*%
X123444000Y-127382000D03*
%TD*%
D47*
%TO.P,D10,2,A*%
%TO.N,GND*%
X124714000Y-124052000D03*
%TO.P,D10,1,K*%
%TO.N,Net-(D10-K)*%
X124714000Y-120752000D03*
%TD*%
D39*
%TO.P,R22,1*%
%TO.N,Net-(U8A--)*%
X138010500Y-116993000D03*
%TO.P,R22,2*%
%TO.N,T2amp*%
X138010500Y-113893000D03*
%TD*%
D10*
%TO.P,R33,1*%
%TO.N,Rly2*%
X70104000Y-95478000D03*
%TO.P,R33,2*%
%TO.N,Net-(Q2-B)*%
X70104000Y-98578000D03*
%TD*%
D40*
%TO.P,C28,1*%
%TO.N,T2amp*%
X135470500Y-113880500D03*
%TO.P,C28,2*%
%TO.N,Net-(U8A--)*%
X135470500Y-117005500D03*
%TD*%
D10*
%TO.P,R34,1*%
%TO.N,Rly1*%
X61976000Y-95478000D03*
%TO.P,R34,2*%
%TO.N,Net-(Q1-B)*%
X61976000Y-98578000D03*
%TD*%
%TO.P,R11,1*%
%TO.N,+3.3V*%
X120904000Y-127482000D03*
%TO.P,R11,2*%
%TO.N,T1in*%
X120904000Y-130582000D03*
%TD*%
%TO.P,R45,1*%
%TO.N,Net-(R45-Pad1)*%
X109728000Y-118846000D03*
%TO.P,R45,2*%
%TO.N,+3.3V*%
X109728000Y-121946000D03*
%TD*%
%TO.P,R46,1*%
%TO.N,Net-(R46-Pad1)*%
X112268000Y-118846000D03*
%TO.P,R46,2*%
%TO.N,+3.3V*%
X112268000Y-121946000D03*
%TD*%
D39*
%TO.P,R39,1*%
%TO.N,GND*%
X92456000Y-126544000D03*
%TO.P,R39,2*%
%TO.N,In1*%
X92456000Y-123444000D03*
%TD*%
D10*
%TO.P,R35,1*%
%TO.N,In1*%
X97536000Y-123444000D03*
%TO.P,R35,2*%
%TO.N,Net-(J2-Pin_1)*%
X97536000Y-126544000D03*
%TD*%
D47*
%TO.P,D9,1,K*%
%TO.N,In2*%
X100076000Y-123344000D03*
%TO.P,D9,2,A*%
%TO.N,GND*%
X100076000Y-126644000D03*
%TD*%
D49*
%TO.P,R43,1*%
%TO.N,GND*%
X94996000Y-129006000D03*
%TO.P,R43,2*%
%TO.N,Net-(JP1-B)*%
X94996000Y-132106000D03*
%TD*%
D39*
%TO.P,R15,1*%
%TO.N,T1bias*%
X125984000Y-130582000D03*
%TO.P,R15,2*%
%TO.N,Net-(D10-K)*%
X125984000Y-127482000D03*
%TD*%
D41*
%TO.P,Q4,1,B*%
%TO.N,Net-(Q4-B)*%
X86600000Y-101498000D03*
%TO.P,Q4,2,C*%
%TO.N,Net-(D5-K)*%
X88900000Y-101498000D03*
D42*
X88900000Y-107798000D03*
D41*
%TO.P,Q4,3,E*%
%TO.N,GND*%
X91200000Y-101498000D03*
%TD*%
D46*
%TO.P,D5,1,K*%
%TO.N,Net-(D5-K)*%
X96520000Y-116808000D03*
%TO.P,D5,2,A*%
%TO.N,GND*%
X96520000Y-112808000D03*
%TD*%
D40*
%TO.P,C10,1*%
%TO.N,SupV*%
X52832000Y-122897500D03*
%TO.P,C10,2*%
%TO.N,GND*%
X52832000Y-126022500D03*
%TD*%
D50*
%TO.P,JP3,1,A*%
%TO.N,GND*%
X116220000Y-135255000D03*
D51*
%TO.P,JP3,2,B*%
%TO.N,T1bias*%
X114920000Y-135255000D03*
%TD*%
D10*
%TO.P,R36,1*%
%TO.N,In2*%
X102616000Y-123444000D03*
%TO.P,R36,2*%
%TO.N,Net-(J2-Pin_2)*%
X102616000Y-126544000D03*
%TD*%
D50*
%TO.P,JP1,1,A*%
%TO.N,Net-(J2-Pin_1)*%
X95646000Y-134620000D03*
D51*
%TO.P,JP1,2,B*%
%TO.N,Net-(JP1-B)*%
X94346000Y-134620000D03*
%TD*%
D50*
%TO.P,JP2,1,A*%
%TO.N,Net-(J2-Pin_2)*%
X100868000Y-134620000D03*
D51*
%TO.P,JP2,2,B*%
%TO.N,Net-(JP2-B)*%
X99568000Y-134620000D03*
%TD*%
D41*
%TO.P,Q2,1,B*%
%TO.N,Net-(Q2-B)*%
X70344000Y-101498000D03*
%TO.P,Q2,2,C*%
%TO.N,Net-(D3-K)*%
X72644000Y-101498000D03*
D42*
X72644000Y-107798000D03*
D41*
%TO.P,Q2,3,E*%
%TO.N,GND*%
X74944000Y-101498000D03*
%TD*%
D39*
%TO.P,R25,1*%
%TO.N,GND*%
X49784000Y-126010000D03*
%TO.P,R25,2*%
%TO.N,SupV*%
X49784000Y-122910000D03*
%TD*%
D10*
%TO.P,R23,1*%
%TO.N,Net-(R23-Pad1)*%
X46736000Y-127990000D03*
%TO.P,R23,2*%
%TO.N,VS*%
X46736000Y-131090000D03*
%TD*%
%TO.P,R24,1*%
%TO.N,SupV*%
X46736000Y-122910000D03*
%TO.P,R24,2*%
%TO.N,Net-(R23-Pad1)*%
X46736000Y-126010000D03*
%TD*%
D47*
%TO.P,D15,1,K*%
%TO.N,SupV*%
X55880000Y-122810000D03*
%TO.P,D15,2,A*%
%TO.N,GND*%
X55880000Y-126110000D03*
%TD*%
D49*
%TO.P,R44,1*%
%TO.N,GND*%
X100076000Y-129006000D03*
%TO.P,R44,2*%
%TO.N,Net-(JP2-B)*%
X100076000Y-132106000D03*
%TD*%
D48*
%TO.P,D12,1,K*%
%TO.N,Net-(D12-K)*%
X132080000Y-124052000D03*
%TO.P,D12,2,A*%
%TO.N,GND*%
X132080000Y-120752000D03*
%TD*%
D45*
%TO.P,D3,1,K*%
%TO.N,Net-(D3-K)*%
X78740000Y-111125000D03*
%TO.P,D3,2,A*%
%TO.N,GND*%
X82740000Y-111125000D03*
%TD*%
D10*
%TO.P,R40,1*%
%TO.N,GND*%
X102616000Y-117830000D03*
%TO.P,R40,2*%
%TO.N,In2*%
X102616000Y-120930000D03*
%TD*%
D20*
%TO.P,C12,1*%
%TO.N,+3.3V*%
X117282000Y-97400500D03*
%TO.P,C12,2*%
%TO.N,GND*%
X117282000Y-94275500D03*
%TD*%
D40*
%TO.P,C27,1*%
%TO.N,T1amp*%
X121412000Y-113880500D03*
%TO.P,C27,2*%
%TO.N,Net-(U8B--)*%
X121412000Y-117005500D03*
%TD*%
D52*
%TO.P,C6,1*%
%TO.N,+5V*%
X151345500Y-79756000D03*
%TO.P,C6,2*%
%TO.N,GND*%
X154470500Y-79756000D03*
%TD*%
D53*
%TO.P,U5,1*%
%TO.N,/WQ*%
X152335000Y-113411000D03*
%TO.P,U5,2,-*%
X152335000Y-114681000D03*
%TO.P,U5,3,+*%
%TO.N,Net-(U5A-+)*%
X152335000Y-115951000D03*
%TO.P,U5,4,V-*%
%TO.N,-5VA*%
X152335000Y-117221000D03*
%TO.P,U5,5,+*%
%TO.N,Net-(U5B-+)*%
X147385000Y-117221000D03*
%TO.P,U5,6,-*%
%TO.N,Net-(U5B--)*%
X147385000Y-115951000D03*
%TO.P,U5,7*%
%TO.N,Net-(C20-Pad1)*%
X147385000Y-114681000D03*
%TO.P,U5,8,V+*%
%TO.N,+5VA*%
X147385000Y-113411000D03*
%TD*%
D39*
%TO.P,R19,1*%
%TO.N,T2in*%
X131064000Y-130582000D03*
%TO.P,R19,2*%
%TO.N,Net-(U8A-+)*%
X131064000Y-127482000D03*
%TD*%
D43*
%TO.P,C14,1*%
%TO.N,GNDA*%
X149390500Y-97536000D03*
%TO.P,C14,2*%
%TO.N,-5VA*%
X146265500Y-97536000D03*
%TD*%
D10*
%TO.P,R38,1*%
%TO.N,Out2*%
X89916000Y-92938000D03*
%TO.P,R38,2*%
%TO.N,Net-(D5-K)*%
X89916000Y-96038000D03*
%TD*%
D39*
%TO.P,R5,1*%
%TO.N,Net-(U5B--)*%
X144272000Y-116866000D03*
%TO.P,R5,2*%
%TO.N,Net-(C20-Pad1)*%
X144272000Y-113766000D03*
%TD*%
D43*
%TO.P,C16,1*%
%TO.N,/3.3VA*%
X151461000Y-104011000D03*
%TO.P,C16,2*%
%TO.N,GNDA*%
X148336000Y-104011000D03*
%TD*%
D39*
%TO.P,R16,1*%
%TO.N,T2bias*%
X136144000Y-130582000D03*
%TO.P,R16,2*%
%TO.N,Net-(D12-K)*%
X136144000Y-127482000D03*
%TD*%
D43*
%TO.P,C19,1*%
%TO.N,Net-(U5A-+)*%
X155740500Y-126492000D03*
%TO.P,C19,2*%
%TO.N,GNDA*%
X152615500Y-126492000D03*
%TD*%
D39*
%TO.P,R21,1*%
%TO.N,Net-(U8B--)*%
X123952000Y-116993000D03*
%TO.P,R21,2*%
%TO.N,T1amp*%
X123952000Y-113893000D03*
%TD*%
D10*
%TO.P,R42,1*%
%TO.N,GND*%
X89916000Y-87350000D03*
%TO.P,R42,2*%
%TO.N,Out2*%
X89916000Y-90450000D03*
%TD*%
D54*
%TO.P,U4,1,VIN*%
%TO.N,+5VA*%
X154766000Y-106109000D03*
%TO.P,U4,2,GND*%
%TO.N,GNDA*%
X154766000Y-107059000D03*
%TO.P,U4,3,EN*%
%TO.N,unconnected-(U4-EN-Pad3)*%
X154766000Y-108009000D03*
%TO.P,U4,4,NC*%
%TO.N,unconnected-(U4-NC-Pad4)*%
X152066000Y-108009000D03*
%TO.P,U4,5,VOUT*%
%TO.N,/3.3VA*%
X152066000Y-106109000D03*
%TD*%
D50*
%TO.P,JP4,1,A*%
%TO.N,GND*%
X131206000Y-135128000D03*
D51*
%TO.P,JP4,2,B*%
%TO.N,T2bias*%
X129906000Y-135128000D03*
%TD*%
D39*
%TO.P,R29,1*%
%TO.N,Net-(U10-CH5)*%
X104140000Y-105436000D03*
%TO.P,R29,2*%
%TO.N,+3.3V*%
X104140000Y-102336000D03*
%TD*%
D10*
%TO.P,R31,1*%
%TO.N,Out1d*%
X78232000Y-95478000D03*
%TO.P,R31,2*%
%TO.N,Net-(Q3-B)*%
X78232000Y-98578000D03*
%TD*%
D43*
%TO.P,C25,1*%
%TO.N,+3.3V*%
X101130500Y-101346000D03*
%TO.P,C25,2*%
%TO.N,GND*%
X98005500Y-101346000D03*
%TD*%
D15*
%TO.P,R10,1*%
%TO.N,+3.3V*%
X133630000Y-93980000D03*
%TO.P,R10,2*%
%TO.N,SCK*%
X130530000Y-93980000D03*
%TD*%
D53*
%TO.P,U8,1*%
%TO.N,T2amp*%
X132015000Y-113538000D03*
%TO.P,U8,2,-*%
%TO.N,Net-(U8A--)*%
X132015000Y-114808000D03*
%TO.P,U8,3,+*%
%TO.N,Net-(U8A-+)*%
X132015000Y-116078000D03*
%TO.P,U8,4,V-*%
%TO.N,GND*%
X132015000Y-117348000D03*
%TO.P,U8,5,+*%
%TO.N,Net-(U8B-+)*%
X127065000Y-117348000D03*
%TO.P,U8,6,-*%
%TO.N,Net-(U8B--)*%
X127065000Y-116078000D03*
%TO.P,U8,7*%
%TO.N,T1amp*%
X127065000Y-114808000D03*
%TO.P,U8,8,V+*%
%TO.N,+3.3V*%
X127065000Y-113538000D03*
%TD*%
D16*
%TO.P,R2,1*%
%TO.N,Net-(U5B--)*%
X149326000Y-111252000D03*
%TO.P,R2,2*%
%TO.N,/WQ*%
X152426000Y-111252000D03*
%TD*%
%TO.P,R3,1*%
%TO.N,/3.3VA*%
X143738000Y-119380000D03*
%TO.P,R3,2*%
%TO.N,Net-(U5B-+)*%
X146838000Y-119380000D03*
%TD*%
D48*
%TO.P,D7,1,K*%
%TO.N,Out2*%
X86360000Y-90550000D03*
%TO.P,D7,2,A*%
%TO.N,GND*%
X86360000Y-87250000D03*
%TD*%
%TO.P,D6,1,K*%
%TO.N,Out1*%
X82296000Y-90550000D03*
%TO.P,D6,2,A*%
%TO.N,GND*%
X82296000Y-87250000D03*
%TD*%
D43*
%TO.P,C13,1*%
%TO.N,+5VA*%
X155486500Y-97536000D03*
%TO.P,C13,2*%
%TO.N,GNDA*%
X152361500Y-97536000D03*
%TD*%
D10*
%TO.P,R37,1*%
%TO.N,Out1*%
X82296000Y-92938000D03*
%TO.P,R37,2*%
%TO.N,Net-(D4-K)*%
X82296000Y-96038000D03*
%TD*%
D15*
%TO.P,R1,1*%
%TO.N,Net-(U5A-+)*%
X155728000Y-123698000D03*
%TO.P,R1,2*%
%TO.N,Net-(J3-In)*%
X152628000Y-123698000D03*
%TD*%
D48*
%TO.P,D13,1,K*%
%TO.N,T2in*%
X133604000Y-130682000D03*
%TO.P,D13,2,A*%
%TO.N,GND*%
X133604000Y-127382000D03*
%TD*%
D39*
%TO.P,R20,1*%
%TO.N,Net-(D12-K)*%
X137160000Y-123952000D03*
%TO.P,R20,2*%
%TO.N,Net-(U8A--)*%
X137160000Y-120852000D03*
%TD*%
D15*
%TO.P,R9,1*%
%TO.N,+3.3V*%
X133630000Y-91440000D03*
%TO.P,R9,2*%
%TO.N,SDA*%
X130530000Y-91440000D03*
%TD*%
D10*
%TO.P,R41,1*%
%TO.N,GND*%
X79248000Y-87350000D03*
%TO.P,R41,2*%
%TO.N,Out1*%
X79248000Y-90450000D03*
%TD*%
D55*
%TO.P,U7,1,VCC1*%
%TO.N,/3.3VA*%
X133477000Y-102143000D03*
%TO.P,U7,2,SDA1*%
%TO.N,Net-(U6-SDA)*%
X132207000Y-102143000D03*
%TO.P,U7,3,SCL1*%
%TO.N,Net-(U6-SCL)*%
X130937000Y-102143000D03*
%TO.P,U7,4,GND1*%
%TO.N,GNDA*%
X129667000Y-102143000D03*
%TO.P,U7,5,GND2*%
%TO.N,GND*%
X129667000Y-96993000D03*
%TO.P,U7,6,SCL2*%
%TO.N,SCK*%
X130937000Y-96993000D03*
%TO.P,U7,7,SDA2*%
%TO.N,SDA*%
X132207000Y-96993000D03*
%TO.P,U7,8,VCC2*%
%TO.N,+3.3V*%
X133477000Y-96993000D03*
%TD*%
D56*
%TO.P,U3,1,VIN*%
%TO.N,+5V*%
X119888000Y-94488000D03*
%TO.P,U3,2,GND*%
%TO.N,GND*%
X120838000Y-94488000D03*
%TO.P,U3,3,EN*%
%TO.N,unconnected-(U3-EN-Pad3)*%
X121788000Y-94488000D03*
%TO.P,U3,4,NC*%
%TO.N,unconnected-(U3-NC-Pad4)*%
X121788000Y-97188000D03*
%TO.P,U3,5,VOUT*%
%TO.N,+3.3V*%
X119888000Y-97188000D03*
%TD*%
D40*
%TO.P,C21,1*%
%TO.N,Net-(D14-K)*%
X141732000Y-108165500D03*
%TO.P,C21,2*%
%TO.N,GNDA*%
X141732000Y-111290500D03*
%TD*%
D52*
%TO.P,C18,1*%
%TO.N,+5VA*%
X149313500Y-119380000D03*
%TO.P,C18,2*%
%TO.N,-5VA*%
X152438500Y-119380000D03*
%TD*%
D20*
%TO.P,C17,1*%
%TO.N,/3.3VA*%
X136144000Y-102146500D03*
%TO.P,C17,2*%
%TO.N,GNDA*%
X136144000Y-99021500D03*
%TD*%
D39*
%TO.P,R7,1*%
%TO.N,/3.3VA*%
X126544000Y-101626000D03*
%TO.P,R7,2*%
%TO.N,Net-(U6-SDA)*%
X126544000Y-98526000D03*
%TD*%
D20*
%TO.P,C22,1*%
%TO.N,+3.3V*%
X136144000Y-94018500D03*
%TO.P,C22,2*%
%TO.N,GND*%
X136144000Y-90893500D03*
%TD*%
D52*
%TO.P,C11,1*%
%TO.N,+5V*%
X118767500Y-90758000D03*
%TO.P,C11,2*%
%TO.N,GND*%
X121892500Y-90758000D03*
%TD*%
D57*
%TO.P,R30,1*%
%TO.N,Net-(U10-CH5)*%
X109220000Y-104886000D03*
%TO.P,R30,2*%
%TO.N,GND*%
X109220000Y-102886000D03*
%TD*%
D10*
%TO.P,R6,1*%
%TO.N,Net-(D14-K)*%
X144272000Y-108178000D03*
%TO.P,R6,2*%
%TO.N,Net-(C20-Pad1)*%
X144272000Y-111278000D03*
%TD*%
D20*
%TO.P,C24,1*%
%TO.N,Net-(U10-CH5)*%
X106680000Y-105448500D03*
%TO.P,C24,2*%
%TO.N,GND*%
X106680000Y-102323500D03*
%TD*%
D47*
%TO.P,D14,1,K*%
%TO.N,Net-(D14-K)*%
X139192000Y-108078000D03*
%TO.P,D14,2,A*%
%TO.N,GNDA*%
X139192000Y-111378000D03*
%TD*%
D10*
%TO.P,R14,1*%
%TO.N,+3.3V*%
X134620000Y-120852000D03*
%TO.P,R14,2*%
%TO.N,Net-(D12-K)*%
X134620000Y-123952000D03*
%TD*%
D16*
%TO.P,R8,1*%
%TO.N,/3.3VA*%
X126492000Y-104648000D03*
%TO.P,R8,2*%
%TO.N,Net-(U6-SCL)*%
X129592000Y-104648000D03*
%TD*%
D54*
%TO.P,U6,1,Vdd*%
%TO.N,/3.3VA*%
X136144000Y-105222000D03*
%TO.P,U6,2,Vss*%
%TO.N,GNDA*%
X136144000Y-106172000D03*
%TO.P,U6,3,Ain*%
%TO.N,Net-(D14-K)*%
X136144000Y-107122000D03*
%TO.P,U6,4,SCL*%
%TO.N,Net-(U6-SCL)*%
X133444000Y-107122000D03*
%TO.P,U6,5,SDA*%
%TO.N,Net-(U6-SDA)*%
X133444000Y-105222000D03*
%TD*%
D52*
%TO.P,C26,1*%
%TO.N,+3.3V*%
X127977500Y-111379000D03*
%TO.P,C26,2*%
%TO.N,GND*%
X131102500Y-111379000D03*
%TD*%
D10*
%TO.P,R32,1*%
%TO.N,Out2d*%
X86360000Y-95478000D03*
%TO.P,R32,2*%
%TO.N,Net-(Q4-B)*%
X86360000Y-98578000D03*
%TD*%
D15*
%TO.P,R4,1*%
%TO.N,Net-(U5B-+)*%
X146838000Y-121920000D03*
%TO.P,R4,2*%
%TO.N,GNDA*%
X143738000Y-121920000D03*
%TD*%
D40*
%TO.P,C20,1*%
%TO.N,Net-(C20-Pad1)*%
X141732000Y-113753500D03*
%TO.P,C20,2*%
%TO.N,Net-(U5B--)*%
X141732000Y-116878500D03*
%TD*%
D52*
%TO.P,C15,1*%
%TO.N,+5VA*%
X153924000Y-104011000D03*
%TO.P,C15,2*%
%TO.N,GNDA*%
X157049000Y-104011000D03*
%TD*%
D58*
%TO.N,SDA*%
X145796000Y-78740000D03*
%TO.N,SCK*%
X143764000Y-78740000D03*
%TO.N,+3.3V*%
X107696000Y-91440000D03*
%TO.N,GND*%
X107696000Y-93980000D03*
%TO.N,Net-(U10-CH5)*%
X99568000Y-95758000D03*
X95504000Y-93726000D03*
%TO.N,GND*%
X106680000Y-100838000D03*
X104648000Y-96774000D03*
X98044000Y-103378000D03*
%TO.N,SupV*%
X99568000Y-85344000D03*
%TO.N,GNDA*%
X138684000Y-106172000D03*
X136144000Y-100584000D03*
X128559000Y-102143000D03*
X156972000Y-107059000D03*
X139192000Y-109728000D03*
%TO.N,GND*%
X120838000Y-92456000D03*
X91948000Y-87376000D03*
X128524000Y-97028000D03*
X133604000Y-125984000D03*
X87376000Y-111252000D03*
X132588000Y-111379000D03*
X73660000Y-111252000D03*
X102616000Y-88900000D03*
X74944000Y-99300000D03*
X104648000Y-117856000D03*
X117348000Y-92456000D03*
X92482000Y-129006000D03*
X137922000Y-90932000D03*
X66816000Y-99328000D03*
X132080000Y-118872000D03*
X83072000Y-99300000D03*
X100076000Y-124968000D03*
X91200000Y-99300000D03*
X124714000Y-125476000D03*
X96520000Y-110744000D03*
%TO.N,+5VA*%
X147392500Y-110236000D03*
X151892000Y-109220000D03*
X149352000Y-117094000D03*
%TO.N,+5V*%
X111252000Y-87884000D03*
X106172000Y-79248000D03*
%TO.N,+3.3V*%
X134620000Y-118872000D03*
X125984000Y-111252000D03*
X117348000Y-96012000D03*
X129540000Y-115316000D03*
X135128000Y-96012000D03*
X119307500Y-111252000D03*
X102616000Y-100330000D03*
X124968000Y-94996000D03*
%TO.N,/3.3VA*%
X146304000Y-111760000D03*
X143764000Y-106172000D03*
X145288000Y-119380000D03*
X128016000Y-104648000D03*
X150368000Y-106172000D03*
X134620000Y-103632000D03*
%TO.N,T1amp*%
X121412000Y-108712000D03*
%TO.N,T2amp*%
X122936000Y-109728000D03*
%TO.N,EncB*%
X113792000Y-83820000D03*
X113792000Y-89408000D03*
%TO.N,EncA*%
X116332000Y-85344000D03*
X116332000Y-89408000D03*
%TO.N,EncPB*%
X126492000Y-90424000D03*
X126492000Y-87376000D03*
%TO.N,Out2d*%
X84836000Y-94488000D03*
X92202000Y-90678000D03*
%TO.N,SupV*%
X54864000Y-90932000D03*
X58928000Y-90932000D03*
X99568000Y-79248000D03*
%TO.N,SDA*%
X137160000Y-87376000D03*
X132080000Y-90424000D03*
%TO.N,Net-(U8B-+)*%
X127254000Y-118872000D03*
X122936000Y-118872000D03*
%TO.N,SCK*%
X135128000Y-87376000D03*
X128524000Y-90424000D03*
%TD*%
D59*
%TO.N,+3.3V*%
X129540000Y-120142000D02*
X128778000Y-119380000D01*
X128778000Y-119380000D02*
X128778000Y-116078000D01*
X129540000Y-124968000D02*
X129540000Y-120142000D01*
X128524000Y-125984000D02*
X129540000Y-124968000D01*
X128524000Y-127482000D02*
X128524000Y-125984000D01*
X128778000Y-116078000D02*
X129540000Y-115316000D01*
%TO.N,Net-(U8B-+)*%
X127254000Y-118872000D02*
X127065000Y-118683000D01*
X127065000Y-118683000D02*
X127065000Y-117348000D01*
%TO.N,Net-(U8B--)*%
X127456000Y-120852000D02*
X127762000Y-120852000D01*
X125476000Y-118872000D02*
X127456000Y-120852000D01*
X124206000Y-118110000D02*
X124968000Y-118872000D01*
X124206000Y-117247000D02*
X124206000Y-118110000D01*
X124968000Y-118872000D02*
X125476000Y-118872000D01*
X123952000Y-116993000D02*
X124206000Y-117247000D01*
%TO.N,Net-(D10-K)*%
X127762000Y-123952000D02*
X125984000Y-123952000D01*
X125984000Y-123952000D02*
X125984000Y-123190000D01*
X125984000Y-127482000D02*
X125984000Y-123952000D01*
X124714000Y-121920000D02*
X124714000Y-120752000D01*
X125984000Y-123190000D02*
X124714000Y-121920000D01*
%TO.N,GND*%
X123444000Y-126746000D02*
X123444000Y-127382000D01*
X124714000Y-125476000D02*
X123444000Y-126746000D01*
X124714000Y-125476000D02*
X124714000Y-124052000D01*
%TO.N,+3.3V*%
X121412000Y-125726157D02*
X122177843Y-124960314D01*
X121412000Y-125730000D02*
X121412000Y-125726157D01*
X120904000Y-126238000D02*
X121412000Y-125730000D01*
X120904000Y-127482000D02*
X120904000Y-126238000D01*
%TO.N,Net-(U8B-+)*%
X118364000Y-126492000D02*
X118364000Y-127482000D01*
X120396000Y-120142000D02*
X120396000Y-124460000D01*
X121666000Y-118872000D02*
X120396000Y-120142000D01*
X122936000Y-118872000D02*
X121666000Y-118872000D01*
X120396000Y-124460000D02*
X118364000Y-126492000D01*
%TO.N,GND*%
X137883500Y-90893500D02*
X136144000Y-90893500D01*
X137922000Y-90932000D02*
X137883500Y-90893500D01*
%TO.N,Net-(D16-K)*%
X158496000Y-67310000D02*
X158496000Y-71120000D01*
X157226000Y-66040000D02*
X158496000Y-67310000D01*
X155474000Y-66040000D02*
X157226000Y-66040000D01*
%TO.N,Net-(D16-A1)*%
X153924000Y-69088000D02*
X154432000Y-68580000D01*
X154432000Y-68580000D02*
X155474000Y-68580000D01*
X153924000Y-70612000D02*
X153924000Y-69088000D01*
X153416000Y-71120000D02*
X153924000Y-70612000D01*
%TO.N,Net-(U1-D38)*%
X151024500Y-64690500D02*
X152374000Y-66040000D01*
X148510500Y-64690500D02*
X151024500Y-64690500D01*
X147320000Y-63500000D02*
X148510500Y-64690500D01*
%TO.N,Net-(U1-D34)*%
X148510500Y-67230500D02*
X151024500Y-67230500D01*
X151024500Y-67230500D02*
X152374000Y-68580000D01*
X147320000Y-66040000D02*
X148510500Y-67230500D01*
D60*
%TO.N,GND*%
X155956000Y-79756000D02*
X156972000Y-78740000D01*
X156972000Y-78740000D02*
X156972000Y-77216000D01*
X154470500Y-79756000D02*
X155956000Y-79756000D01*
%TO.N,+5V*%
X151345500Y-79756000D02*
X149860000Y-79756000D01*
X149860000Y-79756000D02*
X149860000Y-87884000D01*
X149860000Y-76200000D02*
X149860000Y-79756000D01*
X153456000Y-76200000D02*
X154472000Y-77216000D01*
X149860000Y-76200000D02*
X153456000Y-76200000D01*
D59*
%TO.N,Net-(J3-In)*%
X148590000Y-123698000D02*
X152628000Y-123698000D01*
X146600000Y-125688000D02*
X148590000Y-123698000D01*
X146600000Y-127600000D02*
X146600000Y-125688000D01*
%TO.N,Net-(U5A-+)*%
X155728000Y-117120000D02*
X155728000Y-123698000D01*
X152335000Y-115951000D02*
X154559000Y-115951000D01*
X154559000Y-115951000D02*
X155728000Y-117120000D01*
%TO.N,GNDA*%
X150114000Y-126492000D02*
X152615500Y-126492000D01*
X149140000Y-127466000D02*
X150114000Y-126492000D01*
X149140000Y-127600000D02*
X149140000Y-127466000D01*
%TO.N,Net-(U5A-+)*%
X155728000Y-126479500D02*
X155740500Y-126492000D01*
X155728000Y-123698000D02*
X155728000Y-126479500D01*
%TO.N,/WQ*%
X152426000Y-111252000D02*
X157480000Y-111252000D01*
%TO.N,EncPB*%
X126492000Y-87376000D02*
X133096000Y-87376000D01*
X133096000Y-87376000D02*
X144272000Y-76200000D01*
X144272000Y-76200000D02*
X147320000Y-76200000D01*
%TO.N,SPCK*%
X104267000Y-95377000D02*
X102551000Y-95377000D01*
X106172000Y-93472000D02*
X104267000Y-95377000D01*
X106172000Y-90424000D02*
X106172000Y-93472000D01*
X110236000Y-86360000D02*
X106172000Y-90424000D01*
X117856000Y-85852000D02*
X117348000Y-86360000D01*
X132969000Y-85852000D02*
X117856000Y-85852000D01*
X148590000Y-72390000D02*
X146431000Y-72390000D01*
X117348000Y-86360000D02*
X110236000Y-86360000D01*
X149860000Y-71120000D02*
X148590000Y-72390000D01*
X146431000Y-72390000D02*
X132969000Y-85852000D01*
%TO.N,EncA*%
X116840000Y-84836000D02*
X116332000Y-85344000D01*
X132334000Y-84836000D02*
X116840000Y-84836000D01*
X146050000Y-71120000D02*
X132334000Y-84836000D01*
X147320000Y-71120000D02*
X146050000Y-71120000D01*
%TO.N,MISO*%
X148590000Y-69850000D02*
X149860000Y-68580000D01*
X145796000Y-69850000D02*
X148590000Y-69850000D01*
X109728000Y-85344000D02*
X114300000Y-85344000D01*
X115824000Y-83820000D02*
X131826000Y-83820000D01*
X105156000Y-89916000D02*
X109728000Y-85344000D01*
X131826000Y-83820000D02*
X145796000Y-69850000D01*
X105156000Y-92964000D02*
X105156000Y-89916000D01*
X114300000Y-85344000D02*
X115824000Y-83820000D01*
X104013000Y-94107000D02*
X105156000Y-92964000D01*
X102551000Y-94107000D02*
X104013000Y-94107000D01*
%TO.N,EncB*%
X145542000Y-68580000D02*
X147320000Y-68580000D01*
X131318000Y-82804000D02*
X145542000Y-68580000D01*
X114808000Y-82804000D02*
X131318000Y-82804000D01*
X113792000Y-83820000D02*
X114808000Y-82804000D01*
%TO.N,MOSI*%
X148590000Y-62230000D02*
X149860000Y-60960000D01*
X144526000Y-62230000D02*
X148590000Y-62230000D01*
X130810000Y-81788000D02*
X139773000Y-72825000D01*
X111760000Y-81788000D02*
X130810000Y-81788000D01*
X104140000Y-92456000D02*
X104140000Y-89408000D01*
X103759000Y-92837000D02*
X104140000Y-92456000D01*
X104140000Y-89408000D02*
X111760000Y-81788000D01*
X102551000Y-92837000D02*
X103759000Y-92837000D01*
X139773000Y-72825000D02*
X139773000Y-66983000D01*
X139773000Y-66983000D02*
X144526000Y-62230000D01*
%TO.N,SCK*%
X135128000Y-87376000D02*
X143789400Y-78714600D01*
%TO.N,SDA*%
X145796000Y-78740000D02*
X137160000Y-87376000D01*
%TO.N,EncA*%
X113792000Y-107188000D02*
X113792000Y-110197500D01*
X114808000Y-90932000D02*
X114808000Y-106172000D01*
X116332000Y-89408000D02*
X114808000Y-90932000D01*
X114808000Y-106172000D02*
X113792000Y-107188000D01*
D60*
%TO.N,+5V*%
X157480000Y-87884000D02*
X149860000Y-87884000D01*
X149860000Y-87884000D02*
X148844000Y-88900000D01*
X148844000Y-88900000D02*
X139192000Y-88900000D01*
D59*
X139025621Y-89066379D02*
X139025621Y-94867000D01*
D60*
X123860896Y-87884000D02*
X111252000Y-87884000D01*
D59*
X139192000Y-88900000D02*
X139025621Y-89066379D01*
D60*
X139192000Y-88900000D02*
X124876896Y-88900000D01*
X124876896Y-88900000D02*
X123860896Y-87884000D01*
D59*
%TO.N,SDA*%
X132080000Y-91440000D02*
X132080000Y-90424000D01*
%TO.N,SCK*%
X129540000Y-93980000D02*
X130530000Y-93980000D01*
X128524000Y-92964000D02*
X129540000Y-93980000D01*
X128524000Y-90424000D02*
X128524000Y-92964000D01*
%TO.N,EncPB*%
X114808000Y-122936000D02*
X114808000Y-124929500D01*
X119380000Y-112776000D02*
X119380000Y-118364000D01*
X120396000Y-111760000D02*
X119380000Y-112776000D01*
X120396000Y-109220000D02*
X120396000Y-111760000D01*
X116840000Y-105664000D02*
X120396000Y-109220000D01*
X116840000Y-102108000D02*
X116840000Y-105664000D01*
X118872000Y-100076000D02*
X116840000Y-102108000D01*
X122936000Y-100076000D02*
X118872000Y-100076000D01*
X124460000Y-98552000D02*
X122936000Y-100076000D01*
X124968000Y-96520000D02*
X124460000Y-97028000D01*
X126492000Y-90424000D02*
X126492000Y-96012000D01*
X119380000Y-118364000D02*
X114808000Y-122936000D01*
X125984000Y-96520000D02*
X124968000Y-96520000D01*
X124460000Y-97028000D02*
X124460000Y-98552000D01*
X126492000Y-96012000D02*
X125984000Y-96520000D01*
%TO.N,Rly2*%
X131064000Y-73660000D02*
X129540000Y-73660000D01*
X131572000Y-74168000D02*
X131064000Y-73660000D01*
X131572000Y-76708000D02*
X131572000Y-74168000D01*
X110236000Y-78740000D02*
X129540000Y-78740000D01*
X107188000Y-81788000D02*
X110236000Y-78740000D01*
X129540000Y-78740000D02*
X131572000Y-76708000D01*
X77724000Y-81788000D02*
X107188000Y-81788000D01*
X70104000Y-89408000D02*
X77724000Y-81788000D01*
X70104000Y-95478000D02*
X70104000Y-89408000D01*
%TO.N,Out2d*%
X144272000Y-60960000D02*
X147320000Y-60960000D01*
X138684000Y-66548000D02*
X144272000Y-60960000D01*
X138684000Y-72517000D02*
X138684000Y-66548000D01*
X130429000Y-80772000D02*
X138684000Y-72517000D01*
X94996000Y-83820000D02*
X108204000Y-83820000D01*
X93472000Y-85344000D02*
X94996000Y-83820000D01*
X93472000Y-87822389D02*
X93472000Y-85344000D01*
X108204000Y-83820000D02*
X111252000Y-80772000D01*
X111252000Y-80772000D02*
X130429000Y-80772000D01*
X92202000Y-89092389D02*
X93472000Y-87822389D01*
X92202000Y-90678000D02*
X92202000Y-89092389D01*
%TO.N,Out1d*%
X145288000Y-58420000D02*
X147320000Y-58420000D01*
X137668000Y-66040000D02*
X145288000Y-58420000D01*
X137668000Y-72136000D02*
X137668000Y-66040000D01*
X130048000Y-79756000D02*
X137668000Y-72136000D01*
X110744000Y-79756000D02*
X130048000Y-79756000D01*
X78232000Y-82804000D02*
X107696000Y-82804000D01*
X107696000Y-82804000D02*
X110744000Y-79756000D01*
X75184000Y-90424000D02*
X75184000Y-85852000D01*
X75184000Y-85852000D02*
X78232000Y-82804000D01*
X78232000Y-95478000D02*
X78232000Y-93472000D01*
X78232000Y-93472000D02*
X75184000Y-90424000D01*
%TO.N,DispRS*%
X58220000Y-70812000D02*
X58220000Y-73100000D01*
X70104000Y-58928000D02*
X58220000Y-70812000D01*
X123698000Y-58928000D02*
X70104000Y-58928000D01*
X125730000Y-60960000D02*
X123698000Y-58928000D01*
X127000000Y-60960000D02*
X125730000Y-60960000D01*
%TO.N,DispRW*%
X60760000Y-70812000D02*
X60760000Y-73100000D01*
X123444000Y-59944000D02*
X71628000Y-59944000D01*
X125714000Y-62214000D02*
X123444000Y-59944000D01*
X71628000Y-59944000D02*
X60760000Y-70812000D01*
X128286000Y-62214000D02*
X125714000Y-62214000D01*
X129540000Y-60960000D02*
X128286000Y-62214000D01*
%TO.N,DispE*%
X63300000Y-70812000D02*
X63300000Y-73100000D01*
X122936000Y-60960000D02*
X73152000Y-60960000D01*
X125476000Y-63500000D02*
X122936000Y-60960000D01*
X73152000Y-60960000D02*
X63300000Y-70812000D01*
X127000000Y-63500000D02*
X125476000Y-63500000D01*
%TO.N,DispD0*%
X74676000Y-61976000D02*
X65840000Y-70812000D01*
X122428000Y-61976000D02*
X74676000Y-61976000D01*
X65840000Y-70812000D02*
X65840000Y-73100000D01*
X125206000Y-64754000D02*
X122428000Y-61976000D01*
X129540000Y-63500000D02*
X128286000Y-64754000D01*
X128286000Y-64754000D02*
X125206000Y-64754000D01*
%TO.N,DispD1*%
X68380000Y-70812000D02*
X68380000Y-73100000D01*
X76200000Y-62992000D02*
X68380000Y-70812000D01*
X121920000Y-62992000D02*
X76200000Y-62992000D01*
X124968000Y-66040000D02*
X121920000Y-62992000D01*
X127000000Y-66040000D02*
X124968000Y-66040000D01*
%TO.N,DispD2*%
X70920000Y-70812000D02*
X70920000Y-73100000D01*
X77724000Y-64008000D02*
X70920000Y-70812000D01*
X121412000Y-64008000D02*
X77724000Y-64008000D01*
X124698000Y-67294000D02*
X121412000Y-64008000D01*
X128286000Y-67294000D02*
X124698000Y-67294000D01*
X129540000Y-66040000D02*
X128286000Y-67294000D01*
%TO.N,DispD3*%
X73460000Y-70812000D02*
X73460000Y-73100000D01*
X79248000Y-65024000D02*
X73460000Y-70812000D01*
X120904000Y-65024000D02*
X79248000Y-65024000D01*
X124460000Y-68580000D02*
X120904000Y-65024000D01*
X127000000Y-68580000D02*
X124460000Y-68580000D01*
%TO.N,DispD4*%
X120396000Y-66040000D02*
X80772000Y-66040000D01*
X124190000Y-69834000D02*
X120396000Y-66040000D01*
X76000000Y-70812000D02*
X76000000Y-73100000D01*
X128286000Y-69834000D02*
X124190000Y-69834000D01*
X129540000Y-68580000D02*
X128286000Y-69834000D01*
X80772000Y-66040000D02*
X76000000Y-70812000D01*
%TO.N,DispD5*%
X78540000Y-70812000D02*
X78540000Y-73100000D01*
X82296000Y-67056000D02*
X78540000Y-70812000D01*
X119888000Y-67056000D02*
X82296000Y-67056000D01*
X123952000Y-71120000D02*
X119888000Y-67056000D01*
X127000000Y-71120000D02*
X123952000Y-71120000D01*
%TO.N,DispD6*%
X83820000Y-68072000D02*
X81080000Y-70812000D01*
X119380000Y-68072000D02*
X83820000Y-68072000D01*
X123714000Y-72406000D02*
X119380000Y-68072000D01*
X128254000Y-72406000D02*
X123714000Y-72406000D01*
X81080000Y-70812000D02*
X81080000Y-73100000D01*
X129540000Y-71120000D02*
X128254000Y-72406000D01*
%TO.N,DispD7*%
X109728000Y-69088000D02*
X85344000Y-69088000D01*
X122428000Y-76708000D02*
X117348000Y-76708000D01*
X125476000Y-73660000D02*
X122428000Y-76708000D01*
X85344000Y-69088000D02*
X83620000Y-70812000D01*
X127000000Y-73660000D02*
X125476000Y-73660000D01*
X117348000Y-76708000D02*
X109728000Y-69088000D01*
X83620000Y-70812000D02*
X83620000Y-73100000D01*
%TO.N,Rly1*%
X128016000Y-77724000D02*
X129540000Y-76200000D01*
X109728000Y-77724000D02*
X128016000Y-77724000D01*
X106680000Y-80772000D02*
X109728000Y-77724000D01*
X61976000Y-95478000D02*
X61976000Y-89408000D01*
X61976000Y-89408000D02*
X70612000Y-80772000D01*
X70612000Y-80772000D02*
X106680000Y-80772000D01*
D60*
%TO.N,+5V*%
X106172000Y-79248000D02*
X104648000Y-77724000D01*
X104648000Y-77724000D02*
X86160000Y-77724000D01*
D59*
%TO.N,SupV*%
X99187000Y-94107000D02*
X97601000Y-94107000D01*
X99568000Y-93726000D02*
X99187000Y-94107000D01*
X99568000Y-85344000D02*
X99568000Y-93726000D01*
X99568000Y-79248000D02*
X70612000Y-79248000D01*
X70612000Y-79248000D02*
X58928000Y-90932000D01*
%TO.N,GND*%
X105448500Y-95973500D02*
X104648000Y-96774000D01*
X106680000Y-95973500D02*
X105448500Y-95973500D01*
%TO.N,+3.3V*%
X109194000Y-91440000D02*
X107696000Y-91440000D01*
%TO.N,GND*%
X109194000Y-93980000D02*
X107696000Y-93980000D01*
%TO.N,Net-(U10-Vref)*%
X107797000Y-97917000D02*
X109194000Y-96520000D01*
X110744000Y-96012000D02*
X110236000Y-96520000D01*
X110236000Y-96520000D02*
X109194000Y-96520000D01*
X110744000Y-91948000D02*
X110744000Y-96012000D01*
X111252000Y-91440000D02*
X110744000Y-91948000D01*
X112294000Y-91440000D02*
X111252000Y-91440000D01*
%TO.N,Net-(U9-REF)*%
X112294000Y-96520000D02*
X112294000Y-93980000D01*
X112202000Y-96612000D02*
X112294000Y-96520000D01*
X112202000Y-99138500D02*
X112202000Y-96612000D01*
%TO.N,Net-(U10-Vref)*%
X106720000Y-99138500D02*
X106680000Y-99098500D01*
X110302000Y-99138500D02*
X106720000Y-99138500D01*
X106680000Y-99098500D02*
X106680000Y-97917000D01*
X102551000Y-97917000D02*
X106680000Y-97917000D01*
X106680000Y-97917000D02*
X107797000Y-97917000D01*
%TO.N,GND*%
X111076500Y-100838000D02*
X111252000Y-101013500D01*
X106680000Y-100838000D02*
X111076500Y-100838000D01*
X102551000Y-88965000D02*
X102616000Y-88900000D01*
X102551000Y-90297000D02*
X102551000Y-88965000D01*
%TO.N,Out1*%
X94869000Y-91567000D02*
X97601000Y-91567000D01*
X82322000Y-92964000D02*
X86868000Y-92964000D01*
X86868000Y-92964000D02*
X88392000Y-94488000D01*
X82296000Y-92938000D02*
X82322000Y-92964000D01*
X88392000Y-94488000D02*
X91948000Y-94488000D01*
X91948000Y-94488000D02*
X94869000Y-91567000D01*
%TO.N,Out2*%
X91974000Y-92938000D02*
X94615000Y-90297000D01*
X89916000Y-92938000D02*
X91974000Y-92938000D01*
X94615000Y-90297000D02*
X97601000Y-90297000D01*
%TO.N,T1amp*%
X96012000Y-99822000D02*
X96647000Y-99187000D01*
X96012000Y-103124000D02*
X96012000Y-99822000D01*
X104648000Y-108712000D02*
X101600000Y-108712000D01*
X101600000Y-108712000D02*
X96012000Y-103124000D01*
X96647000Y-99187000D02*
X97601000Y-99187000D01*
%TO.N,T2amp*%
X95885000Y-97917000D02*
X97601000Y-97917000D01*
X94996000Y-103632000D02*
X94996000Y-98806000D01*
X101600000Y-111252000D02*
X101600000Y-110236000D01*
X101600000Y-110236000D02*
X94996000Y-103632000D01*
X102616000Y-112268000D02*
X101600000Y-111252000D01*
X94996000Y-98806000D02*
X95885000Y-97917000D01*
X104648000Y-112268000D02*
X102616000Y-112268000D01*
%TO.N,In2*%
X99568000Y-109728000D02*
X93980000Y-104140000D01*
X95631000Y-96647000D02*
X97601000Y-96647000D01*
X99568000Y-119380000D02*
X99568000Y-109728000D01*
X102616000Y-120930000D02*
X101118000Y-120930000D01*
X101118000Y-120930000D02*
X99568000Y-119380000D01*
X93980000Y-104140000D02*
X93980000Y-98298000D01*
X93980000Y-98298000D02*
X95631000Y-96647000D01*
%TO.N,In1*%
X95377000Y-95377000D02*
X97601000Y-95377000D01*
X92964000Y-97790000D02*
X95377000Y-95377000D01*
X98552000Y-110236000D02*
X92964000Y-104648000D01*
X92964000Y-104648000D02*
X92964000Y-97790000D01*
X97536000Y-120396000D02*
X98552000Y-119380000D01*
X97536000Y-123444000D02*
X97536000Y-120396000D01*
X98552000Y-119380000D02*
X98552000Y-110236000D01*
%TO.N,GND*%
X98005500Y-103339500D02*
X98044000Y-103378000D01*
X98005500Y-101346000D02*
X98005500Y-103339500D01*
%TO.N,Net-(U10-CH5)*%
X96393000Y-92837000D02*
X97601000Y-92837000D01*
X95504000Y-93726000D02*
X96393000Y-92837000D01*
X99568000Y-95758000D02*
X99568000Y-103378000D01*
X101600000Y-105410000D02*
X104114000Y-105410000D01*
X104114000Y-105410000D02*
X104140000Y-105436000D01*
X99568000Y-103378000D02*
X101600000Y-105410000D01*
X108657500Y-105448500D02*
X109220000Y-104886000D01*
X106680000Y-105448500D02*
X108657500Y-105448500D01*
%TO.N,GND*%
X108657500Y-102323500D02*
X109220000Y-102886000D01*
X106680000Y-102323500D02*
X108657500Y-102323500D01*
X106680000Y-102323500D02*
X106680000Y-100838000D01*
%TO.N,+3.3V*%
X103632000Y-100330000D02*
X104140000Y-100838000D01*
X102616000Y-100330000D02*
X103632000Y-100330000D01*
X104140000Y-100838000D02*
X104140000Y-102336000D01*
%TO.N,Net-(U10-CH5)*%
X104152500Y-105448500D02*
X104140000Y-105436000D01*
X106680000Y-105448500D02*
X104152500Y-105448500D01*
%TO.N,GND*%
X104521000Y-96647000D02*
X104648000Y-96774000D01*
X102551000Y-96647000D02*
X104521000Y-96647000D01*
X102551000Y-91567000D02*
X102551000Y-90297000D01*
X102616000Y-90232000D02*
X102551000Y-90297000D01*
%TO.N,+3.3V*%
X102551000Y-100265000D02*
X102616000Y-100330000D01*
X102551000Y-99187000D02*
X102551000Y-100265000D01*
X102616000Y-100838000D02*
X102616000Y-100330000D01*
X102108000Y-101346000D02*
X102616000Y-100838000D01*
X101130500Y-101346000D02*
X102108000Y-101346000D01*
%TO.N,T1amp*%
X121412000Y-113880500D02*
X121412000Y-108712000D01*
%TO.N,T2amp*%
X134112000Y-111252000D02*
X134112000Y-113538000D01*
X122936000Y-109728000D02*
X132588000Y-109728000D01*
X132588000Y-109728000D02*
X134112000Y-111252000D01*
%TO.N,Net-(U8A--)*%
X138010500Y-118529500D02*
X137160000Y-119380000D01*
X137160000Y-119380000D02*
X137160000Y-120852000D01*
X134454500Y-115443000D02*
X134962500Y-115443000D01*
X132015000Y-114808000D02*
X133819500Y-114808000D01*
X138010500Y-116993000D02*
X138010500Y-118529500D01*
X135483000Y-117018000D02*
X135470500Y-117005500D01*
X135470500Y-115951000D02*
X135470500Y-117005500D01*
X138010500Y-116993000D02*
X135483000Y-116993000D01*
X134962500Y-115443000D02*
X135470500Y-115951000D01*
X133819500Y-114808000D02*
X134454500Y-115443000D01*
X135483000Y-116993000D02*
X135470500Y-117005500D01*
%TO.N,Net-(U8B--)*%
X124867000Y-116078000D02*
X123952000Y-116993000D01*
X121424500Y-116993000D02*
X121412000Y-117005500D01*
X127065000Y-116078000D02*
X124867000Y-116078000D01*
X123952000Y-116993000D02*
X121424500Y-116993000D01*
%TO.N,GNDA*%
X136144000Y-106172000D02*
X138684000Y-106172000D01*
X129667000Y-102143000D02*
X128559000Y-102143000D01*
X149860000Y-98005500D02*
X149390500Y-97536000D01*
X139192000Y-109728000D02*
X139192000Y-111378000D01*
X141732000Y-111290500D02*
X139279500Y-111290500D01*
X143738000Y-123926000D02*
X144060000Y-124248000D01*
X149390500Y-97536000D02*
X152361500Y-97536000D01*
X149860000Y-102487000D02*
X149860000Y-100584000D01*
X144060000Y-124248000D02*
X144060000Y-127600000D01*
X148336000Y-104011000D02*
X149860000Y-102487000D01*
X154766000Y-107059000D02*
X156972000Y-107059000D01*
X143738000Y-121920000D02*
X143738000Y-123926000D01*
X157049000Y-104011000D02*
X157049000Y-106982000D01*
X139279500Y-111290500D02*
X139192000Y-111378000D01*
X149860000Y-100584000D02*
X149860000Y-98005500D01*
X128524000Y-102108000D02*
X128559000Y-102143000D01*
X136144000Y-100584000D02*
X136144000Y-99021500D01*
X157049000Y-106982000D02*
X156972000Y-107059000D01*
%TO.N,GND*%
X120838000Y-92320500D02*
X121892500Y-91266000D01*
X90398000Y-87350000D02*
X90424000Y-87376000D01*
X104622000Y-117830000D02*
X102616000Y-117830000D01*
X111252000Y-114300000D02*
X111252000Y-113322500D01*
X112600000Y-115648000D02*
X111252000Y-114300000D01*
X89916000Y-87350000D02*
X91922000Y-87350000D01*
X94996000Y-129006000D02*
X92482000Y-129006000D01*
X91200000Y-101498000D02*
X91200000Y-99300000D01*
X132080000Y-118872000D02*
X132080000Y-117413000D01*
X79248000Y-87350000D02*
X89916000Y-87350000D01*
X132080000Y-120752000D02*
X132080000Y-118872000D01*
X133160000Y-135700000D02*
X133160000Y-138600000D01*
X50507500Y-69215000D02*
X50507500Y-73007500D01*
X141525621Y-94867000D02*
X141525621Y-96821621D01*
X52832000Y-126022500D02*
X55792500Y-126022500D01*
X131102500Y-111379000D02*
X131064000Y-111379000D01*
X82740000Y-111125000D02*
X87249000Y-111125000D01*
X117348000Y-94209500D02*
X117282000Y-94275500D01*
X66816000Y-101498000D02*
X66816000Y-99328000D01*
D61*
X87249000Y-111125000D02*
X87376000Y-111252000D01*
D59*
X88932000Y-112808000D02*
X87376000Y-111252000D01*
X63500000Y-117475000D02*
X60325000Y-117475000D01*
X116220000Y-135255000D02*
X117475000Y-135255000D01*
X141525621Y-96821621D02*
X142240000Y-97536000D01*
D61*
X73533000Y-111125000D02*
X73660000Y-111252000D01*
D59*
X133604000Y-127382000D02*
X133604000Y-125984000D01*
X94996000Y-129006000D02*
X94996000Y-126644000D01*
X117920000Y-135700000D02*
X117920000Y-138600000D01*
X112600000Y-116100000D02*
X112600000Y-115648000D01*
X120838000Y-94488000D02*
X120838000Y-92790000D01*
X131102500Y-111379000D02*
X132588000Y-111379000D01*
X117475000Y-135255000D02*
X117920000Y-135700000D01*
D60*
X58680000Y-138600000D02*
X58680000Y-143680000D01*
D61*
X71310000Y-111125000D02*
X73533000Y-111125000D01*
D59*
X94896000Y-126544000D02*
X94996000Y-126644000D01*
X55792500Y-126022500D02*
X55880000Y-126110000D01*
X114808000Y-130308000D02*
X115100000Y-130600000D01*
X114808000Y-128054500D02*
X114808000Y-130308000D01*
X96520000Y-112808000D02*
X96520000Y-110744000D01*
X92456000Y-129032000D02*
X92482000Y-129006000D01*
X66548000Y-99060000D02*
X66816000Y-99328000D01*
X120838000Y-92790000D02*
X120838000Y-92320500D01*
X83072000Y-101498000D02*
X83072000Y-99300000D01*
X129667000Y-96993000D02*
X128559000Y-96993000D01*
X100076000Y-126644000D02*
X100076000Y-124968000D01*
X132080000Y-117413000D02*
X132015000Y-117348000D01*
X104648000Y-117856000D02*
X104622000Y-117830000D01*
X91440000Y-99060000D02*
X91200000Y-99300000D01*
X49784000Y-126010000D02*
X49784000Y-129208651D01*
X75184000Y-99060000D02*
X74944000Y-99300000D01*
X74944000Y-101498000D02*
X74944000Y-99300000D01*
X50507500Y-73007500D02*
X50600000Y-73100000D01*
X128559000Y-96993000D02*
X128524000Y-97028000D01*
X131206000Y-135128000D02*
X132588000Y-135128000D01*
X83312000Y-99060000D02*
X83072000Y-99300000D01*
D60*
X117920000Y-143680000D02*
X117920000Y-138600000D01*
D59*
X52819500Y-126010000D02*
X52832000Y-126022500D01*
X91922000Y-87350000D02*
X91948000Y-87376000D01*
X89916000Y-87350000D02*
X90398000Y-87350000D01*
X92456000Y-126544000D02*
X94896000Y-126544000D01*
X111252000Y-113322500D02*
X113792000Y-113322500D01*
X90932000Y-112808000D02*
X88932000Y-112808000D01*
X142240000Y-97536000D02*
X142240000Y-100584000D01*
X117348000Y-92456000D02*
X117348000Y-94209500D01*
X49784000Y-126010000D02*
X52819500Y-126010000D01*
D60*
X133160000Y-143680000D02*
X133160000Y-138600000D01*
D59*
X132588000Y-135128000D02*
X133160000Y-135700000D01*
X100076000Y-129006000D02*
X100076000Y-126644000D01*
%TO.N,Net-(U5B--)*%
X148717000Y-115951000D02*
X149352000Y-115316000D01*
X147385000Y-115951000D02*
X148717000Y-115951000D01*
X144272000Y-116866000D02*
X141744500Y-116866000D01*
X141744500Y-116866000D02*
X141732000Y-116878500D01*
X147385000Y-115951000D02*
X145187000Y-115951000D01*
X149352000Y-115316000D02*
X149352000Y-111278000D01*
X149352000Y-111278000D02*
X149326000Y-111252000D01*
X145187000Y-115951000D02*
X144272000Y-116866000D01*
%TO.N,+5VA*%
X155637113Y-99378887D02*
X155637113Y-94867000D01*
X149313500Y-117132500D02*
X149313500Y-119380000D01*
X152400000Y-100584000D02*
X154432000Y-100584000D01*
X151892000Y-109220000D02*
X156972000Y-109220000D01*
X157988000Y-101600000D02*
X155448000Y-101600000D01*
X156972000Y-109220000D02*
X158806000Y-107386000D01*
X155448000Y-101600000D02*
X154432000Y-100584000D01*
X153924000Y-102108000D02*
X153924000Y-104011000D01*
X147385000Y-112711000D02*
X147828000Y-112268000D01*
X147385000Y-113411000D02*
X147385000Y-112711000D01*
X149352000Y-117094000D02*
X149313500Y-117132500D01*
X147828000Y-110671500D02*
X147392500Y-110236000D01*
X154766000Y-106109000D02*
X154766000Y-104853000D01*
X152400000Y-100584000D02*
X153924000Y-102108000D01*
X147828000Y-112268000D02*
X147828000Y-110671500D01*
X154766000Y-104853000D02*
X153924000Y-104011000D01*
X154432000Y-100584000D02*
X155637113Y-99378887D01*
X158806000Y-107386000D02*
X158806000Y-102418000D01*
X158806000Y-102418000D02*
X157988000Y-101600000D01*
D60*
%TO.N,+12V*%
X56864000Y-131740651D02*
X56896000Y-131708651D01*
X81280000Y-120015000D02*
X86360000Y-114935000D01*
X59944000Y-131708651D02*
X61331349Y-131708651D01*
X56896000Y-131708651D02*
X59944000Y-131708651D01*
X74676000Y-120015000D02*
X81280000Y-120015000D01*
X49784000Y-131708651D02*
X56896000Y-131708651D01*
X63500000Y-129540000D02*
X63500000Y-120015000D01*
X61331349Y-131708651D02*
X63500000Y-129540000D01*
X63500000Y-120015000D02*
X74676000Y-120015000D01*
X56864000Y-134112000D02*
X56864000Y-131740651D01*
X74930000Y-119761000D02*
X74676000Y-120015000D01*
X74930000Y-114935000D02*
X74930000Y-119761000D01*
D59*
%TO.N,-5VA*%
X151257000Y-117221000D02*
X150368000Y-116332000D01*
X146002380Y-99266380D02*
X146002380Y-94867000D01*
X152335000Y-119276500D02*
X152438500Y-119380000D01*
X150876000Y-109220000D02*
X146304000Y-104648000D01*
X150368000Y-116332000D02*
X150368000Y-112776000D01*
X150876000Y-112268000D02*
X150876000Y-109220000D01*
X152335000Y-117221000D02*
X152335000Y-119276500D01*
X146304000Y-101600000D02*
X147320000Y-100584000D01*
X146304000Y-104648000D02*
X146304000Y-101600000D01*
X147320000Y-100584000D02*
X146002380Y-99266380D01*
X152335000Y-117221000D02*
X151257000Y-117221000D01*
X150368000Y-112776000D02*
X150876000Y-112268000D01*
%TO.N,Net-(D14-K)*%
X138558000Y-108078000D02*
X139192000Y-108078000D01*
X139292000Y-108178000D02*
X139192000Y-108078000D01*
X136144000Y-107122000D02*
X137602000Y-107122000D01*
X137602000Y-107122000D02*
X138558000Y-108078000D01*
X144272000Y-108178000D02*
X139292000Y-108178000D01*
D60*
%TO.N,+5V*%
X63500000Y-112776000D02*
X61468000Y-110744000D01*
X56896000Y-107696000D02*
X56896000Y-84836000D01*
D59*
X86160000Y-77724000D02*
X86160000Y-73100000D01*
D60*
X56896000Y-84836000D02*
X56896000Y-81026000D01*
X53140000Y-77270000D02*
X53140000Y-73100000D01*
D59*
X119888000Y-94488000D02*
X119888000Y-93364000D01*
D60*
X61468000Y-110744000D02*
X59944000Y-110744000D01*
X59944000Y-77724000D02*
X56896000Y-80772000D01*
X63500000Y-114935000D02*
X63500000Y-112776000D01*
D59*
X139025621Y-97369621D02*
X139025621Y-94867000D01*
X53632500Y-66422500D02*
X53632500Y-69215000D01*
X53632500Y-70396500D02*
X53140000Y-70889000D01*
D60*
X86160000Y-77724000D02*
X59944000Y-77724000D01*
D59*
X119888000Y-93364000D02*
X118767500Y-92243500D01*
X55285000Y-64770000D02*
X53632500Y-66422500D01*
D60*
X59944000Y-110744000D02*
X56896000Y-107696000D01*
D59*
X118872000Y-90653500D02*
X118767500Y-90758000D01*
X63500000Y-114935000D02*
X60910000Y-114935000D01*
X139700000Y-100584000D02*
X139700000Y-98044000D01*
X53632500Y-69215000D02*
X53632500Y-70396500D01*
X53140000Y-70889000D02*
X53140000Y-73100000D01*
X139700000Y-98044000D02*
X139025621Y-97369621D01*
X118767500Y-92243500D02*
X118767500Y-90758000D01*
X60910000Y-114935000D02*
X60325000Y-114350000D01*
X118872000Y-87884000D02*
X118872000Y-90653500D01*
D60*
X56896000Y-80772000D02*
X56896000Y-84836000D01*
X56896000Y-81026000D02*
X53140000Y-77270000D01*
D59*
%TO.N,+3.3V*%
X133630000Y-91440000D02*
X133630000Y-93980000D01*
X136144000Y-94018500D02*
X133668500Y-94018500D01*
X119675500Y-97400500D02*
X119888000Y-97188000D01*
X109728000Y-121946000D02*
X112268000Y-121946000D01*
X115824000Y-106172000D02*
X115824000Y-98858500D01*
X128016000Y-129032000D02*
X128524000Y-128524000D01*
X120396000Y-99060000D02*
X119888000Y-98552000D01*
X113766000Y-121946000D02*
X118364000Y-117348000D01*
X133477000Y-96993000D02*
X133477000Y-94133000D01*
X109728000Y-124942000D02*
X109728000Y-121946000D01*
X122148000Y-123952000D02*
X122174000Y-123952000D01*
X121412000Y-129032000D02*
X128016000Y-129032000D01*
X127065000Y-112291500D02*
X127977500Y-111379000D01*
X120904000Y-127482000D02*
X120904000Y-128524000D01*
X129540000Y-113284000D02*
X129540000Y-115316000D01*
X133477000Y-94133000D02*
X133630000Y-93980000D01*
X126111000Y-111379000D02*
X125984000Y-111252000D01*
X119888000Y-98552000D02*
X119888000Y-97188000D01*
X122174000Y-124960314D02*
X122174000Y-123952000D01*
X127977500Y-111379000D02*
X126111000Y-111379000D01*
X127977500Y-111379000D02*
X127977500Y-111721500D01*
X123444000Y-96520000D02*
X123444000Y-98044000D01*
X112268000Y-121946000D02*
X113766000Y-121946000D01*
X120904000Y-128524000D02*
X121412000Y-129032000D01*
X118364000Y-111252000D02*
X118364000Y-108712000D01*
X117348000Y-96012000D02*
X117348000Y-97334500D01*
X134620000Y-120852000D02*
X134620000Y-118872000D01*
X133477000Y-96993000D02*
X134147000Y-96993000D01*
X134147000Y-96993000D02*
X135128000Y-96012000D01*
X133668500Y-94018500D02*
X133630000Y-93980000D01*
X117348000Y-97334500D02*
X117282000Y-97400500D01*
X119307500Y-111252000D02*
X118364000Y-111252000D01*
X118364000Y-108712000D02*
X115824000Y-106172000D01*
X127977500Y-111721500D02*
X129540000Y-113284000D01*
X128524000Y-128524000D02*
X128524000Y-127482000D01*
X124968000Y-94996000D02*
X123444000Y-96520000D01*
X122428000Y-99060000D02*
X120396000Y-99060000D01*
X115824000Y-98858500D02*
X117282000Y-97400500D01*
X127065000Y-113538000D02*
X127065000Y-112291500D01*
X123444000Y-98044000D02*
X122428000Y-99060000D01*
X117282000Y-97400500D02*
X119675500Y-97400500D01*
X118364000Y-117348000D02*
X118364000Y-111252000D01*
%TO.N,/3.3VA*%
X134620000Y-103632000D02*
X136144000Y-103632000D01*
X143738000Y-119380000D02*
X145288000Y-119380000D01*
X150431000Y-106109000D02*
X150368000Y-106172000D01*
X152066000Y-104616000D02*
X151461000Y-104011000D01*
X136144000Y-104140000D02*
X136144000Y-103632000D01*
X152066000Y-106109000D02*
X150431000Y-106109000D01*
X139192000Y-104140000D02*
X136144000Y-104140000D01*
X152066000Y-106109000D02*
X152066000Y-104616000D01*
X136140500Y-102143000D02*
X136144000Y-102146500D01*
X144787303Y-106172000D02*
X146304000Y-107688697D01*
X143764000Y-106172000D02*
X144787303Y-106172000D01*
X126492000Y-101678000D02*
X126544000Y-101626000D01*
X141224000Y-106172000D02*
X139192000Y-104140000D01*
X146304000Y-107688697D02*
X146304000Y-111760000D01*
X128016000Y-104648000D02*
X126492000Y-104648000D01*
X136144000Y-105222000D02*
X136144000Y-104140000D01*
X143764000Y-106172000D02*
X141224000Y-106172000D01*
X126492000Y-104648000D02*
X126492000Y-101678000D01*
X136144000Y-103632000D02*
X136144000Y-102146500D01*
X133477000Y-102143000D02*
X136140500Y-102143000D01*
D60*
%TO.N,Net-(D2-K)*%
X64516000Y-107798000D02*
X64516000Y-110236000D01*
X64516000Y-110236000D02*
X65405000Y-111125000D01*
X65405000Y-111125000D02*
X67310000Y-111125000D01*
D59*
X64516000Y-101498000D02*
X64516000Y-107798000D01*
D60*
X67330000Y-114935000D02*
X67330000Y-111145000D01*
X67330000Y-111145000D02*
X67310000Y-111125000D01*
%TO.N,Net-(D3-K)*%
X78760000Y-114935000D02*
X78760000Y-111145000D01*
X75286000Y-107798000D02*
X76200000Y-108712000D01*
X72644000Y-107798000D02*
X75286000Y-107798000D01*
X78760000Y-111145000D02*
X78740000Y-111125000D01*
X76200000Y-110236000D02*
X77089000Y-111125000D01*
X76200000Y-108712000D02*
X76200000Y-110236000D01*
D59*
X72644000Y-101498000D02*
X72644000Y-107798000D01*
D60*
X77089000Y-111125000D02*
X78740000Y-111125000D01*
D59*
%TO.N,Net-(D4-K)*%
X85852000Y-125476000D02*
X85852000Y-134620000D01*
X80772000Y-101498000D02*
X80772000Y-107798000D01*
X92964000Y-110744000D02*
X92964000Y-116840000D01*
X83922000Y-107798000D02*
X85852000Y-109728000D01*
X84080000Y-136392000D02*
X84080000Y-138600000D01*
X85852000Y-134620000D02*
X84080000Y-136392000D01*
X92964000Y-116840000D02*
X92964000Y-118364000D01*
X80772000Y-99060000D02*
X82296000Y-97536000D01*
X80772000Y-107798000D02*
X83922000Y-107798000D01*
X92964000Y-118364000D02*
X85852000Y-125476000D01*
X85852000Y-109728000D02*
X91948000Y-109728000D01*
X91948000Y-109728000D02*
X92964000Y-110744000D01*
X82296000Y-97536000D02*
X82296000Y-96038000D01*
D60*
X84080000Y-143680000D02*
X84080000Y-138600000D01*
D59*
X80772000Y-101498000D02*
X80772000Y-99060000D01*
X92932000Y-116808000D02*
X92964000Y-116840000D01*
X90932000Y-116808000D02*
X92932000Y-116808000D01*
%TO.N,T1amp*%
X124867000Y-114808000D02*
X123952000Y-113893000D01*
X127065000Y-114808000D02*
X124867000Y-114808000D01*
X121424500Y-113893000D02*
X121412000Y-113880500D01*
X123952000Y-113893000D02*
X121424500Y-113893000D01*
%TO.N,Net-(D5-K)*%
X93980000Y-118872000D02*
X87376000Y-125476000D01*
X87376000Y-134112000D02*
X89160000Y-135896000D01*
D60*
X89160000Y-143680000D02*
X89160000Y-138600000D01*
D59*
X87376000Y-125476000D02*
X87376000Y-134112000D01*
X94012000Y-116808000D02*
X93980000Y-116840000D01*
X89160000Y-135896000D02*
X89160000Y-138600000D01*
X96520000Y-116808000D02*
X94012000Y-116808000D01*
X89916000Y-98044000D02*
X89916000Y-96038000D01*
X93980000Y-110236000D02*
X93980000Y-116840000D01*
X91542000Y-107798000D02*
X93980000Y-110236000D01*
X93980000Y-116840000D02*
X93980000Y-118872000D01*
X88900000Y-101498000D02*
X88900000Y-99060000D01*
X88900000Y-107798000D02*
X91542000Y-107798000D01*
X88900000Y-99060000D02*
X89916000Y-98044000D01*
D61*
X88900000Y-101498000D02*
X88900000Y-107798000D01*
D59*
%TO.N,T2amp*%
X132015000Y-113538000D02*
X134112000Y-113538000D01*
X134112000Y-113538000D02*
X135128000Y-113538000D01*
X137998000Y-113880500D02*
X138010500Y-113893000D01*
X135128000Y-113538000D02*
X135470500Y-113880500D01*
X135470500Y-113880500D02*
X137998000Y-113880500D01*
%TO.N,T1in*%
X107760000Y-138600000D02*
X107760000Y-135064000D01*
X118464000Y-130682000D02*
X123444000Y-130682000D01*
X117856000Y-132588000D02*
X118364000Y-132080000D01*
D60*
X107760000Y-143680000D02*
X107760000Y-138600000D01*
D59*
X107760000Y-135064000D02*
X110236000Y-132588000D01*
X118364000Y-130582000D02*
X118464000Y-130682000D01*
X110236000Y-132588000D02*
X117856000Y-132588000D01*
X118364000Y-132080000D02*
X118364000Y-130582000D01*
%TO.N,T2in*%
X128524000Y-132588000D02*
X128524000Y-130582000D01*
D60*
X123000000Y-143680000D02*
X123000000Y-138600000D01*
D59*
X124080000Y-133604000D02*
X127508000Y-133604000D01*
X128624000Y-130682000D02*
X128524000Y-130582000D01*
X123000000Y-134684000D02*
X124080000Y-133604000D01*
X133604000Y-130682000D02*
X128624000Y-130682000D01*
X123000000Y-138600000D02*
X123000000Y-134684000D01*
X127508000Y-133604000D02*
X128524000Y-132588000D01*
%TO.N,Net-(D10-K)*%
X122174000Y-120852000D02*
X124614000Y-120852000D01*
X124614000Y-120852000D02*
X124714000Y-120752000D01*
%TO.N,Net-(D12-K)*%
X136144000Y-126492000D02*
X137160000Y-125476000D01*
X132080000Y-124052000D02*
X137060000Y-124052000D01*
X136144000Y-127482000D02*
X136144000Y-126492000D01*
X137060000Y-124052000D02*
X137160000Y-123952000D01*
X137160000Y-125476000D02*
X137160000Y-123952000D01*
%TO.N,Net-(DS1-VO)*%
X55680000Y-69796000D02*
X57404000Y-68072000D01*
X57404000Y-68072000D02*
X57404000Y-65024000D01*
X55680000Y-73100000D02*
X55680000Y-69796000D01*
X59436000Y-62992000D02*
X59436000Y-61421000D01*
X59436000Y-61421000D02*
X57785000Y-59770000D01*
X57404000Y-65024000D02*
X59436000Y-62992000D01*
%TO.N,In1*%
X92456000Y-123444000D02*
X97536000Y-123444000D01*
%TO.N,In2*%
X102516000Y-123344000D02*
X102616000Y-123444000D01*
X102616000Y-120930000D02*
X102616000Y-123444000D01*
X100076000Y-123344000D02*
X102516000Y-123344000D01*
%TO.N,Out1*%
X82296000Y-90550000D02*
X79348000Y-90550000D01*
X82296000Y-92938000D02*
X82296000Y-90550000D01*
X79348000Y-90550000D02*
X79248000Y-90450000D01*
%TO.N,Out2*%
X89816000Y-90550000D02*
X89916000Y-90450000D01*
X86360000Y-90550000D02*
X89816000Y-90550000D01*
X89916000Y-92938000D02*
X89916000Y-90450000D01*
%TO.N,EncB*%
X111252000Y-110197500D02*
X108724500Y-110197500D01*
X113792000Y-105664000D02*
X113792000Y-89408000D01*
X108724500Y-110197500D02*
X108712000Y-110210000D01*
X111252000Y-110197500D02*
X111252000Y-108204000D01*
X111252000Y-108204000D02*
X113792000Y-105664000D01*
%TO.N,EncA*%
X116332000Y-110210000D02*
X113804500Y-110210000D01*
X113804500Y-110210000D02*
X113792000Y-110197500D01*
%TO.N,EncPB*%
X114922500Y-124815000D02*
X114935000Y-124802500D01*
X114795500Y-124942000D02*
X114808000Y-124929500D01*
X112268000Y-124942000D02*
X114795500Y-124942000D01*
%TO.N,Net-(C20-Pad1)*%
X145187000Y-114681000D02*
X144272000Y-113766000D01*
X147385000Y-114681000D02*
X145187000Y-114681000D01*
X144272000Y-111278000D02*
X144272000Y-113766000D01*
X141744500Y-113766000D02*
X141732000Y-113753500D01*
X144272000Y-113766000D02*
X141744500Y-113766000D01*
D60*
%TO.N,Net-(J1-Pin_3)*%
X63760000Y-138600000D02*
X63760000Y-134360000D01*
X63760000Y-138600000D02*
X63760000Y-143680000D01*
X63760000Y-134360000D02*
X65285000Y-132835000D01*
X65285000Y-132835000D02*
X67330000Y-132835000D01*
%TO.N,Net-(J1-Pin_4)*%
X67330000Y-125135000D02*
X71120000Y-128925000D01*
X68840000Y-138600000D02*
X68840000Y-143680000D01*
X71120000Y-133604000D02*
X68840000Y-135884000D01*
X68840000Y-135884000D02*
X68840000Y-138600000D01*
X71120000Y-128925000D02*
X71120000Y-133604000D01*
D59*
%TO.N,Out2d*%
X86360000Y-95478000D02*
X85826000Y-95478000D01*
X85826000Y-95478000D02*
X84836000Y-94488000D01*
D60*
%TO.N,Net-(J1-Pin_5)*%
X73920000Y-138600000D02*
X73920000Y-143680000D01*
X73920000Y-138600000D02*
X73920000Y-134868000D01*
X73920000Y-134868000D02*
X75953000Y-132835000D01*
X75953000Y-132835000D02*
X78760000Y-132835000D01*
%TO.N,Net-(J1-Pin_6)*%
X82296000Y-128671000D02*
X82296000Y-134112000D01*
X79000000Y-137408000D02*
X79000000Y-138600000D01*
X79000000Y-138600000D02*
X79000000Y-143680000D01*
X82296000Y-134112000D02*
X79000000Y-137408000D01*
X78760000Y-125135000D02*
X82296000Y-128671000D01*
D59*
%TO.N,Net-(J2-Pin_1)*%
X97536000Y-134620000D02*
X97536000Y-138536000D01*
X95646000Y-134620000D02*
X97536000Y-134620000D01*
D61*
X97536000Y-138536000D02*
X97600000Y-138600000D01*
D59*
X97536000Y-126544000D02*
X97536000Y-134620000D01*
D60*
X97600000Y-143680000D02*
X97600000Y-138600000D01*
D59*
%TO.N,Net-(J2-Pin_2)*%
X102680000Y-126608000D02*
X102680000Y-134620000D01*
X102680000Y-134620000D02*
X102680000Y-138600000D01*
X100868000Y-134620000D02*
X102680000Y-134620000D01*
D60*
X102680000Y-143680000D02*
X102680000Y-138600000D01*
D59*
X102616000Y-126544000D02*
X102680000Y-126608000D01*
%TO.N,Net-(JP1-B)*%
X94346000Y-132756000D02*
X94996000Y-132106000D01*
X94346000Y-134620000D02*
X94346000Y-132756000D01*
%TO.N,Net-(JP2-B)*%
X99568000Y-132614000D02*
X100076000Y-132106000D01*
X99568000Y-134620000D02*
X99568000Y-132614000D01*
%TO.N,Net-(Q1-B)*%
X62216000Y-98818000D02*
X61976000Y-98578000D01*
X62216000Y-101498000D02*
X62216000Y-98818000D01*
%TO.N,Net-(Q2-B)*%
X70344000Y-98818000D02*
X70104000Y-98578000D01*
X70344000Y-101498000D02*
X70344000Y-98818000D01*
%TO.N,VS*%
X46736000Y-133096000D02*
X47752000Y-134112000D01*
D60*
X53600000Y-138600000D02*
X53600000Y-134848000D01*
X53600000Y-143680000D02*
X53600000Y-138600000D01*
D59*
X46736000Y-131090000D02*
X46736000Y-133096000D01*
D60*
X53600000Y-134848000D02*
X52864000Y-134112000D01*
D59*
X47752000Y-134112000D02*
X52864000Y-134112000D01*
%TO.N,Net-(Q3-B)*%
X78472000Y-98818000D02*
X78232000Y-98578000D01*
X78472000Y-101498000D02*
X78472000Y-98818000D01*
%TO.N,Net-(Q4-B)*%
X86600000Y-101498000D02*
X86600000Y-98818000D01*
X86600000Y-98818000D02*
X86360000Y-98578000D01*
%TO.N,/WQ*%
X152335000Y-114681000D02*
X152335000Y-113411000D01*
X152335000Y-113411000D02*
X152335000Y-111343000D01*
X152335000Y-111343000D02*
X152426000Y-111252000D01*
%TO.N,Net-(U6-SDA)*%
X131572000Y-99568000D02*
X127586000Y-99568000D01*
X132207000Y-102143000D02*
X132207000Y-104267000D01*
X132207000Y-102143000D02*
X132207000Y-100203000D01*
X127586000Y-99568000D02*
X126544000Y-98526000D01*
X132207000Y-100203000D02*
X131572000Y-99568000D01*
X132207000Y-104267000D02*
X133162000Y-105222000D01*
X133162000Y-105222000D02*
X133444000Y-105222000D01*
%TO.N,SupV*%
X52832000Y-111252000D02*
X54864000Y-109220000D01*
X54864000Y-109220000D02*
X54864000Y-90932000D01*
X55792500Y-122897500D02*
X55880000Y-122810000D01*
X46736000Y-122910000D02*
X49784000Y-122910000D01*
X52819500Y-122910000D02*
X52832000Y-122897500D01*
X52832000Y-122897500D02*
X52832000Y-111252000D01*
X49784000Y-122910000D02*
X52819500Y-122910000D01*
X52832000Y-122897500D02*
X55792500Y-122897500D01*
%TO.N,T1bias*%
X125476000Y-132588000D02*
X125984000Y-132080000D01*
X112840000Y-138600000D02*
X112840000Y-135192000D01*
X114920000Y-133716000D02*
X114808000Y-133604000D01*
X114920000Y-135255000D02*
X114920000Y-133716000D01*
X112840000Y-135192000D02*
X114428000Y-133604000D01*
X125984000Y-132080000D02*
X125984000Y-130582000D01*
X119380000Y-133604000D02*
X120396000Y-132588000D01*
D60*
X112840000Y-143680000D02*
X112840000Y-138600000D01*
D59*
X114808000Y-133604000D02*
X119380000Y-133604000D01*
X120396000Y-132588000D02*
X125476000Y-132588000D01*
X114428000Y-133604000D02*
X114808000Y-133604000D01*
%TO.N,T2bias*%
X128080000Y-135128000D02*
X128080000Y-134556000D01*
D60*
X128080000Y-143680000D02*
X128080000Y-138600000D01*
D59*
X130048000Y-132588000D02*
X135128000Y-132588000D01*
X136144000Y-131572000D02*
X136144000Y-130582000D01*
X128080000Y-134556000D02*
X130048000Y-132588000D01*
X129906000Y-135128000D02*
X128080000Y-135128000D01*
X128080000Y-135128000D02*
X128080000Y-138600000D01*
X135128000Y-132588000D02*
X136144000Y-131572000D01*
%TO.N,Net-(U6-SCL)*%
X130937000Y-104648000D02*
X130937000Y-105537000D01*
X132522000Y-107122000D02*
X133444000Y-107122000D01*
X129592000Y-104648000D02*
X130937000Y-104648000D01*
X130937000Y-102143000D02*
X130937000Y-104648000D01*
X130937000Y-105537000D02*
X132522000Y-107122000D01*
%TO.N,Net-(U5B-+)*%
X146838000Y-121920000D02*
X146838000Y-119380000D01*
X147385000Y-118833000D02*
X146838000Y-119380000D01*
X147385000Y-117221000D02*
X147385000Y-118833000D01*
%TO.N,SDA*%
X132207000Y-95631000D02*
X132080000Y-95504000D01*
X130530000Y-91440000D02*
X132080000Y-91440000D01*
X132207000Y-96993000D02*
X132207000Y-95631000D01*
X132080000Y-95504000D02*
X132080000Y-91440000D01*
%TO.N,Net-(U8A-+)*%
X130810000Y-116078000D02*
X132015000Y-116078000D01*
X130518000Y-119850000D02*
X130048000Y-119380000D01*
X130048000Y-119380000D02*
X130048000Y-116840000D01*
X131064000Y-125984000D02*
X130518000Y-125438000D01*
X130048000Y-116840000D02*
X130810000Y-116078000D01*
X130518000Y-125438000D02*
X130518000Y-119850000D01*
X131064000Y-127482000D02*
X131064000Y-125984000D01*
%TO.N,Net-(R46-Pad1)*%
X116332000Y-114868000D02*
X115100000Y-116100000D01*
X112268000Y-118846000D02*
X114326000Y-118846000D01*
X114326000Y-118846000D02*
X115100000Y-118072000D01*
X116332000Y-113310000D02*
X116332000Y-114868000D01*
X115100000Y-118072000D02*
X115100000Y-116100000D01*
%TO.N,Net-(R45-Pad1)*%
X108712000Y-114712000D02*
X110100000Y-116100000D01*
X110100000Y-116100000D02*
X110100000Y-118474000D01*
X110100000Y-118474000D02*
X109728000Y-118846000D01*
X108712000Y-113310000D02*
X108712000Y-114712000D01*
%TO.N,Net-(R47-Pad1)*%
X109728000Y-130228000D02*
X110100000Y-130600000D01*
X112268000Y-128042000D02*
X109728000Y-128042000D01*
X109728000Y-128042000D02*
X109728000Y-130228000D01*
%TO.N,Net-(R23-Pad1)*%
X46736000Y-126010000D02*
X46736000Y-127990000D01*
%TO.N,SCK*%
X130937000Y-96993000D02*
X130937000Y-94387000D01*
X130937000Y-94387000D02*
X130530000Y-93980000D01*
%TD*%
D62*
X161600000Y-147600000D02*
X41600000Y-147600000D01*
X41600000Y-147600000D02*
X41600000Y-55600000D01*
X41600000Y-55600000D02*
X161600000Y-55600000D01*
X161600000Y-55600000D02*
X161600000Y-147600000D01*
M02*
