%TF.GenerationSoftware,KiCad,Pcbnew,7.0.7*%
%TF.CreationDate,2023-11-21T19:35:23-10:00*%
%TF.ProjectId,Controller,436f6e74-726f-46c6-9c65-722e6b696361,New*%
%TF.SameCoordinates,Original*%
%TF.FileFunction,Soldermask,Top*%
%TF.FilePolarity,Negative*%
%FSLAX46Y46*%
G04 Gerber Fmt 4.6, Leading zero omitted, Abs format (unit mm)*
G04 Created by KiCad (PCBNEW 7.0.7) date 2023-11-21 19:35:23*
%MOMM*%
%LPD*%
G01*
G04 APERTURE LIST*
G04 Aperture macros list*
%AMRoundRect*
0 Rectangle with rounded corners*
0 $1 Rounding radius*
0 $2 $3 $4 $5 $6 $7 $8 $9 X,Y pos of 4 corners*
0 Add a 4 corners polygon primitive as box body*
4,1,4,$2,$3,$4,$5,$6,$7,$8,$9,$2,$3,0*
0 Add four circle primitives for the rounded corners*
1,1,$1+$1,$2,$3*
1,1,$1+$1,$4,$5*
1,1,$1+$1,$6,$7*
1,1,$1+$1,$8,$9*
0 Add four rect primitives between the rounded corners*
20,1,$1+$1,$2,$3,$4,$5,0*
20,1,$1+$1,$4,$5,$6,$7,0*
20,1,$1+$1,$6,$7,$8,$9,0*
20,1,$1+$1,$8,$9,$2,$3,0*%
G04 Aperture macros list end*
%ADD10R,1.600000X1.600000*%
%ADD11C,1.600000*%
%ADD12C,1.800000*%
%ADD13R,1.800000X1.800000*%
%ADD14C,2.500000*%
%ADD15RoundRect,0.341000X-0.759000X0.759000X-0.759000X-0.759000X0.759000X-0.759000X0.759000X0.759000X0*%
%ADD16C,2.200000*%
%ADD17C,3.500000*%
%ADD18O,3.500000X3.500000*%
%ADD19R,2.000000X1.905000*%
%ADD20O,2.000000X1.905000*%
%ADD21O,1.600000X2.500000*%
%ADD22O,3.500000X7.000000*%
%ADD23RoundRect,0.249997X-0.790003X-1.550003X0.790003X-1.550003X0.790003X1.550003X-0.790003X1.550003X0*%
%ADD24O,2.080000X3.600000*%
%ADD25C,3.000000*%
%ADD26R,1.800000X2.600000*%
%ADD27O,1.800000X2.600000*%
%ADD28R,1.850000X1.850000*%
%ADD29C,1.850000*%
%ADD30R,2.000000X2.000000*%
%ADD31O,2.000000X1.600000*%
%ADD32C,2.000000*%
%ADD33C,3.200000*%
%ADD34C,1.620000*%
%ADD35C,1.200000*%
%TA.AperFunction,Profile*%
%ADD36C,0.050000*%
%TD*%
G04 APERTURE END LIST*
D10*
%TO.C,C3*%
X154472000Y-77216000D03*
D11*
X156972000Y-77216000D03*
%TD*%
D12*
%TO.C,D16*%
X158496000Y-71120000D03*
X155956000Y-71120000D03*
D13*
X153416000Y-71120000D03*
%TD*%
D14*
%TO.C,TP2*%
X157480000Y-116840000D03*
%TD*%
%TO.C,TP4*%
X104648000Y-108712000D03*
%TD*%
%TO.C,TP1*%
X157480000Y-87884000D03*
%TD*%
%TO.C,TP3*%
X157480000Y-111252000D03*
%TD*%
%TO.C,TP5*%
X104648000Y-112268000D03*
%TD*%
%TO.C,TP0*%
X157480000Y-83820000D03*
%TD*%
D15*
%TO.C,K1*%
X74930000Y-114935000D03*
D14*
X67330000Y-125135000D03*
X67330000Y-132835000D03*
D16*
X67330000Y-114935000D03*
%TD*%
D15*
%TO.C,K2*%
X86360000Y-114935000D03*
D14*
X78760000Y-125135000D03*
X78760000Y-132835000D03*
D16*
X78760000Y-114935000D03*
%TD*%
D17*
%TO.C,H4*%
X45600000Y-143600000D03*
%TD*%
%TO.C,H3*%
X157600000Y-143600000D03*
%TD*%
%TO.C,H1*%
X45600000Y-59600000D03*
%TD*%
%TO.C,H2*%
X157600000Y-59600000D03*
%TD*%
D18*
%TO.C,U2*%
X46840000Y-117475000D03*
D19*
X63500000Y-120015000D03*
D20*
X63500000Y-117475000D03*
X63500000Y-114935000D03*
%TD*%
D21*
%TO.C,J3*%
X146600000Y-127600000D03*
D22*
X151680000Y-132680000D03*
D21*
X149140000Y-127600000D03*
X144060000Y-127600000D03*
D22*
X141520000Y-132680000D03*
%TD*%
D23*
%TO.C,J1*%
X53600000Y-138600000D03*
X53600000Y-143680000D03*
D24*
X58680000Y-138600000D03*
X58680000Y-143680000D03*
X63760000Y-138600000D03*
X63760000Y-143680000D03*
X68840000Y-138600000D03*
X68840000Y-143680000D03*
X73920000Y-138600000D03*
X73920000Y-143680000D03*
X79000000Y-138600000D03*
X79000000Y-143680000D03*
X84080000Y-138600000D03*
X84080000Y-143680000D03*
X89160000Y-138600000D03*
X89160000Y-143680000D03*
%TD*%
D23*
%TO.C,J2*%
X97600000Y-138600000D03*
X97600000Y-143680000D03*
D24*
X102680000Y-138600000D03*
X102680000Y-143680000D03*
X107760000Y-138600000D03*
X107760000Y-143680000D03*
X112840000Y-138600000D03*
X112840000Y-143680000D03*
X117920000Y-138600000D03*
X117920000Y-143680000D03*
X123000000Y-138600000D03*
X123000000Y-143680000D03*
X128080000Y-138600000D03*
X128080000Y-143680000D03*
X133160000Y-138600000D03*
X133160000Y-143680000D03*
%TD*%
D25*
%TO.C,DS1*%
X45100900Y-73100000D03*
X45100900Y-104100700D03*
X120099480Y-104100700D03*
X120100000Y-73100000D03*
D26*
X50600000Y-73100000D03*
D27*
X53140000Y-73100000D03*
X55680000Y-73100000D03*
X58220000Y-73100000D03*
X60760000Y-73100000D03*
X63300000Y-73100000D03*
X65840000Y-73100000D03*
X68380000Y-73100000D03*
X70920000Y-73100000D03*
X73460000Y-73100000D03*
X76000000Y-73100000D03*
X78540000Y-73100000D03*
X81080000Y-73100000D03*
X83620000Y-73100000D03*
X86160000Y-73100000D03*
X88700000Y-73100000D03*
%TD*%
D10*
%TO.C,C8*%
X155637113Y-94867000D03*
D11*
X153137113Y-94867000D03*
%TD*%
D10*
%TO.C,C2*%
X49784000Y-131708651D03*
D11*
X49784000Y-129208651D03*
%TD*%
D28*
%TO.C,PS1*%
X139700000Y-100584000D03*
D29*
X142240000Y-100584000D03*
X147320000Y-100584000D03*
X149860000Y-100584000D03*
X152400000Y-100584000D03*
%TD*%
D10*
%TO.C,C7*%
X139025621Y-94867000D03*
D11*
X141525621Y-94867000D03*
%TD*%
D10*
%TO.C,C9*%
X148502380Y-94867000D03*
D11*
X146002380Y-94867000D03*
%TD*%
D10*
%TO.C,C1*%
X59944000Y-131708651D03*
D11*
X59944000Y-129208651D03*
%TD*%
D30*
%TO.C,U1*%
X127000000Y-58420000D03*
D31*
X127000000Y-60960000D03*
X127000000Y-63500000D03*
X127000000Y-66040000D03*
X127000000Y-68580000D03*
X127000000Y-71120000D03*
X127000000Y-73660000D03*
X127000000Y-76200000D03*
X149860000Y-76200000D03*
X149860000Y-73660000D03*
X149860000Y-71120000D03*
X149860000Y-68580000D03*
X149860000Y-66040000D03*
X149860000Y-63500000D03*
X149860000Y-60960000D03*
X149860000Y-58420000D03*
X129540000Y-58420000D03*
X129540000Y-60960000D03*
X129540000Y-63500000D03*
X129540000Y-66040000D03*
X129540000Y-68580000D03*
X129540000Y-71120000D03*
X129540000Y-73660000D03*
X129540000Y-76200000D03*
X147320000Y-76200000D03*
X147320000Y-73660000D03*
X147320000Y-71120000D03*
X147320000Y-68580000D03*
X147320000Y-66040000D03*
X147320000Y-63500000D03*
X147320000Y-60960000D03*
X147320000Y-58420000D03*
%TD*%
D32*
%TO.C,S1*%
X115100000Y-130600000D03*
X110100000Y-130600000D03*
D33*
X107000000Y-123600000D03*
X118200000Y-123600000D03*
D32*
X112600000Y-116100000D03*
X110100000Y-116100000D03*
D30*
X115100000Y-116100000D03*
%TD*%
D32*
%TO.C,R51*%
X57785000Y-62270000D03*
D34*
X60285000Y-64770000D03*
X57785000Y-59770000D03*
X55285000Y-64770000D03*
%TD*%
D35*
X145796000Y-78740000D03*
X143764000Y-78740000D03*
X107696000Y-91440000D03*
X107696000Y-93980000D03*
X99568000Y-95758000D03*
X95504000Y-93726000D03*
X106680000Y-100838000D03*
X104648000Y-96774000D03*
X98044000Y-103378000D03*
X99568000Y-85344000D03*
X138684000Y-106172000D03*
X136144000Y-100584000D03*
X128559000Y-102143000D03*
X156972000Y-107059000D03*
X139192000Y-109728000D03*
X120838000Y-92456000D03*
X91948000Y-87376000D03*
X128524000Y-97028000D03*
X133604000Y-125984000D03*
X87376000Y-111252000D03*
X132588000Y-111379000D03*
X73660000Y-111252000D03*
X102616000Y-88900000D03*
X74944000Y-99300000D03*
X104648000Y-117856000D03*
X117348000Y-92456000D03*
X92482000Y-129006000D03*
X137922000Y-90932000D03*
X66816000Y-99328000D03*
X132080000Y-118872000D03*
X83072000Y-99300000D03*
X100076000Y-124968000D03*
X91200000Y-99300000D03*
X124714000Y-125476000D03*
X96520000Y-110744000D03*
X147392500Y-110236000D03*
X151892000Y-109220000D03*
X149352000Y-117094000D03*
X111252000Y-87884000D03*
X106172000Y-79248000D03*
X134620000Y-118872000D03*
X125984000Y-111252000D03*
X117348000Y-96012000D03*
X129540000Y-115316000D03*
X135128000Y-96012000D03*
X119307500Y-111252000D03*
X102616000Y-100330000D03*
X124968000Y-94996000D03*
X146304000Y-111760000D03*
X143764000Y-106172000D03*
X145288000Y-119380000D03*
X128016000Y-104648000D03*
X150368000Y-106172000D03*
X134620000Y-103632000D03*
X121412000Y-108712000D03*
X122936000Y-109728000D03*
X113792000Y-83820000D03*
X113792000Y-89408000D03*
X116332000Y-85344000D03*
X116332000Y-89408000D03*
X126492000Y-90424000D03*
X126492000Y-87376000D03*
X84836000Y-94488000D03*
X92202000Y-90678000D03*
X54864000Y-90932000D03*
X58928000Y-90932000D03*
X99568000Y-79248000D03*
X137160000Y-87376000D03*
X132080000Y-90424000D03*
X127254000Y-118872000D03*
X122936000Y-118872000D03*
X135128000Y-87376000D03*
X128524000Y-90424000D03*
D36*
X161600000Y-147600000D02*
X41600000Y-147600000D01*
X41600000Y-147600000D02*
X41600000Y-55600000D01*
X41600000Y-55600000D02*
X161600000Y-55600000D01*
X161600000Y-55600000D02*
X161600000Y-147600000D01*
M02*
