M48
; DRILL file {KiCad 7.0.7} date Tue Nov 21 19:35:35 2023
; FORMAT={-:-/ absolute / metric / decimal}
; #@! TF.CreationDate,2023-11-21T19:35:35-10:00
; #@! TF.GenerationSoftware,Kicad,Pcbnew,7.0.7
; #@! TF.FileFunction,Plated,1,2,PTH
FMAT,2
METRIC
; #@! TA.AperFunction,Plated,PTH,ViaDrill
T1C0.600
; #@! TA.AperFunction,Plated,PTH,ComponentDrill
T2C0.800
; #@! TA.AperFunction,Plated,PTH,ComponentDrill
T3C0.850
; #@! TA.AperFunction,Plated,PTH,ComponentDrill
T4C0.890
; #@! TA.AperFunction,Plated,PTH,ComponentDrill
T5C0.900
; #@! TA.AperFunction,Plated,PTH,ComponentDrill
T6C1.000
; #@! TA.AperFunction,Plated,PTH,ComponentDrill
T7C1.100
; #@! TA.AperFunction,Plated,PTH,ComponentDrill
T8C1.200
; #@! TA.AperFunction,Plated,PTH,ComponentDrill
T9C1.400
; #@! TA.AperFunction,Plated,PTH,ComponentDrill
T10C1.500
; #@! TA.AperFunction,Plated,PTH,ComponentDrill
T11C2.010
; #@! TA.AperFunction,Plated,PTH,ComponentDrill
T12C2.500
; #@! TA.AperFunction,Plated,PTH,ComponentDrill
T13C2.600
%
G90
G05
T1
X54.864Y-90.932
X58.928Y-90.932
X66.816Y-99.328
X73.66Y-111.252
X74.944Y-99.3
X83.072Y-99.3
X84.836Y-94.488
X87.376Y-111.252
X91.2Y-99.3
X91.948Y-87.376
X92.202Y-90.678
X92.482Y-129.006
X95.504Y-93.726
X96.52Y-110.744
X98.044Y-103.378
X99.568Y-79.248
X99.568Y-85.344
X99.568Y-95.758
X100.076Y-124.968
X102.616Y-88.9
X102.616Y-100.33
X104.648Y-96.774
X104.648Y-117.856
X106.172Y-79.248
X106.68Y-100.838
X107.696Y-91.44
X107.696Y-93.98
X111.252Y-87.884
X113.792Y-83.82
X113.792Y-89.408
X116.332Y-85.344
X116.332Y-89.408
X117.348Y-92.456
X117.348Y-96.012
X119.307Y-111.252
X120.838Y-92.456
X121.412Y-108.712
X122.936Y-109.728
X122.936Y-118.872
X124.714Y-125.476
X124.968Y-94.996
X125.984Y-111.252
X126.492Y-87.376
X126.492Y-90.424
X127.254Y-118.872
X128.016Y-104.648
X128.524Y-90.424
X128.524Y-97.028
X128.559Y-102.143
X129.54Y-115.316
X132.08Y-90.424
X132.08Y-118.872
X132.588Y-111.379
X133.604Y-125.984
X134.62Y-103.632
X134.62Y-118.872
X135.128Y-87.376
X135.128Y-96.012
X136.144Y-100.584
X137.16Y-87.376
X137.922Y-90.932
X138.684Y-106.172
X139.192Y-109.728
X143.764Y-78.74
X143.764Y-106.172
X145.288Y-119.38
X145.796Y-78.74
X146.304Y-111.76
X147.392Y-110.236
X149.352Y-117.094
X150.368Y-106.172
X151.892Y-109.22
X156.972Y-107.059
T2
X49.784Y-129.209
X49.784Y-131.709
X59.944Y-129.209
X59.944Y-131.709
X139.026Y-94.867
X141.526Y-94.867
X146.002Y-94.867
X148.502Y-94.867
X153.137Y-94.867
X154.472Y-77.216
X155.637Y-94.867
X156.972Y-77.216
T3
X139.7Y-100.584
X142.24Y-100.584
X147.32Y-100.584
X149.86Y-100.584
X152.4Y-100.584
T4
X144.06Y-127.6
X146.6Y-127.6
X149.14Y-127.6
T5
X55.285Y-64.77
X57.785Y-59.77
X60.285Y-64.77
X153.416Y-71.12
X155.956Y-71.12
X158.496Y-71.12
T6
X110.1Y-116.1
X110.1Y-130.6
X112.6Y-116.1
X115.1Y-116.1
X115.1Y-130.6
X127.0Y-58.42
X127.0Y-60.96
X127.0Y-63.5
X127.0Y-66.04
X127.0Y-68.58
X127.0Y-71.12
X127.0Y-73.66
X127.0Y-76.2
X129.54Y-58.42
X129.54Y-60.96
X129.54Y-63.5
X129.54Y-66.04
X129.54Y-68.58
X129.54Y-71.12
X129.54Y-73.66
X129.54Y-76.2
X147.32Y-58.42
X147.32Y-60.96
X147.32Y-63.5
X147.32Y-66.04
X147.32Y-68.58
X147.32Y-71.12
X147.32Y-73.66
X147.32Y-76.2
X149.86Y-58.42
X149.86Y-60.96
X149.86Y-63.5
X149.86Y-66.04
X149.86Y-68.58
X149.86Y-71.12
X149.86Y-73.66
X149.86Y-76.2
T7
X63.5Y-114.935
X63.5Y-117.475
X63.5Y-120.015
T8
X50.6Y-73.1
X53.14Y-73.1
X55.68Y-73.1
X58.22Y-73.1
X60.76Y-73.1
X63.3Y-73.1
X65.84Y-73.1
X67.33Y-114.935
X68.38Y-73.1
X70.92Y-73.1
X73.46Y-73.1
X74.93Y-114.935
X76.0Y-73.1
X78.54Y-73.1
X78.76Y-114.935
X81.08Y-73.1
X83.62Y-73.1
X86.16Y-73.1
X86.36Y-114.935
X88.7Y-73.1
X104.648Y-108.712
X104.648Y-112.268
X157.48Y-83.82
X157.48Y-87.884
X157.48Y-111.252
X157.48Y-116.84
T9
X53.6Y-138.6
X53.6Y-143.68
X58.68Y-138.6
X58.68Y-143.68
X63.76Y-138.6
X63.76Y-143.68
X68.84Y-138.6
X68.84Y-143.68
X73.92Y-138.6
X73.92Y-143.68
X79.0Y-138.6
X79.0Y-143.68
X84.08Y-138.6
X84.08Y-143.68
X89.16Y-138.6
X89.16Y-143.68
X97.6Y-138.6
X97.6Y-143.68
X102.68Y-138.6
X102.68Y-143.68
X107.76Y-138.6
X107.76Y-143.68
X112.84Y-138.6
X112.84Y-143.68
X117.92Y-138.6
X117.92Y-143.68
X123.0Y-138.6
X123.0Y-143.68
X128.08Y-138.6
X128.08Y-143.68
X133.16Y-138.6
X133.16Y-143.68
T10
X67.33Y-125.135
X67.33Y-132.835
X78.76Y-125.135
X78.76Y-132.835
T11
X141.52Y-132.68
X151.68Y-132.68
T12
X45.101Y-73.1
X45.101Y-104.101
X120.099Y-104.101
X120.1Y-73.1
T13
X107.0Y-123.6
X118.2Y-123.6
T0
M30
