%TF.GenerationSoftware,KiCad,Pcbnew,7.0.7*%
%TF.CreationDate,2024-02-20T18:04:50-10:00*%
%TF.ProjectId,Controller,436f6e74-726f-46c6-9c65-722e6b696361,New*%
%TF.SameCoordinates,Original*%
%TF.FileFunction,Legend,Top*%
%TF.FilePolarity,Positive*%
%FSLAX46Y46*%
G04 Gerber Fmt 4.6, Leading zero omitted, Abs format (unit mm)*
G04 Created by KiCad (PCBNEW 7.0.7) date 2024-02-20 18:04:50*
%MOMM*%
%LPD*%
G01*
G04 APERTURE LIST*
%ADD10C,0.300000*%
%ADD11C,0.150000*%
%ADD12C,0.120000*%
%ADD13C,0.200000*%
%TA.AperFunction,Profile*%
%ADD14C,0.050000*%
%TD*%
G04 APERTURE END LIST*
D10*
X80261796Y-60582752D02*
X80443225Y-60582752D01*
X80443225Y-60582752D02*
X80624653Y-60703704D01*
X80624653Y-60703704D02*
X80715368Y-60824657D01*
X80715368Y-60824657D02*
X80806082Y-61066561D01*
X80806082Y-61066561D02*
X80896796Y-61550371D01*
X80896796Y-61550371D02*
X80896796Y-62155133D01*
X80896796Y-62155133D02*
X80806082Y-62638942D01*
X80806082Y-62638942D02*
X80715368Y-62880847D01*
X80715368Y-62880847D02*
X80624653Y-63001800D01*
X80624653Y-63001800D02*
X80443225Y-63122752D01*
X80443225Y-63122752D02*
X80261796Y-63122752D01*
X80261796Y-63122752D02*
X80080368Y-63001800D01*
X80080368Y-63001800D02*
X79989653Y-62880847D01*
X79989653Y-62880847D02*
X79898939Y-62638942D01*
X79898939Y-62638942D02*
X79808225Y-62155133D01*
X79808225Y-62155133D02*
X79808225Y-61550371D01*
X79808225Y-61550371D02*
X79898939Y-61066561D01*
X79898939Y-61066561D02*
X79989653Y-60824657D01*
X79989653Y-60824657D02*
X80080368Y-60703704D01*
X80080368Y-60703704D02*
X80261796Y-60582752D01*
X81622511Y-60824657D02*
X81713225Y-60703704D01*
X81713225Y-60703704D02*
X81894654Y-60582752D01*
X81894654Y-60582752D02*
X82348225Y-60582752D01*
X82348225Y-60582752D02*
X82529654Y-60703704D01*
X82529654Y-60703704D02*
X82620368Y-60824657D01*
X82620368Y-60824657D02*
X82711082Y-61066561D01*
X82711082Y-61066561D02*
X82711082Y-61308466D01*
X82711082Y-61308466D02*
X82620368Y-61671323D01*
X82620368Y-61671323D02*
X81531796Y-63122752D01*
X81531796Y-63122752D02*
X82711082Y-63122752D01*
X84434654Y-60582752D02*
X83527511Y-60582752D01*
X83527511Y-60582752D02*
X83436797Y-61792276D01*
X83436797Y-61792276D02*
X83527511Y-61671323D01*
X83527511Y-61671323D02*
X83708940Y-61550371D01*
X83708940Y-61550371D02*
X84162511Y-61550371D01*
X84162511Y-61550371D02*
X84343940Y-61671323D01*
X84343940Y-61671323D02*
X84434654Y-61792276D01*
X84434654Y-61792276D02*
X84525368Y-62034180D01*
X84525368Y-62034180D02*
X84525368Y-62638942D01*
X84525368Y-62638942D02*
X84434654Y-62880847D01*
X84434654Y-62880847D02*
X84343940Y-63001800D01*
X84343940Y-63001800D02*
X84162511Y-63122752D01*
X84162511Y-63122752D02*
X83708940Y-63122752D01*
X83708940Y-63122752D02*
X83527511Y-63001800D01*
X83527511Y-63001800D02*
X83436797Y-62880847D01*
X85341797Y-62155133D02*
X86793226Y-62155133D01*
X88063225Y-60582752D02*
X88244654Y-60582752D01*
X88244654Y-60582752D02*
X88426082Y-60703704D01*
X88426082Y-60703704D02*
X88516797Y-60824657D01*
X88516797Y-60824657D02*
X88607511Y-61066561D01*
X88607511Y-61066561D02*
X88698225Y-61550371D01*
X88698225Y-61550371D02*
X88698225Y-62155133D01*
X88698225Y-62155133D02*
X88607511Y-62638942D01*
X88607511Y-62638942D02*
X88516797Y-62880847D01*
X88516797Y-62880847D02*
X88426082Y-63001800D01*
X88426082Y-63001800D02*
X88244654Y-63122752D01*
X88244654Y-63122752D02*
X88063225Y-63122752D01*
X88063225Y-63122752D02*
X87881797Y-63001800D01*
X87881797Y-63001800D02*
X87791082Y-62880847D01*
X87791082Y-62880847D02*
X87700368Y-62638942D01*
X87700368Y-62638942D02*
X87609654Y-62155133D01*
X87609654Y-62155133D02*
X87609654Y-61550371D01*
X87609654Y-61550371D02*
X87700368Y-61066561D01*
X87700368Y-61066561D02*
X87791082Y-60824657D01*
X87791082Y-60824657D02*
X87881797Y-60703704D01*
X87881797Y-60703704D02*
X88063225Y-60582752D01*
X90512511Y-63122752D02*
X89423940Y-63122752D01*
X89968225Y-63122752D02*
X89968225Y-60582752D01*
X89968225Y-60582752D02*
X89786797Y-60945609D01*
X89786797Y-60945609D02*
X89605368Y-61187514D01*
X89605368Y-61187514D02*
X89423940Y-61308466D01*
X92326797Y-63122752D02*
X91238226Y-63122752D01*
X91782511Y-63122752D02*
X91782511Y-60582752D01*
X91782511Y-60582752D02*
X91601083Y-60945609D01*
X91601083Y-60945609D02*
X91419654Y-61187514D01*
X91419654Y-61187514D02*
X91238226Y-61308466D01*
X95955370Y-63001800D02*
X96227513Y-63122752D01*
X96227513Y-63122752D02*
X96681084Y-63122752D01*
X96681084Y-63122752D02*
X96862513Y-63001800D01*
X96862513Y-63001800D02*
X96953227Y-62880847D01*
X96953227Y-62880847D02*
X97043941Y-62638942D01*
X97043941Y-62638942D02*
X97043941Y-62397038D01*
X97043941Y-62397038D02*
X96953227Y-62155133D01*
X96953227Y-62155133D02*
X96862513Y-62034180D01*
X96862513Y-62034180D02*
X96681084Y-61913228D01*
X96681084Y-61913228D02*
X96318227Y-61792276D01*
X96318227Y-61792276D02*
X96136798Y-61671323D01*
X96136798Y-61671323D02*
X96046084Y-61550371D01*
X96046084Y-61550371D02*
X95955370Y-61308466D01*
X95955370Y-61308466D02*
X95955370Y-61066561D01*
X95955370Y-61066561D02*
X96046084Y-60824657D01*
X96046084Y-60824657D02*
X96136798Y-60703704D01*
X96136798Y-60703704D02*
X96318227Y-60582752D01*
X96318227Y-60582752D02*
X96771798Y-60582752D01*
X96771798Y-60582752D02*
X97043941Y-60703704D01*
X97678941Y-61429419D02*
X98132513Y-63122752D01*
X98586084Y-61429419D02*
X98132513Y-63122752D01*
X98132513Y-63122752D02*
X97951084Y-63727514D01*
X97951084Y-63727514D02*
X97860370Y-63848466D01*
X97860370Y-63848466D02*
X97678941Y-63969419D01*
X99311799Y-63122752D02*
X99311799Y-61429419D01*
X99311799Y-61671323D02*
X99402513Y-61550371D01*
X99402513Y-61550371D02*
X99583942Y-61429419D01*
X99583942Y-61429419D02*
X99856085Y-61429419D01*
X99856085Y-61429419D02*
X100037513Y-61550371D01*
X100037513Y-61550371D02*
X100128228Y-61792276D01*
X100128228Y-61792276D02*
X100128228Y-63122752D01*
X100128228Y-61792276D02*
X100218942Y-61550371D01*
X100218942Y-61550371D02*
X100400370Y-61429419D01*
X100400370Y-61429419D02*
X100672513Y-61429419D01*
X100672513Y-61429419D02*
X100853942Y-61550371D01*
X100853942Y-61550371D02*
X100944656Y-61792276D01*
X100944656Y-61792276D02*
X100944656Y-63122752D01*
X101851799Y-63122752D02*
X101851799Y-60582752D01*
X101851799Y-61550371D02*
X102033228Y-61429419D01*
X102033228Y-61429419D02*
X102396085Y-61429419D01*
X102396085Y-61429419D02*
X102577513Y-61550371D01*
X102577513Y-61550371D02*
X102668228Y-61671323D01*
X102668228Y-61671323D02*
X102758942Y-61913228D01*
X102758942Y-61913228D02*
X102758942Y-62638942D01*
X102758942Y-62638942D02*
X102668228Y-62880847D01*
X102668228Y-62880847D02*
X102577513Y-63001800D01*
X102577513Y-63001800D02*
X102396085Y-63122752D01*
X102396085Y-63122752D02*
X102033228Y-63122752D01*
X102033228Y-63122752D02*
X101851799Y-63001800D01*
X103575370Y-63122752D02*
X103575370Y-61429419D01*
X103575370Y-61913228D02*
X103666084Y-61671323D01*
X103666084Y-61671323D02*
X103756799Y-61550371D01*
X103756799Y-61550371D02*
X103938227Y-61429419D01*
X103938227Y-61429419D02*
X104119656Y-61429419D01*
X105026799Y-63122752D02*
X104845370Y-63001800D01*
X104845370Y-63001800D02*
X104754656Y-62880847D01*
X104754656Y-62880847D02*
X104663942Y-62638942D01*
X104663942Y-62638942D02*
X104663942Y-61913228D01*
X104663942Y-61913228D02*
X104754656Y-61671323D01*
X104754656Y-61671323D02*
X104845370Y-61550371D01*
X104845370Y-61550371D02*
X105026799Y-61429419D01*
X105026799Y-61429419D02*
X105298942Y-61429419D01*
X105298942Y-61429419D02*
X105480370Y-61550371D01*
X105480370Y-61550371D02*
X105571085Y-61671323D01*
X105571085Y-61671323D02*
X105661799Y-61913228D01*
X105661799Y-61913228D02*
X105661799Y-62638942D01*
X105661799Y-62638942D02*
X105571085Y-62880847D01*
X105571085Y-62880847D02*
X105480370Y-63001800D01*
X105480370Y-63001800D02*
X105298942Y-63122752D01*
X105298942Y-63122752D02*
X105026799Y-63122752D01*
X106387513Y-63001800D02*
X106568941Y-63122752D01*
X106568941Y-63122752D02*
X106931798Y-63122752D01*
X106931798Y-63122752D02*
X107113227Y-63001800D01*
X107113227Y-63001800D02*
X107203941Y-62759895D01*
X107203941Y-62759895D02*
X107203941Y-62638942D01*
X107203941Y-62638942D02*
X107113227Y-62397038D01*
X107113227Y-62397038D02*
X106931798Y-62276085D01*
X106931798Y-62276085D02*
X106659656Y-62276085D01*
X106659656Y-62276085D02*
X106478227Y-62155133D01*
X106478227Y-62155133D02*
X106387513Y-61913228D01*
X106387513Y-61913228D02*
X106387513Y-61792276D01*
X106387513Y-61792276D02*
X106478227Y-61550371D01*
X106478227Y-61550371D02*
X106659656Y-61429419D01*
X106659656Y-61429419D02*
X106931798Y-61429419D01*
X106931798Y-61429419D02*
X107113227Y-61550371D01*
X108020370Y-63122752D02*
X108020370Y-61429419D01*
X108020370Y-60582752D02*
X107929656Y-60703704D01*
X107929656Y-60703704D02*
X108020370Y-60824657D01*
X108020370Y-60824657D02*
X108111084Y-60703704D01*
X108111084Y-60703704D02*
X108020370Y-60582752D01*
X108020370Y-60582752D02*
X108020370Y-60824657D01*
X109743942Y-63122752D02*
X109743942Y-61792276D01*
X109743942Y-61792276D02*
X109653227Y-61550371D01*
X109653227Y-61550371D02*
X109471799Y-61429419D01*
X109471799Y-61429419D02*
X109108942Y-61429419D01*
X109108942Y-61429419D02*
X108927513Y-61550371D01*
X109743942Y-63001800D02*
X109562513Y-63122752D01*
X109562513Y-63122752D02*
X109108942Y-63122752D01*
X109108942Y-63122752D02*
X108927513Y-63001800D01*
X108927513Y-63001800D02*
X108836799Y-62759895D01*
X108836799Y-62759895D02*
X108836799Y-62517990D01*
X108836799Y-62517990D02*
X108927513Y-62276085D01*
X108927513Y-62276085D02*
X109108942Y-62155133D01*
X109108942Y-62155133D02*
X109562513Y-62155133D01*
X109562513Y-62155133D02*
X109743942Y-62034180D01*
X79898939Y-67212152D02*
X79898939Y-65518819D01*
X79898939Y-66002628D02*
X79989653Y-65760723D01*
X79989653Y-65760723D02*
X80080368Y-65639771D01*
X80080368Y-65639771D02*
X80261796Y-65518819D01*
X80261796Y-65518819D02*
X80443225Y-65518819D01*
X81803939Y-67091200D02*
X81622511Y-67212152D01*
X81622511Y-67212152D02*
X81259654Y-67212152D01*
X81259654Y-67212152D02*
X81078225Y-67091200D01*
X81078225Y-67091200D02*
X80987511Y-66849295D01*
X80987511Y-66849295D02*
X80987511Y-65881676D01*
X80987511Y-65881676D02*
X81078225Y-65639771D01*
X81078225Y-65639771D02*
X81259654Y-65518819D01*
X81259654Y-65518819D02*
X81622511Y-65518819D01*
X81622511Y-65518819D02*
X81803939Y-65639771D01*
X81803939Y-65639771D02*
X81894654Y-65881676D01*
X81894654Y-65881676D02*
X81894654Y-66123580D01*
X81894654Y-66123580D02*
X80987511Y-66365485D01*
X82529653Y-65518819D02*
X82983225Y-67212152D01*
X82983225Y-67212152D02*
X83436796Y-65518819D01*
X86248940Y-65881676D02*
X86521083Y-66002628D01*
X86521083Y-66002628D02*
X86611797Y-66123580D01*
X86611797Y-66123580D02*
X86702511Y-66365485D01*
X86702511Y-66365485D02*
X86702511Y-66728342D01*
X86702511Y-66728342D02*
X86611797Y-66970247D01*
X86611797Y-66970247D02*
X86521083Y-67091200D01*
X86521083Y-67091200D02*
X86339654Y-67212152D01*
X86339654Y-67212152D02*
X85613940Y-67212152D01*
X85613940Y-67212152D02*
X85613940Y-64672152D01*
X85613940Y-64672152D02*
X86248940Y-64672152D01*
X86248940Y-64672152D02*
X86430369Y-64793104D01*
X86430369Y-64793104D02*
X86521083Y-64914057D01*
X86521083Y-64914057D02*
X86611797Y-65155961D01*
X86611797Y-65155961D02*
X86611797Y-65397866D01*
X86611797Y-65397866D02*
X86521083Y-65639771D01*
X86521083Y-65639771D02*
X86430369Y-65760723D01*
X86430369Y-65760723D02*
X86248940Y-65881676D01*
X86248940Y-65881676D02*
X85613940Y-65881676D01*
X100218943Y-66970247D02*
X100128229Y-67091200D01*
X100128229Y-67091200D02*
X99856086Y-67212152D01*
X99856086Y-67212152D02*
X99674658Y-67212152D01*
X99674658Y-67212152D02*
X99402515Y-67091200D01*
X99402515Y-67091200D02*
X99221086Y-66849295D01*
X99221086Y-66849295D02*
X99130372Y-66607390D01*
X99130372Y-66607390D02*
X99039658Y-66123580D01*
X99039658Y-66123580D02*
X99039658Y-65760723D01*
X99039658Y-65760723D02*
X99130372Y-65276914D01*
X99130372Y-65276914D02*
X99221086Y-65035009D01*
X99221086Y-65035009D02*
X99402515Y-64793104D01*
X99402515Y-64793104D02*
X99674658Y-64672152D01*
X99674658Y-64672152D02*
X99856086Y-64672152D01*
X99856086Y-64672152D02*
X100128229Y-64793104D01*
X100128229Y-64793104D02*
X100218943Y-64914057D01*
X101307515Y-67212152D02*
X101126086Y-67091200D01*
X101126086Y-67091200D02*
X101035372Y-66970247D01*
X101035372Y-66970247D02*
X100944658Y-66728342D01*
X100944658Y-66728342D02*
X100944658Y-66002628D01*
X100944658Y-66002628D02*
X101035372Y-65760723D01*
X101035372Y-65760723D02*
X101126086Y-65639771D01*
X101126086Y-65639771D02*
X101307515Y-65518819D01*
X101307515Y-65518819D02*
X101579658Y-65518819D01*
X101579658Y-65518819D02*
X101761086Y-65639771D01*
X101761086Y-65639771D02*
X101851801Y-65760723D01*
X101851801Y-65760723D02*
X101942515Y-66002628D01*
X101942515Y-66002628D02*
X101942515Y-66728342D01*
X101942515Y-66728342D02*
X101851801Y-66970247D01*
X101851801Y-66970247D02*
X101761086Y-67091200D01*
X101761086Y-67091200D02*
X101579658Y-67212152D01*
X101579658Y-67212152D02*
X101307515Y-67212152D01*
X102758943Y-65518819D02*
X102758943Y-67212152D01*
X102758943Y-65760723D02*
X102849657Y-65639771D01*
X102849657Y-65639771D02*
X103031086Y-65518819D01*
X103031086Y-65518819D02*
X103303229Y-65518819D01*
X103303229Y-65518819D02*
X103484657Y-65639771D01*
X103484657Y-65639771D02*
X103575372Y-65881676D01*
X103575372Y-65881676D02*
X103575372Y-67212152D01*
X104210371Y-65518819D02*
X104936085Y-65518819D01*
X104482514Y-64672152D02*
X104482514Y-66849295D01*
X104482514Y-66849295D02*
X104573228Y-67091200D01*
X104573228Y-67091200D02*
X104754657Y-67212152D01*
X104754657Y-67212152D02*
X104936085Y-67212152D01*
X105571085Y-67212152D02*
X105571085Y-65518819D01*
X105571085Y-66002628D02*
X105661799Y-65760723D01*
X105661799Y-65760723D02*
X105752514Y-65639771D01*
X105752514Y-65639771D02*
X105933942Y-65518819D01*
X105933942Y-65518819D02*
X106115371Y-65518819D01*
X107022514Y-67212152D02*
X106841085Y-67091200D01*
X106841085Y-67091200D02*
X106750371Y-66970247D01*
X106750371Y-66970247D02*
X106659657Y-66728342D01*
X106659657Y-66728342D02*
X106659657Y-66002628D01*
X106659657Y-66002628D02*
X106750371Y-65760723D01*
X106750371Y-65760723D02*
X106841085Y-65639771D01*
X106841085Y-65639771D02*
X107022514Y-65518819D01*
X107022514Y-65518819D02*
X107294657Y-65518819D01*
X107294657Y-65518819D02*
X107476085Y-65639771D01*
X107476085Y-65639771D02*
X107566800Y-65760723D01*
X107566800Y-65760723D02*
X107657514Y-66002628D01*
X107657514Y-66002628D02*
X107657514Y-66728342D01*
X107657514Y-66728342D02*
X107566800Y-66970247D01*
X107566800Y-66970247D02*
X107476085Y-67091200D01*
X107476085Y-67091200D02*
X107294657Y-67212152D01*
X107294657Y-67212152D02*
X107022514Y-67212152D01*
X108746085Y-67212152D02*
X108564656Y-67091200D01*
X108564656Y-67091200D02*
X108473942Y-66849295D01*
X108473942Y-66849295D02*
X108473942Y-64672152D01*
X109743942Y-67212152D02*
X109562513Y-67091200D01*
X109562513Y-67091200D02*
X109471799Y-66849295D01*
X109471799Y-66849295D02*
X109471799Y-64672152D01*
X111195370Y-67091200D02*
X111013942Y-67212152D01*
X111013942Y-67212152D02*
X110651085Y-67212152D01*
X110651085Y-67212152D02*
X110469656Y-67091200D01*
X110469656Y-67091200D02*
X110378942Y-66849295D01*
X110378942Y-66849295D02*
X110378942Y-65881676D01*
X110378942Y-65881676D02*
X110469656Y-65639771D01*
X110469656Y-65639771D02*
X110651085Y-65518819D01*
X110651085Y-65518819D02*
X111013942Y-65518819D01*
X111013942Y-65518819D02*
X111195370Y-65639771D01*
X111195370Y-65639771D02*
X111286085Y-65881676D01*
X111286085Y-65881676D02*
X111286085Y-66123580D01*
X111286085Y-66123580D02*
X110378942Y-66365485D01*
X112102513Y-67212152D02*
X112102513Y-65518819D01*
X112102513Y-66002628D02*
X112193227Y-65760723D01*
X112193227Y-65760723D02*
X112283942Y-65639771D01*
X112283942Y-65639771D02*
X112465370Y-65518819D01*
X112465370Y-65518819D02*
X112646799Y-65518819D01*
D11*
X106180095Y-106896819D02*
X106751523Y-106896819D01*
X106465809Y-107896819D02*
X106465809Y-106896819D01*
X107084857Y-107896819D02*
X107084857Y-106896819D01*
X107084857Y-106896819D02*
X107465809Y-106896819D01*
X107465809Y-106896819D02*
X107561047Y-106944438D01*
X107561047Y-106944438D02*
X107608666Y-106992057D01*
X107608666Y-106992057D02*
X107656285Y-107087295D01*
X107656285Y-107087295D02*
X107656285Y-107230152D01*
X107656285Y-107230152D02*
X107608666Y-107325390D01*
X107608666Y-107325390D02*
X107561047Y-107373009D01*
X107561047Y-107373009D02*
X107465809Y-107420628D01*
X107465809Y-107420628D02*
X107084857Y-107420628D01*
X108513428Y-107230152D02*
X108513428Y-107896819D01*
X108275333Y-106849200D02*
X108037238Y-107563485D01*
X108037238Y-107563485D02*
X108656285Y-107563485D01*
X152916095Y-87338819D02*
X153487523Y-87338819D01*
X153201809Y-88338819D02*
X153201809Y-87338819D01*
X153820857Y-88338819D02*
X153820857Y-87338819D01*
X153820857Y-87338819D02*
X154201809Y-87338819D01*
X154201809Y-87338819D02*
X154297047Y-87386438D01*
X154297047Y-87386438D02*
X154344666Y-87434057D01*
X154344666Y-87434057D02*
X154392285Y-87529295D01*
X154392285Y-87529295D02*
X154392285Y-87672152D01*
X154392285Y-87672152D02*
X154344666Y-87767390D01*
X154344666Y-87767390D02*
X154297047Y-87815009D01*
X154297047Y-87815009D02*
X154201809Y-87862628D01*
X154201809Y-87862628D02*
X153820857Y-87862628D01*
X155344666Y-88338819D02*
X154773238Y-88338819D01*
X155058952Y-88338819D02*
X155058952Y-87338819D01*
X155058952Y-87338819D02*
X154963714Y-87481676D01*
X154963714Y-87481676D02*
X154868476Y-87576914D01*
X154868476Y-87576914D02*
X154773238Y-87624533D01*
X152916095Y-109944819D02*
X153487523Y-109944819D01*
X153201809Y-110944819D02*
X153201809Y-109944819D01*
X153820857Y-110944819D02*
X153820857Y-109944819D01*
X153820857Y-109944819D02*
X154201809Y-109944819D01*
X154201809Y-109944819D02*
X154297047Y-109992438D01*
X154297047Y-109992438D02*
X154344666Y-110040057D01*
X154344666Y-110040057D02*
X154392285Y-110135295D01*
X154392285Y-110135295D02*
X154392285Y-110278152D01*
X154392285Y-110278152D02*
X154344666Y-110373390D01*
X154344666Y-110373390D02*
X154297047Y-110421009D01*
X154297047Y-110421009D02*
X154201809Y-110468628D01*
X154201809Y-110468628D02*
X153820857Y-110468628D01*
X154725619Y-109944819D02*
X155344666Y-109944819D01*
X155344666Y-109944819D02*
X155011333Y-110325771D01*
X155011333Y-110325771D02*
X155154190Y-110325771D01*
X155154190Y-110325771D02*
X155249428Y-110373390D01*
X155249428Y-110373390D02*
X155297047Y-110421009D01*
X155297047Y-110421009D02*
X155344666Y-110516247D01*
X155344666Y-110516247D02*
X155344666Y-110754342D01*
X155344666Y-110754342D02*
X155297047Y-110849580D01*
X155297047Y-110849580D02*
X155249428Y-110897200D01*
X155249428Y-110897200D02*
X155154190Y-110944819D01*
X155154190Y-110944819D02*
X154868476Y-110944819D01*
X154868476Y-110944819D02*
X154773238Y-110897200D01*
X154773238Y-110897200D02*
X154725619Y-110849580D01*
X106180095Y-111214819D02*
X106751523Y-111214819D01*
X106465809Y-112214819D02*
X106465809Y-111214819D01*
X107084857Y-112214819D02*
X107084857Y-111214819D01*
X107084857Y-111214819D02*
X107465809Y-111214819D01*
X107465809Y-111214819D02*
X107561047Y-111262438D01*
X107561047Y-111262438D02*
X107608666Y-111310057D01*
X107608666Y-111310057D02*
X107656285Y-111405295D01*
X107656285Y-111405295D02*
X107656285Y-111548152D01*
X107656285Y-111548152D02*
X107608666Y-111643390D01*
X107608666Y-111643390D02*
X107561047Y-111691009D01*
X107561047Y-111691009D02*
X107465809Y-111738628D01*
X107465809Y-111738628D02*
X107084857Y-111738628D01*
X108561047Y-111214819D02*
X108084857Y-111214819D01*
X108084857Y-111214819D02*
X108037238Y-111691009D01*
X108037238Y-111691009D02*
X108084857Y-111643390D01*
X108084857Y-111643390D02*
X108180095Y-111595771D01*
X108180095Y-111595771D02*
X108418190Y-111595771D01*
X108418190Y-111595771D02*
X108513428Y-111643390D01*
X108513428Y-111643390D02*
X108561047Y-111691009D01*
X108561047Y-111691009D02*
X108608666Y-111786247D01*
X108608666Y-111786247D02*
X108608666Y-112024342D01*
X108608666Y-112024342D02*
X108561047Y-112119580D01*
X108561047Y-112119580D02*
X108513428Y-112167200D01*
X108513428Y-112167200D02*
X108418190Y-112214819D01*
X108418190Y-112214819D02*
X108180095Y-112214819D01*
X108180095Y-112214819D02*
X108084857Y-112167200D01*
X108084857Y-112167200D02*
X108037238Y-112119580D01*
X152916095Y-67780819D02*
X153487523Y-67780819D01*
X153201809Y-68780819D02*
X153201809Y-67780819D01*
X153820857Y-68780819D02*
X153820857Y-67780819D01*
X153820857Y-67780819D02*
X154201809Y-67780819D01*
X154201809Y-67780819D02*
X154297047Y-67828438D01*
X154297047Y-67828438D02*
X154344666Y-67876057D01*
X154344666Y-67876057D02*
X154392285Y-67971295D01*
X154392285Y-67971295D02*
X154392285Y-68114152D01*
X154392285Y-68114152D02*
X154344666Y-68209390D01*
X154344666Y-68209390D02*
X154297047Y-68257009D01*
X154297047Y-68257009D02*
X154201809Y-68304628D01*
X154201809Y-68304628D02*
X153820857Y-68304628D01*
X155011333Y-67780819D02*
X155106571Y-67780819D01*
X155106571Y-67780819D02*
X155201809Y-67828438D01*
X155201809Y-67828438D02*
X155249428Y-67876057D01*
X155249428Y-67876057D02*
X155297047Y-67971295D01*
X155297047Y-67971295D02*
X155344666Y-68161771D01*
X155344666Y-68161771D02*
X155344666Y-68399866D01*
X155344666Y-68399866D02*
X155297047Y-68590342D01*
X155297047Y-68590342D02*
X155249428Y-68685580D01*
X155249428Y-68685580D02*
X155201809Y-68733200D01*
X155201809Y-68733200D02*
X155106571Y-68780819D01*
X155106571Y-68780819D02*
X155011333Y-68780819D01*
X155011333Y-68780819D02*
X154916095Y-68733200D01*
X154916095Y-68733200D02*
X154868476Y-68685580D01*
X154868476Y-68685580D02*
X154820857Y-68590342D01*
X154820857Y-68590342D02*
X154773238Y-68399866D01*
X154773238Y-68399866D02*
X154773238Y-68161771D01*
X154773238Y-68161771D02*
X154820857Y-67971295D01*
X154820857Y-67971295D02*
X154868476Y-67876057D01*
X154868476Y-67876057D02*
X154916095Y-67828438D01*
X154916095Y-67828438D02*
X155011333Y-67780819D01*
X66063905Y-113027619D02*
X66063905Y-112027619D01*
X66635333Y-113027619D02*
X66206762Y-112456190D01*
X66635333Y-112027619D02*
X66063905Y-112599047D01*
X67587714Y-113027619D02*
X67016286Y-113027619D01*
X67302000Y-113027619D02*
X67302000Y-112027619D01*
X67302000Y-112027619D02*
X67206762Y-112170476D01*
X67206762Y-112170476D02*
X67111524Y-112265714D01*
X67111524Y-112265714D02*
X67016286Y-112313333D01*
X77493905Y-113230819D02*
X77493905Y-112230819D01*
X78065333Y-113230819D02*
X77636762Y-112659390D01*
X78065333Y-112230819D02*
X77493905Y-112802247D01*
X78446286Y-112326057D02*
X78493905Y-112278438D01*
X78493905Y-112278438D02*
X78589143Y-112230819D01*
X78589143Y-112230819D02*
X78827238Y-112230819D01*
X78827238Y-112230819D02*
X78922476Y-112278438D01*
X78922476Y-112278438D02*
X78970095Y-112326057D01*
X78970095Y-112326057D02*
X79017714Y-112421295D01*
X79017714Y-112421295D02*
X79017714Y-112516533D01*
X79017714Y-112516533D02*
X78970095Y-112659390D01*
X78970095Y-112659390D02*
X78398667Y-113230819D01*
X78398667Y-113230819D02*
X79017714Y-113230819D01*
X60960095Y-111722819D02*
X60960095Y-112532342D01*
X60960095Y-112532342D02*
X61007714Y-112627580D01*
X61007714Y-112627580D02*
X61055333Y-112675200D01*
X61055333Y-112675200D02*
X61150571Y-112722819D01*
X61150571Y-112722819D02*
X61341047Y-112722819D01*
X61341047Y-112722819D02*
X61436285Y-112675200D01*
X61436285Y-112675200D02*
X61483904Y-112627580D01*
X61483904Y-112627580D02*
X61531523Y-112532342D01*
X61531523Y-112532342D02*
X61531523Y-111722819D01*
X61960095Y-111818057D02*
X62007714Y-111770438D01*
X62007714Y-111770438D02*
X62102952Y-111722819D01*
X62102952Y-111722819D02*
X62341047Y-111722819D01*
X62341047Y-111722819D02*
X62436285Y-111770438D01*
X62436285Y-111770438D02*
X62483904Y-111818057D01*
X62483904Y-111818057D02*
X62531523Y-111913295D01*
X62531523Y-111913295D02*
X62531523Y-112008533D01*
X62531523Y-112008533D02*
X62483904Y-112151390D01*
X62483904Y-112151390D02*
X61912476Y-112722819D01*
X61912476Y-112722819D02*
X62531523Y-112722819D01*
X139874666Y-123660819D02*
X139874666Y-124375104D01*
X139874666Y-124375104D02*
X139827047Y-124517961D01*
X139827047Y-124517961D02*
X139731809Y-124613200D01*
X139731809Y-124613200D02*
X139588952Y-124660819D01*
X139588952Y-124660819D02*
X139493714Y-124660819D01*
X140255619Y-123660819D02*
X140874666Y-123660819D01*
X140874666Y-123660819D02*
X140541333Y-124041771D01*
X140541333Y-124041771D02*
X140684190Y-124041771D01*
X140684190Y-124041771D02*
X140779428Y-124089390D01*
X140779428Y-124089390D02*
X140827047Y-124137009D01*
X140827047Y-124137009D02*
X140874666Y-124232247D01*
X140874666Y-124232247D02*
X140874666Y-124470342D01*
X140874666Y-124470342D02*
X140827047Y-124565580D01*
X140827047Y-124565580D02*
X140779428Y-124613200D01*
X140779428Y-124613200D02*
X140684190Y-124660819D01*
X140684190Y-124660819D02*
X140398476Y-124660819D01*
X140398476Y-124660819D02*
X140303238Y-124613200D01*
X140303238Y-124613200D02*
X140255619Y-124565580D01*
X90344666Y-134582819D02*
X90344666Y-135297104D01*
X90344666Y-135297104D02*
X90297047Y-135439961D01*
X90297047Y-135439961D02*
X90201809Y-135535200D01*
X90201809Y-135535200D02*
X90058952Y-135582819D01*
X90058952Y-135582819D02*
X89963714Y-135582819D01*
X91344666Y-135582819D02*
X90773238Y-135582819D01*
X91058952Y-135582819D02*
X91058952Y-134582819D01*
X91058952Y-134582819D02*
X90963714Y-134725676D01*
X90963714Y-134725676D02*
X90868476Y-134820914D01*
X90868476Y-134820914D02*
X90773238Y-134868533D01*
X95424666Y-134582819D02*
X95424666Y-135297104D01*
X95424666Y-135297104D02*
X95377047Y-135439961D01*
X95377047Y-135439961D02*
X95281809Y-135535200D01*
X95281809Y-135535200D02*
X95138952Y-135582819D01*
X95138952Y-135582819D02*
X95043714Y-135582819D01*
X95853238Y-134678057D02*
X95900857Y-134630438D01*
X95900857Y-134630438D02*
X95996095Y-134582819D01*
X95996095Y-134582819D02*
X96234190Y-134582819D01*
X96234190Y-134582819D02*
X96329428Y-134630438D01*
X96329428Y-134630438D02*
X96377047Y-134678057D01*
X96377047Y-134678057D02*
X96424666Y-134773295D01*
X96424666Y-134773295D02*
X96424666Y-134868533D01*
X96424666Y-134868533D02*
X96377047Y-135011390D01*
X96377047Y-135011390D02*
X95805619Y-135582819D01*
X95805619Y-135582819D02*
X96424666Y-135582819D01*
X46537714Y-69744819D02*
X46537714Y-68744819D01*
X46537714Y-68744819D02*
X46775809Y-68744819D01*
X46775809Y-68744819D02*
X46918666Y-68792438D01*
X46918666Y-68792438D02*
X47013904Y-68887676D01*
X47013904Y-68887676D02*
X47061523Y-68982914D01*
X47061523Y-68982914D02*
X47109142Y-69173390D01*
X47109142Y-69173390D02*
X47109142Y-69316247D01*
X47109142Y-69316247D02*
X47061523Y-69506723D01*
X47061523Y-69506723D02*
X47013904Y-69601961D01*
X47013904Y-69601961D02*
X46918666Y-69697200D01*
X46918666Y-69697200D02*
X46775809Y-69744819D01*
X46775809Y-69744819D02*
X46537714Y-69744819D01*
X47490095Y-69697200D02*
X47632952Y-69744819D01*
X47632952Y-69744819D02*
X47871047Y-69744819D01*
X47871047Y-69744819D02*
X47966285Y-69697200D01*
X47966285Y-69697200D02*
X48013904Y-69649580D01*
X48013904Y-69649580D02*
X48061523Y-69554342D01*
X48061523Y-69554342D02*
X48061523Y-69459104D01*
X48061523Y-69459104D02*
X48013904Y-69363866D01*
X48013904Y-69363866D02*
X47966285Y-69316247D01*
X47966285Y-69316247D02*
X47871047Y-69268628D01*
X47871047Y-69268628D02*
X47680571Y-69221009D01*
X47680571Y-69221009D02*
X47585333Y-69173390D01*
X47585333Y-69173390D02*
X47537714Y-69125771D01*
X47537714Y-69125771D02*
X47490095Y-69030533D01*
X47490095Y-69030533D02*
X47490095Y-68935295D01*
X47490095Y-68935295D02*
X47537714Y-68840057D01*
X47537714Y-68840057D02*
X47585333Y-68792438D01*
X47585333Y-68792438D02*
X47680571Y-68744819D01*
X47680571Y-68744819D02*
X47918666Y-68744819D01*
X47918666Y-68744819D02*
X48061523Y-68792438D01*
X49013904Y-69744819D02*
X48442476Y-69744819D01*
X48728190Y-69744819D02*
X48728190Y-68744819D01*
X48728190Y-68744819D02*
X48632952Y-68887676D01*
X48632952Y-68887676D02*
X48537714Y-68982914D01*
X48537714Y-68982914D02*
X48442476Y-69030533D01*
X152233333Y-91291580D02*
X152185714Y-91339200D01*
X152185714Y-91339200D02*
X152042857Y-91386819D01*
X152042857Y-91386819D02*
X151947619Y-91386819D01*
X151947619Y-91386819D02*
X151804762Y-91339200D01*
X151804762Y-91339200D02*
X151709524Y-91243961D01*
X151709524Y-91243961D02*
X151661905Y-91148723D01*
X151661905Y-91148723D02*
X151614286Y-90958247D01*
X151614286Y-90958247D02*
X151614286Y-90815390D01*
X151614286Y-90815390D02*
X151661905Y-90624914D01*
X151661905Y-90624914D02*
X151709524Y-90529676D01*
X151709524Y-90529676D02*
X151804762Y-90434438D01*
X151804762Y-90434438D02*
X151947619Y-90386819D01*
X151947619Y-90386819D02*
X152042857Y-90386819D01*
X152042857Y-90386819D02*
X152185714Y-90434438D01*
X152185714Y-90434438D02*
X152233333Y-90482057D01*
X152804762Y-90815390D02*
X152709524Y-90767771D01*
X152709524Y-90767771D02*
X152661905Y-90720152D01*
X152661905Y-90720152D02*
X152614286Y-90624914D01*
X152614286Y-90624914D02*
X152614286Y-90577295D01*
X152614286Y-90577295D02*
X152661905Y-90482057D01*
X152661905Y-90482057D02*
X152709524Y-90434438D01*
X152709524Y-90434438D02*
X152804762Y-90386819D01*
X152804762Y-90386819D02*
X152995238Y-90386819D01*
X152995238Y-90386819D02*
X153090476Y-90434438D01*
X153090476Y-90434438D02*
X153138095Y-90482057D01*
X153138095Y-90482057D02*
X153185714Y-90577295D01*
X153185714Y-90577295D02*
X153185714Y-90624914D01*
X153185714Y-90624914D02*
X153138095Y-90720152D01*
X153138095Y-90720152D02*
X153090476Y-90767771D01*
X153090476Y-90767771D02*
X152995238Y-90815390D01*
X152995238Y-90815390D02*
X152804762Y-90815390D01*
X152804762Y-90815390D02*
X152709524Y-90863009D01*
X152709524Y-90863009D02*
X152661905Y-90910628D01*
X152661905Y-90910628D02*
X152614286Y-91005866D01*
X152614286Y-91005866D02*
X152614286Y-91196342D01*
X152614286Y-91196342D02*
X152661905Y-91291580D01*
X152661905Y-91291580D02*
X152709524Y-91339200D01*
X152709524Y-91339200D02*
X152804762Y-91386819D01*
X152804762Y-91386819D02*
X152995238Y-91386819D01*
X152995238Y-91386819D02*
X153090476Y-91339200D01*
X153090476Y-91339200D02*
X153138095Y-91291580D01*
X153138095Y-91291580D02*
X153185714Y-91196342D01*
X153185714Y-91196342D02*
X153185714Y-91005866D01*
X153185714Y-91005866D02*
X153138095Y-90910628D01*
X153138095Y-90910628D02*
X153090476Y-90863009D01*
X153090476Y-90863009D02*
X152995238Y-90815390D01*
X53173333Y-126343580D02*
X53125714Y-126391200D01*
X53125714Y-126391200D02*
X52982857Y-126438819D01*
X52982857Y-126438819D02*
X52887619Y-126438819D01*
X52887619Y-126438819D02*
X52744762Y-126391200D01*
X52744762Y-126391200D02*
X52649524Y-126295961D01*
X52649524Y-126295961D02*
X52601905Y-126200723D01*
X52601905Y-126200723D02*
X52554286Y-126010247D01*
X52554286Y-126010247D02*
X52554286Y-125867390D01*
X52554286Y-125867390D02*
X52601905Y-125676914D01*
X52601905Y-125676914D02*
X52649524Y-125581676D01*
X52649524Y-125581676D02*
X52744762Y-125486438D01*
X52744762Y-125486438D02*
X52887619Y-125438819D01*
X52887619Y-125438819D02*
X52982857Y-125438819D01*
X52982857Y-125438819D02*
X53125714Y-125486438D01*
X53125714Y-125486438D02*
X53173333Y-125534057D01*
X53554286Y-125534057D02*
X53601905Y-125486438D01*
X53601905Y-125486438D02*
X53697143Y-125438819D01*
X53697143Y-125438819D02*
X53935238Y-125438819D01*
X53935238Y-125438819D02*
X54030476Y-125486438D01*
X54030476Y-125486438D02*
X54078095Y-125534057D01*
X54078095Y-125534057D02*
X54125714Y-125629295D01*
X54125714Y-125629295D02*
X54125714Y-125724533D01*
X54125714Y-125724533D02*
X54078095Y-125867390D01*
X54078095Y-125867390D02*
X53506667Y-126438819D01*
X53506667Y-126438819D02*
X54125714Y-126438819D01*
X158837333Y-80877580D02*
X158789714Y-80925200D01*
X158789714Y-80925200D02*
X158646857Y-80972819D01*
X158646857Y-80972819D02*
X158551619Y-80972819D01*
X158551619Y-80972819D02*
X158408762Y-80925200D01*
X158408762Y-80925200D02*
X158313524Y-80829961D01*
X158313524Y-80829961D02*
X158265905Y-80734723D01*
X158265905Y-80734723D02*
X158218286Y-80544247D01*
X158218286Y-80544247D02*
X158218286Y-80401390D01*
X158218286Y-80401390D02*
X158265905Y-80210914D01*
X158265905Y-80210914D02*
X158313524Y-80115676D01*
X158313524Y-80115676D02*
X158408762Y-80020438D01*
X158408762Y-80020438D02*
X158551619Y-79972819D01*
X158551619Y-79972819D02*
X158646857Y-79972819D01*
X158646857Y-79972819D02*
X158789714Y-80020438D01*
X158789714Y-80020438D02*
X158837333Y-80068057D01*
X159170667Y-79972819D02*
X159789714Y-79972819D01*
X159789714Y-79972819D02*
X159456381Y-80353771D01*
X159456381Y-80353771D02*
X159599238Y-80353771D01*
X159599238Y-80353771D02*
X159694476Y-80401390D01*
X159694476Y-80401390D02*
X159742095Y-80449009D01*
X159742095Y-80449009D02*
X159789714Y-80544247D01*
X159789714Y-80544247D02*
X159789714Y-80782342D01*
X159789714Y-80782342D02*
X159742095Y-80877580D01*
X159742095Y-80877580D02*
X159694476Y-80925200D01*
X159694476Y-80925200D02*
X159599238Y-80972819D01*
X159599238Y-80972819D02*
X159313524Y-80972819D01*
X159313524Y-80972819D02*
X159218286Y-80925200D01*
X159218286Y-80925200D02*
X159170667Y-80877580D01*
X153217714Y-106372819D02*
X153217714Y-105372819D01*
X153217714Y-105372819D02*
X153598666Y-105372819D01*
X153598666Y-105372819D02*
X153693904Y-105420438D01*
X153693904Y-105420438D02*
X153741523Y-105468057D01*
X153741523Y-105468057D02*
X153789142Y-105563295D01*
X153789142Y-105563295D02*
X153789142Y-105706152D01*
X153789142Y-105706152D02*
X153741523Y-105801390D01*
X153741523Y-105801390D02*
X153693904Y-105849009D01*
X153693904Y-105849009D02*
X153598666Y-105896628D01*
X153598666Y-105896628D02*
X153217714Y-105896628D01*
X154170095Y-106325200D02*
X154312952Y-106372819D01*
X154312952Y-106372819D02*
X154551047Y-106372819D01*
X154551047Y-106372819D02*
X154646285Y-106325200D01*
X154646285Y-106325200D02*
X154693904Y-106277580D01*
X154693904Y-106277580D02*
X154741523Y-106182342D01*
X154741523Y-106182342D02*
X154741523Y-106087104D01*
X154741523Y-106087104D02*
X154693904Y-105991866D01*
X154693904Y-105991866D02*
X154646285Y-105944247D01*
X154646285Y-105944247D02*
X154551047Y-105896628D01*
X154551047Y-105896628D02*
X154360571Y-105849009D01*
X154360571Y-105849009D02*
X154265333Y-105801390D01*
X154265333Y-105801390D02*
X154217714Y-105753771D01*
X154217714Y-105753771D02*
X154170095Y-105658533D01*
X154170095Y-105658533D02*
X154170095Y-105563295D01*
X154170095Y-105563295D02*
X154217714Y-105468057D01*
X154217714Y-105468057D02*
X154265333Y-105420438D01*
X154265333Y-105420438D02*
X154360571Y-105372819D01*
X154360571Y-105372819D02*
X154598666Y-105372819D01*
X154598666Y-105372819D02*
X154741523Y-105420438D01*
X155693904Y-106372819D02*
X155122476Y-106372819D01*
X155408190Y-106372819D02*
X155408190Y-105372819D01*
X155408190Y-105372819D02*
X155312952Y-105515676D01*
X155312952Y-105515676D02*
X155217714Y-105610914D01*
X155217714Y-105610914D02*
X155122476Y-105658533D01*
X142073333Y-91291580D02*
X142025714Y-91339200D01*
X142025714Y-91339200D02*
X141882857Y-91386819D01*
X141882857Y-91386819D02*
X141787619Y-91386819D01*
X141787619Y-91386819D02*
X141644762Y-91339200D01*
X141644762Y-91339200D02*
X141549524Y-91243961D01*
X141549524Y-91243961D02*
X141501905Y-91148723D01*
X141501905Y-91148723D02*
X141454286Y-90958247D01*
X141454286Y-90958247D02*
X141454286Y-90815390D01*
X141454286Y-90815390D02*
X141501905Y-90624914D01*
X141501905Y-90624914D02*
X141549524Y-90529676D01*
X141549524Y-90529676D02*
X141644762Y-90434438D01*
X141644762Y-90434438D02*
X141787619Y-90386819D01*
X141787619Y-90386819D02*
X141882857Y-90386819D01*
X141882857Y-90386819D02*
X142025714Y-90434438D01*
X142025714Y-90434438D02*
X142073333Y-90482057D01*
X142406667Y-90386819D02*
X143073333Y-90386819D01*
X143073333Y-90386819D02*
X142644762Y-91386819D01*
X144613333Y-91291580D02*
X144565714Y-91339200D01*
X144565714Y-91339200D02*
X144422857Y-91386819D01*
X144422857Y-91386819D02*
X144327619Y-91386819D01*
X144327619Y-91386819D02*
X144184762Y-91339200D01*
X144184762Y-91339200D02*
X144089524Y-91243961D01*
X144089524Y-91243961D02*
X144041905Y-91148723D01*
X144041905Y-91148723D02*
X143994286Y-90958247D01*
X143994286Y-90958247D02*
X143994286Y-90815390D01*
X143994286Y-90815390D02*
X144041905Y-90624914D01*
X144041905Y-90624914D02*
X144089524Y-90529676D01*
X144089524Y-90529676D02*
X144184762Y-90434438D01*
X144184762Y-90434438D02*
X144327619Y-90386819D01*
X144327619Y-90386819D02*
X144422857Y-90386819D01*
X144422857Y-90386819D02*
X144565714Y-90434438D01*
X144565714Y-90434438D02*
X144613333Y-90482057D01*
X145089524Y-91386819D02*
X145280000Y-91386819D01*
X145280000Y-91386819D02*
X145375238Y-91339200D01*
X145375238Y-91339200D02*
X145422857Y-91291580D01*
X145422857Y-91291580D02*
X145518095Y-91148723D01*
X145518095Y-91148723D02*
X145565714Y-90958247D01*
X145565714Y-90958247D02*
X145565714Y-90577295D01*
X145565714Y-90577295D02*
X145518095Y-90482057D01*
X145518095Y-90482057D02*
X145470476Y-90434438D01*
X145470476Y-90434438D02*
X145375238Y-90386819D01*
X145375238Y-90386819D02*
X145184762Y-90386819D01*
X145184762Y-90386819D02*
X145089524Y-90434438D01*
X145089524Y-90434438D02*
X145041905Y-90482057D01*
X145041905Y-90482057D02*
X144994286Y-90577295D01*
X144994286Y-90577295D02*
X144994286Y-90815390D01*
X144994286Y-90815390D02*
X145041905Y-90910628D01*
X145041905Y-90910628D02*
X145089524Y-90958247D01*
X145089524Y-90958247D02*
X145184762Y-91005866D01*
X145184762Y-91005866D02*
X145375238Y-91005866D01*
X145375238Y-91005866D02*
X145470476Y-90958247D01*
X145470476Y-90958247D02*
X145518095Y-90910628D01*
X145518095Y-90910628D02*
X145565714Y-90815390D01*
X62825333Y-126343580D02*
X62777714Y-126391200D01*
X62777714Y-126391200D02*
X62634857Y-126438819D01*
X62634857Y-126438819D02*
X62539619Y-126438819D01*
X62539619Y-126438819D02*
X62396762Y-126391200D01*
X62396762Y-126391200D02*
X62301524Y-126295961D01*
X62301524Y-126295961D02*
X62253905Y-126200723D01*
X62253905Y-126200723D02*
X62206286Y-126010247D01*
X62206286Y-126010247D02*
X62206286Y-125867390D01*
X62206286Y-125867390D02*
X62253905Y-125676914D01*
X62253905Y-125676914D02*
X62301524Y-125581676D01*
X62301524Y-125581676D02*
X62396762Y-125486438D01*
X62396762Y-125486438D02*
X62539619Y-125438819D01*
X62539619Y-125438819D02*
X62634857Y-125438819D01*
X62634857Y-125438819D02*
X62777714Y-125486438D01*
X62777714Y-125486438D02*
X62825333Y-125534057D01*
X63777714Y-126438819D02*
X63206286Y-126438819D01*
X63492000Y-126438819D02*
X63492000Y-125438819D01*
X63492000Y-125438819D02*
X63396762Y-125581676D01*
X63396762Y-125581676D02*
X63301524Y-125676914D01*
X63301524Y-125676914D02*
X63206286Y-125724533D01*
X152916095Y-114262819D02*
X153487523Y-114262819D01*
X153201809Y-115262819D02*
X153201809Y-114262819D01*
X153820857Y-115262819D02*
X153820857Y-114262819D01*
X153820857Y-114262819D02*
X154201809Y-114262819D01*
X154201809Y-114262819D02*
X154297047Y-114310438D01*
X154297047Y-114310438D02*
X154344666Y-114358057D01*
X154344666Y-114358057D02*
X154392285Y-114453295D01*
X154392285Y-114453295D02*
X154392285Y-114596152D01*
X154392285Y-114596152D02*
X154344666Y-114691390D01*
X154344666Y-114691390D02*
X154297047Y-114739009D01*
X154297047Y-114739009D02*
X154201809Y-114786628D01*
X154201809Y-114786628D02*
X153820857Y-114786628D01*
X154773238Y-114358057D02*
X154820857Y-114310438D01*
X154820857Y-114310438D02*
X154916095Y-114262819D01*
X154916095Y-114262819D02*
X155154190Y-114262819D01*
X155154190Y-114262819D02*
X155249428Y-114310438D01*
X155249428Y-114310438D02*
X155297047Y-114358057D01*
X155297047Y-114358057D02*
X155344666Y-114453295D01*
X155344666Y-114453295D02*
X155344666Y-114548533D01*
X155344666Y-114548533D02*
X155297047Y-114691390D01*
X155297047Y-114691390D02*
X154725619Y-115262819D01*
X154725619Y-115262819D02*
X155344666Y-115262819D01*
X143510095Y-85306819D02*
X143510095Y-86116342D01*
X143510095Y-86116342D02*
X143557714Y-86211580D01*
X143557714Y-86211580D02*
X143605333Y-86259200D01*
X143605333Y-86259200D02*
X143700571Y-86306819D01*
X143700571Y-86306819D02*
X143891047Y-86306819D01*
X143891047Y-86306819D02*
X143986285Y-86259200D01*
X143986285Y-86259200D02*
X144033904Y-86211580D01*
X144033904Y-86211580D02*
X144081523Y-86116342D01*
X144081523Y-86116342D02*
X144081523Y-85306819D01*
X145081523Y-86306819D02*
X144510095Y-86306819D01*
X144795809Y-86306819D02*
X144795809Y-85306819D01*
X144795809Y-85306819D02*
X144700571Y-85449676D01*
X144700571Y-85449676D02*
X144605333Y-85544914D01*
X144605333Y-85544914D02*
X144510095Y-85592533D01*
X117856095Y-116739200D02*
X117998952Y-116786819D01*
X117998952Y-116786819D02*
X118237047Y-116786819D01*
X118237047Y-116786819D02*
X118332285Y-116739200D01*
X118332285Y-116739200D02*
X118379904Y-116691580D01*
X118379904Y-116691580D02*
X118427523Y-116596342D01*
X118427523Y-116596342D02*
X118427523Y-116501104D01*
X118427523Y-116501104D02*
X118379904Y-116405866D01*
X118379904Y-116405866D02*
X118332285Y-116358247D01*
X118332285Y-116358247D02*
X118237047Y-116310628D01*
X118237047Y-116310628D02*
X118046571Y-116263009D01*
X118046571Y-116263009D02*
X117951333Y-116215390D01*
X117951333Y-116215390D02*
X117903714Y-116167771D01*
X117903714Y-116167771D02*
X117856095Y-116072533D01*
X117856095Y-116072533D02*
X117856095Y-115977295D01*
X117856095Y-115977295D02*
X117903714Y-115882057D01*
X117903714Y-115882057D02*
X117951333Y-115834438D01*
X117951333Y-115834438D02*
X118046571Y-115786819D01*
X118046571Y-115786819D02*
X118284666Y-115786819D01*
X118284666Y-115786819D02*
X118427523Y-115834438D01*
X119379904Y-116786819D02*
X118808476Y-116786819D01*
X119094190Y-116786819D02*
X119094190Y-115786819D01*
X119094190Y-115786819D02*
X118998952Y-115929676D01*
X118998952Y-115929676D02*
X118903714Y-116024914D01*
X118903714Y-116024914D02*
X118808476Y-116072533D01*
X61333142Y-60398819D02*
X60999809Y-59922628D01*
X60761714Y-60398819D02*
X60761714Y-59398819D01*
X60761714Y-59398819D02*
X61142666Y-59398819D01*
X61142666Y-59398819D02*
X61237904Y-59446438D01*
X61237904Y-59446438D02*
X61285523Y-59494057D01*
X61285523Y-59494057D02*
X61333142Y-59589295D01*
X61333142Y-59589295D02*
X61333142Y-59732152D01*
X61333142Y-59732152D02*
X61285523Y-59827390D01*
X61285523Y-59827390D02*
X61237904Y-59875009D01*
X61237904Y-59875009D02*
X61142666Y-59922628D01*
X61142666Y-59922628D02*
X60761714Y-59922628D01*
X62237904Y-59398819D02*
X61761714Y-59398819D01*
X61761714Y-59398819D02*
X61714095Y-59875009D01*
X61714095Y-59875009D02*
X61761714Y-59827390D01*
X61761714Y-59827390D02*
X61856952Y-59779771D01*
X61856952Y-59779771D02*
X62095047Y-59779771D01*
X62095047Y-59779771D02*
X62190285Y-59827390D01*
X62190285Y-59827390D02*
X62237904Y-59875009D01*
X62237904Y-59875009D02*
X62285523Y-59970247D01*
X62285523Y-59970247D02*
X62285523Y-60208342D01*
X62285523Y-60208342D02*
X62237904Y-60303580D01*
X62237904Y-60303580D02*
X62190285Y-60351200D01*
X62190285Y-60351200D02*
X62095047Y-60398819D01*
X62095047Y-60398819D02*
X61856952Y-60398819D01*
X61856952Y-60398819D02*
X61761714Y-60351200D01*
X61761714Y-60351200D02*
X61714095Y-60303580D01*
X63237904Y-60398819D02*
X62666476Y-60398819D01*
X62952190Y-60398819D02*
X62952190Y-59398819D01*
X62952190Y-59398819D02*
X62856952Y-59541676D01*
X62856952Y-59541676D02*
X62761714Y-59636914D01*
X62761714Y-59636914D02*
X62666476Y-59684533D01*
D12*
%TO.C,TP4*%
X106098000Y-108712000D02*
G75*
G03*
X106098000Y-108712000I-1450000J0D01*
G01*
%TO.C,TP1*%
X158930000Y-88900000D02*
G75*
G03*
X158930000Y-88900000I-1450000J0D01*
G01*
%TO.C,TP3*%
X158930000Y-111252000D02*
G75*
G03*
X158930000Y-111252000I-1450000J0D01*
G01*
%TO.C,TP5*%
X106098000Y-112776000D02*
G75*
G03*
X106098000Y-112776000I-1450000J0D01*
G01*
%TO.C,TP0*%
X158930000Y-69342000D02*
G75*
G03*
X158930000Y-69342000I-1450000J0D01*
G01*
%TO.C,K1*%
X71130000Y-113765000D02*
X68030000Y-113765000D01*
X66640000Y-113765000D02*
X66010000Y-113765000D01*
X66010000Y-114605000D02*
X66010000Y-113765000D01*
X74930000Y-117375000D02*
X74930000Y-118645000D01*
X73660000Y-117375000D02*
X73660000Y-118645000D01*
X72390000Y-117375000D02*
X71120000Y-119915000D01*
X68580000Y-117375000D02*
X73660000Y-117375000D01*
X74930000Y-118645000D02*
X73660000Y-118645000D01*
X73660000Y-118645000D02*
X73660000Y-119915000D01*
X68580000Y-118645000D02*
X67330000Y-118645000D01*
X67330000Y-118645000D02*
X67330000Y-117375000D01*
X73660000Y-119915000D02*
X68580000Y-119915000D01*
X68580000Y-119915000D02*
X68580000Y-117375000D01*
X66010000Y-124395000D02*
X66010000Y-115264995D01*
X66010000Y-132095000D02*
X66010000Y-125865000D01*
X76250000Y-134005000D02*
X76250000Y-116044998D01*
X76250000Y-134005000D02*
X68290000Y-134005000D01*
X66010000Y-134005000D02*
X66010000Y-133565000D01*
X66010000Y-134005000D02*
X66380000Y-134005000D01*
%TO.C,K2*%
X82560000Y-113765000D02*
X79460000Y-113765000D01*
X78070000Y-113765000D02*
X77440000Y-113765000D01*
X77440000Y-114605000D02*
X77440000Y-113765000D01*
X86360000Y-117375000D02*
X86360000Y-118645000D01*
X85090000Y-117375000D02*
X85090000Y-118645000D01*
X83820000Y-117375000D02*
X82550000Y-119915000D01*
X80010000Y-117375000D02*
X85090000Y-117375000D01*
X86360000Y-118645000D02*
X85090000Y-118645000D01*
X85090000Y-118645000D02*
X85090000Y-119915000D01*
X80010000Y-118645000D02*
X78760000Y-118645000D01*
X78760000Y-118645000D02*
X78760000Y-117375000D01*
X85090000Y-119915000D02*
X80010000Y-119915000D01*
X80010000Y-119915000D02*
X80010000Y-117375000D01*
X77440000Y-124395000D02*
X77440000Y-115264995D01*
X77440000Y-132095000D02*
X77440000Y-125865000D01*
X87680000Y-134005000D02*
X87680000Y-116044998D01*
X87680000Y-134005000D02*
X79720000Y-134005000D01*
X77440000Y-134005000D02*
X77440000Y-133565000D01*
X77440000Y-134005000D02*
X77810000Y-134005000D01*
%TO.C,U2*%
X43920000Y-122595000D02*
X59810000Y-122595000D01*
X43920000Y-122595000D02*
X43920000Y-112355000D01*
X59810000Y-122595000D02*
X59810000Y-112355000D01*
X59810000Y-120015000D02*
X62350000Y-120015000D01*
X59810000Y-117475000D02*
X62350000Y-117475000D01*
X59810000Y-114935000D02*
X62350000Y-114935000D01*
X43920000Y-112355000D02*
X59810000Y-112355000D01*
%TO.C,J3*%
X154100000Y-140300000D02*
X139100000Y-140300000D01*
X154100000Y-125300000D02*
X154100000Y-140300000D01*
X146600000Y-140100000D02*
X147600000Y-139100000D01*
X146600000Y-140100000D02*
X145600000Y-139100000D01*
X139100000Y-140300000D02*
X139100000Y-125300000D01*
X139100000Y-125300000D02*
X154100000Y-125300000D01*
%TO.C,J1*%
X49950000Y-136490000D02*
X49950000Y-148710000D01*
X49950000Y-145410000D02*
X92810000Y-145410000D01*
X49950000Y-147210000D02*
X49950000Y-145410000D01*
X49950000Y-148710000D02*
X92810000Y-148710000D01*
X52600000Y-148710000D02*
X54600000Y-148710000D01*
X52850000Y-147210000D02*
X52600000Y-148710000D01*
X53300000Y-135690000D02*
X53900000Y-135690000D01*
X53600000Y-136290000D02*
X53300000Y-135690000D01*
X53900000Y-135690000D02*
X53600000Y-136290000D01*
X54350000Y-147210000D02*
X52850000Y-147210000D01*
X54600000Y-148710000D02*
X54350000Y-147210000D01*
X57680000Y-148710000D02*
X59680000Y-148710000D01*
X57930000Y-147210000D02*
X57680000Y-148710000D01*
X59430000Y-147210000D02*
X57930000Y-147210000D01*
X59680000Y-148710000D02*
X59430000Y-147210000D01*
X62760000Y-148710000D02*
X64760000Y-148710000D01*
X63010000Y-147210000D02*
X62760000Y-148710000D01*
X64510000Y-147210000D02*
X63010000Y-147210000D01*
X64760000Y-148710000D02*
X64510000Y-147210000D01*
X67840000Y-148710000D02*
X69840000Y-148710000D01*
X68090000Y-147210000D02*
X67840000Y-148710000D01*
X69590000Y-147210000D02*
X68090000Y-147210000D01*
X69840000Y-148710000D02*
X69590000Y-147210000D01*
X72920000Y-148710000D02*
X74920000Y-148710000D01*
X73170000Y-147210000D02*
X72920000Y-148710000D01*
X74670000Y-147210000D02*
X73170000Y-147210000D01*
X74920000Y-148710000D02*
X74670000Y-147210000D01*
X78000000Y-148710000D02*
X80000000Y-148710000D01*
X78250000Y-147210000D02*
X78000000Y-148710000D01*
X79750000Y-147210000D02*
X78250000Y-147210000D01*
X80000000Y-148710000D02*
X79750000Y-147210000D01*
X83080000Y-148710000D02*
X85080000Y-148710000D01*
X83330000Y-147210000D02*
X83080000Y-148710000D01*
X84830000Y-147210000D02*
X83330000Y-147210000D01*
X85080000Y-148710000D02*
X84830000Y-147210000D01*
X88160000Y-148710000D02*
X90160000Y-148710000D01*
X88410000Y-147210000D02*
X88160000Y-148710000D01*
X89910000Y-147210000D02*
X88410000Y-147210000D01*
X90160000Y-148710000D02*
X89910000Y-147210000D01*
X92810000Y-136490000D02*
X49950000Y-136490000D01*
X92810000Y-145410000D02*
X92810000Y-147210000D01*
X92810000Y-147210000D02*
X49950000Y-147210000D01*
X92810000Y-148710000D02*
X92810000Y-136490000D01*
%TO.C,J2*%
X93950000Y-136490000D02*
X93950000Y-148710000D01*
X93950000Y-145410000D02*
X136810000Y-145410000D01*
X93950000Y-147210000D02*
X93950000Y-145410000D01*
X93950000Y-148710000D02*
X136810000Y-148710000D01*
X96600000Y-148710000D02*
X98600000Y-148710000D01*
X96850000Y-147210000D02*
X96600000Y-148710000D01*
X97300000Y-135690000D02*
X97900000Y-135690000D01*
X97600000Y-136290000D02*
X97300000Y-135690000D01*
X97900000Y-135690000D02*
X97600000Y-136290000D01*
X98350000Y-147210000D02*
X96850000Y-147210000D01*
X98600000Y-148710000D02*
X98350000Y-147210000D01*
X101680000Y-148710000D02*
X103680000Y-148710000D01*
X101930000Y-147210000D02*
X101680000Y-148710000D01*
X103430000Y-147210000D02*
X101930000Y-147210000D01*
X103680000Y-148710000D02*
X103430000Y-147210000D01*
X106760000Y-148710000D02*
X108760000Y-148710000D01*
X107010000Y-147210000D02*
X106760000Y-148710000D01*
X108510000Y-147210000D02*
X107010000Y-147210000D01*
X108760000Y-148710000D02*
X108510000Y-147210000D01*
X111840000Y-148710000D02*
X113840000Y-148710000D01*
X112090000Y-147210000D02*
X111840000Y-148710000D01*
X113590000Y-147210000D02*
X112090000Y-147210000D01*
X113840000Y-148710000D02*
X113590000Y-147210000D01*
X116920000Y-148710000D02*
X118920000Y-148710000D01*
X117170000Y-147210000D02*
X116920000Y-148710000D01*
X118670000Y-147210000D02*
X117170000Y-147210000D01*
X118920000Y-148710000D02*
X118670000Y-147210000D01*
X122000000Y-148710000D02*
X124000000Y-148710000D01*
X122250000Y-147210000D02*
X122000000Y-148710000D01*
X123750000Y-147210000D02*
X122250000Y-147210000D01*
X124000000Y-148710000D02*
X123750000Y-147210000D01*
X127080000Y-148710000D02*
X129080000Y-148710000D01*
X127330000Y-147210000D02*
X127080000Y-148710000D01*
X128830000Y-147210000D02*
X127330000Y-147210000D01*
X129080000Y-148710000D02*
X128830000Y-147210000D01*
X132160000Y-148710000D02*
X134160000Y-148710000D01*
X132410000Y-147210000D02*
X132160000Y-148710000D01*
X133910000Y-147210000D02*
X132410000Y-147210000D01*
X134160000Y-148710000D02*
X133910000Y-147210000D01*
X136810000Y-136490000D02*
X93950000Y-136490000D01*
X136810000Y-145410000D02*
X136810000Y-147210000D01*
X136810000Y-147210000D02*
X93950000Y-147210000D01*
X136810000Y-148710000D02*
X136810000Y-136490000D01*
%TO.C,DS1*%
X42460000Y-70460000D02*
X42460000Y-106740000D01*
X42470000Y-70460000D02*
X77600000Y-70460000D01*
%TO.C,C8*%
X157887354Y-96706000D02*
X157257354Y-96706000D01*
X157572354Y-97021000D02*
X157572354Y-96391000D01*
X154387113Y-98097000D02*
X154387113Y-91637000D01*
X154347113Y-98097000D02*
X154347113Y-91637000D01*
X154307113Y-98097000D02*
X154307113Y-91637000D01*
X154267113Y-98095000D02*
X154267113Y-91639000D01*
X154227113Y-98094000D02*
X154227113Y-91640000D01*
X154187113Y-98091000D02*
X154187113Y-91643000D01*
X154147113Y-98089000D02*
X154147113Y-95907000D01*
X154147113Y-93827000D02*
X154147113Y-91645000D01*
X154107113Y-98085000D02*
X154107113Y-95907000D01*
X154107113Y-93827000D02*
X154107113Y-91649000D01*
X154067113Y-98082000D02*
X154067113Y-95907000D01*
X154067113Y-93827000D02*
X154067113Y-91652000D01*
X154027113Y-98078000D02*
X154027113Y-95907000D01*
X154027113Y-93827000D02*
X154027113Y-91656000D01*
X153987113Y-98073000D02*
X153987113Y-95907000D01*
X153987113Y-93827000D02*
X153987113Y-91661000D01*
X153947113Y-98068000D02*
X153947113Y-95907000D01*
X153947113Y-93827000D02*
X153947113Y-91666000D01*
X153907113Y-98062000D02*
X153907113Y-95907000D01*
X153907113Y-93827000D02*
X153907113Y-91672000D01*
X153867113Y-98056000D02*
X153867113Y-95907000D01*
X153867113Y-93827000D02*
X153867113Y-91678000D01*
X153827113Y-98049000D02*
X153827113Y-95907000D01*
X153827113Y-93827000D02*
X153827113Y-91685000D01*
X153787113Y-98042000D02*
X153787113Y-95907000D01*
X153787113Y-93827000D02*
X153787113Y-91692000D01*
X153747113Y-98034000D02*
X153747113Y-95907000D01*
X153747113Y-93827000D02*
X153747113Y-91700000D01*
X153707113Y-98026000D02*
X153707113Y-95907000D01*
X153707113Y-93827000D02*
X153707113Y-91708000D01*
X153666113Y-98017000D02*
X153666113Y-95907000D01*
X153666113Y-93827000D02*
X153666113Y-91717000D01*
X153626113Y-98008000D02*
X153626113Y-95907000D01*
X153626113Y-93827000D02*
X153626113Y-91726000D01*
X153586113Y-97998000D02*
X153586113Y-95907000D01*
X153586113Y-93827000D02*
X153586113Y-91736000D01*
X153546113Y-97988000D02*
X153546113Y-95907000D01*
X153546113Y-93827000D02*
X153546113Y-91746000D01*
X153506113Y-97977000D02*
X153506113Y-95907000D01*
X153506113Y-93827000D02*
X153506113Y-91757000D01*
X153466113Y-97965000D02*
X153466113Y-95907000D01*
X153466113Y-93827000D02*
X153466113Y-91769000D01*
X153426113Y-97953000D02*
X153426113Y-95907000D01*
X153426113Y-93827000D02*
X153426113Y-91781000D01*
X153386113Y-97941000D02*
X153386113Y-95907000D01*
X153386113Y-93827000D02*
X153386113Y-91793000D01*
X153346113Y-97928000D02*
X153346113Y-95907000D01*
X153346113Y-93827000D02*
X153346113Y-91806000D01*
X153306113Y-97914000D02*
X153306113Y-95907000D01*
X153306113Y-93827000D02*
X153306113Y-91820000D01*
X153266113Y-97900000D02*
X153266113Y-95907000D01*
X153266113Y-93827000D02*
X153266113Y-91834000D01*
X153226113Y-97885000D02*
X153226113Y-95907000D01*
X153226113Y-93827000D02*
X153226113Y-91849000D01*
X153186113Y-97869000D02*
X153186113Y-95907000D01*
X153186113Y-93827000D02*
X153186113Y-91865000D01*
X153146113Y-97853000D02*
X153146113Y-95907000D01*
X153146113Y-93827000D02*
X153146113Y-91881000D01*
X153106113Y-97837000D02*
X153106113Y-95907000D01*
X153106113Y-93827000D02*
X153106113Y-91897000D01*
X153066113Y-97819000D02*
X153066113Y-95907000D01*
X153066113Y-93827000D02*
X153066113Y-91915000D01*
X153026113Y-97801000D02*
X153026113Y-95907000D01*
X153026113Y-93827000D02*
X153026113Y-91933000D01*
X152986113Y-97783000D02*
X152986113Y-95907000D01*
X152986113Y-93827000D02*
X152986113Y-91951000D01*
X152946113Y-97763000D02*
X152946113Y-95907000D01*
X152946113Y-93827000D02*
X152946113Y-91971000D01*
X152906113Y-97743000D02*
X152906113Y-95907000D01*
X152906113Y-93827000D02*
X152906113Y-91991000D01*
X152866113Y-97723000D02*
X152866113Y-95907000D01*
X152866113Y-93827000D02*
X152866113Y-92011000D01*
X152826113Y-97701000D02*
X152826113Y-95907000D01*
X152826113Y-93827000D02*
X152826113Y-92033000D01*
X152786113Y-97679000D02*
X152786113Y-95907000D01*
X152786113Y-93827000D02*
X152786113Y-92055000D01*
X152746113Y-97657000D02*
X152746113Y-95907000D01*
X152746113Y-93827000D02*
X152746113Y-92077000D01*
X152706113Y-97633000D02*
X152706113Y-95907000D01*
X152706113Y-93827000D02*
X152706113Y-92101000D01*
X152666113Y-97609000D02*
X152666113Y-95907000D01*
X152666113Y-93827000D02*
X152666113Y-92125000D01*
X152626113Y-97583000D02*
X152626113Y-95907000D01*
X152626113Y-93827000D02*
X152626113Y-92151000D01*
X152586113Y-97557000D02*
X152586113Y-95907000D01*
X152586113Y-93827000D02*
X152586113Y-92177000D01*
X152546113Y-97531000D02*
X152546113Y-95907000D01*
X152546113Y-93827000D02*
X152546113Y-92203000D01*
X152506113Y-97503000D02*
X152506113Y-95907000D01*
X152506113Y-93827000D02*
X152506113Y-92231000D01*
X152466113Y-97474000D02*
X152466113Y-95907000D01*
X152466113Y-93827000D02*
X152466113Y-92260000D01*
X152426113Y-97445000D02*
X152426113Y-95907000D01*
X152426113Y-93827000D02*
X152426113Y-92289000D01*
X152386113Y-97415000D02*
X152386113Y-95907000D01*
X152386113Y-93827000D02*
X152386113Y-92319000D01*
X152346113Y-97383000D02*
X152346113Y-95907000D01*
X152346113Y-93827000D02*
X152346113Y-92351000D01*
X152306113Y-97351000D02*
X152306113Y-95907000D01*
X152306113Y-93827000D02*
X152306113Y-92383000D01*
X152266113Y-97317000D02*
X152266113Y-95907000D01*
X152266113Y-93827000D02*
X152266113Y-92417000D01*
X152226113Y-97283000D02*
X152226113Y-95907000D01*
X152226113Y-93827000D02*
X152226113Y-92451000D01*
X152186113Y-97247000D02*
X152186113Y-95907000D01*
X152186113Y-93827000D02*
X152186113Y-92487000D01*
X152146113Y-97210000D02*
X152146113Y-95907000D01*
X152146113Y-93827000D02*
X152146113Y-92524000D01*
X152106113Y-97172000D02*
X152106113Y-95907000D01*
X152106113Y-93827000D02*
X152106113Y-92562000D01*
X152066113Y-97132000D02*
X152066113Y-92602000D01*
X152026113Y-97091000D02*
X152026113Y-92643000D01*
X151986113Y-97049000D02*
X151986113Y-92685000D01*
X151946113Y-97004000D02*
X151946113Y-92730000D01*
X151906113Y-96959000D02*
X151906113Y-92775000D01*
X151866113Y-96911000D02*
X151866113Y-92823000D01*
X151826113Y-96862000D02*
X151826113Y-92872000D01*
X151786113Y-96811000D02*
X151786113Y-92923000D01*
X151746113Y-96757000D02*
X151746113Y-92977000D01*
X151706113Y-96701000D02*
X151706113Y-93033000D01*
X151666113Y-96643000D02*
X151666113Y-93091000D01*
X151626113Y-96581000D02*
X151626113Y-93153000D01*
X151586113Y-96517000D02*
X151586113Y-93217000D01*
X151546113Y-96448000D02*
X151546113Y-93286000D01*
X151506113Y-96376000D02*
X151506113Y-93358000D01*
X151466113Y-96299000D02*
X151466113Y-93435000D01*
X151426113Y-96217000D02*
X151426113Y-93517000D01*
X151386113Y-96129000D02*
X151386113Y-93605000D01*
X151346113Y-96032000D02*
X151346113Y-93702000D01*
X151306113Y-95926000D02*
X151306113Y-93808000D01*
X151266113Y-95807000D02*
X151266113Y-93927000D01*
X151226113Y-95669000D02*
X151226113Y-94065000D01*
X151186113Y-95500000D02*
X151186113Y-94234000D01*
X151146113Y-95269000D02*
X151146113Y-94465000D01*
X157657113Y-94867000D02*
G75*
G03*
X157657113Y-94867000I-3270000J0D01*
G01*
%TO.C,C2*%
X47469000Y-134868349D02*
X47469000Y-134068349D01*
X47069000Y-134468349D02*
X47869000Y-134468349D01*
X45704000Y-130458651D02*
X53864000Y-130458651D01*
X45704000Y-130418651D02*
X53864000Y-130418651D01*
X45704000Y-130378651D02*
X53864000Y-130378651D01*
X45705000Y-130338651D02*
X53863000Y-130338651D01*
X45707000Y-130298651D02*
X53861000Y-130298651D01*
X45708000Y-130258651D02*
X53860000Y-130258651D01*
X45710000Y-130218651D02*
X48744000Y-130218651D01*
X50824000Y-130218651D02*
X53858000Y-130218651D01*
X45713000Y-130178651D02*
X48744000Y-130178651D01*
X50824000Y-130178651D02*
X53855000Y-130178651D01*
X45716000Y-130138651D02*
X48744000Y-130138651D01*
X50824000Y-130138651D02*
X53852000Y-130138651D01*
X45719000Y-130098651D02*
X48744000Y-130098651D01*
X50824000Y-130098651D02*
X53849000Y-130098651D01*
X45723000Y-130058651D02*
X48744000Y-130058651D01*
X50824000Y-130058651D02*
X53845000Y-130058651D01*
X45727000Y-130018651D02*
X48744000Y-130018651D01*
X50824000Y-130018651D02*
X53841000Y-130018651D01*
X45732000Y-129978651D02*
X48744000Y-129978651D01*
X50824000Y-129978651D02*
X53836000Y-129978651D01*
X45736000Y-129938651D02*
X48744000Y-129938651D01*
X50824000Y-129938651D02*
X53832000Y-129938651D01*
X45742000Y-129898651D02*
X48744000Y-129898651D01*
X50824000Y-129898651D02*
X53826000Y-129898651D01*
X45747000Y-129858651D02*
X48744000Y-129858651D01*
X50824000Y-129858651D02*
X53821000Y-129858651D01*
X45754000Y-129818651D02*
X48744000Y-129818651D01*
X50824000Y-129818651D02*
X53814000Y-129818651D01*
X45760000Y-129778651D02*
X48744000Y-129778651D01*
X50824000Y-129778651D02*
X53808000Y-129778651D01*
X45767000Y-129737651D02*
X48744000Y-129737651D01*
X50824000Y-129737651D02*
X53801000Y-129737651D01*
X45774000Y-129697651D02*
X48744000Y-129697651D01*
X50824000Y-129697651D02*
X53794000Y-129697651D01*
X45782000Y-129657651D02*
X48744000Y-129657651D01*
X50824000Y-129657651D02*
X53786000Y-129657651D01*
X45790000Y-129617651D02*
X48744000Y-129617651D01*
X50824000Y-129617651D02*
X53778000Y-129617651D01*
X45799000Y-129577651D02*
X48744000Y-129577651D01*
X50824000Y-129577651D02*
X53769000Y-129577651D01*
X45808000Y-129537651D02*
X48744000Y-129537651D01*
X50824000Y-129537651D02*
X53760000Y-129537651D01*
X45817000Y-129497651D02*
X48744000Y-129497651D01*
X50824000Y-129497651D02*
X53751000Y-129497651D01*
X45827000Y-129457651D02*
X48744000Y-129457651D01*
X50824000Y-129457651D02*
X53741000Y-129457651D01*
X45837000Y-129417651D02*
X48744000Y-129417651D01*
X50824000Y-129417651D02*
X53731000Y-129417651D01*
X45848000Y-129377651D02*
X48744000Y-129377651D01*
X50824000Y-129377651D02*
X53720000Y-129377651D01*
X45859000Y-129337651D02*
X48744000Y-129337651D01*
X50824000Y-129337651D02*
X53709000Y-129337651D01*
X45870000Y-129297651D02*
X48744000Y-129297651D01*
X50824000Y-129297651D02*
X53698000Y-129297651D01*
X45882000Y-129257651D02*
X48744000Y-129257651D01*
X50824000Y-129257651D02*
X53686000Y-129257651D01*
X45895000Y-129217651D02*
X48744000Y-129217651D01*
X50824000Y-129217651D02*
X53673000Y-129217651D01*
X45907000Y-129177651D02*
X48744000Y-129177651D01*
X50824000Y-129177651D02*
X53661000Y-129177651D01*
X45921000Y-129137651D02*
X48744000Y-129137651D01*
X50824000Y-129137651D02*
X53647000Y-129137651D01*
X45934000Y-129097651D02*
X48744000Y-129097651D01*
X50824000Y-129097651D02*
X53634000Y-129097651D01*
X45949000Y-129057651D02*
X48744000Y-129057651D01*
X50824000Y-129057651D02*
X53619000Y-129057651D01*
X45963000Y-129017651D02*
X48744000Y-129017651D01*
X50824000Y-129017651D02*
X53605000Y-129017651D01*
X45979000Y-128977651D02*
X48744000Y-128977651D01*
X50824000Y-128977651D02*
X53589000Y-128977651D01*
X45994000Y-128937651D02*
X48744000Y-128937651D01*
X50824000Y-128937651D02*
X53574000Y-128937651D01*
X46010000Y-128897651D02*
X48744000Y-128897651D01*
X50824000Y-128897651D02*
X53558000Y-128897651D01*
X46027000Y-128857651D02*
X48744000Y-128857651D01*
X50824000Y-128857651D02*
X53541000Y-128857651D01*
X46044000Y-128817651D02*
X48744000Y-128817651D01*
X50824000Y-128817651D02*
X53524000Y-128817651D01*
X46062000Y-128777651D02*
X48744000Y-128777651D01*
X50824000Y-128777651D02*
X53506000Y-128777651D01*
X46080000Y-128737651D02*
X48744000Y-128737651D01*
X50824000Y-128737651D02*
X53488000Y-128737651D01*
X46098000Y-128697651D02*
X48744000Y-128697651D01*
X50824000Y-128697651D02*
X53470000Y-128697651D01*
X46118000Y-128657651D02*
X48744000Y-128657651D01*
X50824000Y-128657651D02*
X53450000Y-128657651D01*
X46137000Y-128617651D02*
X48744000Y-128617651D01*
X50824000Y-128617651D02*
X53431000Y-128617651D01*
X46157000Y-128577651D02*
X48744000Y-128577651D01*
X50824000Y-128577651D02*
X53411000Y-128577651D01*
X46178000Y-128537651D02*
X48744000Y-128537651D01*
X50824000Y-128537651D02*
X53390000Y-128537651D01*
X46200000Y-128497651D02*
X48744000Y-128497651D01*
X50824000Y-128497651D02*
X53368000Y-128497651D01*
X46222000Y-128457651D02*
X48744000Y-128457651D01*
X50824000Y-128457651D02*
X53346000Y-128457651D01*
X46244000Y-128417651D02*
X48744000Y-128417651D01*
X50824000Y-128417651D02*
X53324000Y-128417651D01*
X46267000Y-128377651D02*
X48744000Y-128377651D01*
X50824000Y-128377651D02*
X53301000Y-128377651D01*
X46291000Y-128337651D02*
X48744000Y-128337651D01*
X50824000Y-128337651D02*
X53277000Y-128337651D01*
X46315000Y-128297651D02*
X48744000Y-128297651D01*
X50824000Y-128297651D02*
X53253000Y-128297651D01*
X46340000Y-128257651D02*
X48744000Y-128257651D01*
X50824000Y-128257651D02*
X53228000Y-128257651D01*
X46366000Y-128217651D02*
X48744000Y-128217651D01*
X50824000Y-128217651D02*
X53202000Y-128217651D01*
X46392000Y-128177651D02*
X48744000Y-128177651D01*
X50824000Y-128177651D02*
X53176000Y-128177651D01*
X46419000Y-128137651D02*
X53149000Y-128137651D01*
X46446000Y-128097651D02*
X53122000Y-128097651D01*
X46475000Y-128057651D02*
X53093000Y-128057651D01*
X46504000Y-128017651D02*
X53064000Y-128017651D01*
X46534000Y-127977651D02*
X53034000Y-127977651D01*
X46564000Y-127937651D02*
X53004000Y-127937651D01*
X46595000Y-127897651D02*
X52973000Y-127897651D01*
X46628000Y-127857651D02*
X52940000Y-127857651D01*
X46660000Y-127817651D02*
X52908000Y-127817651D01*
X46694000Y-127777651D02*
X52874000Y-127777651D01*
X46729000Y-127737651D02*
X52839000Y-127737651D01*
X46765000Y-127697651D02*
X52803000Y-127697651D01*
X46801000Y-127657651D02*
X52767000Y-127657651D01*
X46839000Y-127617651D02*
X52729000Y-127617651D01*
X46877000Y-127577651D02*
X52691000Y-127577651D01*
X46917000Y-127537651D02*
X52651000Y-127537651D01*
X46958000Y-127497651D02*
X52610000Y-127497651D01*
X47000000Y-127457651D02*
X52568000Y-127457651D01*
X47043000Y-127417651D02*
X52525000Y-127417651D01*
X47087000Y-127377651D02*
X52481000Y-127377651D01*
X47133000Y-127337651D02*
X52435000Y-127337651D01*
X47180000Y-127297651D02*
X52388000Y-127297651D01*
X47228000Y-127257651D02*
X52340000Y-127257651D01*
X47279000Y-127217651D02*
X52289000Y-127217651D01*
X47330000Y-127177651D02*
X52238000Y-127177651D01*
X47384000Y-127137651D02*
X52184000Y-127137651D01*
X47439000Y-127097651D02*
X52129000Y-127097651D01*
X47497000Y-127057651D02*
X52071000Y-127057651D01*
X47556000Y-127017651D02*
X52012000Y-127017651D01*
X47618000Y-126977651D02*
X51950000Y-126977651D01*
X47682000Y-126937651D02*
X51886000Y-126937651D01*
X47750000Y-126897651D02*
X51818000Y-126897651D01*
X47820000Y-126857651D02*
X51748000Y-126857651D01*
X47894000Y-126817651D02*
X51674000Y-126817651D01*
X47971000Y-126777651D02*
X51597000Y-126777651D01*
X48053000Y-126737651D02*
X51515000Y-126737651D01*
X48139000Y-126697651D02*
X51429000Y-126697651D01*
X48232000Y-126657651D02*
X51336000Y-126657651D01*
X48331000Y-126617651D02*
X51237000Y-126617651D01*
X48438000Y-126577651D02*
X51130000Y-126577651D01*
X48555000Y-126537651D02*
X51013000Y-126537651D01*
X48686000Y-126497651D02*
X50882000Y-126497651D01*
X48836000Y-126457651D02*
X50732000Y-126457651D01*
X49016000Y-126417651D02*
X50552000Y-126417651D01*
X49251000Y-126377651D02*
X50317000Y-126377651D01*
X53904000Y-130458651D02*
G75*
G03*
X53904000Y-130458651I-4120000J0D01*
G01*
%TO.C,C3*%
X152221759Y-75377000D02*
X152851759Y-75377000D01*
X152536759Y-75062000D02*
X152536759Y-75692000D01*
X155722000Y-73986000D02*
X155722000Y-80446000D01*
X155762000Y-73986000D02*
X155762000Y-80446000D01*
X155802000Y-73986000D02*
X155802000Y-80446000D01*
X155842000Y-73988000D02*
X155842000Y-80444000D01*
X155882000Y-73989000D02*
X155882000Y-80443000D01*
X155922000Y-73992000D02*
X155922000Y-80440000D01*
X155962000Y-73994000D02*
X155962000Y-76176000D01*
X155962000Y-78256000D02*
X155962000Y-80438000D01*
X156002000Y-73998000D02*
X156002000Y-76176000D01*
X156002000Y-78256000D02*
X156002000Y-80434000D01*
X156042000Y-74001000D02*
X156042000Y-76176000D01*
X156042000Y-78256000D02*
X156042000Y-80431000D01*
X156082000Y-74005000D02*
X156082000Y-76176000D01*
X156082000Y-78256000D02*
X156082000Y-80427000D01*
X156122000Y-74010000D02*
X156122000Y-76176000D01*
X156122000Y-78256000D02*
X156122000Y-80422000D01*
X156162000Y-74015000D02*
X156162000Y-76176000D01*
X156162000Y-78256000D02*
X156162000Y-80417000D01*
X156202000Y-74021000D02*
X156202000Y-76176000D01*
X156202000Y-78256000D02*
X156202000Y-80411000D01*
X156242000Y-74027000D02*
X156242000Y-76176000D01*
X156242000Y-78256000D02*
X156242000Y-80405000D01*
X156282000Y-74034000D02*
X156282000Y-76176000D01*
X156282000Y-78256000D02*
X156282000Y-80398000D01*
X156322000Y-74041000D02*
X156322000Y-76176000D01*
X156322000Y-78256000D02*
X156322000Y-80391000D01*
X156362000Y-74049000D02*
X156362000Y-76176000D01*
X156362000Y-78256000D02*
X156362000Y-80383000D01*
X156402000Y-74057000D02*
X156402000Y-76176000D01*
X156402000Y-78256000D02*
X156402000Y-80375000D01*
X156443000Y-74066000D02*
X156443000Y-76176000D01*
X156443000Y-78256000D02*
X156443000Y-80366000D01*
X156483000Y-74075000D02*
X156483000Y-76176000D01*
X156483000Y-78256000D02*
X156483000Y-80357000D01*
X156523000Y-74085000D02*
X156523000Y-76176000D01*
X156523000Y-78256000D02*
X156523000Y-80347000D01*
X156563000Y-74095000D02*
X156563000Y-76176000D01*
X156563000Y-78256000D02*
X156563000Y-80337000D01*
X156603000Y-74106000D02*
X156603000Y-76176000D01*
X156603000Y-78256000D02*
X156603000Y-80326000D01*
X156643000Y-74118000D02*
X156643000Y-76176000D01*
X156643000Y-78256000D02*
X156643000Y-80314000D01*
X156683000Y-74130000D02*
X156683000Y-76176000D01*
X156683000Y-78256000D02*
X156683000Y-80302000D01*
X156723000Y-74142000D02*
X156723000Y-76176000D01*
X156723000Y-78256000D02*
X156723000Y-80290000D01*
X156763000Y-74155000D02*
X156763000Y-76176000D01*
X156763000Y-78256000D02*
X156763000Y-80277000D01*
X156803000Y-74169000D02*
X156803000Y-76176000D01*
X156803000Y-78256000D02*
X156803000Y-80263000D01*
X156843000Y-74183000D02*
X156843000Y-76176000D01*
X156843000Y-78256000D02*
X156843000Y-80249000D01*
X156883000Y-74198000D02*
X156883000Y-76176000D01*
X156883000Y-78256000D02*
X156883000Y-80234000D01*
X156923000Y-74214000D02*
X156923000Y-76176000D01*
X156923000Y-78256000D02*
X156923000Y-80218000D01*
X156963000Y-74230000D02*
X156963000Y-76176000D01*
X156963000Y-78256000D02*
X156963000Y-80202000D01*
X157003000Y-74246000D02*
X157003000Y-76176000D01*
X157003000Y-78256000D02*
X157003000Y-80186000D01*
X157043000Y-74264000D02*
X157043000Y-76176000D01*
X157043000Y-78256000D02*
X157043000Y-80168000D01*
X157083000Y-74282000D02*
X157083000Y-76176000D01*
X157083000Y-78256000D02*
X157083000Y-80150000D01*
X157123000Y-74300000D02*
X157123000Y-76176000D01*
X157123000Y-78256000D02*
X157123000Y-80132000D01*
X157163000Y-74320000D02*
X157163000Y-76176000D01*
X157163000Y-78256000D02*
X157163000Y-80112000D01*
X157203000Y-74340000D02*
X157203000Y-76176000D01*
X157203000Y-78256000D02*
X157203000Y-80092000D01*
X157243000Y-74360000D02*
X157243000Y-76176000D01*
X157243000Y-78256000D02*
X157243000Y-80072000D01*
X157283000Y-74382000D02*
X157283000Y-76176000D01*
X157283000Y-78256000D02*
X157283000Y-80050000D01*
X157323000Y-74404000D02*
X157323000Y-76176000D01*
X157323000Y-78256000D02*
X157323000Y-80028000D01*
X157363000Y-74426000D02*
X157363000Y-76176000D01*
X157363000Y-78256000D02*
X157363000Y-80006000D01*
X157403000Y-74450000D02*
X157403000Y-76176000D01*
X157403000Y-78256000D02*
X157403000Y-79982000D01*
X157443000Y-74474000D02*
X157443000Y-76176000D01*
X157443000Y-78256000D02*
X157443000Y-79958000D01*
X157483000Y-74500000D02*
X157483000Y-76176000D01*
X157483000Y-78256000D02*
X157483000Y-79932000D01*
X157523000Y-74526000D02*
X157523000Y-76176000D01*
X157523000Y-78256000D02*
X157523000Y-79906000D01*
X157563000Y-74552000D02*
X157563000Y-76176000D01*
X157563000Y-78256000D02*
X157563000Y-79880000D01*
X157603000Y-74580000D02*
X157603000Y-76176000D01*
X157603000Y-78256000D02*
X157603000Y-79852000D01*
X157643000Y-74609000D02*
X157643000Y-76176000D01*
X157643000Y-78256000D02*
X157643000Y-79823000D01*
X157683000Y-74638000D02*
X157683000Y-76176000D01*
X157683000Y-78256000D02*
X157683000Y-79794000D01*
X157723000Y-74668000D02*
X157723000Y-76176000D01*
X157723000Y-78256000D02*
X157723000Y-79764000D01*
X157763000Y-74700000D02*
X157763000Y-76176000D01*
X157763000Y-78256000D02*
X157763000Y-79732000D01*
X157803000Y-74732000D02*
X157803000Y-76176000D01*
X157803000Y-78256000D02*
X157803000Y-79700000D01*
X157843000Y-74766000D02*
X157843000Y-76176000D01*
X157843000Y-78256000D02*
X157843000Y-79666000D01*
X157883000Y-74800000D02*
X157883000Y-76176000D01*
X157883000Y-78256000D02*
X157883000Y-79632000D01*
X157923000Y-74836000D02*
X157923000Y-76176000D01*
X157923000Y-78256000D02*
X157923000Y-79596000D01*
X157963000Y-74873000D02*
X157963000Y-76176000D01*
X157963000Y-78256000D02*
X157963000Y-79559000D01*
X158003000Y-74911000D02*
X158003000Y-76176000D01*
X158003000Y-78256000D02*
X158003000Y-79521000D01*
X158043000Y-74951000D02*
X158043000Y-79481000D01*
X158083000Y-74992000D02*
X158083000Y-79440000D01*
X158123000Y-75034000D02*
X158123000Y-79398000D01*
X158163000Y-75079000D02*
X158163000Y-79353000D01*
X158203000Y-75124000D02*
X158203000Y-79308000D01*
X158243000Y-75172000D02*
X158243000Y-79260000D01*
X158283000Y-75221000D02*
X158283000Y-79211000D01*
X158323000Y-75272000D02*
X158323000Y-79160000D01*
X158363000Y-75326000D02*
X158363000Y-79106000D01*
X158403000Y-75382000D02*
X158403000Y-79050000D01*
X158443000Y-75440000D02*
X158443000Y-78992000D01*
X158483000Y-75502000D02*
X158483000Y-78930000D01*
X158523000Y-75566000D02*
X158523000Y-78866000D01*
X158563000Y-75635000D02*
X158563000Y-78797000D01*
X158603000Y-75707000D02*
X158603000Y-78725000D01*
X158643000Y-75784000D02*
X158643000Y-78648000D01*
X158683000Y-75866000D02*
X158683000Y-78566000D01*
X158723000Y-75954000D02*
X158723000Y-78478000D01*
X158763000Y-76051000D02*
X158763000Y-78381000D01*
X158803000Y-76157000D02*
X158803000Y-78275000D01*
X158843000Y-76276000D02*
X158843000Y-78156000D01*
X158883000Y-76414000D02*
X158883000Y-78018000D01*
X158923000Y-76583000D02*
X158923000Y-77849000D01*
X158963000Y-76814000D02*
X158963000Y-77618000D01*
X158992000Y-77216000D02*
G75*
G03*
X158992000Y-77216000I-3270000J0D01*
G01*
%TO.C,PS1*%
X137760000Y-105184000D02*
X139010000Y-105184000D01*
X138060000Y-104884000D02*
X157080000Y-104884000D01*
X157080000Y-104884000D02*
X157080000Y-99074000D01*
X137760000Y-103934000D02*
X137760000Y-105184000D01*
X138060000Y-99074000D02*
X138060000Y-104884000D01*
X157080000Y-99074000D02*
X138060000Y-99074000D01*
%TO.C,C7*%
X136775380Y-93028000D02*
X137405380Y-93028000D01*
X137090380Y-92713000D02*
X137090380Y-93343000D01*
X140275621Y-91637000D02*
X140275621Y-98097000D01*
X140315621Y-91637000D02*
X140315621Y-98097000D01*
X140355621Y-91637000D02*
X140355621Y-98097000D01*
X140395621Y-91639000D02*
X140395621Y-98095000D01*
X140435621Y-91640000D02*
X140435621Y-98094000D01*
X140475621Y-91643000D02*
X140475621Y-98091000D01*
X140515621Y-91645000D02*
X140515621Y-93827000D01*
X140515621Y-95907000D02*
X140515621Y-98089000D01*
X140555621Y-91649000D02*
X140555621Y-93827000D01*
X140555621Y-95907000D02*
X140555621Y-98085000D01*
X140595621Y-91652000D02*
X140595621Y-93827000D01*
X140595621Y-95907000D02*
X140595621Y-98082000D01*
X140635621Y-91656000D02*
X140635621Y-93827000D01*
X140635621Y-95907000D02*
X140635621Y-98078000D01*
X140675621Y-91661000D02*
X140675621Y-93827000D01*
X140675621Y-95907000D02*
X140675621Y-98073000D01*
X140715621Y-91666000D02*
X140715621Y-93827000D01*
X140715621Y-95907000D02*
X140715621Y-98068000D01*
X140755621Y-91672000D02*
X140755621Y-93827000D01*
X140755621Y-95907000D02*
X140755621Y-98062000D01*
X140795621Y-91678000D02*
X140795621Y-93827000D01*
X140795621Y-95907000D02*
X140795621Y-98056000D01*
X140835621Y-91685000D02*
X140835621Y-93827000D01*
X140835621Y-95907000D02*
X140835621Y-98049000D01*
X140875621Y-91692000D02*
X140875621Y-93827000D01*
X140875621Y-95907000D02*
X140875621Y-98042000D01*
X140915621Y-91700000D02*
X140915621Y-93827000D01*
X140915621Y-95907000D02*
X140915621Y-98034000D01*
X140955621Y-91708000D02*
X140955621Y-93827000D01*
X140955621Y-95907000D02*
X140955621Y-98026000D01*
X140996621Y-91717000D02*
X140996621Y-93827000D01*
X140996621Y-95907000D02*
X140996621Y-98017000D01*
X141036621Y-91726000D02*
X141036621Y-93827000D01*
X141036621Y-95907000D02*
X141036621Y-98008000D01*
X141076621Y-91736000D02*
X141076621Y-93827000D01*
X141076621Y-95907000D02*
X141076621Y-97998000D01*
X141116621Y-91746000D02*
X141116621Y-93827000D01*
X141116621Y-95907000D02*
X141116621Y-97988000D01*
X141156621Y-91757000D02*
X141156621Y-93827000D01*
X141156621Y-95907000D02*
X141156621Y-97977000D01*
X141196621Y-91769000D02*
X141196621Y-93827000D01*
X141196621Y-95907000D02*
X141196621Y-97965000D01*
X141236621Y-91781000D02*
X141236621Y-93827000D01*
X141236621Y-95907000D02*
X141236621Y-97953000D01*
X141276621Y-91793000D02*
X141276621Y-93827000D01*
X141276621Y-95907000D02*
X141276621Y-97941000D01*
X141316621Y-91806000D02*
X141316621Y-93827000D01*
X141316621Y-95907000D02*
X141316621Y-97928000D01*
X141356621Y-91820000D02*
X141356621Y-93827000D01*
X141356621Y-95907000D02*
X141356621Y-97914000D01*
X141396621Y-91834000D02*
X141396621Y-93827000D01*
X141396621Y-95907000D02*
X141396621Y-97900000D01*
X141436621Y-91849000D02*
X141436621Y-93827000D01*
X141436621Y-95907000D02*
X141436621Y-97885000D01*
X141476621Y-91865000D02*
X141476621Y-93827000D01*
X141476621Y-95907000D02*
X141476621Y-97869000D01*
X141516621Y-91881000D02*
X141516621Y-93827000D01*
X141516621Y-95907000D02*
X141516621Y-97853000D01*
X141556621Y-91897000D02*
X141556621Y-93827000D01*
X141556621Y-95907000D02*
X141556621Y-97837000D01*
X141596621Y-91915000D02*
X141596621Y-93827000D01*
X141596621Y-95907000D02*
X141596621Y-97819000D01*
X141636621Y-91933000D02*
X141636621Y-93827000D01*
X141636621Y-95907000D02*
X141636621Y-97801000D01*
X141676621Y-91951000D02*
X141676621Y-93827000D01*
X141676621Y-95907000D02*
X141676621Y-97783000D01*
X141716621Y-91971000D02*
X141716621Y-93827000D01*
X141716621Y-95907000D02*
X141716621Y-97763000D01*
X141756621Y-91991000D02*
X141756621Y-93827000D01*
X141756621Y-95907000D02*
X141756621Y-97743000D01*
X141796621Y-92011000D02*
X141796621Y-93827000D01*
X141796621Y-95907000D02*
X141796621Y-97723000D01*
X141836621Y-92033000D02*
X141836621Y-93827000D01*
X141836621Y-95907000D02*
X141836621Y-97701000D01*
X141876621Y-92055000D02*
X141876621Y-93827000D01*
X141876621Y-95907000D02*
X141876621Y-97679000D01*
X141916621Y-92077000D02*
X141916621Y-93827000D01*
X141916621Y-95907000D02*
X141916621Y-97657000D01*
X141956621Y-92101000D02*
X141956621Y-93827000D01*
X141956621Y-95907000D02*
X141956621Y-97633000D01*
X141996621Y-92125000D02*
X141996621Y-93827000D01*
X141996621Y-95907000D02*
X141996621Y-97609000D01*
X142036621Y-92151000D02*
X142036621Y-93827000D01*
X142036621Y-95907000D02*
X142036621Y-97583000D01*
X142076621Y-92177000D02*
X142076621Y-93827000D01*
X142076621Y-95907000D02*
X142076621Y-97557000D01*
X142116621Y-92203000D02*
X142116621Y-93827000D01*
X142116621Y-95907000D02*
X142116621Y-97531000D01*
X142156621Y-92231000D02*
X142156621Y-93827000D01*
X142156621Y-95907000D02*
X142156621Y-97503000D01*
X142196621Y-92260000D02*
X142196621Y-93827000D01*
X142196621Y-95907000D02*
X142196621Y-97474000D01*
X142236621Y-92289000D02*
X142236621Y-93827000D01*
X142236621Y-95907000D02*
X142236621Y-97445000D01*
X142276621Y-92319000D02*
X142276621Y-93827000D01*
X142276621Y-95907000D02*
X142276621Y-97415000D01*
X142316621Y-92351000D02*
X142316621Y-93827000D01*
X142316621Y-95907000D02*
X142316621Y-97383000D01*
X142356621Y-92383000D02*
X142356621Y-93827000D01*
X142356621Y-95907000D02*
X142356621Y-97351000D01*
X142396621Y-92417000D02*
X142396621Y-93827000D01*
X142396621Y-95907000D02*
X142396621Y-97317000D01*
X142436621Y-92451000D02*
X142436621Y-93827000D01*
X142436621Y-95907000D02*
X142436621Y-97283000D01*
X142476621Y-92487000D02*
X142476621Y-93827000D01*
X142476621Y-95907000D02*
X142476621Y-97247000D01*
X142516621Y-92524000D02*
X142516621Y-93827000D01*
X142516621Y-95907000D02*
X142516621Y-97210000D01*
X142556621Y-92562000D02*
X142556621Y-93827000D01*
X142556621Y-95907000D02*
X142556621Y-97172000D01*
X142596621Y-92602000D02*
X142596621Y-97132000D01*
X142636621Y-92643000D02*
X142636621Y-97091000D01*
X142676621Y-92685000D02*
X142676621Y-97049000D01*
X142716621Y-92730000D02*
X142716621Y-97004000D01*
X142756621Y-92775000D02*
X142756621Y-96959000D01*
X142796621Y-92823000D02*
X142796621Y-96911000D01*
X142836621Y-92872000D02*
X142836621Y-96862000D01*
X142876621Y-92923000D02*
X142876621Y-96811000D01*
X142916621Y-92977000D02*
X142916621Y-96757000D01*
X142956621Y-93033000D02*
X142956621Y-96701000D01*
X142996621Y-93091000D02*
X142996621Y-96643000D01*
X143036621Y-93153000D02*
X143036621Y-96581000D01*
X143076621Y-93217000D02*
X143076621Y-96517000D01*
X143116621Y-93286000D02*
X143116621Y-96448000D01*
X143156621Y-93358000D02*
X143156621Y-96376000D01*
X143196621Y-93435000D02*
X143196621Y-96299000D01*
X143236621Y-93517000D02*
X143236621Y-96217000D01*
X143276621Y-93605000D02*
X143276621Y-96129000D01*
X143316621Y-93702000D02*
X143316621Y-96032000D01*
X143356621Y-93808000D02*
X143356621Y-95926000D01*
X143396621Y-93927000D02*
X143396621Y-95807000D01*
X143436621Y-94065000D02*
X143436621Y-95669000D01*
X143476621Y-94234000D02*
X143476621Y-95500000D01*
X143516621Y-94465000D02*
X143516621Y-95269000D01*
X143545621Y-94867000D02*
G75*
G03*
X143545621Y-94867000I-3270000J0D01*
G01*
%TO.C,C9*%
X150752621Y-96706000D02*
X150122621Y-96706000D01*
X150437621Y-97021000D02*
X150437621Y-96391000D01*
X147252380Y-98097000D02*
X147252380Y-91637000D01*
X147212380Y-98097000D02*
X147212380Y-91637000D01*
X147172380Y-98097000D02*
X147172380Y-91637000D01*
X147132380Y-98095000D02*
X147132380Y-91639000D01*
X147092380Y-98094000D02*
X147092380Y-91640000D01*
X147052380Y-98091000D02*
X147052380Y-91643000D01*
X147012380Y-98089000D02*
X147012380Y-95907000D01*
X147012380Y-93827000D02*
X147012380Y-91645000D01*
X146972380Y-98085000D02*
X146972380Y-95907000D01*
X146972380Y-93827000D02*
X146972380Y-91649000D01*
X146932380Y-98082000D02*
X146932380Y-95907000D01*
X146932380Y-93827000D02*
X146932380Y-91652000D01*
X146892380Y-98078000D02*
X146892380Y-95907000D01*
X146892380Y-93827000D02*
X146892380Y-91656000D01*
X146852380Y-98073000D02*
X146852380Y-95907000D01*
X146852380Y-93827000D02*
X146852380Y-91661000D01*
X146812380Y-98068000D02*
X146812380Y-95907000D01*
X146812380Y-93827000D02*
X146812380Y-91666000D01*
X146772380Y-98062000D02*
X146772380Y-95907000D01*
X146772380Y-93827000D02*
X146772380Y-91672000D01*
X146732380Y-98056000D02*
X146732380Y-95907000D01*
X146732380Y-93827000D02*
X146732380Y-91678000D01*
X146692380Y-98049000D02*
X146692380Y-95907000D01*
X146692380Y-93827000D02*
X146692380Y-91685000D01*
X146652380Y-98042000D02*
X146652380Y-95907000D01*
X146652380Y-93827000D02*
X146652380Y-91692000D01*
X146612380Y-98034000D02*
X146612380Y-95907000D01*
X146612380Y-93827000D02*
X146612380Y-91700000D01*
X146572380Y-98026000D02*
X146572380Y-95907000D01*
X146572380Y-93827000D02*
X146572380Y-91708000D01*
X146531380Y-98017000D02*
X146531380Y-95907000D01*
X146531380Y-93827000D02*
X146531380Y-91717000D01*
X146491380Y-98008000D02*
X146491380Y-95907000D01*
X146491380Y-93827000D02*
X146491380Y-91726000D01*
X146451380Y-97998000D02*
X146451380Y-95907000D01*
X146451380Y-93827000D02*
X146451380Y-91736000D01*
X146411380Y-97988000D02*
X146411380Y-95907000D01*
X146411380Y-93827000D02*
X146411380Y-91746000D01*
X146371380Y-97977000D02*
X146371380Y-95907000D01*
X146371380Y-93827000D02*
X146371380Y-91757000D01*
X146331380Y-97965000D02*
X146331380Y-95907000D01*
X146331380Y-93827000D02*
X146331380Y-91769000D01*
X146291380Y-97953000D02*
X146291380Y-95907000D01*
X146291380Y-93827000D02*
X146291380Y-91781000D01*
X146251380Y-97941000D02*
X146251380Y-95907000D01*
X146251380Y-93827000D02*
X146251380Y-91793000D01*
X146211380Y-97928000D02*
X146211380Y-95907000D01*
X146211380Y-93827000D02*
X146211380Y-91806000D01*
X146171380Y-97914000D02*
X146171380Y-95907000D01*
X146171380Y-93827000D02*
X146171380Y-91820000D01*
X146131380Y-97900000D02*
X146131380Y-95907000D01*
X146131380Y-93827000D02*
X146131380Y-91834000D01*
X146091380Y-97885000D02*
X146091380Y-95907000D01*
X146091380Y-93827000D02*
X146091380Y-91849000D01*
X146051380Y-97869000D02*
X146051380Y-95907000D01*
X146051380Y-93827000D02*
X146051380Y-91865000D01*
X146011380Y-97853000D02*
X146011380Y-95907000D01*
X146011380Y-93827000D02*
X146011380Y-91881000D01*
X145971380Y-97837000D02*
X145971380Y-95907000D01*
X145971380Y-93827000D02*
X145971380Y-91897000D01*
X145931380Y-97819000D02*
X145931380Y-95907000D01*
X145931380Y-93827000D02*
X145931380Y-91915000D01*
X145891380Y-97801000D02*
X145891380Y-95907000D01*
X145891380Y-93827000D02*
X145891380Y-91933000D01*
X145851380Y-97783000D02*
X145851380Y-95907000D01*
X145851380Y-93827000D02*
X145851380Y-91951000D01*
X145811380Y-97763000D02*
X145811380Y-95907000D01*
X145811380Y-93827000D02*
X145811380Y-91971000D01*
X145771380Y-97743000D02*
X145771380Y-95907000D01*
X145771380Y-93827000D02*
X145771380Y-91991000D01*
X145731380Y-97723000D02*
X145731380Y-95907000D01*
X145731380Y-93827000D02*
X145731380Y-92011000D01*
X145691380Y-97701000D02*
X145691380Y-95907000D01*
X145691380Y-93827000D02*
X145691380Y-92033000D01*
X145651380Y-97679000D02*
X145651380Y-95907000D01*
X145651380Y-93827000D02*
X145651380Y-92055000D01*
X145611380Y-97657000D02*
X145611380Y-95907000D01*
X145611380Y-93827000D02*
X145611380Y-92077000D01*
X145571380Y-97633000D02*
X145571380Y-95907000D01*
X145571380Y-93827000D02*
X145571380Y-92101000D01*
X145531380Y-97609000D02*
X145531380Y-95907000D01*
X145531380Y-93827000D02*
X145531380Y-92125000D01*
X145491380Y-97583000D02*
X145491380Y-95907000D01*
X145491380Y-93827000D02*
X145491380Y-92151000D01*
X145451380Y-97557000D02*
X145451380Y-95907000D01*
X145451380Y-93827000D02*
X145451380Y-92177000D01*
X145411380Y-97531000D02*
X145411380Y-95907000D01*
X145411380Y-93827000D02*
X145411380Y-92203000D01*
X145371380Y-97503000D02*
X145371380Y-95907000D01*
X145371380Y-93827000D02*
X145371380Y-92231000D01*
X145331380Y-97474000D02*
X145331380Y-95907000D01*
X145331380Y-93827000D02*
X145331380Y-92260000D01*
X145291380Y-97445000D02*
X145291380Y-95907000D01*
X145291380Y-93827000D02*
X145291380Y-92289000D01*
X145251380Y-97415000D02*
X145251380Y-95907000D01*
X145251380Y-93827000D02*
X145251380Y-92319000D01*
X145211380Y-97383000D02*
X145211380Y-95907000D01*
X145211380Y-93827000D02*
X145211380Y-92351000D01*
X145171380Y-97351000D02*
X145171380Y-95907000D01*
X145171380Y-93827000D02*
X145171380Y-92383000D01*
X145131380Y-97317000D02*
X145131380Y-95907000D01*
X145131380Y-93827000D02*
X145131380Y-92417000D01*
X145091380Y-97283000D02*
X145091380Y-95907000D01*
X145091380Y-93827000D02*
X145091380Y-92451000D01*
X145051380Y-97247000D02*
X145051380Y-95907000D01*
X145051380Y-93827000D02*
X145051380Y-92487000D01*
X145011380Y-97210000D02*
X145011380Y-95907000D01*
X145011380Y-93827000D02*
X145011380Y-92524000D01*
X144971380Y-97172000D02*
X144971380Y-95907000D01*
X144971380Y-93827000D02*
X144971380Y-92562000D01*
X144931380Y-97132000D02*
X144931380Y-92602000D01*
X144891380Y-97091000D02*
X144891380Y-92643000D01*
X144851380Y-97049000D02*
X144851380Y-92685000D01*
X144811380Y-97004000D02*
X144811380Y-92730000D01*
X144771380Y-96959000D02*
X144771380Y-92775000D01*
X144731380Y-96911000D02*
X144731380Y-92823000D01*
X144691380Y-96862000D02*
X144691380Y-92872000D01*
X144651380Y-96811000D02*
X144651380Y-92923000D01*
X144611380Y-96757000D02*
X144611380Y-92977000D01*
X144571380Y-96701000D02*
X144571380Y-93033000D01*
X144531380Y-96643000D02*
X144531380Y-93091000D01*
X144491380Y-96581000D02*
X144491380Y-93153000D01*
X144451380Y-96517000D02*
X144451380Y-93217000D01*
X144411380Y-96448000D02*
X144411380Y-93286000D01*
X144371380Y-96376000D02*
X144371380Y-93358000D01*
X144331380Y-96299000D02*
X144331380Y-93435000D01*
X144291380Y-96217000D02*
X144291380Y-93517000D01*
X144251380Y-96129000D02*
X144251380Y-93605000D01*
X144211380Y-96032000D02*
X144211380Y-93702000D01*
X144171380Y-95926000D02*
X144171380Y-93808000D01*
X144131380Y-95807000D02*
X144131380Y-93927000D01*
X144091380Y-95669000D02*
X144091380Y-94065000D01*
X144051380Y-95500000D02*
X144051380Y-94234000D01*
X144011380Y-95269000D02*
X144011380Y-94465000D01*
X150522380Y-94867000D02*
G75*
G03*
X150522380Y-94867000I-3270000J0D01*
G01*
D13*
%TO.C,REF\u002A\u002A*%
X68652000Y-59508000D02*
X68652000Y-61508000D01*
X68652000Y-59508000D02*
X72652000Y-63508000D01*
X68652000Y-66508000D02*
X68652000Y-68508000D01*
X68652000Y-68508000D02*
X70652000Y-68508000D01*
X70652000Y-59508000D02*
X68652000Y-59508000D01*
X70652000Y-64508000D02*
X72652000Y-64508000D01*
X72652000Y-63508000D02*
X70652000Y-63508000D01*
X72652000Y-63508000D02*
X72652000Y-61508000D01*
X72652000Y-64508000D02*
X72652000Y-66508000D01*
X73652000Y-64508000D02*
X75652000Y-64508000D01*
X73652000Y-64508000D02*
X77652000Y-68508000D01*
X73652000Y-66508000D02*
X73652000Y-64508000D01*
X75652000Y-68508000D02*
X77652000Y-68508000D01*
X77652000Y-68508000D02*
X77652000Y-66508000D01*
X70652000Y-64508000D02*
G75*
G03*
X68652000Y-66508000I-1J-1999999D01*
G01*
X72652000Y-61508000D02*
G75*
G03*
X70652000Y-59508000I-1999999J1D01*
G01*
X68652000Y-61508000D02*
G75*
G03*
X70652000Y-63508000I1999999J-1D01*
G01*
X70652000Y-68508000D02*
G75*
G03*
X72652000Y-66508000I1J1999999D01*
G01*
X77652000Y-66508000D02*
G75*
G03*
X75652000Y-64508000I-2000000J0D01*
G01*
X73652000Y-66508000D02*
G75*
G03*
X75652000Y-68508000I2000000J0D01*
G01*
X77652000Y-61508000D02*
G75*
G03*
X77652000Y-61508000I-2000000J0D01*
G01*
D12*
%TO.C,C1*%
X57629000Y-134868349D02*
X57629000Y-134068349D01*
X57229000Y-134468349D02*
X58029000Y-134468349D01*
X55864000Y-130458651D02*
X64024000Y-130458651D01*
X55864000Y-130418651D02*
X64024000Y-130418651D01*
X55864000Y-130378651D02*
X64024000Y-130378651D01*
X55865000Y-130338651D02*
X64023000Y-130338651D01*
X55867000Y-130298651D02*
X64021000Y-130298651D01*
X55868000Y-130258651D02*
X64020000Y-130258651D01*
X55870000Y-130218651D02*
X58904000Y-130218651D01*
X60984000Y-130218651D02*
X64018000Y-130218651D01*
X55873000Y-130178651D02*
X58904000Y-130178651D01*
X60984000Y-130178651D02*
X64015000Y-130178651D01*
X55876000Y-130138651D02*
X58904000Y-130138651D01*
X60984000Y-130138651D02*
X64012000Y-130138651D01*
X55879000Y-130098651D02*
X58904000Y-130098651D01*
X60984000Y-130098651D02*
X64009000Y-130098651D01*
X55883000Y-130058651D02*
X58904000Y-130058651D01*
X60984000Y-130058651D02*
X64005000Y-130058651D01*
X55887000Y-130018651D02*
X58904000Y-130018651D01*
X60984000Y-130018651D02*
X64001000Y-130018651D01*
X55892000Y-129978651D02*
X58904000Y-129978651D01*
X60984000Y-129978651D02*
X63996000Y-129978651D01*
X55896000Y-129938651D02*
X58904000Y-129938651D01*
X60984000Y-129938651D02*
X63992000Y-129938651D01*
X55902000Y-129898651D02*
X58904000Y-129898651D01*
X60984000Y-129898651D02*
X63986000Y-129898651D01*
X55907000Y-129858651D02*
X58904000Y-129858651D01*
X60984000Y-129858651D02*
X63981000Y-129858651D01*
X55914000Y-129818651D02*
X58904000Y-129818651D01*
X60984000Y-129818651D02*
X63974000Y-129818651D01*
X55920000Y-129778651D02*
X58904000Y-129778651D01*
X60984000Y-129778651D02*
X63968000Y-129778651D01*
X55927000Y-129737651D02*
X58904000Y-129737651D01*
X60984000Y-129737651D02*
X63961000Y-129737651D01*
X55934000Y-129697651D02*
X58904000Y-129697651D01*
X60984000Y-129697651D02*
X63954000Y-129697651D01*
X55942000Y-129657651D02*
X58904000Y-129657651D01*
X60984000Y-129657651D02*
X63946000Y-129657651D01*
X55950000Y-129617651D02*
X58904000Y-129617651D01*
X60984000Y-129617651D02*
X63938000Y-129617651D01*
X55959000Y-129577651D02*
X58904000Y-129577651D01*
X60984000Y-129577651D02*
X63929000Y-129577651D01*
X55968000Y-129537651D02*
X58904000Y-129537651D01*
X60984000Y-129537651D02*
X63920000Y-129537651D01*
X55977000Y-129497651D02*
X58904000Y-129497651D01*
X60984000Y-129497651D02*
X63911000Y-129497651D01*
X55987000Y-129457651D02*
X58904000Y-129457651D01*
X60984000Y-129457651D02*
X63901000Y-129457651D01*
X55997000Y-129417651D02*
X58904000Y-129417651D01*
X60984000Y-129417651D02*
X63891000Y-129417651D01*
X56008000Y-129377651D02*
X58904000Y-129377651D01*
X60984000Y-129377651D02*
X63880000Y-129377651D01*
X56019000Y-129337651D02*
X58904000Y-129337651D01*
X60984000Y-129337651D02*
X63869000Y-129337651D01*
X56030000Y-129297651D02*
X58904000Y-129297651D01*
X60984000Y-129297651D02*
X63858000Y-129297651D01*
X56042000Y-129257651D02*
X58904000Y-129257651D01*
X60984000Y-129257651D02*
X63846000Y-129257651D01*
X56055000Y-129217651D02*
X58904000Y-129217651D01*
X60984000Y-129217651D02*
X63833000Y-129217651D01*
X56067000Y-129177651D02*
X58904000Y-129177651D01*
X60984000Y-129177651D02*
X63821000Y-129177651D01*
X56081000Y-129137651D02*
X58904000Y-129137651D01*
X60984000Y-129137651D02*
X63807000Y-129137651D01*
X56094000Y-129097651D02*
X58904000Y-129097651D01*
X60984000Y-129097651D02*
X63794000Y-129097651D01*
X56109000Y-129057651D02*
X58904000Y-129057651D01*
X60984000Y-129057651D02*
X63779000Y-129057651D01*
X56123000Y-129017651D02*
X58904000Y-129017651D01*
X60984000Y-129017651D02*
X63765000Y-129017651D01*
X56139000Y-128977651D02*
X58904000Y-128977651D01*
X60984000Y-128977651D02*
X63749000Y-128977651D01*
X56154000Y-128937651D02*
X58904000Y-128937651D01*
X60984000Y-128937651D02*
X63734000Y-128937651D01*
X56170000Y-128897651D02*
X58904000Y-128897651D01*
X60984000Y-128897651D02*
X63718000Y-128897651D01*
X56187000Y-128857651D02*
X58904000Y-128857651D01*
X60984000Y-128857651D02*
X63701000Y-128857651D01*
X56204000Y-128817651D02*
X58904000Y-128817651D01*
X60984000Y-128817651D02*
X63684000Y-128817651D01*
X56222000Y-128777651D02*
X58904000Y-128777651D01*
X60984000Y-128777651D02*
X63666000Y-128777651D01*
X56240000Y-128737651D02*
X58904000Y-128737651D01*
X60984000Y-128737651D02*
X63648000Y-128737651D01*
X56258000Y-128697651D02*
X58904000Y-128697651D01*
X60984000Y-128697651D02*
X63630000Y-128697651D01*
X56278000Y-128657651D02*
X58904000Y-128657651D01*
X60984000Y-128657651D02*
X63610000Y-128657651D01*
X56297000Y-128617651D02*
X58904000Y-128617651D01*
X60984000Y-128617651D02*
X63591000Y-128617651D01*
X56317000Y-128577651D02*
X58904000Y-128577651D01*
X60984000Y-128577651D02*
X63571000Y-128577651D01*
X56338000Y-128537651D02*
X58904000Y-128537651D01*
X60984000Y-128537651D02*
X63550000Y-128537651D01*
X56360000Y-128497651D02*
X58904000Y-128497651D01*
X60984000Y-128497651D02*
X63528000Y-128497651D01*
X56382000Y-128457651D02*
X58904000Y-128457651D01*
X60984000Y-128457651D02*
X63506000Y-128457651D01*
X56404000Y-128417651D02*
X58904000Y-128417651D01*
X60984000Y-128417651D02*
X63484000Y-128417651D01*
X56427000Y-128377651D02*
X58904000Y-128377651D01*
X60984000Y-128377651D02*
X63461000Y-128377651D01*
X56451000Y-128337651D02*
X58904000Y-128337651D01*
X60984000Y-128337651D02*
X63437000Y-128337651D01*
X56475000Y-128297651D02*
X58904000Y-128297651D01*
X60984000Y-128297651D02*
X63413000Y-128297651D01*
X56500000Y-128257651D02*
X58904000Y-128257651D01*
X60984000Y-128257651D02*
X63388000Y-128257651D01*
X56526000Y-128217651D02*
X58904000Y-128217651D01*
X60984000Y-128217651D02*
X63362000Y-128217651D01*
X56552000Y-128177651D02*
X58904000Y-128177651D01*
X60984000Y-128177651D02*
X63336000Y-128177651D01*
X56579000Y-128137651D02*
X63309000Y-128137651D01*
X56606000Y-128097651D02*
X63282000Y-128097651D01*
X56635000Y-128057651D02*
X63253000Y-128057651D01*
X56664000Y-128017651D02*
X63224000Y-128017651D01*
X56694000Y-127977651D02*
X63194000Y-127977651D01*
X56724000Y-127937651D02*
X63164000Y-127937651D01*
X56755000Y-127897651D02*
X63133000Y-127897651D01*
X56788000Y-127857651D02*
X63100000Y-127857651D01*
X56820000Y-127817651D02*
X63068000Y-127817651D01*
X56854000Y-127777651D02*
X63034000Y-127777651D01*
X56889000Y-127737651D02*
X62999000Y-127737651D01*
X56925000Y-127697651D02*
X62963000Y-127697651D01*
X56961000Y-127657651D02*
X62927000Y-127657651D01*
X56999000Y-127617651D02*
X62889000Y-127617651D01*
X57037000Y-127577651D02*
X62851000Y-127577651D01*
X57077000Y-127537651D02*
X62811000Y-127537651D01*
X57118000Y-127497651D02*
X62770000Y-127497651D01*
X57160000Y-127457651D02*
X62728000Y-127457651D01*
X57203000Y-127417651D02*
X62685000Y-127417651D01*
X57247000Y-127377651D02*
X62641000Y-127377651D01*
X57293000Y-127337651D02*
X62595000Y-127337651D01*
X57340000Y-127297651D02*
X62548000Y-127297651D01*
X57388000Y-127257651D02*
X62500000Y-127257651D01*
X57439000Y-127217651D02*
X62449000Y-127217651D01*
X57490000Y-127177651D02*
X62398000Y-127177651D01*
X57544000Y-127137651D02*
X62344000Y-127137651D01*
X57599000Y-127097651D02*
X62289000Y-127097651D01*
X57657000Y-127057651D02*
X62231000Y-127057651D01*
X57716000Y-127017651D02*
X62172000Y-127017651D01*
X57778000Y-126977651D02*
X62110000Y-126977651D01*
X57842000Y-126937651D02*
X62046000Y-126937651D01*
X57910000Y-126897651D02*
X61978000Y-126897651D01*
X57980000Y-126857651D02*
X61908000Y-126857651D01*
X58054000Y-126817651D02*
X61834000Y-126817651D01*
X58131000Y-126777651D02*
X61757000Y-126777651D01*
X58213000Y-126737651D02*
X61675000Y-126737651D01*
X58299000Y-126697651D02*
X61589000Y-126697651D01*
X58392000Y-126657651D02*
X61496000Y-126657651D01*
X58491000Y-126617651D02*
X61397000Y-126617651D01*
X58598000Y-126577651D02*
X61290000Y-126577651D01*
X58715000Y-126537651D02*
X61173000Y-126537651D01*
X58846000Y-126497651D02*
X61042000Y-126497651D01*
X58996000Y-126457651D02*
X60892000Y-126457651D01*
X59176000Y-126417651D02*
X60712000Y-126417651D01*
X59411000Y-126377651D02*
X60477000Y-126377651D01*
X64064000Y-130458651D02*
G75*
G03*
X64064000Y-130458651I-4120000J0D01*
G01*
%TO.C,TP2*%
X158930000Y-115570000D02*
G75*
G03*
X158930000Y-115570000I-1450000J0D01*
G01*
%TO.C,U1*%
X125500000Y-77640000D02*
X125500000Y-52210000D01*
X125500000Y-77640000D02*
X128040000Y-77640000D01*
X128040000Y-77640000D02*
X128040000Y-84540000D01*
X128040000Y-84540000D02*
X151360000Y-84540000D01*
X149240000Y-50080000D02*
X127630000Y-50080000D01*
X151360000Y-84540000D02*
X151360000Y-52210000D01*
X127630000Y-50080000D02*
G75*
G03*
X125500000Y-52210000I2J-2130002D01*
G01*
X151360000Y-52210000D02*
G75*
G03*
X149230000Y-50080000I-2130000J0D01*
G01*
D11*
X125095000Y-58420000D02*
X124460000Y-59055000D01*
X124460000Y-57785000D01*
X125095000Y-58420000D01*
G36*
X125095000Y-58420000D02*
G01*
X124460000Y-59055000D01*
X124460000Y-57785000D01*
X125095000Y-58420000D01*
G37*
D12*
%TO.C,S1*%
X115600000Y-123600000D02*
G75*
G03*
X115600000Y-123600000I-3000000J0D01*
G01*
X106700000Y-129700000D02*
X106700000Y-125600000D01*
X109100000Y-129700000D02*
X106700000Y-129700000D01*
X113900000Y-129700000D02*
X111300000Y-129700000D01*
X118500000Y-129700000D02*
X116100000Y-129700000D01*
X118500000Y-125600000D02*
X118500000Y-129700000D01*
X113100000Y-123600000D02*
X112100000Y-123600000D01*
X112600000Y-123100000D02*
X112600000Y-124100000D01*
X106700000Y-121600000D02*
X106700000Y-117500000D01*
X118500000Y-121600000D02*
X118500000Y-117500000D01*
X118500000Y-117500000D02*
X106700000Y-117500000D01*
X116700000Y-116400000D02*
X116400000Y-116100000D01*
X116400000Y-116100000D02*
X116700000Y-115800000D01*
X116700000Y-115800000D02*
X116700000Y-116400000D01*
%TO.C,R51*%
X56301000Y-65183999D02*
G75*
G03*
X59270202Y-65183387I1484000J2913999D01*
G01*
X56721000Y-59178000D02*
G75*
G03*
X54871171Y-63753968I1064000J-3092000D01*
G01*
X60699000Y-63755000D02*
G75*
G03*
X61055075Y-62213137I-2914000J1485000D01*
G01*
X61055000Y-62270000D02*
G75*
G03*
X58849608Y-59178154I-3270000J0D01*
G01*
%TD*%
D14*
X161600000Y-147600000D02*
X41600000Y-147600000D01*
X41600000Y-147600000D02*
X41600000Y-55600000D01*
X41600000Y-55600000D02*
X161600000Y-55600000D01*
X161600000Y-55600000D02*
X161600000Y-147600000D01*
M02*
