%TF.GenerationSoftware,KiCad,Pcbnew,7.0.7*%
%TF.CreationDate,2024-02-20T18:04:50-10:00*%
%TF.ProjectId,Controller,436f6e74-726f-46c6-9c65-722e6b696361,New*%
%TF.SameCoordinates,Original*%
%TF.FileFunction,Copper,L2,Bot*%
%TF.FilePolarity,Positive*%
%FSLAX46Y46*%
G04 Gerber Fmt 4.6, Leading zero omitted, Abs format (unit mm)*
G04 Created by KiCad (PCBNEW 7.0.7) date 2024-02-20 18:04:50*
%MOMM*%
%LPD*%
G01*
G04 APERTURE LIST*
G04 Aperture macros list*
%AMRoundRect*
0 Rectangle with rounded corners*
0 $1 Rounding radius*
0 $2 $3 $4 $5 $6 $7 $8 $9 X,Y pos of 4 corners*
0 Add a 4 corners polygon primitive as box body*
4,1,4,$2,$3,$4,$5,$6,$7,$8,$9,$2,$3,0*
0 Add four circle primitives for the rounded corners*
1,1,$1+$1,$2,$3*
1,1,$1+$1,$4,$5*
1,1,$1+$1,$6,$7*
1,1,$1+$1,$8,$9*
0 Add four rect primitives between the rounded corners*
20,1,$1+$1,$2,$3,$4,$5,0*
20,1,$1+$1,$4,$5,$6,$7,0*
20,1,$1+$1,$6,$7,$8,$9,0*
20,1,$1+$1,$8,$9,$2,$3,0*%
%AMFreePoly0*
4,1,19,0.500000,-0.750000,0.000000,-0.750000,0.000000,-0.744911,-0.071157,-0.744911,-0.207708,-0.704816,-0.327430,-0.627875,-0.420627,-0.520320,-0.479746,-0.390866,-0.500000,-0.250000,-0.500000,0.250000,-0.479746,0.390866,-0.420627,0.520320,-0.327430,0.627875,-0.207708,0.704816,-0.071157,0.744911,0.000000,0.744911,0.000000,0.750000,0.500000,0.750000,0.500000,-0.750000,0.500000,-0.750000,
$1*%
%AMFreePoly1*
4,1,19,0.000000,0.744911,0.071157,0.744911,0.207708,0.704816,0.327430,0.627875,0.420627,0.520320,0.479746,0.390866,0.500000,0.250000,0.500000,-0.250000,0.479746,-0.390866,0.420627,-0.520320,0.327430,-0.627875,0.207708,-0.704816,0.071157,-0.744911,0.000000,-0.744911,0.000000,-0.750000,-0.500000,-0.750000,-0.500000,0.750000,0.000000,0.750000,0.000000,0.744911,0.000000,0.744911,
$1*%
%AMFreePoly2*
4,1,9,5.362500,-0.866500,1.237500,-0.866500,1.237500,-0.450000,-1.237500,-0.450000,-1.237500,0.450000,1.237500,0.450000,1.237500,0.866500,5.362500,0.866500,5.362500,-0.866500,5.362500,-0.866500,$1*%
G04 Aperture macros list end*
%TA.AperFunction,SMDPad,CuDef*%
%ADD10RoundRect,0.150000X-0.150000X0.587500X-0.150000X-0.587500X0.150000X-0.587500X0.150000X0.587500X0*%
%TD*%
%TA.AperFunction,SMDPad,CuDef*%
%ADD11RoundRect,0.250000X0.625000X-0.400000X0.625000X0.400000X-0.625000X0.400000X-0.625000X-0.400000X0*%
%TD*%
%TA.AperFunction,SMDPad,CuDef*%
%ADD12RoundRect,0.150000X-0.587500X-0.150000X0.587500X-0.150000X0.587500X0.150000X-0.587500X0.150000X0*%
%TD*%
%TA.AperFunction,SMDPad,CuDef*%
%ADD13RoundRect,0.150000X0.150000X-0.587500X0.150000X0.587500X-0.150000X0.587500X-0.150000X-0.587500X0*%
%TD*%
%TA.AperFunction,ComponentPad*%
%ADD14C,2.500000*%
%TD*%
%TA.AperFunction,ComponentPad*%
%ADD15RoundRect,0.341000X-0.759000X0.759000X-0.759000X-0.759000X0.759000X-0.759000X0.759000X0.759000X0*%
%TD*%
%TA.AperFunction,ComponentPad*%
%ADD16C,2.200000*%
%TD*%
%TA.AperFunction,ComponentPad*%
%ADD17R,2.000000X1.905000*%
%TD*%
%TA.AperFunction,ComponentPad*%
%ADD18O,2.000000X1.905000*%
%TD*%
%TA.AperFunction,ComponentPad*%
%ADD19O,1.600000X2.500000*%
%TD*%
%TA.AperFunction,ComponentPad*%
%ADD20O,3.500000X7.000000*%
%TD*%
%TA.AperFunction,ComponentPad*%
%ADD21RoundRect,0.249997X-0.790003X-1.550003X0.790003X-1.550003X0.790003X1.550003X-0.790003X1.550003X0*%
%TD*%
%TA.AperFunction,ComponentPad*%
%ADD22O,2.080000X3.600000*%
%TD*%
%TA.AperFunction,ComponentPad*%
%ADD23C,3.000000*%
%TD*%
%TA.AperFunction,ComponentPad*%
%ADD24R,1.800000X2.600000*%
%TD*%
%TA.AperFunction,ComponentPad*%
%ADD25O,1.800000X2.600000*%
%TD*%
%TA.AperFunction,ComponentPad*%
%ADD26R,1.600000X1.600000*%
%TD*%
%TA.AperFunction,ComponentPad*%
%ADD27C,1.600000*%
%TD*%
%TA.AperFunction,ComponentPad*%
%ADD28R,1.850000X1.850000*%
%TD*%
%TA.AperFunction,ComponentPad*%
%ADD29C,1.850000*%
%TD*%
%TA.AperFunction,ComponentPad*%
%ADD30R,2.000000X2.000000*%
%TD*%
%TA.AperFunction,ComponentPad*%
%ADD31O,2.000000X1.600000*%
%TD*%
%TA.AperFunction,ComponentPad*%
%ADD32C,2.000000*%
%TD*%
%TA.AperFunction,ComponentPad*%
%ADD33C,3.200000*%
%TD*%
%TA.AperFunction,ComponentPad*%
%ADD34C,1.620000*%
%TD*%
%TA.AperFunction,SMDPad,CuDef*%
%ADD35RoundRect,0.250000X-0.650000X0.412500X-0.650000X-0.412500X0.650000X-0.412500X0.650000X0.412500X0*%
%TD*%
%TA.AperFunction,SMDPad,CuDef*%
%ADD36RoundRect,0.250000X-0.625000X0.400000X-0.625000X-0.400000X0.625000X-0.400000X0.625000X0.400000X0*%
%TD*%
%TA.AperFunction,SMDPad,CuDef*%
%ADD37RoundRect,0.250000X0.412500X0.650000X-0.412500X0.650000X-0.412500X-0.650000X0.412500X-0.650000X0*%
%TD*%
%TA.AperFunction,SMDPad,CuDef*%
%ADD38RoundRect,0.250000X1.000000X0.650000X-1.000000X0.650000X-1.000000X-0.650000X1.000000X-0.650000X0*%
%TD*%
%TA.AperFunction,SMDPad,CuDef*%
%ADD39RoundRect,0.250000X-1.000000X-0.650000X1.000000X-0.650000X1.000000X0.650000X-1.000000X0.650000X0*%
%TD*%
%TA.AperFunction,SMDPad,CuDef*%
%ADD40RoundRect,0.250000X0.650000X-1.000000X0.650000X1.000000X-0.650000X1.000000X-0.650000X-1.000000X0*%
%TD*%
%TA.AperFunction,SMDPad,CuDef*%
%ADD41RoundRect,0.250000X-1.075000X0.400000X-1.075000X-0.400000X1.075000X-0.400000X1.075000X0.400000X0*%
%TD*%
%TA.AperFunction,SMDPad,CuDef*%
%ADD42FreePoly0,180.000000*%
%TD*%
%TA.AperFunction,SMDPad,CuDef*%
%ADD43FreePoly1,180.000000*%
%TD*%
%TA.AperFunction,SMDPad,CuDef*%
%ADD44RoundRect,0.250000X0.650000X-0.412500X0.650000X0.412500X-0.650000X0.412500X-0.650000X-0.412500X0*%
%TD*%
%TA.AperFunction,SMDPad,CuDef*%
%ADD45RoundRect,0.250000X-0.412500X-0.650000X0.412500X-0.650000X0.412500X0.650000X-0.412500X0.650000X0*%
%TD*%
%TA.AperFunction,SMDPad,CuDef*%
%ADD46RoundRect,0.150000X0.825000X0.150000X-0.825000X0.150000X-0.825000X-0.150000X0.825000X-0.150000X0*%
%TD*%
%TA.AperFunction,SMDPad,CuDef*%
%ADD47RoundRect,0.150000X-0.825000X-0.150000X0.825000X-0.150000X0.825000X0.150000X-0.825000X0.150000X0*%
%TD*%
%TA.AperFunction,SMDPad,CuDef*%
%ADD48R,1.560000X0.650000*%
%TD*%
%TA.AperFunction,SMDPad,CuDef*%
%ADD49RoundRect,0.250000X0.400000X0.625000X-0.400000X0.625000X-0.400000X-0.625000X0.400000X-0.625000X0*%
%TD*%
%TA.AperFunction,SMDPad,CuDef*%
%ADD50RoundRect,0.250000X-0.400000X-0.625000X0.400000X-0.625000X0.400000X0.625000X-0.400000X0.625000X0*%
%TD*%
%TA.AperFunction,SMDPad,CuDef*%
%ADD51RoundRect,0.225000X0.375000X-0.225000X0.375000X0.225000X-0.375000X0.225000X-0.375000X-0.225000X0*%
%TD*%
%TA.AperFunction,SMDPad,CuDef*%
%ADD52RoundRect,0.150000X0.150000X-0.725000X0.150000X0.725000X-0.150000X0.725000X-0.150000X-0.725000X0*%
%TD*%
%TA.AperFunction,SMDPad,CuDef*%
%ADD53R,0.650000X1.560000*%
%TD*%
%TA.AperFunction,SMDPad,CuDef*%
%ADD54RoundRect,0.250000X0.450000X-0.350000X0.450000X0.350000X-0.450000X0.350000X-0.450000X-0.350000X0*%
%TD*%
%TA.AperFunction,SMDPad,CuDef*%
%ADD55R,0.900000X2.300000*%
%TD*%
%TA.AperFunction,SMDPad,CuDef*%
%ADD56FreePoly2,270.000000*%
%TD*%
%TA.AperFunction,ViaPad*%
%ADD57C,1.200000*%
%TD*%
%TA.AperFunction,Conductor*%
%ADD58C,0.381000*%
%TD*%
%TA.AperFunction,Conductor*%
%ADD59C,0.508000*%
%TD*%
%TA.AperFunction,Conductor*%
%ADD60C,1.016000*%
%TD*%
%TA.AperFunction,Conductor*%
%ADD61C,0.304800*%
%TD*%
%TA.AperFunction,Profile*%
%ADD62C,0.050000*%
%TD*%
G04 APERTURE END LIST*
D10*
%TO.P,D12,1,A*%
%TO.N,GND*%
X134432000Y-121236500D03*
%TO.P,D12,2,K*%
%TO.N,+3.3V*%
X136332000Y-121236500D03*
%TO.P,D12,3,COM*%
%TO.N,Net-(D12A-COM)*%
X135382000Y-123111500D03*
%TD*%
D11*
%TO.P,R28,1*%
%TO.N,T2in*%
X135128000Y-131090000D03*
%TO.P,R28,2*%
%TO.N,Net-(D13A-COM)*%
X135128000Y-127990000D03*
%TD*%
%TO.P,R27,1*%
%TO.N,T1in*%
X117856000Y-131090000D03*
%TO.P,R27,2*%
%TO.N,Net-(D11A-COM)*%
X117856000Y-127990000D03*
%TD*%
D12*
%TO.P,D7,1,A*%
%TO.N,GNDA*%
X137238500Y-110678000D03*
%TO.P,D7,2,K*%
%TO.N,/3.3VA*%
X137238500Y-108778000D03*
%TO.P,D7,3,COM*%
%TO.N,Net-(D7A-COM)*%
X139113500Y-109728000D03*
%TD*%
D13*
%TO.P,D13,1,A*%
%TO.N,GND*%
X133030000Y-129969500D03*
%TO.P,D13,2,K*%
%TO.N,+3.3V*%
X131130000Y-129969500D03*
%TO.P,D13,3,COM*%
%TO.N,Net-(D13A-COM)*%
X132080000Y-128094500D03*
%TD*%
D10*
%TO.P,D11,3,COM*%
%TO.N,Net-(D11A-COM)*%
X120904000Y-129969500D03*
%TO.P,D11,2,K*%
%TO.N,+3.3V*%
X121854000Y-128094500D03*
%TO.P,D11,1,A*%
%TO.N,GND*%
X119954000Y-128094500D03*
%TD*%
%TO.P,D10,1,A*%
%TO.N,GND*%
X128336000Y-121236500D03*
%TO.P,D10,2,K*%
%TO.N,+3.3V*%
X130236000Y-121236500D03*
%TO.P,D10,3,COM*%
%TO.N,Net-(D10A-COM)*%
X129286000Y-123111500D03*
%TD*%
%TO.P,D6,1,A*%
%TO.N,GND*%
X98364000Y-86438500D03*
%TO.P,D6,2,K*%
%TO.N,+3.3V*%
X100264000Y-86438500D03*
%TO.P,D6,3,COM*%
%TO.N,SupV*%
X99314000Y-88313500D03*
%TD*%
%TO.P,D9,1,A*%
%TO.N,GND*%
X101666000Y-119204500D03*
%TO.P,D9,2,K*%
%TO.N,+3.3V*%
X103566000Y-119204500D03*
%TO.P,D9,3,COM*%
%TO.N,In2*%
X102616000Y-121079500D03*
%TD*%
D13*
%TO.P,D8,1,A*%
%TO.N,GND*%
X92710000Y-126492000D03*
%TO.P,D8,2,K*%
%TO.N,+3.3V*%
X90810000Y-126492000D03*
%TO.P,D8,3,COM*%
%TO.N,In1*%
X91760000Y-124617000D03*
%TD*%
D14*
%TO.P,TP4,1,1*%
%TO.N,T1amp*%
X104648000Y-108712000D03*
%TD*%
%TO.P,TP1,1,1*%
%TO.N,+5V*%
X157480000Y-88900000D03*
%TD*%
%TO.P,TP3,1,1*%
%TO.N,/WQ*%
X157480000Y-111252000D03*
%TD*%
%TO.P,TP5,1,1*%
%TO.N,T2amp*%
X104648000Y-112776000D03*
%TD*%
%TO.P,TP0,1,1*%
%TO.N,GND*%
X157480000Y-69342000D03*
%TD*%
D15*
%TO.P,K1,1*%
%TO.N,+12V*%
X74930000Y-114935000D03*
D14*
%TO.P,K1,2*%
%TO.N,Net-(J1-Pin_3)*%
X67330000Y-125135000D03*
%TO.P,K1,3*%
%TO.N,Net-(J1-Pin_4)*%
X67330000Y-132835000D03*
D16*
%TO.P,K1,5*%
%TO.N,Net-(D2-K)*%
X67330000Y-114935000D03*
%TD*%
D15*
%TO.P,K2,1*%
%TO.N,+12V*%
X86360000Y-114935000D03*
D14*
%TO.P,K2,2*%
%TO.N,Net-(J1-Pin_5)*%
X78760000Y-125135000D03*
%TO.P,K2,3*%
%TO.N,Net-(J1-Pin_6)*%
X78760000Y-132835000D03*
D16*
%TO.P,K2,5*%
%TO.N,Net-(D3-K)*%
X78760000Y-114935000D03*
%TD*%
D17*
%TO.P,U2,1,IN*%
%TO.N,+12V*%
X63500000Y-120015000D03*
D18*
%TO.P,U2,2,GND*%
%TO.N,GND*%
X63500000Y-117475000D03*
%TO.P,U2,3,OUT*%
%TO.N,+5V*%
X63500000Y-114935000D03*
%TD*%
D19*
%TO.P,J3,1,In*%
%TO.N,Net-(J3-In)*%
X146600000Y-127600000D03*
D20*
%TO.P,J3,2,Ext*%
%TO.N,GNDA*%
X151680000Y-132680000D03*
D19*
X149140000Y-127600000D03*
X144060000Y-127600000D03*
D20*
X141520000Y-132680000D03*
%TD*%
D21*
%TO.P,J1,1,Pin_1*%
%TO.N,VS*%
X53600000Y-138600000D03*
X53600000Y-143680000D03*
D22*
%TO.P,J1,2,Pin_2*%
%TO.N,GND*%
X58680000Y-138600000D03*
X58680000Y-143680000D03*
%TO.P,J1,3,Pin_3*%
%TO.N,Net-(J1-Pin_3)*%
X63760000Y-138600000D03*
X63760000Y-143680000D03*
%TO.P,J1,4,Pin_4*%
%TO.N,Net-(J1-Pin_4)*%
X68840000Y-138600000D03*
X68840000Y-143680000D03*
%TO.P,J1,5,Pin_5*%
%TO.N,Net-(J1-Pin_5)*%
X73920000Y-138600000D03*
X73920000Y-143680000D03*
%TO.P,J1,6,Pin_6*%
%TO.N,Net-(J1-Pin_6)*%
X79000000Y-138600000D03*
X79000000Y-143680000D03*
%TO.P,J1,7,Pin_7*%
%TO.N,Net-(D4-K)*%
X84080000Y-138600000D03*
X84080000Y-143680000D03*
%TO.P,J1,8,Pin_8*%
%TO.N,Net-(D5-K)*%
X89160000Y-138600000D03*
X89160000Y-143680000D03*
%TD*%
D21*
%TO.P,J2,1,Pin_1*%
%TO.N,Net-(J2-Pin_1)*%
X97600000Y-138600000D03*
X97600000Y-143680000D03*
D22*
%TO.P,J2,2,Pin_2*%
%TO.N,Net-(J2-Pin_2)*%
X102680000Y-138600000D03*
X102680000Y-143680000D03*
%TO.P,J2,3,Pin_3*%
%TO.N,T1in*%
X107760000Y-138600000D03*
X107760000Y-143680000D03*
%TO.P,J2,4,Pin_4*%
%TO.N,T1bias*%
X112840000Y-138600000D03*
X112840000Y-143680000D03*
%TO.P,J2,5,Pin_5*%
%TO.N,GND*%
X117920000Y-138600000D03*
X117920000Y-143680000D03*
%TO.P,J2,6,Pin_6*%
%TO.N,T2in*%
X123000000Y-138600000D03*
X123000000Y-143680000D03*
%TO.P,J2,7,Pin_7*%
%TO.N,T2bias*%
X128080000Y-138600000D03*
X128080000Y-143680000D03*
%TO.P,J2,8,Pin_8*%
%TO.N,GND*%
X133160000Y-138600000D03*
X133160000Y-143680000D03*
%TD*%
D23*
%TO.P,DS1,*%
%TO.N,*%
X45100900Y-73100000D03*
X45100900Y-104100700D03*
X120099480Y-104100700D03*
X120100000Y-73100000D03*
D24*
%TO.P,DS1,1,VSS*%
%TO.N,GND*%
X50600000Y-73100000D03*
D25*
%TO.P,DS1,2,VDD*%
%TO.N,+5V*%
X53140000Y-73100000D03*
%TO.P,DS1,3,VO*%
%TO.N,Net-(DS1-VO)*%
X55680000Y-73100000D03*
%TO.P,DS1,4,RS*%
%TO.N,DispRS*%
X58220000Y-73100000D03*
%TO.P,DS1,5,R/W*%
%TO.N,DispRW*%
X60760000Y-73100000D03*
%TO.P,DS1,6,E*%
%TO.N,DispE*%
X63300000Y-73100000D03*
%TO.P,DS1,7,D0*%
%TO.N,DispD0*%
X65840000Y-73100000D03*
%TO.P,DS1,8,D1*%
%TO.N,DispD1*%
X68380000Y-73100000D03*
%TO.P,DS1,9,D2*%
%TO.N,DispD2*%
X70920000Y-73100000D03*
%TO.P,DS1,10,D3*%
%TO.N,DispD3*%
X73460000Y-73100000D03*
%TO.P,DS1,11,D4*%
%TO.N,DispD4*%
X76000000Y-73100000D03*
%TO.P,DS1,12,D5*%
%TO.N,DispD5*%
X78540000Y-73100000D03*
%TO.P,DS1,13,D6*%
%TO.N,DispD6*%
X81080000Y-73100000D03*
%TO.P,DS1,14,D7*%
%TO.N,DispD7*%
X83620000Y-73100000D03*
%TO.P,DS1,15,LED(+)*%
%TO.N,+5V*%
X86160000Y-73100000D03*
%TO.P,DS1,16,LED(-)*%
%TO.N,GND*%
X88700000Y-73100000D03*
%TD*%
D26*
%TO.P,C8,1*%
%TO.N,+5VA*%
X155637113Y-94867000D03*
D27*
%TO.P,C8,2*%
%TO.N,GNDA*%
X153137113Y-94867000D03*
%TD*%
D26*
%TO.P,C2,1*%
%TO.N,+12V*%
X49784000Y-131708651D03*
D27*
%TO.P,C2,2*%
%TO.N,GND*%
X49784000Y-129208651D03*
%TD*%
D26*
%TO.P,C3,1*%
%TO.N,+5V*%
X154472000Y-77216000D03*
D27*
%TO.P,C3,2*%
%TO.N,GND*%
X156972000Y-77216000D03*
%TD*%
D28*
%TO.P,PS1,1,+Vin*%
%TO.N,+5V*%
X139700000Y-100584000D03*
D29*
%TO.P,PS1,2,-Vin*%
%TO.N,GND*%
X142240000Y-100584000D03*
%TO.P,PS1,4,-Vout*%
%TO.N,-5VA*%
X147320000Y-100584000D03*
%TO.P,PS1,5,0V*%
%TO.N,GNDA*%
X149860000Y-100584000D03*
%TO.P,PS1,6,+Vout*%
%TO.N,+5VA*%
X152400000Y-100584000D03*
%TD*%
D26*
%TO.P,C7,1*%
%TO.N,+5V*%
X139025621Y-94867000D03*
D27*
%TO.P,C7,2*%
%TO.N,GND*%
X141525621Y-94867000D03*
%TD*%
D26*
%TO.P,C9,1*%
%TO.N,GNDA*%
X148502380Y-94867000D03*
D27*
%TO.P,C9,2*%
%TO.N,-5VA*%
X146002380Y-94867000D03*
%TD*%
D26*
%TO.P,C1,1*%
%TO.N,+12V*%
X59944000Y-131708651D03*
D27*
%TO.P,C1,2*%
%TO.N,GND*%
X59944000Y-129208651D03*
%TD*%
D14*
%TO.P,TP2,1,1*%
%TO.N,GNDA*%
X157480000Y-115570000D03*
%TD*%
D30*
%TO.P,U1,1,~{EN}*%
%TO.N,unconnected-(U1-~{EN}-Pad1)*%
X127000000Y-58420000D03*
D31*
%TO.P,U1,2,D2*%
%TO.N,DispRS*%
X127000000Y-60960000D03*
%TO.P,U1,3,D4*%
%TO.N,DispE*%
X127000000Y-63500000D03*
%TO.P,U1,4,D12*%
%TO.N,DispD1*%
X127000000Y-66040000D03*
%TO.P,U1,5,D13*%
%TO.N,DispD3*%
X127000000Y-68580000D03*
%TO.P,U1,6,D11*%
%TO.N,DispD5*%
X127000000Y-71120000D03*
%TO.P,U1,7,D10*%
%TO.N,DispD7*%
X127000000Y-73660000D03*
%TO.P,U1,8,3V3*%
%TO.N,unconnected-(U1-3V3-Pad8)*%
X127000000Y-76200000D03*
%TO.P,U1,9,Vbus*%
%TO.N,+5V*%
X149860000Y-76200000D03*
%TO.P,U1,10,GND*%
%TO.N,GND*%
X149860000Y-73660000D03*
%TO.P,U1,11,D16*%
%TO.N,SPCK*%
X149860000Y-71120000D03*
%TO.P,U1,12,D18*%
%TO.N,MISO*%
X149860000Y-68580000D03*
%TO.P,U1,13,D35*%
%TO.N,SDA*%
X149860000Y-66040000D03*
%TO.P,U1,14,D36*%
%TO.N,SCL*%
X149860000Y-63500000D03*
%TO.P,U1,15,D44*%
%TO.N,unconnected-(U1-D44-Pad15)*%
X149860000Y-60960000D03*
%TO.P,U1,16,D43*%
%TO.N,unconnected-(U1-D43-Pad16)*%
X149860000Y-58420000D03*
%TO.P,U1,17,D1*%
%TO.N,unconnected-(U1-D1-Pad17)*%
X129540000Y-58420000D03*
%TO.P,U1,18,D3*%
%TO.N,DispRW*%
X129540000Y-60960000D03*
%TO.P,U1,19,D5*%
%TO.N,DispD0*%
X129540000Y-63500000D03*
%TO.P,U1,20,D6*%
%TO.N,DispD2*%
X129540000Y-66040000D03*
%TO.P,U1,21,D7*%
%TO.N,DispD4*%
X129540000Y-68580000D03*
%TO.P,U1,22,D8*%
%TO.N,DispD6*%
X129540000Y-71120000D03*
%TO.P,U1,23,D9*%
%TO.N,Rly2*%
X129540000Y-73660000D03*
%TO.P,U1,24,D14*%
%TO.N,Rly1*%
X129540000Y-76200000D03*
%TO.P,U1,25,D15*%
%TO.N,EncPB*%
X147320000Y-76200000D03*
%TO.P,U1,26,GND*%
%TO.N,GND*%
X147320000Y-73660000D03*
%TO.P,U1,27,D17*%
%TO.N,EncA*%
X147320000Y-71120000D03*
%TO.P,U1,28,D21*%
%TO.N,EncB*%
X147320000Y-68580000D03*
%TO.P,U1,29,D34*%
%TO.N,MOSI*%
X147320000Y-66040000D03*
%TO.P,U1,30,D38*%
%TO.N,ADCS*%
X147320000Y-63500000D03*
%TO.P,U1,31,D37*%
%TO.N,Out2d*%
X147320000Y-60960000D03*
%TO.P,U1,32,D33*%
%TO.N,Out1d*%
X147320000Y-58420000D03*
%TD*%
D32*
%TO.P,S1,S2,S2*%
%TO.N,GND*%
X115100000Y-130600000D03*
%TO.P,S1,S1,S1*%
%TO.N,Net-(R47-Pad1)*%
X110100000Y-130600000D03*
D33*
%TO.P,S1,MP*%
%TO.N,N/C*%
X107000000Y-123600000D03*
X118200000Y-123600000D03*
D32*
%TO.P,S1,C,C*%
%TO.N,GND*%
X112600000Y-116100000D03*
%TO.P,S1,B,B*%
%TO.N,Net-(R45-Pad1)*%
X110100000Y-116100000D03*
D30*
%TO.P,S1,A,A*%
%TO.N,Net-(R46-Pad1)*%
X115100000Y-116100000D03*
%TD*%
D34*
%TO.P,R51,1,1*%
%TO.N,GND*%
X60285000Y-64770000D03*
%TO.P,R51,2,2*%
%TO.N,Net-(DS1-VO)*%
X57785000Y-59770000D03*
%TO.P,R51,3,3*%
%TO.N,+5V*%
X55285000Y-64770000D03*
%TD*%
D11*
%TO.P,R47,1*%
%TO.N,Net-(R47-Pad1)*%
X109728000Y-128042000D03*
%TO.P,R47,2*%
%TO.N,+3.3V*%
X109728000Y-124942000D03*
%TD*%
D35*
%TO.P,C29,1*%
%TO.N,EncB*%
X111252000Y-110197500D03*
%TO.P,C29,2*%
%TO.N,GND*%
X111252000Y-113322500D03*
%TD*%
%TO.P,C30,1*%
%TO.N,EncA*%
X113792000Y-110197500D03*
%TO.P,C30,2*%
%TO.N,GND*%
X113792000Y-113322500D03*
%TD*%
%TO.P,C31,1*%
%TO.N,EncPB*%
X114808000Y-124929500D03*
%TO.P,C31,2*%
%TO.N,GND*%
X114808000Y-128054500D03*
%TD*%
D36*
%TO.P,R48,1*%
%TO.N,EncA*%
X116332000Y-110210000D03*
%TO.P,R48,2*%
%TO.N,Net-(R46-Pad1)*%
X116332000Y-113310000D03*
%TD*%
%TO.P,R49,1*%
%TO.N,EncB*%
X108712000Y-110210000D03*
%TO.P,R49,2*%
%TO.N,Net-(R45-Pad1)*%
X108712000Y-113310000D03*
%TD*%
D11*
%TO.P,R50,1*%
%TO.N,Net-(R47-Pad1)*%
X112268000Y-128042000D03*
%TO.P,R50,2*%
%TO.N,EncPB*%
X112268000Y-124942000D03*
%TD*%
D37*
%TO.P,C5,1*%
%TO.N,+5V*%
X53632500Y-69215000D03*
%TO.P,C5,2*%
%TO.N,GND*%
X50507500Y-69215000D03*
%TD*%
D38*
%TO.P,D1,1,K*%
%TO.N,+12V*%
X56864000Y-134112000D03*
%TO.P,D1,2,A*%
%TO.N,VS*%
X52864000Y-134112000D03*
%TD*%
D35*
%TO.P,C4,1*%
%TO.N,+5V*%
X60325000Y-114350000D03*
%TO.P,C4,2*%
%TO.N,GND*%
X60325000Y-117475000D03*
%TD*%
D39*
%TO.P,D2,1,K*%
%TO.N,Net-(D2-K)*%
X67310000Y-111125000D03*
%TO.P,D2,2,A*%
%TO.N,GND*%
X71310000Y-111125000D03*
%TD*%
D40*
%TO.P,D4,1,K*%
%TO.N,Net-(D4-K)*%
X90932000Y-116808000D03*
%TO.P,D4,2,A*%
%TO.N,GND*%
X90932000Y-112808000D03*
%TD*%
D11*
%TO.P,R12,1*%
%TO.N,+3.3V*%
X123698000Y-124232000D03*
%TO.P,R12,2*%
%TO.N,Net-(D10A-COM)*%
X123698000Y-121132000D03*
%TD*%
%TO.P,R18,1*%
%TO.N,Net-(D10A-COM)*%
X126238000Y-124232000D03*
%TO.P,R18,2*%
%TO.N,Net-(U8B--)*%
X126238000Y-121132000D03*
%TD*%
%TO.P,R17,2*%
%TO.N,Net-(U8B-+)*%
X121158000Y-121132000D03*
%TO.P,R17,1*%
%TO.N,Net-(D11A-COM)*%
X121158000Y-124232000D03*
%TD*%
%TO.P,R22,1*%
%TO.N,Net-(U8A--)*%
X138010500Y-116993000D03*
%TO.P,R22,2*%
%TO.N,T2amp*%
X138010500Y-113893000D03*
%TD*%
D36*
%TO.P,R33,1*%
%TO.N,Rly2*%
X72136000Y-96494000D03*
%TO.P,R33,2*%
%TO.N,Net-(Q2-B)*%
X72136000Y-99594000D03*
%TD*%
D35*
%TO.P,C28,1*%
%TO.N,T2amp*%
X135470500Y-113880500D03*
%TO.P,C28,2*%
%TO.N,Net-(U8A--)*%
X135470500Y-117005500D03*
%TD*%
D36*
%TO.P,R34,1*%
%TO.N,Rly1*%
X65024000Y-96494000D03*
%TO.P,R34,2*%
%TO.N,Net-(Q1-B)*%
X65024000Y-99594000D03*
%TD*%
%TO.P,R11,1*%
%TO.N,+3.3V*%
X123952000Y-127990000D03*
%TO.P,R11,2*%
%TO.N,T1in*%
X123952000Y-131090000D03*
%TD*%
%TO.P,R45,1*%
%TO.N,Net-(R45-Pad1)*%
X109728000Y-118846000D03*
%TO.P,R45,2*%
%TO.N,+3.3V*%
X109728000Y-121946000D03*
%TD*%
%TO.P,R46,1*%
%TO.N,Net-(R46-Pad1)*%
X112268000Y-118846000D03*
%TO.P,R46,2*%
%TO.N,+3.3V*%
X112268000Y-121946000D03*
%TD*%
D11*
%TO.P,R39,2*%
%TO.N,In1*%
X94996000Y-123418000D03*
%TO.P,R39,1*%
%TO.N,GND*%
X94996000Y-126518000D03*
%TD*%
D36*
%TO.P,R35,1*%
%TO.N,In1*%
X97536000Y-123444000D03*
%TO.P,R35,2*%
%TO.N,Net-(J2-Pin_1)*%
X97536000Y-126544000D03*
%TD*%
D41*
%TO.P,R43,1*%
%TO.N,GND*%
X94996000Y-129006000D03*
%TO.P,R43,2*%
%TO.N,Net-(JP1-B)*%
X94996000Y-132106000D03*
%TD*%
D11*
%TO.P,R15,1*%
%TO.N,T1bias*%
X126492000Y-131090000D03*
%TO.P,R15,2*%
%TO.N,Net-(D10A-COM)*%
X126492000Y-127990000D03*
%TD*%
D40*
%TO.P,D5,1,K*%
%TO.N,Net-(D5-K)*%
X96520000Y-116808000D03*
%TO.P,D5,2,A*%
%TO.N,GND*%
X96520000Y-112808000D03*
%TD*%
D35*
%TO.P,C10,1*%
%TO.N,SupV*%
X52832000Y-122897500D03*
%TO.P,C10,2*%
%TO.N,GND*%
X52832000Y-126022500D03*
%TD*%
D42*
%TO.P,JP3,1,A*%
%TO.N,GND*%
X116220000Y-135255000D03*
D43*
%TO.P,JP3,2,B*%
%TO.N,T1bias*%
X114920000Y-135255000D03*
%TD*%
D36*
%TO.P,R36,1*%
%TO.N,In2*%
X102616000Y-123418000D03*
%TO.P,R36,2*%
%TO.N,Net-(J2-Pin_2)*%
X102616000Y-126518000D03*
%TD*%
D42*
%TO.P,JP1,1,A*%
%TO.N,Net-(J2-Pin_1)*%
X95646000Y-134620000D03*
D43*
%TO.P,JP1,2,B*%
%TO.N,Net-(JP1-B)*%
X94346000Y-134620000D03*
%TD*%
D42*
%TO.P,JP2,1,A*%
%TO.N,Net-(J2-Pin_2)*%
X100868000Y-134620000D03*
D43*
%TO.P,JP2,2,B*%
%TO.N,Net-(JP2-B)*%
X99568000Y-134620000D03*
%TD*%
D11*
%TO.P,R25,1*%
%TO.N,GND*%
X49784000Y-126010000D03*
%TO.P,R25,2*%
%TO.N,SupV*%
X49784000Y-122910000D03*
%TD*%
D36*
%TO.P,R23,1*%
%TO.N,Net-(R23-Pad1)*%
X46736000Y-127990000D03*
%TO.P,R23,2*%
%TO.N,VS*%
X46736000Y-131090000D03*
%TD*%
%TO.P,R24,1*%
%TO.N,SupV*%
X46736000Y-122910000D03*
%TO.P,R24,2*%
%TO.N,Net-(R23-Pad1)*%
X46736000Y-126010000D03*
%TD*%
D41*
%TO.P,R44,1*%
%TO.N,GND*%
X100076000Y-129006000D03*
%TO.P,R44,2*%
%TO.N,Net-(JP2-B)*%
X100076000Y-132106000D03*
%TD*%
D39*
%TO.P,D3,1,K*%
%TO.N,Net-(D3-K)*%
X78740000Y-111125000D03*
%TO.P,D3,2,A*%
%TO.N,GND*%
X82740000Y-111125000D03*
%TD*%
D11*
%TO.P,R40,1*%
%TO.N,GND*%
X100076000Y-126518000D03*
%TO.P,R40,2*%
%TO.N,In2*%
X100076000Y-123418000D03*
%TD*%
D44*
%TO.P,C12,1*%
%TO.N,+3.3V*%
X117282000Y-97400500D03*
%TO.P,C12,2*%
%TO.N,GND*%
X117282000Y-94275500D03*
%TD*%
D35*
%TO.P,C27,1*%
%TO.N,T1amp*%
X121412000Y-113880500D03*
%TO.P,C27,2*%
%TO.N,Net-(U8B--)*%
X121412000Y-117005500D03*
%TD*%
D45*
%TO.P,C6,1*%
%TO.N,+5V*%
X151345500Y-79756000D03*
%TO.P,C6,2*%
%TO.N,GND*%
X154470500Y-79756000D03*
%TD*%
D46*
%TO.P,U5,1*%
%TO.N,/WQ*%
X152335000Y-113411000D03*
%TO.P,U5,2,-*%
X152335000Y-114681000D03*
%TO.P,U5,3,+*%
%TO.N,Net-(U5A-+)*%
X152335000Y-115951000D03*
%TO.P,U5,4,V-*%
%TO.N,-5VA*%
X152335000Y-117221000D03*
%TO.P,U5,5,+*%
%TO.N,Net-(U5B-+)*%
X147385000Y-117221000D03*
%TO.P,U5,6,-*%
%TO.N,Net-(U5B--)*%
X147385000Y-115951000D03*
%TO.P,U5,7*%
%TO.N,Net-(C20-Pad1)*%
X147385000Y-114681000D03*
%TO.P,U5,8,V+*%
%TO.N,+5VA*%
X147385000Y-113411000D03*
%TD*%
D11*
%TO.P,R19,1*%
%TO.N,Net-(D13A-COM)*%
X132334000Y-124232000D03*
%TO.P,R19,2*%
%TO.N,Net-(U8A-+)*%
X132334000Y-121132000D03*
%TD*%
D37*
%TO.P,C14,1*%
%TO.N,GNDA*%
X149390500Y-97536000D03*
%TO.P,C14,2*%
%TO.N,-5VA*%
X146265500Y-97536000D03*
%TD*%
D36*
%TO.P,R38,1*%
%TO.N,Out2*%
X89916000Y-92938000D03*
%TO.P,R38,2*%
%TO.N,Net-(D5-K)*%
X89916000Y-96038000D03*
%TD*%
D11*
%TO.P,R5,1*%
%TO.N,Net-(U5B--)*%
X144272000Y-116866000D03*
%TO.P,R5,2*%
%TO.N,Net-(C20-Pad1)*%
X144272000Y-113766000D03*
%TD*%
D37*
%TO.P,C16,1*%
%TO.N,/3.3VA*%
X151461000Y-104011000D03*
%TO.P,C16,2*%
%TO.N,GNDA*%
X148336000Y-104011000D03*
%TD*%
D11*
%TO.P,R16,1*%
%TO.N,T2bias*%
X137668000Y-131090000D03*
%TO.P,R16,2*%
%TO.N,Net-(D12A-COM)*%
X137668000Y-127990000D03*
%TD*%
D47*
%TO.P,U9,1,K*%
%TO.N,Net-(U10-Vref)*%
X106999000Y-99187000D03*
%TO.P,U9,2,A*%
%TO.N,GND*%
X106999000Y-97917000D03*
%TO.P,U9,3,A*%
X106999000Y-96647000D03*
%TO.P,U9,4*%
%TO.N,N/C*%
X106999000Y-95377000D03*
%TO.P,U9,5*%
X111949000Y-95377000D03*
%TO.P,U9,6,A*%
%TO.N,GND*%
X111949000Y-96647000D03*
%TO.P,U9,7,A*%
X111949000Y-97917000D03*
%TO.P,U9,8,REF*%
%TO.N,Net-(U10-Vref)*%
X111949000Y-99187000D03*
%TD*%
D35*
%TO.P,C19,1*%
%TO.N,Net-(U5A-+)*%
X157480000Y-120357500D03*
%TO.P,C19,2*%
%TO.N,GNDA*%
X157480000Y-123482500D03*
%TD*%
D11*
%TO.P,R21,1*%
%TO.N,Net-(U8B--)*%
X123952000Y-116993000D03*
%TO.P,R21,2*%
%TO.N,T1amp*%
X123952000Y-113893000D03*
%TD*%
D36*
%TO.P,R42,1*%
%TO.N,GND*%
X89916000Y-87350000D03*
%TO.P,R42,2*%
%TO.N,Out2*%
X89916000Y-90450000D03*
%TD*%
D48*
%TO.P,U4,1,VIN*%
%TO.N,+5VA*%
X154766000Y-106109000D03*
%TO.P,U4,2,GND*%
%TO.N,GNDA*%
X154766000Y-107059000D03*
%TO.P,U4,3,EN*%
%TO.N,+5VA*%
X154766000Y-108009000D03*
%TO.P,U4,4,NC*%
%TO.N,unconnected-(U4-NC-Pad4)*%
X152066000Y-108009000D03*
%TO.P,U4,5,VOUT*%
%TO.N,/3.3VA*%
X152066000Y-106109000D03*
%TD*%
D42*
%TO.P,JP4,1,A*%
%TO.N,GND*%
X131206000Y-135128000D03*
D43*
%TO.P,JP4,2,B*%
%TO.N,T2bias*%
X129906000Y-135128000D03*
%TD*%
D11*
%TO.P,R29,1*%
%TO.N,Net-(U10-CH5)*%
X104140000Y-105436000D03*
%TO.P,R29,2*%
%TO.N,+3.3V*%
X104140000Y-102336000D03*
%TD*%
D36*
%TO.P,R31,1*%
%TO.N,Out1d*%
X79248000Y-96494000D03*
%TO.P,R31,2*%
%TO.N,Net-(Q3-B)*%
X79248000Y-99594000D03*
%TD*%
D37*
%TO.P,C25,1*%
%TO.N,+3.3V*%
X101130500Y-101346000D03*
%TO.P,C25,2*%
%TO.N,GND*%
X98005500Y-101346000D03*
%TD*%
D49*
%TO.P,R26,2*%
%TO.N,Net-(U10-Vref)*%
X109194000Y-93218000D03*
%TO.P,R26,1*%
%TO.N,+3.3V*%
X112294000Y-93218000D03*
%TD*%
%TO.P,R10,1*%
%TO.N,+3.3V*%
X133630000Y-93980000D03*
%TO.P,R10,2*%
%TO.N,SCL*%
X130530000Y-93980000D03*
%TD*%
D46*
%TO.P,U8,1*%
%TO.N,T2amp*%
X132015000Y-113538000D03*
%TO.P,U8,2,-*%
%TO.N,Net-(U8A--)*%
X132015000Y-114808000D03*
%TO.P,U8,3,+*%
%TO.N,Net-(U8A-+)*%
X132015000Y-116078000D03*
%TO.P,U8,4,V-*%
%TO.N,GND*%
X132015000Y-117348000D03*
%TO.P,U8,5,+*%
%TO.N,Net-(U8B-+)*%
X127065000Y-117348000D03*
%TO.P,U8,6,-*%
%TO.N,Net-(U8B--)*%
X127065000Y-116078000D03*
%TO.P,U8,7*%
%TO.N,T1amp*%
X127065000Y-114808000D03*
%TO.P,U8,8,V+*%
%TO.N,+3.3V*%
X127065000Y-113538000D03*
%TD*%
D50*
%TO.P,R2,1*%
%TO.N,Net-(U5B--)*%
X149326000Y-111252000D03*
%TO.P,R2,2*%
%TO.N,/WQ*%
X152426000Y-111252000D03*
%TD*%
%TO.P,R3,1*%
%TO.N,/3.3VA*%
X143738000Y-119380000D03*
%TO.P,R3,2*%
%TO.N,Net-(U5B-+)*%
X146838000Y-119380000D03*
%TD*%
D51*
%TO.P,D7,1,K*%
%TO.N,Out2*%
X86360000Y-90550000D03*
%TO.P,D7,2,A*%
%TO.N,GND*%
X86360000Y-87250000D03*
%TD*%
%TO.P,D6,1,K*%
%TO.N,Out1*%
X82296000Y-90550000D03*
%TO.P,D6,2,A*%
%TO.N,GND*%
X82296000Y-87250000D03*
%TD*%
D37*
%TO.P,C13,1*%
%TO.N,+5VA*%
X155486500Y-97536000D03*
%TO.P,C13,2*%
%TO.N,GNDA*%
X152361500Y-97536000D03*
%TD*%
D36*
%TO.P,R37,1*%
%TO.N,Out1*%
X82296000Y-92938000D03*
%TO.P,R37,2*%
%TO.N,Net-(D4-K)*%
X82296000Y-96038000D03*
%TD*%
%TO.P,R1,1*%
%TO.N,Net-(U5A-+)*%
X155000000Y-120370000D03*
%TO.P,R1,2*%
%TO.N,Net-(J3-In)*%
X155000000Y-123470000D03*
%TD*%
D11*
%TO.P,R20,1*%
%TO.N,Net-(D12A-COM)*%
X140970000Y-124232000D03*
%TO.P,R20,2*%
%TO.N,Net-(U8A--)*%
X140970000Y-121132000D03*
%TD*%
D49*
%TO.P,R9,1*%
%TO.N,+3.3V*%
X133630000Y-91440000D03*
%TO.P,R9,2*%
%TO.N,SDA*%
X130530000Y-91440000D03*
%TD*%
D36*
%TO.P,R41,1*%
%TO.N,GND*%
X79248000Y-87350000D03*
%TO.P,R41,2*%
%TO.N,Out1*%
X79248000Y-90450000D03*
%TD*%
D52*
%TO.P,U7,1,VCC1*%
%TO.N,/3.3VA*%
X133477000Y-102143000D03*
%TO.P,U7,2,SDA1*%
%TO.N,Net-(U6-SDA)*%
X132207000Y-102143000D03*
%TO.P,U7,3,SCL1*%
%TO.N,Net-(U6-SCL)*%
X130937000Y-102143000D03*
%TO.P,U7,4,GND1*%
%TO.N,GNDA*%
X129667000Y-102143000D03*
%TO.P,U7,5,GND2*%
%TO.N,GND*%
X129667000Y-96993000D03*
%TO.P,U7,6,SCL2*%
%TO.N,SCL*%
X130937000Y-96993000D03*
%TO.P,U7,7,SDA2*%
%TO.N,SDA*%
X132207000Y-96993000D03*
%TO.P,U7,8,VCC2*%
%TO.N,+3.3V*%
X133477000Y-96993000D03*
%TD*%
D53*
%TO.P,U3,1,VIN*%
%TO.N,+5V*%
X119888000Y-94488000D03*
%TO.P,U3,2,GND*%
%TO.N,GND*%
X120838000Y-94488000D03*
%TO.P,U3,3,EN*%
%TO.N,+5V*%
X121788000Y-94488000D03*
%TO.P,U3,4,NC*%
%TO.N,unconnected-(U3-NC-Pad4)*%
X121788000Y-97188000D03*
%TO.P,U3,5,VOUT*%
%TO.N,+3.3V*%
X119888000Y-97188000D03*
%TD*%
D45*
%TO.P,C21,1*%
%TO.N,Net-(D7A-COM)*%
X141439500Y-107188000D03*
%TO.P,C21,2*%
%TO.N,GNDA*%
X144564500Y-107188000D03*
%TD*%
%TO.P,C18,1*%
%TO.N,+5VA*%
X149313500Y-119380000D03*
%TO.P,C18,2*%
%TO.N,-5VA*%
X152438500Y-119380000D03*
%TD*%
D44*
%TO.P,C17,1*%
%TO.N,/3.3VA*%
X136144000Y-102146500D03*
%TO.P,C17,2*%
%TO.N,GNDA*%
X136144000Y-99021500D03*
%TD*%
D47*
%TO.P,U10,1,CH0*%
%TO.N,T1amp*%
X97601000Y-99187000D03*
%TO.P,U10,2,CH1*%
%TO.N,T2amp*%
X97601000Y-97917000D03*
%TO.P,U10,3,CH2*%
%TO.N,In2*%
X97601000Y-96647000D03*
%TO.P,U10,4,CH3*%
%TO.N,In1*%
X97601000Y-95377000D03*
%TO.P,U10,5,CH4*%
%TO.N,SupV*%
X97601000Y-94107000D03*
%TO.P,U10,6,CH5*%
%TO.N,Net-(U10-CH5)*%
X97601000Y-92837000D03*
%TO.P,U10,7,CH6*%
%TO.N,Out1*%
X97601000Y-91567000D03*
%TO.P,U10,8,CH7*%
%TO.N,Out2*%
X97601000Y-90297000D03*
%TO.P,U10,9,DGND*%
%TO.N,GND*%
X102551000Y-90297000D03*
%TO.P,U10,10,~{CS}/SHDN*%
%TO.N,ADCS*%
X102551000Y-91567000D03*
%TO.P,U10,11,Din*%
%TO.N,MOSI*%
X102551000Y-92837000D03*
%TO.P,U10,12,Dout*%
%TO.N,MISO*%
X102551000Y-94107000D03*
%TO.P,U10,13,CLK*%
%TO.N,SPCK*%
X102551000Y-95377000D03*
%TO.P,U10,14,AGND*%
%TO.N,GND*%
X102551000Y-96647000D03*
%TO.P,U10,15,Vref*%
%TO.N,Net-(U10-Vref)*%
X102551000Y-97917000D03*
%TO.P,U10,16,Vdd*%
%TO.N,+3.3V*%
X102551000Y-99187000D03*
%TD*%
D11*
%TO.P,R7,1*%
%TO.N,/3.3VA*%
X126544000Y-101626000D03*
%TO.P,R7,2*%
%TO.N,Net-(U6-SDA)*%
X126544000Y-98526000D03*
%TD*%
D44*
%TO.P,C22,1*%
%TO.N,+3.3V*%
X136144000Y-94018500D03*
%TO.P,C22,2*%
%TO.N,GND*%
X136144000Y-90893500D03*
%TD*%
D45*
%TO.P,C11,1*%
%TO.N,+5V*%
X118767500Y-90758000D03*
%TO.P,C11,2*%
%TO.N,GND*%
X121892500Y-90758000D03*
%TD*%
D54*
%TO.P,R30,1*%
%TO.N,Net-(U10-CH5)*%
X109220000Y-104886000D03*
%TO.P,R30,2*%
%TO.N,GND*%
X109220000Y-102886000D03*
%TD*%
D50*
%TO.P,R6,1*%
%TO.N,Net-(D7A-COM)*%
X141452000Y-109728000D03*
%TO.P,R6,2*%
%TO.N,Net-(C20-Pad1)*%
X144552000Y-109728000D03*
%TD*%
D44*
%TO.P,C24,1*%
%TO.N,Net-(U10-CH5)*%
X106680000Y-105448500D03*
%TO.P,C24,2*%
%TO.N,GND*%
X106680000Y-102323500D03*
%TD*%
D36*
%TO.P,R14,1*%
%TO.N,+3.3V*%
X138430000Y-121132000D03*
%TO.P,R14,2*%
%TO.N,Net-(D12A-COM)*%
X138430000Y-124232000D03*
%TD*%
D50*
%TO.P,R8,1*%
%TO.N,/3.3VA*%
X126492000Y-104648000D03*
%TO.P,R8,2*%
%TO.N,Net-(U6-SCL)*%
X129592000Y-104648000D03*
%TD*%
D48*
%TO.P,U6,1,Vdd*%
%TO.N,/3.3VA*%
X136144000Y-105222000D03*
%TO.P,U6,2,Vss*%
%TO.N,GNDA*%
X136144000Y-106172000D03*
%TO.P,U6,3,Ain*%
%TO.N,Net-(D7A-COM)*%
X136144000Y-107122000D03*
%TO.P,U6,4,SCL*%
%TO.N,Net-(U6-SCL)*%
X133444000Y-107122000D03*
%TO.P,U6,5,SDA*%
%TO.N,Net-(U6-SDA)*%
X133444000Y-105222000D03*
%TD*%
D45*
%TO.P,C26,1*%
%TO.N,+3.3V*%
X127977500Y-111379000D03*
%TO.P,C26,2*%
%TO.N,GND*%
X131102500Y-111379000D03*
%TD*%
D36*
%TO.P,R32,1*%
%TO.N,Out2d*%
X86360000Y-96494000D03*
%TO.P,R32,2*%
%TO.N,Net-(Q4-B)*%
X86360000Y-99594000D03*
%TD*%
D55*
%TO.P,Q2,1,B*%
%TO.N,Net-(Q2-B)*%
X73176000Y-102706000D03*
D56*
%TO.P,Q2,2,C*%
%TO.N,Net-(D3-K)*%
X74676000Y-102793500D03*
D55*
%TO.P,Q2,3,E*%
%TO.N,GND*%
X76176000Y-102706000D03*
%TD*%
D36*
%TO.P,R13,1*%
%TO.N,+3.3V*%
X129032000Y-127990000D03*
%TO.P,R13,2*%
%TO.N,T2in*%
X129032000Y-131090000D03*
%TD*%
D55*
%TO.P,Q4,1,B*%
%TO.N,Net-(Q4-B)*%
X87400000Y-102706000D03*
D56*
%TO.P,Q4,2,C*%
%TO.N,Net-(D5-K)*%
X88900000Y-102793500D03*
D55*
%TO.P,Q4,3,E*%
%TO.N,GND*%
X90400000Y-102706000D03*
%TD*%
D49*
%TO.P,R4,1*%
%TO.N,Net-(U5B-+)*%
X146838000Y-121920000D03*
%TO.P,R4,2*%
%TO.N,GNDA*%
X143738000Y-121920000D03*
%TD*%
D55*
%TO.P,Q3,1,B*%
%TO.N,Net-(Q3-B)*%
X80288000Y-102706000D03*
D56*
%TO.P,Q3,2,C*%
%TO.N,Net-(D4-K)*%
X81788000Y-102793500D03*
D55*
%TO.P,Q3,3,E*%
%TO.N,GND*%
X83288000Y-102706000D03*
%TD*%
D35*
%TO.P,C20,1*%
%TO.N,Net-(C20-Pad1)*%
X141732000Y-113753500D03*
%TO.P,C20,2*%
%TO.N,Net-(U5B--)*%
X141732000Y-116878500D03*
%TD*%
D55*
%TO.P,Q1,1,B*%
%TO.N,Net-(Q1-B)*%
X66064000Y-102706000D03*
D56*
%TO.P,Q1,2,C*%
%TO.N,Net-(D2-K)*%
X67564000Y-102793500D03*
D55*
%TO.P,Q1,3,E*%
%TO.N,GND*%
X69064000Y-102706000D03*
%TD*%
D45*
%TO.P,C15,1*%
%TO.N,+5VA*%
X153924000Y-104011000D03*
%TO.P,C15,2*%
%TO.N,GNDA*%
X157049000Y-104011000D03*
%TD*%
D57*
%TO.N,GND*%
X127762000Y-122682000D03*
%TO.N,GNDA*%
X138684000Y-111506000D03*
X143002000Y-104902000D03*
%TO.N,GND*%
X96774000Y-87122000D03*
X101600000Y-117348000D03*
%TO.N,+3.3V*%
X104902000Y-120650000D03*
X96012000Y-120650000D03*
%TO.N,GNDA*%
X137922000Y-106172000D03*
X133350000Y-100076000D03*
X128559000Y-102143000D03*
X156972000Y-107059000D03*
%TO.N,GND*%
X120838000Y-92456000D03*
X91948000Y-87376000D03*
X128524000Y-97028000D03*
X133096000Y-126492000D03*
X87376000Y-111252000D03*
X132588000Y-111379000D03*
X73660000Y-111252000D03*
X102616000Y-88900000D03*
X106680000Y-100838000D03*
X76200000Y-100584000D03*
X104902000Y-96774000D03*
X117348000Y-92456000D03*
X92482000Y-129006000D03*
X137922000Y-90932000D03*
X98044000Y-103378000D03*
X69088000Y-100584000D03*
X132080000Y-118872000D03*
X83288000Y-100584000D03*
X110236000Y-97282000D03*
X102500000Y-129000000D03*
X90400000Y-100584000D03*
X122428000Y-125984000D03*
X96520000Y-110744000D03*
%TO.N,+5VA*%
X147392500Y-110236000D03*
X151892000Y-109220000D03*
X149352000Y-117094000D03*
%TO.N,+5V*%
X111252000Y-87884000D03*
X104902000Y-79248000D03*
%TO.N,+3.3V*%
X135382000Y-118872000D03*
X125984000Y-111252000D03*
X116078000Y-98806000D03*
X129540000Y-115316000D03*
X112268000Y-91440000D03*
X135128000Y-96012000D03*
X119307500Y-111252000D03*
X102616000Y-100330000D03*
X124968000Y-94996000D03*
%TO.N,/3.3VA*%
X145542000Y-112014000D03*
X146304000Y-106172000D03*
X142240000Y-119380000D03*
X130302000Y-100330000D03*
X149606000Y-106172000D03*
X134620000Y-103632000D03*
%TO.N,T1amp*%
X121412000Y-108712000D03*
%TO.N,T2amp*%
X122936000Y-109728000D03*
%TO.N,EncB*%
X113792000Y-83820000D03*
X113792000Y-89408000D03*
%TO.N,EncA*%
X116332000Y-85344000D03*
X116332000Y-89408000D03*
%TO.N,EncPB*%
X126492000Y-90424000D03*
X126492000Y-87376000D03*
%TO.N,Out2d*%
X84836000Y-94488000D03*
X92202000Y-90678000D03*
%TO.N,SupV*%
X54864000Y-90932000D03*
X58928000Y-90932000D03*
X96012000Y-85090000D03*
X99568000Y-79248000D03*
%TO.N,SDA*%
X138938000Y-87376000D03*
X132080000Y-90424000D03*
X146812000Y-78740000D03*
%TO.N,SCL*%
X145034000Y-78740000D03*
X136398000Y-87376000D03*
X128524000Y-90424000D03*
%TO.N,Net-(U10-CH5)*%
X99822000Y-103378000D03*
X95504000Y-93726000D03*
%TO.N,Net-(U8B-+)*%
X127254000Y-118872000D03*
X122682000Y-118872000D03*
%TD*%
D58*
%TO.N,+3.3V*%
X104902000Y-119204500D02*
X104902000Y-120650000D01*
%TO.N,GND*%
X128336000Y-122108000D02*
X127762000Y-122682000D01*
X128336000Y-121236500D02*
X128336000Y-122108000D01*
%TO.N,+3.3V*%
X136332000Y-119822000D02*
X135382000Y-118872000D01*
X136332000Y-121236500D02*
X136332000Y-119822000D01*
%TO.N,GND*%
X134432000Y-119954000D02*
X134432000Y-121236500D01*
X133350000Y-118872000D02*
X134432000Y-119954000D01*
X132080000Y-118872000D02*
X133350000Y-118872000D01*
%TO.N,Net-(D10A-COM)*%
X128778000Y-124460000D02*
X126466000Y-124460000D01*
X126466000Y-124460000D02*
X126238000Y-124232000D01*
X129286000Y-123952000D02*
X128778000Y-124460000D01*
X129286000Y-123111500D02*
X129286000Y-123952000D01*
%TO.N,+3.3V*%
X138325500Y-121236500D02*
X138430000Y-121132000D01*
X136332000Y-121236500D02*
X138325500Y-121236500D01*
%TO.N,Net-(D13A-COM)*%
X135128000Y-125476000D02*
X135128000Y-127990000D01*
X133858000Y-124206000D02*
X135128000Y-125476000D01*
X133832000Y-124232000D02*
X133858000Y-124206000D01*
X132334000Y-124232000D02*
X133832000Y-124232000D01*
%TO.N,GND*%
X121666000Y-126746000D02*
X122428000Y-125984000D01*
X120904000Y-126746000D02*
X121666000Y-126746000D01*
X119954000Y-127696000D02*
X120904000Y-126746000D01*
X119954000Y-128094500D02*
X119954000Y-127696000D01*
%TO.N,T1in*%
X117856000Y-131090000D02*
X117856000Y-132334000D01*
X117856000Y-132334000D02*
X117602000Y-132588000D01*
X117602000Y-132588000D02*
X123698000Y-132588000D01*
X110236000Y-132588000D02*
X117602000Y-132588000D01*
%TO.N,T2in*%
X129032000Y-132080000D02*
X128778000Y-132334000D01*
X129032000Y-131090000D02*
X129032000Y-132080000D01*
X135128000Y-132080000D02*
X135128000Y-131090000D01*
X128778000Y-132334000D02*
X134874000Y-132334000D01*
X134874000Y-132334000D02*
X135128000Y-132080000D01*
X125730000Y-135382000D02*
X128778000Y-132334000D01*
X123698000Y-135382000D02*
X125730000Y-135382000D01*
X123000000Y-136080000D02*
X123698000Y-135382000D01*
X123000000Y-138600000D02*
X123000000Y-136080000D01*
%TO.N,T1in*%
X123698000Y-132588000D02*
X123952000Y-132334000D01*
X107760000Y-135064000D02*
X110236000Y-132588000D01*
X123952000Y-132334000D02*
X123952000Y-131090000D01*
X107760000Y-138600000D02*
X107760000Y-135064000D01*
%TO.N,GND*%
X133030000Y-129969500D02*
X133030000Y-126558000D01*
X133030000Y-126558000D02*
X133096000Y-126492000D01*
%TO.N,Net-(D13A-COM)*%
X132334000Y-125222000D02*
X132334000Y-124232000D01*
X131572000Y-127000000D02*
X131572000Y-125984000D01*
X131572000Y-125984000D02*
X132334000Y-125222000D01*
X132080000Y-128094500D02*
X132080000Y-127508000D01*
X132080000Y-127508000D02*
X131572000Y-127000000D01*
%TO.N,+3.3V*%
X129032000Y-129286000D02*
X129032000Y-127990000D01*
X129286000Y-129540000D02*
X129032000Y-129286000D01*
X130700500Y-129540000D02*
X131130000Y-129969500D01*
X124460000Y-129540000D02*
X130700500Y-129540000D01*
X123952000Y-129032000D02*
X124460000Y-129540000D01*
X123952000Y-127990000D02*
X123952000Y-129032000D01*
%TO.N,Net-(D11A-COM)*%
X120904000Y-125730000D02*
X121158000Y-125476000D01*
X119380000Y-125730000D02*
X120904000Y-125730000D01*
X117856000Y-127254000D02*
X119380000Y-125730000D01*
X121158000Y-125476000D02*
X121158000Y-124232000D01*
X117856000Y-127990000D02*
X117856000Y-127254000D01*
%TO.N,Net-(D10A-COM)*%
X126492000Y-124486000D02*
X126238000Y-124232000D01*
X126492000Y-127990000D02*
X126492000Y-124486000D01*
%TO.N,+3.3V*%
X123847500Y-128094500D02*
X123952000Y-127990000D01*
X121854000Y-128094500D02*
X123847500Y-128094500D01*
X123952000Y-124486000D02*
X123698000Y-124232000D01*
X123952000Y-127990000D02*
X123952000Y-124486000D01*
%TO.N,Net-(D11A-COM)*%
X120474500Y-129540000D02*
X120904000Y-129969500D01*
X117856000Y-128778000D02*
X118618000Y-129540000D01*
X117856000Y-127990000D02*
X117856000Y-128778000D01*
X118618000Y-129540000D02*
X120474500Y-129540000D01*
%TO.N,T1bias*%
X126492000Y-132334000D02*
X126492000Y-131090000D01*
X113284000Y-133604000D02*
X125222000Y-133604000D01*
X112840000Y-134048000D02*
X113284000Y-133604000D01*
X125222000Y-133604000D02*
X126492000Y-132334000D01*
X112840000Y-135382000D02*
X112840000Y-134048000D01*
%TO.N,T2bias*%
X137668000Y-132588000D02*
X137668000Y-131090000D01*
X136906000Y-133350000D02*
X137668000Y-132588000D01*
X129286000Y-133350000D02*
X136906000Y-133350000D01*
X128080000Y-134556000D02*
X129286000Y-133350000D01*
X128080000Y-135128000D02*
X128080000Y-134556000D01*
%TO.N,+3.3V*%
X130236000Y-125542000D02*
X129032000Y-126746000D01*
X130236000Y-121236500D02*
X130236000Y-125542000D01*
X129032000Y-126746000D02*
X129032000Y-127990000D01*
%TO.N,Net-(U8A--)*%
X139700000Y-118872000D02*
X140970000Y-120142000D01*
X140970000Y-120142000D02*
X140970000Y-121132000D01*
X138684000Y-118872000D02*
X139700000Y-118872000D01*
X138010500Y-118198500D02*
X138684000Y-118872000D01*
X138010500Y-116993000D02*
X138010500Y-118198500D01*
%TO.N,Net-(D12A-COM)*%
X138404000Y-124206000D02*
X138430000Y-124232000D01*
X135382000Y-123952000D02*
X135636000Y-124206000D01*
X135636000Y-124206000D02*
X138404000Y-124206000D01*
X135382000Y-123111500D02*
X135382000Y-123952000D01*
X140970000Y-124232000D02*
X138430000Y-124232000D01*
X137668000Y-126492000D02*
X138430000Y-125730000D01*
X137668000Y-127990000D02*
X137668000Y-126492000D01*
X138430000Y-125730000D02*
X138430000Y-124232000D01*
%TO.N,+3.3V*%
X130236000Y-120584000D02*
X130236000Y-121236500D01*
X129032000Y-119380000D02*
X130236000Y-120584000D01*
X129032000Y-115824000D02*
X129032000Y-119380000D01*
X129540000Y-115316000D02*
X129032000Y-115824000D01*
%TO.N,Net-(U8A-+)*%
X130048000Y-116840000D02*
X130810000Y-116078000D01*
X130048000Y-118872000D02*
X130048000Y-116840000D01*
X132308000Y-121132000D02*
X130048000Y-118872000D01*
X130810000Y-116078000D02*
X132015000Y-116078000D01*
X132334000Y-121132000D02*
X132308000Y-121132000D01*
%TO.N,Net-(U8B--)*%
X124714000Y-119126000D02*
X125730000Y-119126000D01*
X123952000Y-118364000D02*
X124714000Y-119126000D01*
X125730000Y-119126000D02*
X126238000Y-119634000D01*
X123952000Y-116993000D02*
X123952000Y-118364000D01*
X126238000Y-119634000D02*
X126238000Y-121132000D01*
%TO.N,Net-(D10A-COM)*%
X124206000Y-122682000D02*
X125730000Y-122682000D01*
X123698000Y-122174000D02*
X124206000Y-122682000D01*
X123698000Y-121132000D02*
X123698000Y-122174000D01*
X125730000Y-122682000D02*
X126238000Y-123190000D01*
X126238000Y-123190000D02*
X126238000Y-124232000D01*
%TO.N,Net-(U8B-+)*%
X121158000Y-120396000D02*
X122682000Y-118872000D01*
X121158000Y-121132000D02*
X121158000Y-120396000D01*
%TO.N,GND*%
X114808000Y-128054500D02*
X114808000Y-130308000D01*
X114808000Y-130308000D02*
X115100000Y-130600000D01*
%TO.N,T1bias*%
X112967000Y-135255000D02*
X112840000Y-135382000D01*
X114920000Y-135255000D02*
X112967000Y-135255000D01*
X112840000Y-138600000D02*
X112840000Y-135382000D01*
%TO.N,GNDA*%
X143764000Y-104902000D02*
X143002000Y-104902000D01*
X144564500Y-105702500D02*
X143764000Y-104902000D01*
X144564500Y-107188000D02*
X144564500Y-105702500D01*
%TO.N,Net-(D7A-COM)*%
X135890000Y-107376000D02*
X136144000Y-107122000D01*
X136144000Y-109728000D02*
X135890000Y-109474000D01*
X135890000Y-109474000D02*
X135890000Y-107376000D01*
X139113500Y-109728000D02*
X136144000Y-109728000D01*
%TO.N,GNDA*%
X137856000Y-110678000D02*
X138684000Y-111506000D01*
X137238500Y-110678000D02*
X137856000Y-110678000D01*
%TO.N,/3.3VA*%
X139192000Y-107188000D02*
X139192000Y-103632000D01*
X137602000Y-108778000D02*
X139192000Y-107188000D01*
X143764000Y-103632000D02*
X139192000Y-103632000D01*
X139192000Y-103632000D02*
X136144000Y-103632000D01*
X137238500Y-108778000D02*
X137602000Y-108778000D01*
%TO.N,GNDA*%
X136144000Y-106172000D02*
X137922000Y-106172000D01*
%TO.N,/3.3VA*%
X146304000Y-106172000D02*
X143764000Y-103632000D01*
%TO.N,Net-(D7A-COM)*%
X141452000Y-109728000D02*
X139113500Y-109728000D01*
%TO.N,Net-(C20-Pad1)*%
X144272000Y-110008000D02*
X144552000Y-109728000D01*
X144272000Y-113766000D02*
X144272000Y-110008000D01*
%TO.N,Net-(D7A-COM)*%
X141439500Y-109715500D02*
X141452000Y-109728000D01*
X141439500Y-107188000D02*
X141439500Y-109715500D01*
%TO.N,/3.3VA*%
X146304000Y-106172000D02*
X146304000Y-111252000D01*
X146304000Y-111252000D02*
X145542000Y-112014000D01*
X149606000Y-106172000D02*
X149669000Y-106109000D01*
X149669000Y-106109000D02*
X152066000Y-106109000D01*
%TO.N,+3.3V*%
X102362000Y-100330000D02*
X102616000Y-100330000D01*
X101346000Y-101346000D02*
X102362000Y-100330000D01*
X101130500Y-101346000D02*
X101346000Y-101346000D01*
%TO.N,Net-(U10-CH5)*%
X104114000Y-105410000D02*
X104140000Y-105436000D01*
X99822000Y-103378000D02*
X101854000Y-105410000D01*
X101854000Y-105410000D02*
X104114000Y-105410000D01*
%TO.N,GND*%
X97457500Y-86438500D02*
X96774000Y-87122000D01*
X98364000Y-86438500D02*
X97457500Y-86438500D01*
%TO.N,SupV*%
X99308500Y-93731500D02*
X98933000Y-94107000D01*
X98933000Y-94107000D02*
X97601000Y-94107000D01*
X99308500Y-85627118D02*
X99308500Y-93731500D01*
X98771382Y-85090000D02*
X99308500Y-85627118D01*
X96012000Y-85090000D02*
X98771382Y-85090000D01*
%TO.N,+3.3V*%
X100584000Y-87630000D02*
X100584000Y-98552000D01*
X101219000Y-99187000D02*
X102551000Y-99187000D01*
X100264000Y-86438500D02*
X100264000Y-87310000D01*
X100264000Y-87310000D02*
X100584000Y-87630000D01*
X100584000Y-98552000D02*
X101219000Y-99187000D01*
%TO.N,ADCS*%
X144780000Y-63500000D02*
X147320000Y-63500000D01*
X131318000Y-81280000D02*
X139192000Y-73406000D01*
X110744000Y-81280000D02*
X131318000Y-81280000D01*
X139192000Y-69088000D02*
X144780000Y-63500000D01*
X104394000Y-87630000D02*
X110744000Y-81280000D01*
X104394000Y-90932000D02*
X104394000Y-87630000D01*
X103759000Y-91567000D02*
X104394000Y-90932000D01*
X139192000Y-73406000D02*
X139192000Y-69088000D01*
X102551000Y-91567000D02*
X103759000Y-91567000D01*
%TO.N,MOSI*%
X144780000Y-66040000D02*
X147320000Y-66040000D01*
X140208000Y-70612000D02*
X144780000Y-66040000D01*
X140208000Y-73794684D02*
X140208000Y-70612000D01*
X111252000Y-82296000D02*
X131706684Y-82296000D01*
X131706684Y-82296000D02*
X140208000Y-73794684D01*
X105410000Y-88138000D02*
X111252000Y-82296000D01*
X105410000Y-91186000D02*
X105410000Y-88138000D01*
X103759000Y-92837000D02*
X105410000Y-91186000D01*
X102551000Y-92837000D02*
X103759000Y-92837000D01*
%TO.N,MISO*%
X148590000Y-69850000D02*
X149860000Y-68580000D01*
X145034000Y-69850000D02*
X148590000Y-69850000D01*
X142240000Y-72644000D02*
X145034000Y-69850000D01*
X114300000Y-85344000D02*
X115316000Y-84328000D01*
X132588000Y-84328000D02*
X142240000Y-74676000D01*
X142240000Y-74676000D02*
X142240000Y-72644000D01*
X106426000Y-91694000D02*
X106426000Y-88646000D01*
X106426000Y-88646000D02*
X109728000Y-85344000D01*
X115316000Y-84328000D02*
X132588000Y-84328000D01*
X104013000Y-94107000D02*
X106426000Y-91694000D01*
X102551000Y-94107000D02*
X104013000Y-94107000D01*
X109728000Y-85344000D02*
X114300000Y-85344000D01*
%TO.N,SPCK*%
X104267000Y-95377000D02*
X102551000Y-95377000D01*
X107442000Y-92202000D02*
X104267000Y-95377000D01*
X107442000Y-89154000D02*
X107442000Y-92202000D01*
X133604000Y-86360000D02*
X110236000Y-86360000D01*
X144272000Y-75692000D02*
X133604000Y-86360000D01*
X145542000Y-72390000D02*
X144272000Y-73660000D01*
X144272000Y-73660000D02*
X144272000Y-75692000D01*
X148590000Y-72390000D02*
X145542000Y-72390000D01*
X149860000Y-71120000D02*
X148590000Y-72390000D01*
X110236000Y-86360000D02*
X107442000Y-89154000D01*
%TO.N,+3.3V*%
X112268000Y-93192000D02*
X112294000Y-93218000D01*
X112268000Y-91440000D02*
X112268000Y-93192000D01*
%TO.N,Net-(U10-Vref)*%
X108966000Y-93446000D02*
X108966000Y-99187000D01*
X109194000Y-93218000D02*
X108966000Y-93446000D01*
%TO.N,GND*%
X101666000Y-117414000D02*
X101666000Y-119204500D01*
X101600000Y-117348000D02*
X101666000Y-117414000D01*
%TO.N,+3.3V*%
X104648000Y-119204500D02*
X103566000Y-119204500D01*
X106758500Y-119204500D02*
X104648000Y-119204500D01*
X92202000Y-122174000D02*
X93726000Y-120650000D01*
X90810000Y-123566000D02*
X92202000Y-122174000D01*
X93726000Y-120650000D02*
X96012000Y-120650000D01*
X90810000Y-126492000D02*
X90810000Y-123566000D01*
X109500000Y-121946000D02*
X106758500Y-119204500D01*
X109728000Y-121946000D02*
X109500000Y-121946000D01*
%TO.N,Net-(J2-Pin_2)*%
X102616000Y-127508000D02*
X102616000Y-126518000D01*
X104000000Y-133300000D02*
X104000000Y-128892000D01*
X104000000Y-128892000D02*
X102616000Y-127508000D01*
X102680000Y-134620000D02*
X104000000Y-133300000D01*
%TO.N,GND*%
X100076000Y-126518000D02*
X100076000Y-129006000D01*
X94996000Y-126518000D02*
X94996000Y-129006000D01*
X92482000Y-128042000D02*
X92482000Y-129006000D01*
X92456000Y-128016000D02*
X92482000Y-128042000D01*
X92710000Y-127762000D02*
X92456000Y-128016000D01*
X92710000Y-126492000D02*
X92710000Y-127762000D01*
%TO.N,In1*%
X93752000Y-123418000D02*
X94996000Y-123418000D01*
X92553000Y-124617000D02*
X93752000Y-123418000D01*
X91760000Y-124617000D02*
X92553000Y-124617000D01*
X95022000Y-123444000D02*
X94996000Y-123418000D01*
X97536000Y-123444000D02*
X95022000Y-123444000D01*
%TO.N,In2*%
X100076000Y-123418000D02*
X102616000Y-123418000D01*
X102616000Y-123418000D02*
X102616000Y-121079500D01*
X99568000Y-119380000D02*
X100076000Y-119888000D01*
X100076000Y-119888000D02*
X100076000Y-123418000D01*
%TO.N,Net-(U5B--)*%
X148717000Y-115951000D02*
X149352000Y-115316000D01*
X147385000Y-115951000D02*
X148717000Y-115951000D01*
X144272000Y-116866000D02*
X141744500Y-116866000D01*
X141744500Y-116866000D02*
X141732000Y-116878500D01*
X147385000Y-115951000D02*
X145187000Y-115951000D01*
X149352000Y-115316000D02*
X149352000Y-111278000D01*
X149352000Y-111278000D02*
X149326000Y-111252000D01*
X145187000Y-115951000D02*
X144272000Y-116866000D01*
%TO.N,GNDA*%
X129667000Y-102143000D02*
X128559000Y-102143000D01*
X149860000Y-98005500D02*
X149390500Y-97536000D01*
X143738000Y-123926000D02*
X144060000Y-124248000D01*
X133350000Y-100076000D02*
X134404500Y-99021500D01*
X149390500Y-97536000D02*
X152361500Y-97536000D01*
X149860000Y-102487000D02*
X149860000Y-100584000D01*
X149140000Y-127600000D02*
X149140000Y-127466000D01*
X144060000Y-124248000D02*
X144060000Y-127600000D01*
X148336000Y-104011000D02*
X149860000Y-102487000D01*
X154766000Y-107059000D02*
X156972000Y-107059000D01*
X143738000Y-121920000D02*
X143738000Y-123926000D01*
X157049000Y-104011000D02*
X157049000Y-106982000D01*
X155102000Y-132680000D02*
X151680000Y-132680000D01*
X149860000Y-100584000D02*
X149860000Y-98005500D01*
X157480000Y-123482500D02*
X157480000Y-130302000D01*
X128524000Y-102108000D02*
X128559000Y-102143000D01*
X157480000Y-130302000D02*
X155102000Y-132680000D01*
X157049000Y-106982000D02*
X156972000Y-107059000D01*
X134404500Y-99021500D02*
X136144000Y-99021500D01*
%TO.N,GND*%
X120838000Y-92320500D02*
X121892500Y-91266000D01*
X90398000Y-87350000D02*
X90424000Y-87376000D01*
X106680000Y-102323500D02*
X108657500Y-102323500D01*
X111252000Y-114300000D02*
X111252000Y-113322500D01*
X111949000Y-96647000D02*
X110871000Y-96647000D01*
X108657500Y-102323500D02*
X109220000Y-102886000D01*
X112600000Y-115648000D02*
X111252000Y-114300000D01*
X89916000Y-87350000D02*
X91922000Y-87350000D01*
X94996000Y-129006000D02*
X92482000Y-129006000D01*
X132080000Y-118872000D02*
X132080000Y-117413000D01*
X79248000Y-87350000D02*
X89916000Y-87350000D01*
X111949000Y-97917000D02*
X110871000Y-97917000D01*
X102616000Y-90232000D02*
X102551000Y-90297000D01*
X133160000Y-135700000D02*
X133160000Y-138600000D01*
X98005500Y-103339500D02*
X98044000Y-103378000D01*
X50507500Y-69215000D02*
X50507500Y-73007500D01*
D59*
X90400000Y-100584000D02*
X90400000Y-102706000D01*
D58*
X106680000Y-102323500D02*
X106680000Y-100838000D01*
X141525621Y-94867000D02*
X141525621Y-96821621D01*
X131102500Y-111379000D02*
X131064000Y-111379000D01*
X82740000Y-111125000D02*
X87249000Y-111125000D01*
X110871000Y-96647000D02*
X110236000Y-97282000D01*
X117348000Y-94209500D02*
X117282000Y-94275500D01*
D59*
X87249000Y-111125000D02*
X87376000Y-111252000D01*
D58*
X88932000Y-112808000D02*
X87376000Y-111252000D01*
X63500000Y-117475000D02*
X60325000Y-117475000D01*
X116220000Y-135255000D02*
X117475000Y-135255000D01*
X141525621Y-96821621D02*
X142240000Y-97536000D01*
D60*
X154470500Y-79756000D02*
X155956000Y-79756000D01*
D59*
X73533000Y-111125000D02*
X73660000Y-111252000D01*
D58*
X98005500Y-101346000D02*
X98005500Y-103339500D01*
X117920000Y-135700000D02*
X117920000Y-138600000D01*
X112600000Y-116100000D02*
X112600000Y-115648000D01*
D60*
X156972000Y-78740000D02*
X156972000Y-77216000D01*
D58*
X120838000Y-94488000D02*
X120838000Y-92790000D01*
X131102500Y-111379000D02*
X132588000Y-111379000D01*
X117475000Y-135255000D02*
X117920000Y-135700000D01*
D60*
X58680000Y-138600000D02*
X58680000Y-143680000D01*
D59*
X71310000Y-111125000D02*
X73533000Y-111125000D01*
D58*
X96520000Y-112808000D02*
X96520000Y-110744000D01*
X92456000Y-129032000D02*
X92482000Y-129006000D01*
X102551000Y-88965000D02*
X102616000Y-88900000D01*
X120838000Y-92790000D02*
X120838000Y-92320500D01*
D59*
X76176000Y-100608000D02*
X76200000Y-100584000D01*
D58*
X129667000Y-96993000D02*
X128559000Y-96993000D01*
X132080000Y-117413000D02*
X132015000Y-117348000D01*
X137922000Y-90932000D02*
X137883500Y-90893500D01*
X110871000Y-97917000D02*
X110236000Y-97282000D01*
X49784000Y-126010000D02*
X49784000Y-129208651D01*
X137883500Y-90893500D02*
X136144000Y-90893500D01*
X50507500Y-73007500D02*
X50600000Y-73100000D01*
D59*
X83288000Y-100584000D02*
X83288000Y-102706000D01*
D58*
X128559000Y-96993000D02*
X128524000Y-97028000D01*
D59*
X69064000Y-102706000D02*
X69064000Y-100608000D01*
D58*
X131206000Y-135128000D02*
X132588000Y-135128000D01*
X100076000Y-129006000D02*
X102494000Y-129006000D01*
X102551000Y-90297000D02*
X102551000Y-88965000D01*
D60*
X117920000Y-143680000D02*
X117920000Y-138600000D01*
D58*
X102551000Y-96647000D02*
X106999000Y-96647000D01*
X52819500Y-126010000D02*
X52832000Y-126022500D01*
X102494000Y-129006000D02*
X102500000Y-129000000D01*
X91922000Y-87350000D02*
X91948000Y-87376000D01*
X89916000Y-87350000D02*
X90398000Y-87350000D01*
D60*
X155956000Y-79756000D02*
X156972000Y-78740000D01*
D58*
X111252000Y-113322500D02*
X113792000Y-113322500D01*
X90932000Y-112808000D02*
X88932000Y-112808000D01*
X142240000Y-97536000D02*
X142240000Y-100584000D01*
X117348000Y-92456000D02*
X117348000Y-94209500D01*
X49784000Y-126010000D02*
X52819500Y-126010000D01*
D60*
X133160000Y-143680000D02*
X133160000Y-138600000D01*
D58*
X106999000Y-96647000D02*
X106999000Y-97917000D01*
D59*
X69064000Y-100608000D02*
X69088000Y-100584000D01*
X76176000Y-102706000D02*
X76176000Y-100608000D01*
D58*
X132588000Y-135128000D02*
X133160000Y-135700000D01*
%TO.N,+5VA*%
X155637113Y-99378887D02*
X155637113Y-94867000D01*
X149313500Y-117132500D02*
X149313500Y-119380000D01*
X152400000Y-100584000D02*
X154432000Y-100584000D01*
X155000000Y-109220000D02*
X156972000Y-109220000D01*
X157988000Y-101600000D02*
X155448000Y-101600000D01*
X156972000Y-109220000D02*
X158806000Y-107386000D01*
X155448000Y-101600000D02*
X154432000Y-100584000D01*
X153924000Y-102108000D02*
X153924000Y-104011000D01*
X151892000Y-109220000D02*
X155000000Y-109220000D01*
X147385000Y-112711000D02*
X147828000Y-112268000D01*
X147385000Y-113411000D02*
X147385000Y-112711000D01*
X149352000Y-117094000D02*
X149313500Y-117132500D01*
X147828000Y-110671500D02*
X147392500Y-110236000D01*
X154766000Y-106109000D02*
X154766000Y-104853000D01*
X152400000Y-100584000D02*
X153924000Y-102108000D01*
D61*
X154766000Y-108009000D02*
X154766000Y-108986000D01*
D58*
X147828000Y-112268000D02*
X147828000Y-110671500D01*
X154766000Y-104853000D02*
X153924000Y-104011000D01*
X154432000Y-100584000D02*
X155637113Y-99378887D01*
X158806000Y-107386000D02*
X158806000Y-102418000D01*
X158806000Y-102418000D02*
X157988000Y-101600000D01*
D61*
X154766000Y-108986000D02*
X155000000Y-109220000D01*
D60*
%TO.N,+12V*%
X56864000Y-131740651D02*
X56896000Y-131708651D01*
X81280000Y-120015000D02*
X86360000Y-114935000D01*
X56896000Y-131708651D02*
X56896000Y-129032000D01*
X56896000Y-129032000D02*
X60198000Y-125730000D01*
X56896000Y-131708651D02*
X59944000Y-131708651D01*
X61341000Y-120015000D02*
X63500000Y-120015000D01*
X74676000Y-120015000D02*
X81280000Y-120015000D01*
X49784000Y-131708651D02*
X56896000Y-131708651D01*
X60198000Y-121158000D02*
X61341000Y-120015000D01*
X63500000Y-120015000D02*
X74676000Y-120015000D01*
X60198000Y-125730000D02*
X60198000Y-121158000D01*
X56864000Y-134112000D02*
X56864000Y-131740651D01*
X74930000Y-119761000D02*
X74676000Y-120015000D01*
X74930000Y-114935000D02*
X74930000Y-119761000D01*
D58*
%TO.N,-5VA*%
X151257000Y-117221000D02*
X150368000Y-116332000D01*
X146002380Y-99266380D02*
X146002380Y-94867000D01*
X152335000Y-119276500D02*
X152438500Y-119380000D01*
X150876000Y-109220000D02*
X146304000Y-104648000D01*
X150368000Y-116332000D02*
X150368000Y-112776000D01*
X150876000Y-112268000D02*
X150876000Y-109220000D01*
X152335000Y-117221000D02*
X152335000Y-119276500D01*
X146304000Y-101600000D02*
X147320000Y-100584000D01*
X146304000Y-104648000D02*
X146304000Y-101600000D01*
X147320000Y-100584000D02*
X146002380Y-99266380D01*
X152335000Y-117221000D02*
X151257000Y-117221000D01*
X150368000Y-112776000D02*
X150876000Y-112268000D01*
%TO.N,/WQ*%
X152426000Y-111252000D02*
X157480000Y-111252000D01*
X152335000Y-114681000D02*
X152335000Y-113411000D01*
X152335000Y-113411000D02*
X152335000Y-111343000D01*
X152335000Y-111343000D02*
X152426000Y-111252000D01*
D60*
%TO.N,+5V*%
X63500000Y-112776000D02*
X61468000Y-110744000D01*
X56896000Y-107696000D02*
X56896000Y-84836000D01*
D61*
X123500000Y-90276896D02*
X124876896Y-88900000D01*
D58*
X86160000Y-77724000D02*
X86160000Y-73100000D01*
D60*
X56896000Y-84836000D02*
X56896000Y-81026000D01*
X149860000Y-76200000D02*
X153456000Y-76200000D01*
D61*
X123500000Y-93500000D02*
X123500000Y-90276896D01*
D60*
X53140000Y-77270000D02*
X53140000Y-73100000D01*
X103378000Y-77724000D02*
X86160000Y-77724000D01*
D58*
X119888000Y-94488000D02*
X119888000Y-93364000D01*
D60*
X149860000Y-76200000D02*
X149860000Y-79756000D01*
X61468000Y-110744000D02*
X59944000Y-110744000D01*
X59944000Y-77724000D02*
X56896000Y-80772000D01*
X63500000Y-114935000D02*
X63500000Y-112776000D01*
D58*
X139025621Y-97369621D02*
X139025621Y-94867000D01*
X53632500Y-66422500D02*
X53632500Y-69215000D01*
X53632500Y-70396500D02*
X53140000Y-70889000D01*
D60*
X86160000Y-77724000D02*
X59944000Y-77724000D01*
X157480000Y-88900000D02*
X139192000Y-88900000D01*
D58*
X119888000Y-93364000D02*
X118767500Y-92243500D01*
X55285000Y-64770000D02*
X53632500Y-66422500D01*
D60*
X59944000Y-110744000D02*
X56896000Y-107696000D01*
X123860896Y-87884000D02*
X111252000Y-87884000D01*
D58*
X118872000Y-90653500D02*
X118767500Y-90758000D01*
D61*
X121788000Y-94488000D02*
X122512000Y-94488000D01*
D58*
X63500000Y-114935000D02*
X60910000Y-114935000D01*
X139700000Y-100584000D02*
X139700000Y-98044000D01*
X139025621Y-89066379D02*
X139025621Y-94867000D01*
D60*
X139192000Y-88900000D02*
X124876896Y-88900000D01*
X124876896Y-88900000D02*
X123860896Y-87884000D01*
D61*
X122512000Y-94488000D02*
X123500000Y-93500000D01*
D58*
X139192000Y-88900000D02*
X139025621Y-89066379D01*
X53632500Y-69215000D02*
X53632500Y-70396500D01*
X53140000Y-70889000D02*
X53140000Y-73100000D01*
X139700000Y-98044000D02*
X139025621Y-97369621D01*
D60*
X153456000Y-76200000D02*
X154472000Y-77216000D01*
X149860000Y-79756000D02*
X149860000Y-88900000D01*
D58*
X118767500Y-92243500D02*
X118767500Y-90758000D01*
D60*
X151345500Y-79756000D02*
X149860000Y-79756000D01*
D58*
X60910000Y-114935000D02*
X60325000Y-114350000D01*
X118872000Y-87884000D02*
X118872000Y-90653500D01*
D60*
X104902000Y-79248000D02*
X103378000Y-77724000D01*
X56896000Y-80772000D02*
X56896000Y-84836000D01*
X56896000Y-81026000D02*
X53140000Y-77270000D01*
D58*
%TO.N,+3.3V*%
X133630000Y-91440000D02*
X133630000Y-93980000D01*
X136144000Y-94018500D02*
X133668500Y-94018500D01*
X119675500Y-97400500D02*
X119888000Y-97188000D01*
X109728000Y-121946000D02*
X112268000Y-121946000D01*
X116078000Y-98806000D02*
X116078000Y-98604500D01*
X120396000Y-99060000D02*
X119888000Y-98552000D01*
X116078000Y-100330000D02*
X116078000Y-98806000D01*
X113766000Y-121946000D02*
X118364000Y-117348000D01*
X133477000Y-96993000D02*
X133477000Y-94133000D01*
X109728000Y-124942000D02*
X109728000Y-121946000D01*
X102551000Y-99187000D02*
X102551000Y-100265000D01*
X118364000Y-108712000D02*
X118364000Y-111252000D01*
X127065000Y-112291500D02*
X127977500Y-111379000D01*
X129540000Y-113284000D02*
X129540000Y-115316000D01*
X103632000Y-100330000D02*
X104140000Y-100838000D01*
X133477000Y-94133000D02*
X133630000Y-93980000D01*
X115824000Y-106172000D02*
X118364000Y-108712000D01*
X126111000Y-111379000D02*
X125984000Y-111252000D01*
X119888000Y-98552000D02*
X119888000Y-97188000D01*
X102551000Y-100265000D02*
X102616000Y-100330000D01*
X102616000Y-100330000D02*
X103632000Y-100330000D01*
X127977500Y-111379000D02*
X126111000Y-111379000D01*
X127977500Y-111379000D02*
X127977500Y-111721500D01*
X123444000Y-96520000D02*
X123444000Y-98044000D01*
X112268000Y-121946000D02*
X113766000Y-121946000D01*
X115824000Y-100584000D02*
X115824000Y-106172000D01*
X133477000Y-96993000D02*
X134147000Y-96993000D01*
X134147000Y-96993000D02*
X135128000Y-96012000D01*
X133668500Y-94018500D02*
X133630000Y-93980000D01*
X116078000Y-98604500D02*
X117282000Y-97400500D01*
X119307500Y-111252000D02*
X118364000Y-111252000D01*
X127977500Y-111721500D02*
X129540000Y-113284000D01*
X124968000Y-94996000D02*
X123444000Y-96520000D01*
X122428000Y-99060000D02*
X120396000Y-99060000D01*
X127065000Y-113538000D02*
X127065000Y-112291500D01*
X115824000Y-100584000D02*
X116078000Y-100330000D01*
X104140000Y-100838000D02*
X104140000Y-102336000D01*
X123444000Y-98044000D02*
X122428000Y-99060000D01*
X117282000Y-97400500D02*
X119675500Y-97400500D01*
X118364000Y-117348000D02*
X118364000Y-111252000D01*
%TO.N,/3.3VA*%
X142240000Y-119380000D02*
X143738000Y-119380000D01*
X134620000Y-103632000D02*
X136144000Y-103632000D01*
X152066000Y-104616000D02*
X151461000Y-104011000D01*
X136144000Y-104140000D02*
X136144000Y-103632000D01*
X152066000Y-106109000D02*
X152066000Y-104616000D01*
X136140500Y-102143000D02*
X136144000Y-102146500D01*
X127000000Y-100330000D02*
X126544000Y-100786000D01*
X126492000Y-101678000D02*
X126544000Y-101626000D01*
X126544000Y-100786000D02*
X126544000Y-101626000D01*
X130302000Y-100330000D02*
X127000000Y-100330000D01*
X136144000Y-105222000D02*
X136144000Y-104140000D01*
X126492000Y-104648000D02*
X126492000Y-101678000D01*
X136144000Y-103632000D02*
X136144000Y-102146500D01*
X133477000Y-102143000D02*
X136140500Y-102143000D01*
D59*
%TO.N,Net-(D2-K)*%
X67564000Y-110871000D02*
X67310000Y-111125000D01*
X67564000Y-102793500D02*
X67564000Y-110871000D01*
D60*
X67330000Y-114935000D02*
X67330000Y-111145000D01*
X67330000Y-111145000D02*
X67310000Y-111125000D01*
%TO.N,Net-(D3-K)*%
X78760000Y-114935000D02*
X78760000Y-111145000D01*
D59*
X77724000Y-105664000D02*
X78740000Y-106680000D01*
X78740000Y-106680000D02*
X78740000Y-111125000D01*
X74676000Y-105156000D02*
X75184000Y-105664000D01*
D60*
X78760000Y-111145000D02*
X78740000Y-111125000D01*
D59*
X74676000Y-102793500D02*
X74676000Y-105156000D01*
X75184000Y-105664000D02*
X77724000Y-105664000D01*
%TO.N,Net-(D4-K)*%
X85852000Y-125476000D02*
X85852000Y-134620000D01*
X81788000Y-105664000D02*
X82296000Y-106172000D01*
X84836000Y-106680000D02*
X84328000Y-106172000D01*
X92964000Y-110744000D02*
X92964000Y-116840000D01*
X81788000Y-102793500D02*
X81788000Y-105664000D01*
X84080000Y-136392000D02*
X84080000Y-138600000D01*
X82296000Y-106172000D02*
X84328000Y-106172000D01*
X85852000Y-134620000D02*
X84080000Y-136392000D01*
D58*
X82296000Y-96038000D02*
X82296000Y-99060000D01*
D59*
X92964000Y-116840000D02*
X92964000Y-118364000D01*
X84836000Y-108712000D02*
X84836000Y-106680000D01*
D58*
X82296000Y-99060000D02*
X81788000Y-99568000D01*
D59*
X92964000Y-118364000D02*
X85852000Y-125476000D01*
X85852000Y-109728000D02*
X84836000Y-108712000D01*
X91948000Y-109728000D02*
X92964000Y-110744000D01*
D60*
X84080000Y-143680000D02*
X84080000Y-138600000D01*
D59*
X91948000Y-109728000D02*
X85852000Y-109728000D01*
D58*
X92932000Y-116808000D02*
X92964000Y-116840000D01*
X90932000Y-116808000D02*
X92932000Y-116808000D01*
X81788000Y-99568000D02*
X81788000Y-102793500D01*
%TO.N,T1amp*%
X104648000Y-108712000D02*
X101600000Y-108712000D01*
X124867000Y-114808000D02*
X123952000Y-113893000D01*
X121412000Y-113880500D02*
X121412000Y-108712000D01*
X101600000Y-108712000D02*
X96012000Y-103124000D01*
X127065000Y-114808000D02*
X124867000Y-114808000D01*
X96012000Y-99822000D02*
X96647000Y-99187000D01*
X96647000Y-99187000D02*
X97601000Y-99187000D01*
X121424500Y-113893000D02*
X121412000Y-113880500D01*
X123952000Y-113893000D02*
X121424500Y-113893000D01*
X96012000Y-103124000D02*
X96012000Y-99822000D01*
D59*
%TO.N,Net-(D5-K)*%
X93980000Y-118872000D02*
X87376000Y-125476000D01*
X89408000Y-106172000D02*
X90932000Y-106172000D01*
X87376000Y-134112000D02*
X89160000Y-135896000D01*
D60*
X89160000Y-143680000D02*
X89160000Y-138600000D01*
D59*
X87376000Y-125476000D02*
X87376000Y-134112000D01*
D58*
X94012000Y-116808000D02*
X93980000Y-116840000D01*
D59*
X89160000Y-135896000D02*
X89160000Y-138600000D01*
D58*
X96520000Y-116808000D02*
X94012000Y-116808000D01*
D59*
X88900000Y-105664000D02*
X89408000Y-106172000D01*
D58*
X89916000Y-98044000D02*
X89916000Y-96038000D01*
D59*
X93980000Y-109220000D02*
X93980000Y-116840000D01*
X88900000Y-102793500D02*
X88900000Y-105664000D01*
X93980000Y-116840000D02*
X93980000Y-118872000D01*
X90932000Y-106172000D02*
X93980000Y-109220000D01*
D58*
X88900000Y-99060000D02*
X88900000Y-102793500D01*
X88900000Y-99060000D02*
X89916000Y-98044000D01*
%TO.N,T2amp*%
X104648000Y-112268000D02*
X102616000Y-112268000D01*
X134112000Y-111252000D02*
X134112000Y-113538000D01*
X94996000Y-98806000D02*
X95885000Y-97917000D01*
X94996000Y-103632000D02*
X94996000Y-98806000D01*
X95885000Y-97917000D02*
X97601000Y-97917000D01*
X132588000Y-109728000D02*
X134112000Y-111252000D01*
X101600000Y-110236000D02*
X94996000Y-103632000D01*
X132015000Y-113538000D02*
X134112000Y-113538000D01*
X102616000Y-112268000D02*
X101600000Y-111252000D01*
X134112000Y-113538000D02*
X135128000Y-113538000D01*
X101600000Y-111252000D02*
X101600000Y-110236000D01*
X122936000Y-109728000D02*
X132588000Y-109728000D01*
X137998000Y-113880500D02*
X138010500Y-113893000D01*
X135128000Y-113538000D02*
X135470500Y-113880500D01*
X135470500Y-113880500D02*
X137998000Y-113880500D01*
%TO.N,Rly1*%
X128270000Y-74930000D02*
X125730000Y-74930000D01*
X108712000Y-77216000D02*
X105156000Y-80772000D01*
X123444000Y-77216000D02*
X108712000Y-77216000D01*
X65024000Y-86360000D02*
X65024000Y-96494000D01*
X125730000Y-74930000D02*
X123444000Y-77216000D01*
X105156000Y-80772000D02*
X70612000Y-80772000D01*
X70612000Y-80772000D02*
X65024000Y-86360000D01*
X129540000Y-76200000D02*
X128270000Y-74930000D01*
%TO.N,Rly2*%
X131572000Y-74168000D02*
X131064000Y-73660000D01*
X131064000Y-73660000D02*
X129540000Y-73660000D01*
X77724000Y-81788000D02*
X105664000Y-81788000D01*
X131572000Y-76708000D02*
X131572000Y-74168000D01*
X130048000Y-78232000D02*
X131572000Y-76708000D01*
X109220000Y-78232000D02*
X130048000Y-78232000D01*
X72136000Y-87376000D02*
X77724000Y-81788000D01*
X72136000Y-96494000D02*
X72136000Y-87376000D01*
X105664000Y-81788000D02*
X109220000Y-78232000D01*
D60*
%TO.N,T1in*%
X107760000Y-143680000D02*
X107760000Y-138600000D01*
%TO.N,T2in*%
X123000000Y-143680000D02*
X123000000Y-138600000D01*
D58*
%TO.N,Net-(DS1-VO)*%
X55680000Y-69796000D02*
X57404000Y-68072000D01*
X57404000Y-68072000D02*
X57404000Y-65024000D01*
X55680000Y-73100000D02*
X55680000Y-69796000D01*
X59436000Y-62992000D02*
X59436000Y-61421000D01*
X59436000Y-61421000D02*
X57785000Y-59770000D01*
X57404000Y-65024000D02*
X59436000Y-62992000D01*
%TO.N,DispD4*%
X124190000Y-69834000D02*
X120396000Y-66040000D01*
X129540000Y-68580000D02*
X128286000Y-69834000D01*
X120396000Y-66040000D02*
X80772000Y-66040000D01*
X80772000Y-66040000D02*
X76000000Y-70812000D01*
X76000000Y-70812000D02*
X76000000Y-73100000D01*
X128286000Y-69834000D02*
X124190000Y-69834000D01*
%TO.N,In1*%
X98552000Y-119380000D02*
X98552000Y-110236000D01*
X92964000Y-97790000D02*
X95377000Y-95377000D01*
X97536000Y-120396000D02*
X98552000Y-119380000D01*
X98552000Y-110236000D02*
X92964000Y-104648000D01*
X97536000Y-123444000D02*
X97536000Y-120396000D01*
X95377000Y-95377000D02*
X97601000Y-95377000D01*
X92964000Y-104648000D02*
X92964000Y-97790000D01*
%TO.N,In2*%
X93980000Y-104140000D02*
X93980000Y-98298000D01*
X93980000Y-98298000D02*
X95631000Y-96647000D01*
X95631000Y-96647000D02*
X97601000Y-96647000D01*
X99568000Y-109728000D02*
X93980000Y-104140000D01*
X99568000Y-119380000D02*
X99568000Y-109728000D01*
%TO.N,DispD5*%
X78540000Y-70812000D02*
X78540000Y-73100000D01*
X119888000Y-67056000D02*
X82296000Y-67056000D01*
X123952000Y-71120000D02*
X119888000Y-67056000D01*
X127000000Y-71120000D02*
X123952000Y-71120000D01*
X82296000Y-67056000D02*
X78540000Y-70812000D01*
%TO.N,Out1*%
X88392000Y-94488000D02*
X91948000Y-94488000D01*
X82296000Y-90550000D02*
X79348000Y-90550000D01*
X91948000Y-94488000D02*
X94869000Y-91567000D01*
X82296000Y-92938000D02*
X82296000Y-90550000D01*
X82296000Y-92938000D02*
X82322000Y-92964000D01*
X86868000Y-92964000D02*
X88392000Y-94488000D01*
X82322000Y-92964000D02*
X86868000Y-92964000D01*
X94869000Y-91567000D02*
X97601000Y-91567000D01*
X79348000Y-90550000D02*
X79248000Y-90450000D01*
%TO.N,Out2*%
X94615000Y-90297000D02*
X97601000Y-90297000D01*
X91974000Y-92938000D02*
X94615000Y-90297000D01*
X89916000Y-92938000D02*
X91974000Y-92938000D01*
X89816000Y-90550000D02*
X89916000Y-90450000D01*
X86360000Y-90550000D02*
X89816000Y-90550000D01*
X89916000Y-92938000D02*
X89916000Y-90450000D01*
%TO.N,EncB*%
X111252000Y-110197500D02*
X108724500Y-110197500D01*
X113792000Y-83820000D02*
X114300000Y-83312000D01*
X132080000Y-83312000D02*
X141224000Y-74168000D01*
X141224000Y-74168000D02*
X141224000Y-72136000D01*
X114300000Y-83312000D02*
X132080000Y-83312000D01*
X144780000Y-68580000D02*
X147320000Y-68580000D01*
X141224000Y-72136000D02*
X144780000Y-68580000D01*
X113792000Y-105664000D02*
X113792000Y-89408000D01*
X108724500Y-110197500D02*
X108712000Y-110210000D01*
X111252000Y-110197500D02*
X111252000Y-108204000D01*
X111252000Y-108204000D02*
X113792000Y-105664000D01*
%TO.N,EncA*%
X145288000Y-71120000D02*
X143256000Y-73152000D01*
X133096000Y-85344000D02*
X116332000Y-85344000D01*
X114808000Y-106172000D02*
X113792000Y-107188000D01*
X114808000Y-90932000D02*
X114808000Y-106172000D01*
X116332000Y-110210000D02*
X113804500Y-110210000D01*
X143256000Y-75184000D02*
X133096000Y-85344000D01*
X113792000Y-107188000D02*
X113792000Y-110197500D01*
X143256000Y-73152000D02*
X143256000Y-75184000D01*
X116332000Y-89408000D02*
X114808000Y-90932000D01*
X113804500Y-110210000D02*
X113792000Y-110197500D01*
X147320000Y-71120000D02*
X145288000Y-71120000D01*
%TO.N,EncPB*%
X116840000Y-105664000D02*
X120396000Y-109220000D01*
X114922500Y-124815000D02*
X114935000Y-124802500D01*
X119380000Y-118364000D02*
X114808000Y-122936000D01*
X114795500Y-124942000D02*
X114808000Y-124929500D01*
X116840000Y-102108000D02*
X116840000Y-105664000D01*
X134112000Y-87376000D02*
X145288000Y-76200000D01*
X124460000Y-98552000D02*
X122936000Y-100076000D01*
X122936000Y-100076000D02*
X118872000Y-100076000D01*
X124460000Y-97028000D02*
X124460000Y-98552000D01*
X125984000Y-96520000D02*
X124968000Y-96520000D01*
X114808000Y-122936000D02*
X114808000Y-124929500D01*
X124968000Y-96520000D02*
X124460000Y-97028000D01*
X145288000Y-76200000D02*
X147320000Y-76200000D01*
X120396000Y-111760000D02*
X119380000Y-112776000D01*
X118872000Y-100076000D02*
X116840000Y-102108000D01*
X126492000Y-87376000D02*
X134112000Y-87376000D01*
X112268000Y-124942000D02*
X114795500Y-124942000D01*
X126492000Y-96012000D02*
X125984000Y-96520000D01*
X126492000Y-90424000D02*
X126492000Y-96012000D01*
X120396000Y-109220000D02*
X120396000Y-111760000D01*
X119380000Y-112776000D02*
X119380000Y-118364000D01*
%TO.N,DispD6*%
X123714000Y-72406000D02*
X119380000Y-68072000D01*
X81080000Y-70812000D02*
X81080000Y-73100000D01*
X83820000Y-68072000D02*
X81080000Y-70812000D01*
X129540000Y-71120000D02*
X128254000Y-72406000D01*
X128254000Y-72406000D02*
X123714000Y-72406000D01*
X119380000Y-68072000D02*
X83820000Y-68072000D01*
%TO.N,DispD3*%
X73460000Y-70812000D02*
X73460000Y-73100000D01*
X124460000Y-68580000D02*
X120904000Y-65024000D01*
X120904000Y-65024000D02*
X79248000Y-65024000D01*
X127000000Y-68580000D02*
X124460000Y-68580000D01*
X79248000Y-65024000D02*
X73460000Y-70812000D01*
%TO.N,DispD2*%
X121412000Y-64008000D02*
X77724000Y-64008000D01*
X128286000Y-67294000D02*
X124698000Y-67294000D01*
X129540000Y-66040000D02*
X128286000Y-67294000D01*
X77724000Y-64008000D02*
X70920000Y-70812000D01*
X124698000Y-67294000D02*
X121412000Y-64008000D01*
X70920000Y-70812000D02*
X70920000Y-73100000D01*
%TO.N,DispD1*%
X68380000Y-70812000D02*
X68380000Y-73100000D01*
X121920000Y-62992000D02*
X76200000Y-62992000D01*
X127000000Y-66040000D02*
X124968000Y-66040000D01*
X76200000Y-62992000D02*
X68380000Y-70812000D01*
X124968000Y-66040000D02*
X121920000Y-62992000D01*
%TO.N,DispD0*%
X122428000Y-61976000D02*
X74676000Y-61976000D01*
X65840000Y-70812000D02*
X65840000Y-73100000D01*
X128286000Y-64754000D02*
X125206000Y-64754000D01*
X125206000Y-64754000D02*
X122428000Y-61976000D01*
X74676000Y-61976000D02*
X65840000Y-70812000D01*
X129540000Y-63500000D02*
X128286000Y-64754000D01*
%TO.N,DispE*%
X122936000Y-60960000D02*
X73152000Y-60960000D01*
X127000000Y-63500000D02*
X125476000Y-63500000D01*
X63300000Y-70812000D02*
X63300000Y-73100000D01*
X73152000Y-60960000D02*
X63300000Y-70812000D01*
X125476000Y-63500000D02*
X122936000Y-60960000D01*
%TO.N,DispRS*%
X123698000Y-58928000D02*
X70104000Y-58928000D01*
X58220000Y-70812000D02*
X58220000Y-73100000D01*
X127000000Y-60960000D02*
X125730000Y-60960000D01*
X125730000Y-60960000D02*
X123698000Y-58928000D01*
X70104000Y-58928000D02*
X58220000Y-70812000D01*
%TO.N,DispD7*%
X125476000Y-73660000D02*
X122936000Y-76200000D01*
X116840000Y-76200000D02*
X109728000Y-69088000D01*
X85344000Y-69088000D02*
X83620000Y-70812000D01*
X127000000Y-73660000D02*
X125476000Y-73660000D01*
X122936000Y-76200000D02*
X116840000Y-76200000D01*
X83620000Y-70812000D02*
X83620000Y-73100000D01*
X109728000Y-69088000D02*
X85344000Y-69088000D01*
D60*
%TO.N,Net-(J1-Pin_3)*%
X63760000Y-128705000D02*
X67330000Y-125135000D01*
X63760000Y-138600000D02*
X63760000Y-143680000D01*
X63760000Y-138600000D02*
X63760000Y-128705000D01*
%TO.N,Net-(J1-Pin_4)*%
X68840000Y-138600000D02*
X68840000Y-143680000D01*
X68840000Y-134345000D02*
X67330000Y-132835000D01*
X68840000Y-138600000D02*
X68840000Y-134345000D01*
D58*
%TO.N,Out1d*%
X75184000Y-90424000D02*
X75184000Y-85852000D01*
X75184000Y-85852000D02*
X78232000Y-82804000D01*
X78232000Y-82804000D02*
X106172000Y-82804000D01*
X137160000Y-72644000D02*
X137160000Y-66040000D01*
X130556000Y-79248000D02*
X137160000Y-72644000D01*
X144780000Y-58420000D02*
X147320000Y-58420000D01*
X109728000Y-79248000D02*
X130556000Y-79248000D01*
X79248000Y-94488000D02*
X75184000Y-90424000D01*
X137160000Y-66040000D02*
X144780000Y-58420000D01*
X106172000Y-82804000D02*
X109728000Y-79248000D01*
X79248000Y-96494000D02*
X79248000Y-94488000D01*
%TO.N,Out2d*%
X92202000Y-90678000D02*
X92202000Y-89092389D01*
X93472000Y-85344000D02*
X94996000Y-83820000D01*
X138176000Y-67564000D02*
X144780000Y-60960000D01*
X84836000Y-94488000D02*
X85852000Y-94488000D01*
X86360000Y-94996000D02*
X86360000Y-96494000D01*
X110236000Y-80264000D02*
X130937000Y-80264000D01*
X94996000Y-83820000D02*
X106680000Y-83820000D01*
X85852000Y-94488000D02*
X86360000Y-94996000D01*
X106680000Y-83820000D02*
X110236000Y-80264000D01*
X138176000Y-73025000D02*
X138176000Y-67564000D01*
X130937000Y-80264000D02*
X138176000Y-73025000D01*
X144780000Y-60960000D02*
X147320000Y-60960000D01*
X93472000Y-87822389D02*
X93472000Y-85344000D01*
X92202000Y-89092389D02*
X93472000Y-87822389D01*
D60*
%TO.N,Net-(J1-Pin_5)*%
X73920000Y-129975000D02*
X78760000Y-125135000D01*
X73920000Y-138600000D02*
X73920000Y-143680000D01*
X73920000Y-138600000D02*
X73920000Y-129975000D01*
%TO.N,Net-(J1-Pin_6)*%
X79000000Y-138600000D02*
X79000000Y-143680000D01*
X79000000Y-138600000D02*
X79000000Y-133075000D01*
X79000000Y-133075000D02*
X78760000Y-132835000D01*
D58*
%TO.N,Net-(J2-Pin_1)*%
X97536000Y-134620000D02*
X97536000Y-138536000D01*
X95646000Y-134620000D02*
X97536000Y-134620000D01*
D59*
X97536000Y-138536000D02*
X97600000Y-138600000D01*
D58*
X97536000Y-126544000D02*
X97536000Y-134620000D01*
D60*
X97600000Y-143680000D02*
X97600000Y-138600000D01*
D58*
%TO.N,Net-(J2-Pin_2)*%
X102680000Y-134620000D02*
X102680000Y-138600000D01*
X100868000Y-134620000D02*
X102680000Y-134620000D01*
D60*
X102680000Y-143680000D02*
X102680000Y-138600000D01*
D58*
%TO.N,Net-(J3-In)*%
X155000000Y-123470000D02*
X148818000Y-123470000D01*
X148818000Y-123470000D02*
X146600000Y-125688000D01*
X146600000Y-127600000D02*
X146600000Y-125688000D01*
%TO.N,Net-(JP1-B)*%
X94346000Y-132756000D02*
X94996000Y-132106000D01*
X94346000Y-134620000D02*
X94346000Y-132756000D01*
%TO.N,Net-(JP2-B)*%
X99568000Y-132614000D02*
X100076000Y-132106000D01*
X99568000Y-134620000D02*
X99568000Y-132614000D01*
%TO.N,Net-(Q1-B)*%
X66064000Y-100634000D02*
X65024000Y-99594000D01*
X66064000Y-102706000D02*
X66064000Y-100634000D01*
%TO.N,Net-(Q2-B)*%
X73176000Y-102706000D02*
X73176000Y-100634000D01*
X73176000Y-100634000D02*
X72136000Y-99594000D01*
%TO.N,VS*%
X46736000Y-133096000D02*
X47752000Y-134112000D01*
D60*
X53600000Y-138600000D02*
X53600000Y-134848000D01*
X53600000Y-143680000D02*
X53600000Y-138600000D01*
D58*
X46736000Y-131090000D02*
X46736000Y-133096000D01*
D60*
X53600000Y-134848000D02*
X52864000Y-134112000D01*
D58*
X47752000Y-134112000D02*
X52864000Y-134112000D01*
%TO.N,Net-(Q3-B)*%
X80288000Y-100634000D02*
X79248000Y-99594000D01*
X80288000Y-102706000D02*
X80288000Y-100634000D01*
%TO.N,Net-(Q4-B)*%
X87400000Y-100634000D02*
X86360000Y-99594000D01*
X87400000Y-102706000D02*
X87400000Y-100634000D01*
%TO.N,Net-(U6-SDA)*%
X130810000Y-98806000D02*
X126824000Y-98806000D01*
X132207000Y-102143000D02*
X132207000Y-104267000D01*
X132207000Y-102143000D02*
X132207000Y-100203000D01*
X132207000Y-100203000D02*
X130810000Y-98806000D01*
X126824000Y-98806000D02*
X126544000Y-98526000D01*
X132207000Y-104267000D02*
X133162000Y-105222000D01*
X133162000Y-105222000D02*
X133444000Y-105222000D01*
%TO.N,SupV*%
X52832000Y-111252000D02*
X54864000Y-109220000D01*
X54864000Y-109220000D02*
X54864000Y-90932000D01*
X99568000Y-79248000D02*
X70612000Y-79248000D01*
X46736000Y-122910000D02*
X49784000Y-122910000D01*
X52819500Y-122910000D02*
X52832000Y-122897500D01*
X70612000Y-79248000D02*
X58928000Y-90932000D01*
X52832000Y-122897500D02*
X52832000Y-111252000D01*
X49784000Y-122910000D02*
X52819500Y-122910000D01*
D60*
%TO.N,T1bias*%
X112840000Y-143680000D02*
X112840000Y-138600000D01*
%TO.N,T2bias*%
X128080000Y-143680000D02*
X128080000Y-138600000D01*
D58*
X129906000Y-135128000D02*
X128080000Y-135128000D01*
X128080000Y-135128000D02*
X128080000Y-138600000D01*
%TO.N,Net-(U6-SCL)*%
X130937000Y-104648000D02*
X130937000Y-105537000D01*
X132522000Y-107122000D02*
X133444000Y-107122000D01*
X129592000Y-104648000D02*
X130937000Y-104648000D01*
X130937000Y-102143000D02*
X130937000Y-104648000D01*
X130937000Y-105537000D02*
X132522000Y-107122000D01*
%TO.N,SDA*%
X132207000Y-95631000D02*
X132080000Y-95504000D01*
X138938000Y-87376000D02*
X146812000Y-79502000D01*
X130530000Y-91440000D02*
X132080000Y-91440000D01*
X132207000Y-96993000D02*
X132207000Y-95631000D01*
X132080000Y-95504000D02*
X132080000Y-91440000D01*
X132080000Y-91440000D02*
X132080000Y-90424000D01*
X146812000Y-79502000D02*
X146812000Y-78740000D01*
%TO.N,Net-(U5A-+)*%
X155012500Y-120357500D02*
X155000000Y-120370000D01*
X152335000Y-115951000D02*
X154051000Y-115951000D01*
X155000000Y-116900000D02*
X155000000Y-120370000D01*
X154051000Y-115951000D02*
X155000000Y-116900000D01*
X157480000Y-120357500D02*
X155012500Y-120357500D01*
%TO.N,Net-(U5B-+)*%
X146838000Y-121920000D02*
X146838000Y-119380000D01*
X147385000Y-118833000D02*
X146838000Y-119380000D01*
X147385000Y-117221000D02*
X147385000Y-118833000D01*
%TO.N,DispRW*%
X125714000Y-62214000D02*
X123444000Y-59944000D01*
X129540000Y-60960000D02*
X128286000Y-62214000D01*
X60760000Y-70812000D02*
X60760000Y-73100000D01*
X128286000Y-62214000D02*
X125714000Y-62214000D01*
X123444000Y-59944000D02*
X71628000Y-59944000D01*
X71628000Y-59944000D02*
X60760000Y-70812000D01*
%TO.N,SCL*%
X128524000Y-90424000D02*
X128524000Y-92964000D01*
X145034000Y-78740000D02*
X136398000Y-87376000D01*
X129540000Y-93980000D02*
X130530000Y-93980000D01*
X128524000Y-92964000D02*
X129540000Y-93980000D01*
D61*
X130937000Y-96993000D02*
X130937000Y-94387000D01*
X130937000Y-94387000D02*
X130913888Y-94363888D01*
D58*
%TO.N,Net-(C20-Pad1)*%
X145187000Y-114681000D02*
X144272000Y-113766000D01*
X147385000Y-114681000D02*
X145187000Y-114681000D01*
X141744500Y-113766000D02*
X141732000Y-113753500D01*
X144272000Y-113766000D02*
X141744500Y-113766000D01*
%TO.N,Net-(U10-Vref)*%
X104267000Y-97917000D02*
X105537000Y-99187000D01*
X106720000Y-99138500D02*
X106680000Y-99098500D01*
X105537000Y-99187000D02*
X106999000Y-99187000D01*
X106999000Y-99187000D02*
X109474000Y-99187000D01*
X102551000Y-97917000D02*
X104267000Y-97917000D01*
X109474000Y-99187000D02*
X111949000Y-99187000D01*
%TO.N,Net-(U10-CH5)*%
X96393000Y-92837000D02*
X97601000Y-92837000D01*
X95504000Y-93726000D02*
X96393000Y-92837000D01*
X106680000Y-105448500D02*
X108657500Y-105448500D01*
X108657500Y-105448500D02*
X109220000Y-104886000D01*
X106680000Y-105448500D02*
X104152500Y-105448500D01*
X104152500Y-105448500D02*
X104140000Y-105436000D01*
%TO.N,Net-(U8B--)*%
X124867000Y-116078000D02*
X123952000Y-116993000D01*
X123952000Y-116993000D02*
X124206000Y-117247000D01*
X121424500Y-116993000D02*
X121412000Y-117005500D01*
X127065000Y-116078000D02*
X124867000Y-116078000D01*
X123952000Y-116993000D02*
X121424500Y-116993000D01*
%TO.N,Net-(U8A--)*%
X134454500Y-115443000D02*
X134962500Y-115443000D01*
X132015000Y-114808000D02*
X133819500Y-114808000D01*
X135483000Y-117018000D02*
X135470500Y-117005500D01*
X135470500Y-115951000D02*
X135470500Y-117005500D01*
X138010500Y-116993000D02*
X135483000Y-116993000D01*
X134962500Y-115443000D02*
X135470500Y-115951000D01*
X133819500Y-114808000D02*
X134454500Y-115443000D01*
X135483000Y-116993000D02*
X135470500Y-117005500D01*
%TO.N,Net-(U8B-+)*%
X127254000Y-118872000D02*
X127065000Y-118683000D01*
X127065000Y-118683000D02*
X127065000Y-117348000D01*
%TO.N,Net-(R23-Pad1)*%
X46736000Y-126010000D02*
X46736000Y-127990000D01*
%TO.N,Net-(R45-Pad1)*%
X108712000Y-114712000D02*
X110100000Y-116100000D01*
X110100000Y-116100000D02*
X110100000Y-118474000D01*
X110100000Y-118474000D02*
X109728000Y-118846000D01*
X108712000Y-113310000D02*
X108712000Y-114712000D01*
%TO.N,Net-(R46-Pad1)*%
X116332000Y-114868000D02*
X115100000Y-116100000D01*
X112268000Y-118846000D02*
X114326000Y-118846000D01*
X114326000Y-118846000D02*
X115100000Y-118072000D01*
X116332000Y-113310000D02*
X116332000Y-114868000D01*
X115100000Y-118072000D02*
X115100000Y-116100000D01*
%TO.N,Net-(R47-Pad1)*%
X109728000Y-130228000D02*
X110100000Y-130600000D01*
X112268000Y-128042000D02*
X109728000Y-128042000D01*
X109728000Y-128042000D02*
X109728000Y-130228000D01*
%TD*%
D62*
X161600000Y-147600000D02*
X41600000Y-147600000D01*
X41600000Y-147600000D02*
X41600000Y-55600000D01*
X41600000Y-55600000D02*
X161600000Y-55600000D01*
X161600000Y-55600000D02*
X161600000Y-147600000D01*
M02*
