M48
; DRILL file {KiCad 7.0.7} date Tue Jul  1 12:31:28 2025
; FORMAT={-:-/ absolute / inch / decimal}
; #@! TF.CreationDate,2025-07-01T12:31:28-10:00
; #@! TF.GenerationSoftware,Kicad,Pcbnew,7.0.7
; #@! TF.FileFunction,Plated,1,2,PTH
FMAT,2
INCH
; #@! TA.AperFunction,Plated,PTH,ViaDrill
T1C0.0236
; #@! TA.AperFunction,Plated,PTH,ComponentDrill
T2C0.0315
; #@! TA.AperFunction,Plated,PTH,ComponentDrill
T3C0.0335
; #@! TA.AperFunction,Plated,PTH,ComponentDrill
T4C0.0350
; #@! TA.AperFunction,Plated,PTH,ComponentDrill
T5C0.0354
; #@! TA.AperFunction,Plated,PTH,ComponentDrill
T6C0.0394
; #@! TA.AperFunction,Plated,PTH,ComponentDrill
T7C0.0433
; #@! TA.AperFunction,Plated,PTH,ComponentDrill
T8C0.0469
; #@! TA.AperFunction,Plated,PTH,ComponentDrill
T9C0.0472
; #@! TA.AperFunction,Plated,PTH,ComponentDrill
T10C0.0551
; #@! TA.AperFunction,Plated,PTH,ComponentDrill
T11C0.0591
; #@! TA.AperFunction,Plated,PTH,ComponentDrill
T12C0.0791
; #@! TA.AperFunction,Plated,PTH,ComponentDrill
T13C0.0984
; #@! TA.AperFunction,Plated,PTH,ComponentDrill
T14C0.1024
%
G90
G05
T1
X2.4Y-3.9
X2.62Y-3.2
X2.72Y-3.96
X2.8Y-3.52
X2.9Y-4.38
X2.91Y-3.2
X3.0Y-3.96
X3.08Y-3.94
X3.2Y-3.52
X3.2791Y-3.96
X3.3Y-3.21
X3.36Y-3.27
X3.42Y-3.58
X3.44Y-4.38
X3.5591Y-3.96
X3.63Y-3.12
X3.641Y-5.079
X3.69Y-3.93
X3.74Y-3.54
X3.74Y-3.63
X3.74Y-3.705
X3.75Y-3.05
X3.75Y-3.37
X3.78Y-4.75
X3.8Y-4.36
X3.81Y-3.43
X3.86Y-4.07
X3.91Y-3.34
X3.92Y-3.75
X3.92Y-3.81
X3.93Y-4.07
X4.0Y-4.62
X4.0354Y-5.0787
X4.04Y-3.43
X4.04Y-3.5
X4.04Y-3.95
X4.1Y-3.31
X4.13Y-3.12
X4.13Y-3.81
X4.13Y-4.75
X4.2Y-3.97
X4.34Y-3.83
X4.38Y-3.46
X4.42Y-3.6
X4.48Y-3.34
X4.48Y-3.52
X4.57Y-3.89
X4.58Y-3.38
X4.58Y-3.52
X4.62Y-3.64
X4.6971Y-4.38
X4.7574Y-3.64
X4.78Y-4.28
X4.82Y-4.96
X4.83Y-4.68
X4.84Y-4.32
X4.92Y-3.74
X4.96Y-4.38
X4.98Y-3.4485
X4.98Y-3.56
X5.01Y-4.68
X5.03Y-4.83
X5.06Y-3.56
X5.06Y-3.82
X5.0614Y-4.0214
X5.1Y-4.54
X5.13Y-3.95
X5.2Y-3.56
X5.2Y-4.68
X5.22Y-4.385
X5.24Y-4.98
X5.25Y-3.94
X5.3Y-4.08
X5.32Y-3.78
X5.33Y-4.68
X5.37Y-3.44
X5.43Y-3.58
X5.43Y-4.18
X5.46Y-4.39
X5.47Y-3.44
X5.6Y-4.7
X5.63Y-4.13
X5.71Y-3.1
X5.73Y-4.41
X5.76Y-4.18
X5.78Y-3.1
X5.8029Y-4.34
X5.88Y-4.61
X5.89Y-4.18
X5.98Y-4.3
X6.02Y-2.74
X6.07Y-2.54
X6.18Y-4.2149
T2
X5.4734Y-3.7349
X5.5719Y-3.7349
X5.7481Y-3.7349
X5.8466Y-3.7349
X6.029Y-3.7349
X6.0734Y-3.1
X6.1274Y-3.7349
X6.1719Y-3.1
T3
X5.5Y-3.96
X5.6Y-3.96
X5.8Y-3.96
X5.9Y-3.96
X6.0Y-3.96
T4
X5.6717Y-5.0236
X5.7717Y-5.0236
X5.8717Y-5.0236
T5
X2.1766Y-2.55
X2.275Y-2.3531
X2.3734Y-2.55
T6
X1.92Y-5.0468
X1.92Y-5.2436
X2.36Y-5.0468
X2.36Y-5.2436
X4.3346Y-4.5709
X4.3346Y-5.1417
X4.4331Y-4.5709
X4.5315Y-4.5709
X4.5315Y-5.1417
X5.0Y-2.3
X5.0Y-2.4
X5.0Y-2.5
X5.0Y-2.6
X5.0Y-2.7
X5.0Y-2.8
X5.0Y-2.9
X5.0Y-3.0
X5.1Y-2.3
X5.1Y-2.4
X5.1Y-2.5
X5.1Y-2.6
X5.1Y-2.7
X5.1Y-2.8
X5.1Y-2.9
X5.1Y-3.0
X5.8Y-2.3
X5.8Y-2.4
X5.8Y-2.5
X5.8Y-2.6
X5.8Y-2.7
X5.8Y-2.8
X5.8Y-2.9
X5.8Y-3.0
X5.9Y-2.3
X5.9Y-2.4
X5.9Y-2.5
X5.9Y-2.6
X5.9Y-2.7
X5.9Y-2.8
X5.9Y-2.9
X5.9Y-3.0
T7
X2.5Y-4.49
X2.5Y-4.59
X2.5Y-4.69
T8
X4.34Y-2.4092
X4.44Y-2.4092
X4.54Y-2.4092
X6.1808Y-2.58
X6.1808Y-2.68
X6.1808Y-2.78
X6.1808Y-2.88
T9
X1.9921Y-2.878
X2.0921Y-2.878
X2.1921Y-2.878
X2.2921Y-2.878
X2.3921Y-2.878
X2.4921Y-2.878
X2.5921Y-2.878
X2.6508Y-4.525
X2.6921Y-2.878
X2.7921Y-2.878
X2.8921Y-2.878
X2.95Y-4.525
X2.9921Y-2.878
X3.0921Y-2.878
X3.1008Y-4.525
X3.1921Y-2.878
X3.2921Y-2.878
X3.3921Y-2.878
X3.4Y-4.525
X3.4921Y-2.878
X4.12Y-4.28
X4.12Y-4.44
X6.2Y-3.3
X6.2Y-3.5
X6.2Y-4.38
X6.2Y-4.55
T10
X1.9Y-3.42
X2.1Y-3.42
X2.1102Y-5.4567
X2.1102Y-5.6567
X2.3Y-3.42
X2.3102Y-5.4567
X2.3102Y-5.6567
X2.5Y-3.42
X2.5102Y-5.4567
X2.5102Y-5.6567
X2.7Y-3.42
X2.7102Y-5.4567
X2.7102Y-5.6567
X2.9Y-3.42
X2.9102Y-5.4567
X2.9102Y-5.6567
X3.1Y-3.42
X3.1102Y-5.4567
X3.1102Y-5.6567
X3.3Y-3.42
X3.3102Y-5.4567
X3.3102Y-5.6567
X3.5102Y-5.4567
X3.5102Y-5.6567
X3.8425Y-5.4567
X3.8425Y-5.6567
X4.0425Y-5.4567
X4.0425Y-5.6567
X4.2425Y-5.4567
X4.2425Y-5.6567
X4.4425Y-5.4567
X4.4425Y-5.6567
X4.6425Y-5.4567
X4.6425Y-5.6567
X4.8425Y-5.4567
X4.8425Y-5.6567
X5.0425Y-5.4567
X5.0425Y-5.6567
X5.2425Y-5.4567
X5.2425Y-5.6567
T11
X2.6508Y-4.9266
X2.6508Y-5.2297
X3.1008Y-4.9266
X3.1008Y-5.2297
T12
X5.5717Y-5.2236
X5.9717Y-5.2236
T13
X1.7756Y-2.878
X1.7756Y-4.0985
X4.7283Y-4.0985
X4.7283Y-2.878
T14
X4.2126Y-4.8661
X4.6535Y-4.8661
T0
M30
