%TF.GenerationSoftware,KiCad,Pcbnew,7.0.7*%
%TF.CreationDate,2025-07-01T12:31:18-10:00*%
%TF.ProjectId,Controller,436f6e74-726f-46c6-9c65-722e6b696361,New*%
%TF.SameCoordinates,Original*%
%TF.FileFunction,Legend,Top*%
%TF.FilePolarity,Positive*%
%FSLAX46Y46*%
G04 Gerber Fmt 4.6, Leading zero omitted, Abs format (unit mm)*
G04 Created by KiCad (PCBNEW 7.0.7) date 2025-07-01 12:31:18*
%MOMM*%
%LPD*%
G01*
G04 APERTURE LIST*
%ADD10C,0.300000*%
%ADD11C,0.150000*%
%ADD12C,0.120000*%
%ADD13C,0.200000*%
%TA.AperFunction,Profile*%
%ADD14C,0.050000*%
%TD*%
G04 APERTURE END LIST*
D10*
X74927796Y-59566752D02*
X75109225Y-59566752D01*
X75109225Y-59566752D02*
X75290653Y-59687704D01*
X75290653Y-59687704D02*
X75381368Y-59808657D01*
X75381368Y-59808657D02*
X75472082Y-60050561D01*
X75472082Y-60050561D02*
X75562796Y-60534371D01*
X75562796Y-60534371D02*
X75562796Y-61139133D01*
X75562796Y-61139133D02*
X75472082Y-61622942D01*
X75472082Y-61622942D02*
X75381368Y-61864847D01*
X75381368Y-61864847D02*
X75290653Y-61985800D01*
X75290653Y-61985800D02*
X75109225Y-62106752D01*
X75109225Y-62106752D02*
X74927796Y-62106752D01*
X74927796Y-62106752D02*
X74746368Y-61985800D01*
X74746368Y-61985800D02*
X74655653Y-61864847D01*
X74655653Y-61864847D02*
X74564939Y-61622942D01*
X74564939Y-61622942D02*
X74474225Y-61139133D01*
X74474225Y-61139133D02*
X74474225Y-60534371D01*
X74474225Y-60534371D02*
X74564939Y-60050561D01*
X74564939Y-60050561D02*
X74655653Y-59808657D01*
X74655653Y-59808657D02*
X74746368Y-59687704D01*
X74746368Y-59687704D02*
X74927796Y-59566752D01*
X76288511Y-59808657D02*
X76379225Y-59687704D01*
X76379225Y-59687704D02*
X76560654Y-59566752D01*
X76560654Y-59566752D02*
X77014225Y-59566752D01*
X77014225Y-59566752D02*
X77195654Y-59687704D01*
X77195654Y-59687704D02*
X77286368Y-59808657D01*
X77286368Y-59808657D02*
X77377082Y-60050561D01*
X77377082Y-60050561D02*
X77377082Y-60292466D01*
X77377082Y-60292466D02*
X77286368Y-60655323D01*
X77286368Y-60655323D02*
X76197796Y-62106752D01*
X76197796Y-62106752D02*
X77377082Y-62106752D01*
X79100654Y-59566752D02*
X78193511Y-59566752D01*
X78193511Y-59566752D02*
X78102797Y-60776276D01*
X78102797Y-60776276D02*
X78193511Y-60655323D01*
X78193511Y-60655323D02*
X78374940Y-60534371D01*
X78374940Y-60534371D02*
X78828511Y-60534371D01*
X78828511Y-60534371D02*
X79009940Y-60655323D01*
X79009940Y-60655323D02*
X79100654Y-60776276D01*
X79100654Y-60776276D02*
X79191368Y-61018180D01*
X79191368Y-61018180D02*
X79191368Y-61622942D01*
X79191368Y-61622942D02*
X79100654Y-61864847D01*
X79100654Y-61864847D02*
X79009940Y-61985800D01*
X79009940Y-61985800D02*
X78828511Y-62106752D01*
X78828511Y-62106752D02*
X78374940Y-62106752D01*
X78374940Y-62106752D02*
X78193511Y-61985800D01*
X78193511Y-61985800D02*
X78102797Y-61864847D01*
X80007797Y-61139133D02*
X81459226Y-61139133D01*
X82729225Y-59566752D02*
X82910654Y-59566752D01*
X82910654Y-59566752D02*
X83092082Y-59687704D01*
X83092082Y-59687704D02*
X83182797Y-59808657D01*
X83182797Y-59808657D02*
X83273511Y-60050561D01*
X83273511Y-60050561D02*
X83364225Y-60534371D01*
X83364225Y-60534371D02*
X83364225Y-61139133D01*
X83364225Y-61139133D02*
X83273511Y-61622942D01*
X83273511Y-61622942D02*
X83182797Y-61864847D01*
X83182797Y-61864847D02*
X83092082Y-61985800D01*
X83092082Y-61985800D02*
X82910654Y-62106752D01*
X82910654Y-62106752D02*
X82729225Y-62106752D01*
X82729225Y-62106752D02*
X82547797Y-61985800D01*
X82547797Y-61985800D02*
X82457082Y-61864847D01*
X82457082Y-61864847D02*
X82366368Y-61622942D01*
X82366368Y-61622942D02*
X82275654Y-61139133D01*
X82275654Y-61139133D02*
X82275654Y-60534371D01*
X82275654Y-60534371D02*
X82366368Y-60050561D01*
X82366368Y-60050561D02*
X82457082Y-59808657D01*
X82457082Y-59808657D02*
X82547797Y-59687704D01*
X82547797Y-59687704D02*
X82729225Y-59566752D01*
X85178511Y-62106752D02*
X84089940Y-62106752D01*
X84634225Y-62106752D02*
X84634225Y-59566752D01*
X84634225Y-59566752D02*
X84452797Y-59929609D01*
X84452797Y-59929609D02*
X84271368Y-60171514D01*
X84271368Y-60171514D02*
X84089940Y-60292466D01*
X86992797Y-62106752D02*
X85904226Y-62106752D01*
X86448511Y-62106752D02*
X86448511Y-59566752D01*
X86448511Y-59566752D02*
X86267083Y-59929609D01*
X86267083Y-59929609D02*
X86085654Y-60171514D01*
X86085654Y-60171514D02*
X85904226Y-60292466D01*
X90621370Y-61985800D02*
X90893513Y-62106752D01*
X90893513Y-62106752D02*
X91347084Y-62106752D01*
X91347084Y-62106752D02*
X91528513Y-61985800D01*
X91528513Y-61985800D02*
X91619227Y-61864847D01*
X91619227Y-61864847D02*
X91709941Y-61622942D01*
X91709941Y-61622942D02*
X91709941Y-61381038D01*
X91709941Y-61381038D02*
X91619227Y-61139133D01*
X91619227Y-61139133D02*
X91528513Y-61018180D01*
X91528513Y-61018180D02*
X91347084Y-60897228D01*
X91347084Y-60897228D02*
X90984227Y-60776276D01*
X90984227Y-60776276D02*
X90802798Y-60655323D01*
X90802798Y-60655323D02*
X90712084Y-60534371D01*
X90712084Y-60534371D02*
X90621370Y-60292466D01*
X90621370Y-60292466D02*
X90621370Y-60050561D01*
X90621370Y-60050561D02*
X90712084Y-59808657D01*
X90712084Y-59808657D02*
X90802798Y-59687704D01*
X90802798Y-59687704D02*
X90984227Y-59566752D01*
X90984227Y-59566752D02*
X91437798Y-59566752D01*
X91437798Y-59566752D02*
X91709941Y-59687704D01*
X92344941Y-60413419D02*
X92798513Y-62106752D01*
X93252084Y-60413419D02*
X92798513Y-62106752D01*
X92798513Y-62106752D02*
X92617084Y-62711514D01*
X92617084Y-62711514D02*
X92526370Y-62832466D01*
X92526370Y-62832466D02*
X92344941Y-62953419D01*
X93977799Y-62106752D02*
X93977799Y-60413419D01*
X93977799Y-60655323D02*
X94068513Y-60534371D01*
X94068513Y-60534371D02*
X94249942Y-60413419D01*
X94249942Y-60413419D02*
X94522085Y-60413419D01*
X94522085Y-60413419D02*
X94703513Y-60534371D01*
X94703513Y-60534371D02*
X94794228Y-60776276D01*
X94794228Y-60776276D02*
X94794228Y-62106752D01*
X94794228Y-60776276D02*
X94884942Y-60534371D01*
X94884942Y-60534371D02*
X95066370Y-60413419D01*
X95066370Y-60413419D02*
X95338513Y-60413419D01*
X95338513Y-60413419D02*
X95519942Y-60534371D01*
X95519942Y-60534371D02*
X95610656Y-60776276D01*
X95610656Y-60776276D02*
X95610656Y-62106752D01*
X96517799Y-62106752D02*
X96517799Y-59566752D01*
X96517799Y-60534371D02*
X96699228Y-60413419D01*
X96699228Y-60413419D02*
X97062085Y-60413419D01*
X97062085Y-60413419D02*
X97243513Y-60534371D01*
X97243513Y-60534371D02*
X97334228Y-60655323D01*
X97334228Y-60655323D02*
X97424942Y-60897228D01*
X97424942Y-60897228D02*
X97424942Y-61622942D01*
X97424942Y-61622942D02*
X97334228Y-61864847D01*
X97334228Y-61864847D02*
X97243513Y-61985800D01*
X97243513Y-61985800D02*
X97062085Y-62106752D01*
X97062085Y-62106752D02*
X96699228Y-62106752D01*
X96699228Y-62106752D02*
X96517799Y-61985800D01*
X98241370Y-62106752D02*
X98241370Y-60413419D01*
X98241370Y-60897228D02*
X98332084Y-60655323D01*
X98332084Y-60655323D02*
X98422799Y-60534371D01*
X98422799Y-60534371D02*
X98604227Y-60413419D01*
X98604227Y-60413419D02*
X98785656Y-60413419D01*
X99692799Y-62106752D02*
X99511370Y-61985800D01*
X99511370Y-61985800D02*
X99420656Y-61864847D01*
X99420656Y-61864847D02*
X99329942Y-61622942D01*
X99329942Y-61622942D02*
X99329942Y-60897228D01*
X99329942Y-60897228D02*
X99420656Y-60655323D01*
X99420656Y-60655323D02*
X99511370Y-60534371D01*
X99511370Y-60534371D02*
X99692799Y-60413419D01*
X99692799Y-60413419D02*
X99964942Y-60413419D01*
X99964942Y-60413419D02*
X100146370Y-60534371D01*
X100146370Y-60534371D02*
X100237085Y-60655323D01*
X100237085Y-60655323D02*
X100327799Y-60897228D01*
X100327799Y-60897228D02*
X100327799Y-61622942D01*
X100327799Y-61622942D02*
X100237085Y-61864847D01*
X100237085Y-61864847D02*
X100146370Y-61985800D01*
X100146370Y-61985800D02*
X99964942Y-62106752D01*
X99964942Y-62106752D02*
X99692799Y-62106752D01*
X101053513Y-61985800D02*
X101234941Y-62106752D01*
X101234941Y-62106752D02*
X101597798Y-62106752D01*
X101597798Y-62106752D02*
X101779227Y-61985800D01*
X101779227Y-61985800D02*
X101869941Y-61743895D01*
X101869941Y-61743895D02*
X101869941Y-61622942D01*
X101869941Y-61622942D02*
X101779227Y-61381038D01*
X101779227Y-61381038D02*
X101597798Y-61260085D01*
X101597798Y-61260085D02*
X101325656Y-61260085D01*
X101325656Y-61260085D02*
X101144227Y-61139133D01*
X101144227Y-61139133D02*
X101053513Y-60897228D01*
X101053513Y-60897228D02*
X101053513Y-60776276D01*
X101053513Y-60776276D02*
X101144227Y-60534371D01*
X101144227Y-60534371D02*
X101325656Y-60413419D01*
X101325656Y-60413419D02*
X101597798Y-60413419D01*
X101597798Y-60413419D02*
X101779227Y-60534371D01*
X102686370Y-62106752D02*
X102686370Y-60413419D01*
X102686370Y-59566752D02*
X102595656Y-59687704D01*
X102595656Y-59687704D02*
X102686370Y-59808657D01*
X102686370Y-59808657D02*
X102777084Y-59687704D01*
X102777084Y-59687704D02*
X102686370Y-59566752D01*
X102686370Y-59566752D02*
X102686370Y-59808657D01*
X104409942Y-62106752D02*
X104409942Y-60776276D01*
X104409942Y-60776276D02*
X104319227Y-60534371D01*
X104319227Y-60534371D02*
X104137799Y-60413419D01*
X104137799Y-60413419D02*
X103774942Y-60413419D01*
X103774942Y-60413419D02*
X103593513Y-60534371D01*
X104409942Y-61985800D02*
X104228513Y-62106752D01*
X104228513Y-62106752D02*
X103774942Y-62106752D01*
X103774942Y-62106752D02*
X103593513Y-61985800D01*
X103593513Y-61985800D02*
X103502799Y-61743895D01*
X103502799Y-61743895D02*
X103502799Y-61501990D01*
X103502799Y-61501990D02*
X103593513Y-61260085D01*
X103593513Y-61260085D02*
X103774942Y-61139133D01*
X103774942Y-61139133D02*
X104228513Y-61139133D01*
X104228513Y-61139133D02*
X104409942Y-61018180D01*
X74564939Y-66196152D02*
X74564939Y-64502819D01*
X74564939Y-64986628D02*
X74655653Y-64744723D01*
X74655653Y-64744723D02*
X74746368Y-64623771D01*
X74746368Y-64623771D02*
X74927796Y-64502819D01*
X74927796Y-64502819D02*
X75109225Y-64502819D01*
X76469939Y-66075200D02*
X76288511Y-66196152D01*
X76288511Y-66196152D02*
X75925654Y-66196152D01*
X75925654Y-66196152D02*
X75744225Y-66075200D01*
X75744225Y-66075200D02*
X75653511Y-65833295D01*
X75653511Y-65833295D02*
X75653511Y-64865676D01*
X75653511Y-64865676D02*
X75744225Y-64623771D01*
X75744225Y-64623771D02*
X75925654Y-64502819D01*
X75925654Y-64502819D02*
X76288511Y-64502819D01*
X76288511Y-64502819D02*
X76469939Y-64623771D01*
X76469939Y-64623771D02*
X76560654Y-64865676D01*
X76560654Y-64865676D02*
X76560654Y-65107580D01*
X76560654Y-65107580D02*
X75653511Y-65349485D01*
X77195653Y-64502819D02*
X77649225Y-66196152D01*
X77649225Y-66196152D02*
X78102796Y-64502819D01*
X81368511Y-65954247D02*
X81277797Y-66075200D01*
X81277797Y-66075200D02*
X81005654Y-66196152D01*
X81005654Y-66196152D02*
X80824226Y-66196152D01*
X80824226Y-66196152D02*
X80552083Y-66075200D01*
X80552083Y-66075200D02*
X80370654Y-65833295D01*
X80370654Y-65833295D02*
X80279940Y-65591390D01*
X80279940Y-65591390D02*
X80189226Y-65107580D01*
X80189226Y-65107580D02*
X80189226Y-64744723D01*
X80189226Y-64744723D02*
X80279940Y-64260914D01*
X80279940Y-64260914D02*
X80370654Y-64019009D01*
X80370654Y-64019009D02*
X80552083Y-63777104D01*
X80552083Y-63777104D02*
X80824226Y-63656152D01*
X80824226Y-63656152D02*
X81005654Y-63656152D01*
X81005654Y-63656152D02*
X81277797Y-63777104D01*
X81277797Y-63777104D02*
X81368511Y-63898057D01*
X94884943Y-65954247D02*
X94794229Y-66075200D01*
X94794229Y-66075200D02*
X94522086Y-66196152D01*
X94522086Y-66196152D02*
X94340658Y-66196152D01*
X94340658Y-66196152D02*
X94068515Y-66075200D01*
X94068515Y-66075200D02*
X93887086Y-65833295D01*
X93887086Y-65833295D02*
X93796372Y-65591390D01*
X93796372Y-65591390D02*
X93705658Y-65107580D01*
X93705658Y-65107580D02*
X93705658Y-64744723D01*
X93705658Y-64744723D02*
X93796372Y-64260914D01*
X93796372Y-64260914D02*
X93887086Y-64019009D01*
X93887086Y-64019009D02*
X94068515Y-63777104D01*
X94068515Y-63777104D02*
X94340658Y-63656152D01*
X94340658Y-63656152D02*
X94522086Y-63656152D01*
X94522086Y-63656152D02*
X94794229Y-63777104D01*
X94794229Y-63777104D02*
X94884943Y-63898057D01*
X95973515Y-66196152D02*
X95792086Y-66075200D01*
X95792086Y-66075200D02*
X95701372Y-65954247D01*
X95701372Y-65954247D02*
X95610658Y-65712342D01*
X95610658Y-65712342D02*
X95610658Y-64986628D01*
X95610658Y-64986628D02*
X95701372Y-64744723D01*
X95701372Y-64744723D02*
X95792086Y-64623771D01*
X95792086Y-64623771D02*
X95973515Y-64502819D01*
X95973515Y-64502819D02*
X96245658Y-64502819D01*
X96245658Y-64502819D02*
X96427086Y-64623771D01*
X96427086Y-64623771D02*
X96517801Y-64744723D01*
X96517801Y-64744723D02*
X96608515Y-64986628D01*
X96608515Y-64986628D02*
X96608515Y-65712342D01*
X96608515Y-65712342D02*
X96517801Y-65954247D01*
X96517801Y-65954247D02*
X96427086Y-66075200D01*
X96427086Y-66075200D02*
X96245658Y-66196152D01*
X96245658Y-66196152D02*
X95973515Y-66196152D01*
X97424943Y-64502819D02*
X97424943Y-66196152D01*
X97424943Y-64744723D02*
X97515657Y-64623771D01*
X97515657Y-64623771D02*
X97697086Y-64502819D01*
X97697086Y-64502819D02*
X97969229Y-64502819D01*
X97969229Y-64502819D02*
X98150657Y-64623771D01*
X98150657Y-64623771D02*
X98241372Y-64865676D01*
X98241372Y-64865676D02*
X98241372Y-66196152D01*
X98876371Y-64502819D02*
X99602085Y-64502819D01*
X99148514Y-63656152D02*
X99148514Y-65833295D01*
X99148514Y-65833295D02*
X99239228Y-66075200D01*
X99239228Y-66075200D02*
X99420657Y-66196152D01*
X99420657Y-66196152D02*
X99602085Y-66196152D01*
X100237085Y-66196152D02*
X100237085Y-64502819D01*
X100237085Y-64986628D02*
X100327799Y-64744723D01*
X100327799Y-64744723D02*
X100418514Y-64623771D01*
X100418514Y-64623771D02*
X100599942Y-64502819D01*
X100599942Y-64502819D02*
X100781371Y-64502819D01*
X101688514Y-66196152D02*
X101507085Y-66075200D01*
X101507085Y-66075200D02*
X101416371Y-65954247D01*
X101416371Y-65954247D02*
X101325657Y-65712342D01*
X101325657Y-65712342D02*
X101325657Y-64986628D01*
X101325657Y-64986628D02*
X101416371Y-64744723D01*
X101416371Y-64744723D02*
X101507085Y-64623771D01*
X101507085Y-64623771D02*
X101688514Y-64502819D01*
X101688514Y-64502819D02*
X101960657Y-64502819D01*
X101960657Y-64502819D02*
X102142085Y-64623771D01*
X102142085Y-64623771D02*
X102232800Y-64744723D01*
X102232800Y-64744723D02*
X102323514Y-64986628D01*
X102323514Y-64986628D02*
X102323514Y-65712342D01*
X102323514Y-65712342D02*
X102232800Y-65954247D01*
X102232800Y-65954247D02*
X102142085Y-66075200D01*
X102142085Y-66075200D02*
X101960657Y-66196152D01*
X101960657Y-66196152D02*
X101688514Y-66196152D01*
X103412085Y-66196152D02*
X103230656Y-66075200D01*
X103230656Y-66075200D02*
X103139942Y-65833295D01*
X103139942Y-65833295D02*
X103139942Y-63656152D01*
X104409942Y-66196152D02*
X104228513Y-66075200D01*
X104228513Y-66075200D02*
X104137799Y-65833295D01*
X104137799Y-65833295D02*
X104137799Y-63656152D01*
X105861370Y-66075200D02*
X105679942Y-66196152D01*
X105679942Y-66196152D02*
X105317085Y-66196152D01*
X105317085Y-66196152D02*
X105135656Y-66075200D01*
X105135656Y-66075200D02*
X105044942Y-65833295D01*
X105044942Y-65833295D02*
X105044942Y-64865676D01*
X105044942Y-64865676D02*
X105135656Y-64623771D01*
X105135656Y-64623771D02*
X105317085Y-64502819D01*
X105317085Y-64502819D02*
X105679942Y-64502819D01*
X105679942Y-64502819D02*
X105861370Y-64623771D01*
X105861370Y-64623771D02*
X105952085Y-64865676D01*
X105952085Y-64865676D02*
X105952085Y-65107580D01*
X105952085Y-65107580D02*
X105044942Y-65349485D01*
X106768513Y-66196152D02*
X106768513Y-64502819D01*
X106768513Y-64986628D02*
X106859227Y-64744723D01*
X106859227Y-64744723D02*
X106949942Y-64623771D01*
X106949942Y-64623771D02*
X107131370Y-64502819D01*
X107131370Y-64502819D02*
X107312799Y-64502819D01*
D11*
X106180095Y-106896819D02*
X106751523Y-106896819D01*
X106465809Y-107896819D02*
X106465809Y-106896819D01*
X107084857Y-107896819D02*
X107084857Y-106896819D01*
X107084857Y-106896819D02*
X107465809Y-106896819D01*
X107465809Y-106896819D02*
X107561047Y-106944438D01*
X107561047Y-106944438D02*
X107608666Y-106992057D01*
X107608666Y-106992057D02*
X107656285Y-107087295D01*
X107656285Y-107087295D02*
X107656285Y-107230152D01*
X107656285Y-107230152D02*
X107608666Y-107325390D01*
X107608666Y-107325390D02*
X107561047Y-107373009D01*
X107561047Y-107373009D02*
X107465809Y-107420628D01*
X107465809Y-107420628D02*
X107084857Y-107420628D01*
X108513428Y-107230152D02*
X108513428Y-107896819D01*
X108275333Y-106849200D02*
X108037238Y-107563485D01*
X108037238Y-107563485D02*
X108656285Y-107563485D01*
X152916095Y-87338819D02*
X153487523Y-87338819D01*
X153201809Y-88338819D02*
X153201809Y-87338819D01*
X153820857Y-88338819D02*
X153820857Y-87338819D01*
X153820857Y-87338819D02*
X154201809Y-87338819D01*
X154201809Y-87338819D02*
X154297047Y-87386438D01*
X154297047Y-87386438D02*
X154344666Y-87434057D01*
X154344666Y-87434057D02*
X154392285Y-87529295D01*
X154392285Y-87529295D02*
X154392285Y-87672152D01*
X154392285Y-87672152D02*
X154344666Y-87767390D01*
X154344666Y-87767390D02*
X154297047Y-87815009D01*
X154297047Y-87815009D02*
X154201809Y-87862628D01*
X154201809Y-87862628D02*
X153820857Y-87862628D01*
X155344666Y-88338819D02*
X154773238Y-88338819D01*
X155058952Y-88338819D02*
X155058952Y-87338819D01*
X155058952Y-87338819D02*
X154963714Y-87481676D01*
X154963714Y-87481676D02*
X154868476Y-87576914D01*
X154868476Y-87576914D02*
X154773238Y-87624533D01*
X152916095Y-109944819D02*
X153487523Y-109944819D01*
X153201809Y-110944819D02*
X153201809Y-109944819D01*
X153820857Y-110944819D02*
X153820857Y-109944819D01*
X153820857Y-109944819D02*
X154201809Y-109944819D01*
X154201809Y-109944819D02*
X154297047Y-109992438D01*
X154297047Y-109992438D02*
X154344666Y-110040057D01*
X154344666Y-110040057D02*
X154392285Y-110135295D01*
X154392285Y-110135295D02*
X154392285Y-110278152D01*
X154392285Y-110278152D02*
X154344666Y-110373390D01*
X154344666Y-110373390D02*
X154297047Y-110421009D01*
X154297047Y-110421009D02*
X154201809Y-110468628D01*
X154201809Y-110468628D02*
X153820857Y-110468628D01*
X154725619Y-109944819D02*
X155344666Y-109944819D01*
X155344666Y-109944819D02*
X155011333Y-110325771D01*
X155011333Y-110325771D02*
X155154190Y-110325771D01*
X155154190Y-110325771D02*
X155249428Y-110373390D01*
X155249428Y-110373390D02*
X155297047Y-110421009D01*
X155297047Y-110421009D02*
X155344666Y-110516247D01*
X155344666Y-110516247D02*
X155344666Y-110754342D01*
X155344666Y-110754342D02*
X155297047Y-110849580D01*
X155297047Y-110849580D02*
X155249428Y-110897200D01*
X155249428Y-110897200D02*
X155154190Y-110944819D01*
X155154190Y-110944819D02*
X154868476Y-110944819D01*
X154868476Y-110944819D02*
X154773238Y-110897200D01*
X154773238Y-110897200D02*
X154725619Y-110849580D01*
X106180095Y-111214819D02*
X106751523Y-111214819D01*
X106465809Y-112214819D02*
X106465809Y-111214819D01*
X107084857Y-112214819D02*
X107084857Y-111214819D01*
X107084857Y-111214819D02*
X107465809Y-111214819D01*
X107465809Y-111214819D02*
X107561047Y-111262438D01*
X107561047Y-111262438D02*
X107608666Y-111310057D01*
X107608666Y-111310057D02*
X107656285Y-111405295D01*
X107656285Y-111405295D02*
X107656285Y-111548152D01*
X107656285Y-111548152D02*
X107608666Y-111643390D01*
X107608666Y-111643390D02*
X107561047Y-111691009D01*
X107561047Y-111691009D02*
X107465809Y-111738628D01*
X107465809Y-111738628D02*
X107084857Y-111738628D01*
X108561047Y-111214819D02*
X108084857Y-111214819D01*
X108084857Y-111214819D02*
X108037238Y-111691009D01*
X108037238Y-111691009D02*
X108084857Y-111643390D01*
X108084857Y-111643390D02*
X108180095Y-111595771D01*
X108180095Y-111595771D02*
X108418190Y-111595771D01*
X108418190Y-111595771D02*
X108513428Y-111643390D01*
X108513428Y-111643390D02*
X108561047Y-111691009D01*
X108561047Y-111691009D02*
X108608666Y-111786247D01*
X108608666Y-111786247D02*
X108608666Y-112024342D01*
X108608666Y-112024342D02*
X108561047Y-112119580D01*
X108561047Y-112119580D02*
X108513428Y-112167200D01*
X108513428Y-112167200D02*
X108418190Y-112214819D01*
X108418190Y-112214819D02*
X108180095Y-112214819D01*
X108180095Y-112214819D02*
X108084857Y-112167200D01*
X108084857Y-112167200D02*
X108037238Y-112119580D01*
X152916095Y-82258819D02*
X153487523Y-82258819D01*
X153201809Y-83258819D02*
X153201809Y-82258819D01*
X153820857Y-83258819D02*
X153820857Y-82258819D01*
X153820857Y-82258819D02*
X154201809Y-82258819D01*
X154201809Y-82258819D02*
X154297047Y-82306438D01*
X154297047Y-82306438D02*
X154344666Y-82354057D01*
X154344666Y-82354057D02*
X154392285Y-82449295D01*
X154392285Y-82449295D02*
X154392285Y-82592152D01*
X154392285Y-82592152D02*
X154344666Y-82687390D01*
X154344666Y-82687390D02*
X154297047Y-82735009D01*
X154297047Y-82735009D02*
X154201809Y-82782628D01*
X154201809Y-82782628D02*
X153820857Y-82782628D01*
X155011333Y-82258819D02*
X155106571Y-82258819D01*
X155106571Y-82258819D02*
X155201809Y-82306438D01*
X155201809Y-82306438D02*
X155249428Y-82354057D01*
X155249428Y-82354057D02*
X155297047Y-82449295D01*
X155297047Y-82449295D02*
X155344666Y-82639771D01*
X155344666Y-82639771D02*
X155344666Y-82877866D01*
X155344666Y-82877866D02*
X155297047Y-83068342D01*
X155297047Y-83068342D02*
X155249428Y-83163580D01*
X155249428Y-83163580D02*
X155201809Y-83211200D01*
X155201809Y-83211200D02*
X155106571Y-83258819D01*
X155106571Y-83258819D02*
X155011333Y-83258819D01*
X155011333Y-83258819D02*
X154916095Y-83211200D01*
X154916095Y-83211200D02*
X154868476Y-83163580D01*
X154868476Y-83163580D02*
X154820857Y-83068342D01*
X154820857Y-83068342D02*
X154773238Y-82877866D01*
X154773238Y-82877866D02*
X154773238Y-82639771D01*
X154773238Y-82639771D02*
X154820857Y-82449295D01*
X154820857Y-82449295D02*
X154868476Y-82354057D01*
X154868476Y-82354057D02*
X154916095Y-82306438D01*
X154916095Y-82306438D02*
X155011333Y-82258819D01*
X66063905Y-113027619D02*
X66063905Y-112027619D01*
X66635333Y-113027619D02*
X66206762Y-112456190D01*
X66635333Y-112027619D02*
X66063905Y-112599047D01*
X67587714Y-113027619D02*
X67016286Y-113027619D01*
X67302000Y-113027619D02*
X67302000Y-112027619D01*
X67302000Y-112027619D02*
X67206762Y-112170476D01*
X67206762Y-112170476D02*
X67111524Y-112265714D01*
X67111524Y-112265714D02*
X67016286Y-112313333D01*
X77493905Y-113230819D02*
X77493905Y-112230819D01*
X78065333Y-113230819D02*
X77636762Y-112659390D01*
X78065333Y-112230819D02*
X77493905Y-112802247D01*
X78446286Y-112326057D02*
X78493905Y-112278438D01*
X78493905Y-112278438D02*
X78589143Y-112230819D01*
X78589143Y-112230819D02*
X78827238Y-112230819D01*
X78827238Y-112230819D02*
X78922476Y-112278438D01*
X78922476Y-112278438D02*
X78970095Y-112326057D01*
X78970095Y-112326057D02*
X79017714Y-112421295D01*
X79017714Y-112421295D02*
X79017714Y-112516533D01*
X79017714Y-112516533D02*
X78970095Y-112659390D01*
X78970095Y-112659390D02*
X78398667Y-113230819D01*
X78398667Y-113230819D02*
X79017714Y-113230819D01*
X60960095Y-110833819D02*
X60960095Y-111643342D01*
X60960095Y-111643342D02*
X61007714Y-111738580D01*
X61007714Y-111738580D02*
X61055333Y-111786200D01*
X61055333Y-111786200D02*
X61150571Y-111833819D01*
X61150571Y-111833819D02*
X61341047Y-111833819D01*
X61341047Y-111833819D02*
X61436285Y-111786200D01*
X61436285Y-111786200D02*
X61483904Y-111738580D01*
X61483904Y-111738580D02*
X61531523Y-111643342D01*
X61531523Y-111643342D02*
X61531523Y-110833819D01*
X61960095Y-110929057D02*
X62007714Y-110881438D01*
X62007714Y-110881438D02*
X62102952Y-110833819D01*
X62102952Y-110833819D02*
X62341047Y-110833819D01*
X62341047Y-110833819D02*
X62436285Y-110881438D01*
X62436285Y-110881438D02*
X62483904Y-110929057D01*
X62483904Y-110929057D02*
X62531523Y-111024295D01*
X62531523Y-111024295D02*
X62531523Y-111119533D01*
X62531523Y-111119533D02*
X62483904Y-111262390D01*
X62483904Y-111262390D02*
X61912476Y-111833819D01*
X61912476Y-111833819D02*
X62531523Y-111833819D01*
X139874666Y-123660819D02*
X139874666Y-124375104D01*
X139874666Y-124375104D02*
X139827047Y-124517961D01*
X139827047Y-124517961D02*
X139731809Y-124613200D01*
X139731809Y-124613200D02*
X139588952Y-124660819D01*
X139588952Y-124660819D02*
X139493714Y-124660819D01*
X140255619Y-123660819D02*
X140874666Y-123660819D01*
X140874666Y-123660819D02*
X140541333Y-124041771D01*
X140541333Y-124041771D02*
X140684190Y-124041771D01*
X140684190Y-124041771D02*
X140779428Y-124089390D01*
X140779428Y-124089390D02*
X140827047Y-124137009D01*
X140827047Y-124137009D02*
X140874666Y-124232247D01*
X140874666Y-124232247D02*
X140874666Y-124470342D01*
X140874666Y-124470342D02*
X140827047Y-124565580D01*
X140827047Y-124565580D02*
X140779428Y-124613200D01*
X140779428Y-124613200D02*
X140684190Y-124660819D01*
X140684190Y-124660819D02*
X140398476Y-124660819D01*
X140398476Y-124660819D02*
X140303238Y-124613200D01*
X140303238Y-124613200D02*
X140255619Y-124565580D01*
X90344666Y-134582819D02*
X90344666Y-135297104D01*
X90344666Y-135297104D02*
X90297047Y-135439961D01*
X90297047Y-135439961D02*
X90201809Y-135535200D01*
X90201809Y-135535200D02*
X90058952Y-135582819D01*
X90058952Y-135582819D02*
X89963714Y-135582819D01*
X91344666Y-135582819D02*
X90773238Y-135582819D01*
X91058952Y-135582819D02*
X91058952Y-134582819D01*
X91058952Y-134582819D02*
X90963714Y-134725676D01*
X90963714Y-134725676D02*
X90868476Y-134820914D01*
X90868476Y-134820914D02*
X90773238Y-134868533D01*
X95424666Y-134582819D02*
X95424666Y-135297104D01*
X95424666Y-135297104D02*
X95377047Y-135439961D01*
X95377047Y-135439961D02*
X95281809Y-135535200D01*
X95281809Y-135535200D02*
X95138952Y-135582819D01*
X95138952Y-135582819D02*
X95043714Y-135582819D01*
X95853238Y-134678057D02*
X95900857Y-134630438D01*
X95900857Y-134630438D02*
X95996095Y-134582819D01*
X95996095Y-134582819D02*
X96234190Y-134582819D01*
X96234190Y-134582819D02*
X96329428Y-134630438D01*
X96329428Y-134630438D02*
X96377047Y-134678057D01*
X96377047Y-134678057D02*
X96424666Y-134773295D01*
X96424666Y-134773295D02*
X96424666Y-134868533D01*
X96424666Y-134868533D02*
X96377047Y-135011390D01*
X96377047Y-135011390D02*
X95805619Y-135582819D01*
X95805619Y-135582819D02*
X96424666Y-135582819D01*
X46537714Y-69744819D02*
X46537714Y-68744819D01*
X46537714Y-68744819D02*
X46775809Y-68744819D01*
X46775809Y-68744819D02*
X46918666Y-68792438D01*
X46918666Y-68792438D02*
X47013904Y-68887676D01*
X47013904Y-68887676D02*
X47061523Y-68982914D01*
X47061523Y-68982914D02*
X47109142Y-69173390D01*
X47109142Y-69173390D02*
X47109142Y-69316247D01*
X47109142Y-69316247D02*
X47061523Y-69506723D01*
X47061523Y-69506723D02*
X47013904Y-69601961D01*
X47013904Y-69601961D02*
X46918666Y-69697200D01*
X46918666Y-69697200D02*
X46775809Y-69744819D01*
X46775809Y-69744819D02*
X46537714Y-69744819D01*
X47490095Y-69697200D02*
X47632952Y-69744819D01*
X47632952Y-69744819D02*
X47871047Y-69744819D01*
X47871047Y-69744819D02*
X47966285Y-69697200D01*
X47966285Y-69697200D02*
X48013904Y-69649580D01*
X48013904Y-69649580D02*
X48061523Y-69554342D01*
X48061523Y-69554342D02*
X48061523Y-69459104D01*
X48061523Y-69459104D02*
X48013904Y-69363866D01*
X48013904Y-69363866D02*
X47966285Y-69316247D01*
X47966285Y-69316247D02*
X47871047Y-69268628D01*
X47871047Y-69268628D02*
X47680571Y-69221009D01*
X47680571Y-69221009D02*
X47585333Y-69173390D01*
X47585333Y-69173390D02*
X47537714Y-69125771D01*
X47537714Y-69125771D02*
X47490095Y-69030533D01*
X47490095Y-69030533D02*
X47490095Y-68935295D01*
X47490095Y-68935295D02*
X47537714Y-68840057D01*
X47537714Y-68840057D02*
X47585333Y-68792438D01*
X47585333Y-68792438D02*
X47680571Y-68744819D01*
X47680571Y-68744819D02*
X47918666Y-68744819D01*
X47918666Y-68744819D02*
X48061523Y-68792438D01*
X49013904Y-69744819D02*
X48442476Y-69744819D01*
X48728190Y-69744819D02*
X48728190Y-68744819D01*
X48728190Y-68744819D02*
X48632952Y-68887676D01*
X48632952Y-68887676D02*
X48537714Y-68982914D01*
X48537714Y-68982914D02*
X48442476Y-69030533D01*
X152233333Y-91291580D02*
X152185714Y-91339200D01*
X152185714Y-91339200D02*
X152042857Y-91386819D01*
X152042857Y-91386819D02*
X151947619Y-91386819D01*
X151947619Y-91386819D02*
X151804762Y-91339200D01*
X151804762Y-91339200D02*
X151709524Y-91243961D01*
X151709524Y-91243961D02*
X151661905Y-91148723D01*
X151661905Y-91148723D02*
X151614286Y-90958247D01*
X151614286Y-90958247D02*
X151614286Y-90815390D01*
X151614286Y-90815390D02*
X151661905Y-90624914D01*
X151661905Y-90624914D02*
X151709524Y-90529676D01*
X151709524Y-90529676D02*
X151804762Y-90434438D01*
X151804762Y-90434438D02*
X151947619Y-90386819D01*
X151947619Y-90386819D02*
X152042857Y-90386819D01*
X152042857Y-90386819D02*
X152185714Y-90434438D01*
X152185714Y-90434438D02*
X152233333Y-90482057D01*
X152804762Y-90815390D02*
X152709524Y-90767771D01*
X152709524Y-90767771D02*
X152661905Y-90720152D01*
X152661905Y-90720152D02*
X152614286Y-90624914D01*
X152614286Y-90624914D02*
X152614286Y-90577295D01*
X152614286Y-90577295D02*
X152661905Y-90482057D01*
X152661905Y-90482057D02*
X152709524Y-90434438D01*
X152709524Y-90434438D02*
X152804762Y-90386819D01*
X152804762Y-90386819D02*
X152995238Y-90386819D01*
X152995238Y-90386819D02*
X153090476Y-90434438D01*
X153090476Y-90434438D02*
X153138095Y-90482057D01*
X153138095Y-90482057D02*
X153185714Y-90577295D01*
X153185714Y-90577295D02*
X153185714Y-90624914D01*
X153185714Y-90624914D02*
X153138095Y-90720152D01*
X153138095Y-90720152D02*
X153090476Y-90767771D01*
X153090476Y-90767771D02*
X152995238Y-90815390D01*
X152995238Y-90815390D02*
X152804762Y-90815390D01*
X152804762Y-90815390D02*
X152709524Y-90863009D01*
X152709524Y-90863009D02*
X152661905Y-90910628D01*
X152661905Y-90910628D02*
X152614286Y-91005866D01*
X152614286Y-91005866D02*
X152614286Y-91196342D01*
X152614286Y-91196342D02*
X152661905Y-91291580D01*
X152661905Y-91291580D02*
X152709524Y-91339200D01*
X152709524Y-91339200D02*
X152804762Y-91386819D01*
X152804762Y-91386819D02*
X152995238Y-91386819D01*
X152995238Y-91386819D02*
X153090476Y-91339200D01*
X153090476Y-91339200D02*
X153138095Y-91291580D01*
X153138095Y-91291580D02*
X153185714Y-91196342D01*
X153185714Y-91196342D02*
X153185714Y-91005866D01*
X153185714Y-91005866D02*
X153138095Y-90910628D01*
X153138095Y-90910628D02*
X153090476Y-90863009D01*
X153090476Y-90863009D02*
X152995238Y-90815390D01*
X106854666Y-59632819D02*
X106854666Y-60347104D01*
X106854666Y-60347104D02*
X106807047Y-60489961D01*
X106807047Y-60489961D02*
X106711809Y-60585200D01*
X106711809Y-60585200D02*
X106568952Y-60632819D01*
X106568952Y-60632819D02*
X106473714Y-60632819D01*
X107759428Y-59632819D02*
X107568952Y-59632819D01*
X107568952Y-59632819D02*
X107473714Y-59680438D01*
X107473714Y-59680438D02*
X107426095Y-59728057D01*
X107426095Y-59728057D02*
X107330857Y-59870914D01*
X107330857Y-59870914D02*
X107283238Y-60061390D01*
X107283238Y-60061390D02*
X107283238Y-60442342D01*
X107283238Y-60442342D02*
X107330857Y-60537580D01*
X107330857Y-60537580D02*
X107378476Y-60585200D01*
X107378476Y-60585200D02*
X107473714Y-60632819D01*
X107473714Y-60632819D02*
X107664190Y-60632819D01*
X107664190Y-60632819D02*
X107759428Y-60585200D01*
X107759428Y-60585200D02*
X107807047Y-60537580D01*
X107807047Y-60537580D02*
X107854666Y-60442342D01*
X107854666Y-60442342D02*
X107854666Y-60204247D01*
X107854666Y-60204247D02*
X107807047Y-60109009D01*
X107807047Y-60109009D02*
X107759428Y-60061390D01*
X107759428Y-60061390D02*
X107664190Y-60013771D01*
X107664190Y-60013771D02*
X107473714Y-60013771D01*
X107473714Y-60013771D02*
X107378476Y-60061390D01*
X107378476Y-60061390D02*
X107330857Y-60109009D01*
X107330857Y-60109009D02*
X107283238Y-60204247D01*
X153632819Y-63325333D02*
X154347104Y-63325333D01*
X154347104Y-63325333D02*
X154489961Y-63372952D01*
X154489961Y-63372952D02*
X154585200Y-63468190D01*
X154585200Y-63468190D02*
X154632819Y-63611047D01*
X154632819Y-63611047D02*
X154632819Y-63706285D01*
X153632819Y-62372952D02*
X153632819Y-62849142D01*
X153632819Y-62849142D02*
X154109009Y-62896761D01*
X154109009Y-62896761D02*
X154061390Y-62849142D01*
X154061390Y-62849142D02*
X154013771Y-62753904D01*
X154013771Y-62753904D02*
X154013771Y-62515809D01*
X154013771Y-62515809D02*
X154061390Y-62420571D01*
X154061390Y-62420571D02*
X154109009Y-62372952D01*
X154109009Y-62372952D02*
X154204247Y-62325333D01*
X154204247Y-62325333D02*
X154442342Y-62325333D01*
X154442342Y-62325333D02*
X154537580Y-62372952D01*
X154537580Y-62372952D02*
X154585200Y-62420571D01*
X154585200Y-62420571D02*
X154632819Y-62515809D01*
X154632819Y-62515809D02*
X154632819Y-62753904D01*
X154632819Y-62753904D02*
X154585200Y-62849142D01*
X154585200Y-62849142D02*
X154537580Y-62896761D01*
X44029333Y-126597580D02*
X43981714Y-126645200D01*
X43981714Y-126645200D02*
X43838857Y-126692819D01*
X43838857Y-126692819D02*
X43743619Y-126692819D01*
X43743619Y-126692819D02*
X43600762Y-126645200D01*
X43600762Y-126645200D02*
X43505524Y-126549961D01*
X43505524Y-126549961D02*
X43457905Y-126454723D01*
X43457905Y-126454723D02*
X43410286Y-126264247D01*
X43410286Y-126264247D02*
X43410286Y-126121390D01*
X43410286Y-126121390D02*
X43457905Y-125930914D01*
X43457905Y-125930914D02*
X43505524Y-125835676D01*
X43505524Y-125835676D02*
X43600762Y-125740438D01*
X43600762Y-125740438D02*
X43743619Y-125692819D01*
X43743619Y-125692819D02*
X43838857Y-125692819D01*
X43838857Y-125692819D02*
X43981714Y-125740438D01*
X43981714Y-125740438D02*
X44029333Y-125788057D01*
X44410286Y-125788057D02*
X44457905Y-125740438D01*
X44457905Y-125740438D02*
X44553143Y-125692819D01*
X44553143Y-125692819D02*
X44791238Y-125692819D01*
X44791238Y-125692819D02*
X44886476Y-125740438D01*
X44886476Y-125740438D02*
X44934095Y-125788057D01*
X44934095Y-125788057D02*
X44981714Y-125883295D01*
X44981714Y-125883295D02*
X44981714Y-125978533D01*
X44981714Y-125978533D02*
X44934095Y-126121390D01*
X44934095Y-126121390D02*
X44362667Y-126692819D01*
X44362667Y-126692819D02*
X44981714Y-126692819D01*
X159091333Y-76559580D02*
X159043714Y-76607200D01*
X159043714Y-76607200D02*
X158900857Y-76654819D01*
X158900857Y-76654819D02*
X158805619Y-76654819D01*
X158805619Y-76654819D02*
X158662762Y-76607200D01*
X158662762Y-76607200D02*
X158567524Y-76511961D01*
X158567524Y-76511961D02*
X158519905Y-76416723D01*
X158519905Y-76416723D02*
X158472286Y-76226247D01*
X158472286Y-76226247D02*
X158472286Y-76083390D01*
X158472286Y-76083390D02*
X158519905Y-75892914D01*
X158519905Y-75892914D02*
X158567524Y-75797676D01*
X158567524Y-75797676D02*
X158662762Y-75702438D01*
X158662762Y-75702438D02*
X158805619Y-75654819D01*
X158805619Y-75654819D02*
X158900857Y-75654819D01*
X158900857Y-75654819D02*
X159043714Y-75702438D01*
X159043714Y-75702438D02*
X159091333Y-75750057D01*
X159424667Y-75654819D02*
X160043714Y-75654819D01*
X160043714Y-75654819D02*
X159710381Y-76035771D01*
X159710381Y-76035771D02*
X159853238Y-76035771D01*
X159853238Y-76035771D02*
X159948476Y-76083390D01*
X159948476Y-76083390D02*
X159996095Y-76131009D01*
X159996095Y-76131009D02*
X160043714Y-76226247D01*
X160043714Y-76226247D02*
X160043714Y-76464342D01*
X160043714Y-76464342D02*
X159996095Y-76559580D01*
X159996095Y-76559580D02*
X159948476Y-76607200D01*
X159948476Y-76607200D02*
X159853238Y-76654819D01*
X159853238Y-76654819D02*
X159567524Y-76654819D01*
X159567524Y-76654819D02*
X159472286Y-76607200D01*
X159472286Y-76607200D02*
X159424667Y-76559580D01*
X153217714Y-106372819D02*
X153217714Y-105372819D01*
X153217714Y-105372819D02*
X153598666Y-105372819D01*
X153598666Y-105372819D02*
X153693904Y-105420438D01*
X153693904Y-105420438D02*
X153741523Y-105468057D01*
X153741523Y-105468057D02*
X153789142Y-105563295D01*
X153789142Y-105563295D02*
X153789142Y-105706152D01*
X153789142Y-105706152D02*
X153741523Y-105801390D01*
X153741523Y-105801390D02*
X153693904Y-105849009D01*
X153693904Y-105849009D02*
X153598666Y-105896628D01*
X153598666Y-105896628D02*
X153217714Y-105896628D01*
X154170095Y-106325200D02*
X154312952Y-106372819D01*
X154312952Y-106372819D02*
X154551047Y-106372819D01*
X154551047Y-106372819D02*
X154646285Y-106325200D01*
X154646285Y-106325200D02*
X154693904Y-106277580D01*
X154693904Y-106277580D02*
X154741523Y-106182342D01*
X154741523Y-106182342D02*
X154741523Y-106087104D01*
X154741523Y-106087104D02*
X154693904Y-105991866D01*
X154693904Y-105991866D02*
X154646285Y-105944247D01*
X154646285Y-105944247D02*
X154551047Y-105896628D01*
X154551047Y-105896628D02*
X154360571Y-105849009D01*
X154360571Y-105849009D02*
X154265333Y-105801390D01*
X154265333Y-105801390D02*
X154217714Y-105753771D01*
X154217714Y-105753771D02*
X154170095Y-105658533D01*
X154170095Y-105658533D02*
X154170095Y-105563295D01*
X154170095Y-105563295D02*
X154217714Y-105468057D01*
X154217714Y-105468057D02*
X154265333Y-105420438D01*
X154265333Y-105420438D02*
X154360571Y-105372819D01*
X154360571Y-105372819D02*
X154598666Y-105372819D01*
X154598666Y-105372819D02*
X154741523Y-105420438D01*
X155693904Y-106372819D02*
X155122476Y-106372819D01*
X155408190Y-106372819D02*
X155408190Y-105372819D01*
X155408190Y-105372819D02*
X155312952Y-105515676D01*
X155312952Y-105515676D02*
X155217714Y-105610914D01*
X155217714Y-105610914D02*
X155122476Y-105658533D01*
X142073333Y-91291580D02*
X142025714Y-91339200D01*
X142025714Y-91339200D02*
X141882857Y-91386819D01*
X141882857Y-91386819D02*
X141787619Y-91386819D01*
X141787619Y-91386819D02*
X141644762Y-91339200D01*
X141644762Y-91339200D02*
X141549524Y-91243961D01*
X141549524Y-91243961D02*
X141501905Y-91148723D01*
X141501905Y-91148723D02*
X141454286Y-90958247D01*
X141454286Y-90958247D02*
X141454286Y-90815390D01*
X141454286Y-90815390D02*
X141501905Y-90624914D01*
X141501905Y-90624914D02*
X141549524Y-90529676D01*
X141549524Y-90529676D02*
X141644762Y-90434438D01*
X141644762Y-90434438D02*
X141787619Y-90386819D01*
X141787619Y-90386819D02*
X141882857Y-90386819D01*
X141882857Y-90386819D02*
X142025714Y-90434438D01*
X142025714Y-90434438D02*
X142073333Y-90482057D01*
X142406667Y-90386819D02*
X143073333Y-90386819D01*
X143073333Y-90386819D02*
X142644762Y-91386819D01*
X144613333Y-91291580D02*
X144565714Y-91339200D01*
X144565714Y-91339200D02*
X144422857Y-91386819D01*
X144422857Y-91386819D02*
X144327619Y-91386819D01*
X144327619Y-91386819D02*
X144184762Y-91339200D01*
X144184762Y-91339200D02*
X144089524Y-91243961D01*
X144089524Y-91243961D02*
X144041905Y-91148723D01*
X144041905Y-91148723D02*
X143994286Y-90958247D01*
X143994286Y-90958247D02*
X143994286Y-90815390D01*
X143994286Y-90815390D02*
X144041905Y-90624914D01*
X144041905Y-90624914D02*
X144089524Y-90529676D01*
X144089524Y-90529676D02*
X144184762Y-90434438D01*
X144184762Y-90434438D02*
X144327619Y-90386819D01*
X144327619Y-90386819D02*
X144422857Y-90386819D01*
X144422857Y-90386819D02*
X144565714Y-90434438D01*
X144565714Y-90434438D02*
X144613333Y-90482057D01*
X145089524Y-91386819D02*
X145280000Y-91386819D01*
X145280000Y-91386819D02*
X145375238Y-91339200D01*
X145375238Y-91339200D02*
X145422857Y-91291580D01*
X145422857Y-91291580D02*
X145518095Y-91148723D01*
X145518095Y-91148723D02*
X145565714Y-90958247D01*
X145565714Y-90958247D02*
X145565714Y-90577295D01*
X145565714Y-90577295D02*
X145518095Y-90482057D01*
X145518095Y-90482057D02*
X145470476Y-90434438D01*
X145470476Y-90434438D02*
X145375238Y-90386819D01*
X145375238Y-90386819D02*
X145184762Y-90386819D01*
X145184762Y-90386819D02*
X145089524Y-90434438D01*
X145089524Y-90434438D02*
X145041905Y-90482057D01*
X145041905Y-90482057D02*
X144994286Y-90577295D01*
X144994286Y-90577295D02*
X144994286Y-90815390D01*
X144994286Y-90815390D02*
X145041905Y-90910628D01*
X145041905Y-90910628D02*
X145089524Y-90958247D01*
X145089524Y-90958247D02*
X145184762Y-91005866D01*
X145184762Y-91005866D02*
X145375238Y-91005866D01*
X145375238Y-91005866D02*
X145470476Y-90958247D01*
X145470476Y-90958247D02*
X145518095Y-90910628D01*
X145518095Y-90910628D02*
X145565714Y-90815390D01*
X55205333Y-126597580D02*
X55157714Y-126645200D01*
X55157714Y-126645200D02*
X55014857Y-126692819D01*
X55014857Y-126692819D02*
X54919619Y-126692819D01*
X54919619Y-126692819D02*
X54776762Y-126645200D01*
X54776762Y-126645200D02*
X54681524Y-126549961D01*
X54681524Y-126549961D02*
X54633905Y-126454723D01*
X54633905Y-126454723D02*
X54586286Y-126264247D01*
X54586286Y-126264247D02*
X54586286Y-126121390D01*
X54586286Y-126121390D02*
X54633905Y-125930914D01*
X54633905Y-125930914D02*
X54681524Y-125835676D01*
X54681524Y-125835676D02*
X54776762Y-125740438D01*
X54776762Y-125740438D02*
X54919619Y-125692819D01*
X54919619Y-125692819D02*
X55014857Y-125692819D01*
X55014857Y-125692819D02*
X55157714Y-125740438D01*
X55157714Y-125740438D02*
X55205333Y-125788057D01*
X56157714Y-126692819D02*
X55586286Y-126692819D01*
X55872000Y-126692819D02*
X55872000Y-125692819D01*
X55872000Y-125692819D02*
X55776762Y-125835676D01*
X55776762Y-125835676D02*
X55681524Y-125930914D01*
X55681524Y-125930914D02*
X55586286Y-125978533D01*
X152916095Y-114262819D02*
X153487523Y-114262819D01*
X153201809Y-115262819D02*
X153201809Y-114262819D01*
X153820857Y-115262819D02*
X153820857Y-114262819D01*
X153820857Y-114262819D02*
X154201809Y-114262819D01*
X154201809Y-114262819D02*
X154297047Y-114310438D01*
X154297047Y-114310438D02*
X154344666Y-114358057D01*
X154344666Y-114358057D02*
X154392285Y-114453295D01*
X154392285Y-114453295D02*
X154392285Y-114596152D01*
X154392285Y-114596152D02*
X154344666Y-114691390D01*
X154344666Y-114691390D02*
X154297047Y-114739009D01*
X154297047Y-114739009D02*
X154201809Y-114786628D01*
X154201809Y-114786628D02*
X153820857Y-114786628D01*
X154773238Y-114358057D02*
X154820857Y-114310438D01*
X154820857Y-114310438D02*
X154916095Y-114262819D01*
X154916095Y-114262819D02*
X155154190Y-114262819D01*
X155154190Y-114262819D02*
X155249428Y-114310438D01*
X155249428Y-114310438D02*
X155297047Y-114358057D01*
X155297047Y-114358057D02*
X155344666Y-114453295D01*
X155344666Y-114453295D02*
X155344666Y-114548533D01*
X155344666Y-114548533D02*
X155297047Y-114691390D01*
X155297047Y-114691390D02*
X154725619Y-115262819D01*
X154725619Y-115262819D02*
X155344666Y-115262819D01*
X143510095Y-85306819D02*
X143510095Y-86116342D01*
X143510095Y-86116342D02*
X143557714Y-86211580D01*
X143557714Y-86211580D02*
X143605333Y-86259200D01*
X143605333Y-86259200D02*
X143700571Y-86306819D01*
X143700571Y-86306819D02*
X143891047Y-86306819D01*
X143891047Y-86306819D02*
X143986285Y-86259200D01*
X143986285Y-86259200D02*
X144033904Y-86211580D01*
X144033904Y-86211580D02*
X144081523Y-86116342D01*
X144081523Y-86116342D02*
X144081523Y-85306819D01*
X145081523Y-86306819D02*
X144510095Y-86306819D01*
X144795809Y-86306819D02*
X144795809Y-85306819D01*
X144795809Y-85306819D02*
X144700571Y-85449676D01*
X144700571Y-85449676D02*
X144605333Y-85544914D01*
X144605333Y-85544914D02*
X144510095Y-85592533D01*
X117856095Y-116739200D02*
X117998952Y-116786819D01*
X117998952Y-116786819D02*
X118237047Y-116786819D01*
X118237047Y-116786819D02*
X118332285Y-116739200D01*
X118332285Y-116739200D02*
X118379904Y-116691580D01*
X118379904Y-116691580D02*
X118427523Y-116596342D01*
X118427523Y-116596342D02*
X118427523Y-116501104D01*
X118427523Y-116501104D02*
X118379904Y-116405866D01*
X118379904Y-116405866D02*
X118332285Y-116358247D01*
X118332285Y-116358247D02*
X118237047Y-116310628D01*
X118237047Y-116310628D02*
X118046571Y-116263009D01*
X118046571Y-116263009D02*
X117951333Y-116215390D01*
X117951333Y-116215390D02*
X117903714Y-116167771D01*
X117903714Y-116167771D02*
X117856095Y-116072533D01*
X117856095Y-116072533D02*
X117856095Y-115977295D01*
X117856095Y-115977295D02*
X117903714Y-115882057D01*
X117903714Y-115882057D02*
X117951333Y-115834438D01*
X117951333Y-115834438D02*
X118046571Y-115786819D01*
X118046571Y-115786819D02*
X118284666Y-115786819D01*
X118284666Y-115786819D02*
X118427523Y-115834438D01*
X119379904Y-116786819D02*
X118808476Y-116786819D01*
X119094190Y-116786819D02*
X119094190Y-115786819D01*
X119094190Y-115786819D02*
X118998952Y-115929676D01*
X118998952Y-115929676D02*
X118903714Y-116024914D01*
X118903714Y-116024914D02*
X118808476Y-116072533D01*
X61333142Y-60398819D02*
X60999809Y-59922628D01*
X60761714Y-60398819D02*
X60761714Y-59398819D01*
X60761714Y-59398819D02*
X61142666Y-59398819D01*
X61142666Y-59398819D02*
X61237904Y-59446438D01*
X61237904Y-59446438D02*
X61285523Y-59494057D01*
X61285523Y-59494057D02*
X61333142Y-59589295D01*
X61333142Y-59589295D02*
X61333142Y-59732152D01*
X61333142Y-59732152D02*
X61285523Y-59827390D01*
X61285523Y-59827390D02*
X61237904Y-59875009D01*
X61237904Y-59875009D02*
X61142666Y-59922628D01*
X61142666Y-59922628D02*
X60761714Y-59922628D01*
X62237904Y-59398819D02*
X61761714Y-59398819D01*
X61761714Y-59398819D02*
X61714095Y-59875009D01*
X61714095Y-59875009D02*
X61761714Y-59827390D01*
X61761714Y-59827390D02*
X61856952Y-59779771D01*
X61856952Y-59779771D02*
X62095047Y-59779771D01*
X62095047Y-59779771D02*
X62190285Y-59827390D01*
X62190285Y-59827390D02*
X62237904Y-59875009D01*
X62237904Y-59875009D02*
X62285523Y-59970247D01*
X62285523Y-59970247D02*
X62285523Y-60208342D01*
X62285523Y-60208342D02*
X62237904Y-60303580D01*
X62237904Y-60303580D02*
X62190285Y-60351200D01*
X62190285Y-60351200D02*
X62095047Y-60398819D01*
X62095047Y-60398819D02*
X61856952Y-60398819D01*
X61856952Y-60398819D02*
X61761714Y-60351200D01*
X61761714Y-60351200D02*
X61714095Y-60303580D01*
X63237904Y-60398819D02*
X62666476Y-60398819D01*
X62952190Y-60398819D02*
X62952190Y-59398819D01*
X62952190Y-59398819D02*
X62856952Y-59541676D01*
X62856952Y-59541676D02*
X62761714Y-59636914D01*
X62761714Y-59636914D02*
X62666476Y-59684533D01*
D12*
%TO.C,TP4*%
X106098000Y-108712000D02*
G75*
G03*
X106098000Y-108712000I-1450000J0D01*
G01*
%TO.C,TP1*%
X158930000Y-88900000D02*
G75*
G03*
X158930000Y-88900000I-1450000J0D01*
G01*
%TO.C,TP3*%
X158930000Y-111252000D02*
G75*
G03*
X158930000Y-111252000I-1450000J0D01*
G01*
%TO.C,TP5*%
X106098000Y-112776000D02*
G75*
G03*
X106098000Y-112776000I-1450000J0D01*
G01*
%TO.C,TP0*%
X158930000Y-83820000D02*
G75*
G03*
X158930000Y-83820000I-1450000J0D01*
G01*
%TO.C,K1*%
X71130000Y-113765000D02*
X68030000Y-113765000D01*
X66640000Y-113765000D02*
X66010000Y-113765000D01*
X66010000Y-114605000D02*
X66010000Y-113765000D01*
X74930000Y-117375000D02*
X74930000Y-118645000D01*
X73660000Y-117375000D02*
X73660000Y-118645000D01*
X72390000Y-117375000D02*
X71120000Y-119915000D01*
X68580000Y-117375000D02*
X73660000Y-117375000D01*
X74930000Y-118645000D02*
X73660000Y-118645000D01*
X73660000Y-118645000D02*
X73660000Y-119915000D01*
X68580000Y-118645000D02*
X67330000Y-118645000D01*
X67330000Y-118645000D02*
X67330000Y-117375000D01*
X73660000Y-119915000D02*
X68580000Y-119915000D01*
X68580000Y-119915000D02*
X68580000Y-117375000D01*
X66010000Y-124395000D02*
X66010000Y-115264995D01*
X66010000Y-132095000D02*
X66010000Y-125865000D01*
X76250000Y-134005000D02*
X76250000Y-116044998D01*
X76250000Y-134005000D02*
X68290000Y-134005000D01*
X66010000Y-134005000D02*
X66010000Y-133565000D01*
X66010000Y-134005000D02*
X66380000Y-134005000D01*
%TO.C,K2*%
X82560000Y-113765000D02*
X79460000Y-113765000D01*
X78070000Y-113765000D02*
X77440000Y-113765000D01*
X77440000Y-114605000D02*
X77440000Y-113765000D01*
X86360000Y-117375000D02*
X86360000Y-118645000D01*
X85090000Y-117375000D02*
X85090000Y-118645000D01*
X83820000Y-117375000D02*
X82550000Y-119915000D01*
X80010000Y-117375000D02*
X85090000Y-117375000D01*
X86360000Y-118645000D02*
X85090000Y-118645000D01*
X85090000Y-118645000D02*
X85090000Y-119915000D01*
X80010000Y-118645000D02*
X78760000Y-118645000D01*
X78760000Y-118645000D02*
X78760000Y-117375000D01*
X85090000Y-119915000D02*
X80010000Y-119915000D01*
X80010000Y-119915000D02*
X80010000Y-117375000D01*
X77440000Y-124395000D02*
X77440000Y-115264995D01*
X77440000Y-132095000D02*
X77440000Y-125865000D01*
X87680000Y-134005000D02*
X87680000Y-116044998D01*
X87680000Y-134005000D02*
X79720000Y-134005000D01*
X77440000Y-134005000D02*
X77440000Y-133565000D01*
X77440000Y-134005000D02*
X77810000Y-134005000D01*
%TO.C,U2*%
X43920000Y-121706000D02*
X59810000Y-121706000D01*
X43920000Y-121706000D02*
X43920000Y-111466000D01*
X59810000Y-121706000D02*
X59810000Y-111466000D01*
X59810000Y-119126000D02*
X62350000Y-119126000D01*
X59810000Y-116586000D02*
X62350000Y-116586000D01*
X59810000Y-114046000D02*
X62350000Y-114046000D01*
X43920000Y-111466000D02*
X59810000Y-111466000D01*
%TO.C,J3*%
X154100000Y-140300000D02*
X139100000Y-140300000D01*
X154100000Y-125300000D02*
X154100000Y-140300000D01*
X146600000Y-140100000D02*
X147600000Y-139100000D01*
X146600000Y-140100000D02*
X145600000Y-139100000D01*
X139100000Y-140300000D02*
X139100000Y-125300000D01*
X139100000Y-125300000D02*
X154100000Y-125300000D01*
%TO.C,J1*%
X49950000Y-136490000D02*
X49950000Y-148710000D01*
X49950000Y-145712000D02*
X92810000Y-145712000D01*
X49950000Y-147210000D02*
X49950000Y-145410000D01*
X49950000Y-148710000D02*
X92810000Y-148710000D01*
X52600000Y-148710000D02*
X54600000Y-148710000D01*
X52850000Y-147210000D02*
X52600000Y-148710000D01*
X53300000Y-135690000D02*
X53900000Y-135690000D01*
X53600000Y-136290000D02*
X53300000Y-135690000D01*
X53900000Y-135690000D02*
X53600000Y-136290000D01*
X54350000Y-147210000D02*
X52850000Y-147210000D01*
X54600000Y-148710000D02*
X54350000Y-147210000D01*
X57680000Y-148710000D02*
X59680000Y-148710000D01*
X57930000Y-147210000D02*
X57680000Y-148710000D01*
X59430000Y-147210000D02*
X57930000Y-147210000D01*
X59680000Y-148710000D02*
X59430000Y-147210000D01*
X62760000Y-148710000D02*
X64760000Y-148710000D01*
X63010000Y-147210000D02*
X62760000Y-148710000D01*
X64510000Y-147210000D02*
X63010000Y-147210000D01*
X64760000Y-148710000D02*
X64510000Y-147210000D01*
X67840000Y-148710000D02*
X69840000Y-148710000D01*
X68090000Y-147210000D02*
X67840000Y-148710000D01*
X69590000Y-147210000D02*
X68090000Y-147210000D01*
X69840000Y-148710000D02*
X69590000Y-147210000D01*
X72920000Y-148710000D02*
X74920000Y-148710000D01*
X73170000Y-147210000D02*
X72920000Y-148710000D01*
X74670000Y-147210000D02*
X73170000Y-147210000D01*
X74920000Y-148710000D02*
X74670000Y-147210000D01*
X78000000Y-148710000D02*
X80000000Y-148710000D01*
X78250000Y-147210000D02*
X78000000Y-148710000D01*
X79750000Y-147210000D02*
X78250000Y-147210000D01*
X80000000Y-148710000D02*
X79750000Y-147210000D01*
X83080000Y-148710000D02*
X85080000Y-148710000D01*
X83330000Y-147210000D02*
X83080000Y-148710000D01*
X84830000Y-147210000D02*
X83330000Y-147210000D01*
X85080000Y-148710000D02*
X84830000Y-147210000D01*
X88160000Y-148710000D02*
X90160000Y-148710000D01*
X88410000Y-147210000D02*
X88160000Y-148710000D01*
X89910000Y-147210000D02*
X88410000Y-147210000D01*
X90160000Y-148710000D02*
X89910000Y-147210000D01*
X92810000Y-136490000D02*
X49950000Y-136490000D01*
X92810000Y-145410000D02*
X92810000Y-147210000D01*
X92810000Y-147210000D02*
X49950000Y-147210000D01*
X92810000Y-148710000D02*
X92810000Y-136490000D01*
%TO.C,J2*%
X93950000Y-136490000D02*
X93950000Y-148710000D01*
X93950000Y-145712000D02*
X136810000Y-145712000D01*
X93950000Y-147210000D02*
X93950000Y-145410000D01*
X93950000Y-148710000D02*
X136810000Y-148710000D01*
X96600000Y-148710000D02*
X98600000Y-148710000D01*
X96850000Y-147210000D02*
X96600000Y-148710000D01*
X97300000Y-135690000D02*
X97900000Y-135690000D01*
X97600000Y-136290000D02*
X97300000Y-135690000D01*
X97900000Y-135690000D02*
X97600000Y-136290000D01*
X98350000Y-147210000D02*
X96850000Y-147210000D01*
X98600000Y-148710000D02*
X98350000Y-147210000D01*
X101680000Y-148710000D02*
X103680000Y-148710000D01*
X101930000Y-147210000D02*
X101680000Y-148710000D01*
X103430000Y-147210000D02*
X101930000Y-147210000D01*
X103680000Y-148710000D02*
X103430000Y-147210000D01*
X106760000Y-148710000D02*
X108760000Y-148710000D01*
X107010000Y-147210000D02*
X106760000Y-148710000D01*
X108510000Y-147210000D02*
X107010000Y-147210000D01*
X108760000Y-148710000D02*
X108510000Y-147210000D01*
X111840000Y-148710000D02*
X113840000Y-148710000D01*
X112090000Y-147210000D02*
X111840000Y-148710000D01*
X113590000Y-147210000D02*
X112090000Y-147210000D01*
X113840000Y-148710000D02*
X113590000Y-147210000D01*
X116920000Y-148710000D02*
X118920000Y-148710000D01*
X117170000Y-147210000D02*
X116920000Y-148710000D01*
X118670000Y-147210000D02*
X117170000Y-147210000D01*
X118920000Y-148710000D02*
X118670000Y-147210000D01*
X122000000Y-148710000D02*
X124000000Y-148710000D01*
X122250000Y-147210000D02*
X122000000Y-148710000D01*
X123750000Y-147210000D02*
X122250000Y-147210000D01*
X124000000Y-148710000D02*
X123750000Y-147210000D01*
X127080000Y-148710000D02*
X129080000Y-148710000D01*
X127330000Y-147210000D02*
X127080000Y-148710000D01*
X128830000Y-147210000D02*
X127330000Y-147210000D01*
X129080000Y-148710000D02*
X128830000Y-147210000D01*
X132160000Y-148710000D02*
X134160000Y-148710000D01*
X132410000Y-147210000D02*
X132160000Y-148710000D01*
X133910000Y-147210000D02*
X132410000Y-147210000D01*
X134160000Y-148710000D02*
X133910000Y-147210000D01*
X136810000Y-136490000D02*
X93950000Y-136490000D01*
X136810000Y-145410000D02*
X136810000Y-147210000D01*
X136810000Y-147210000D02*
X93950000Y-147210000D01*
X136810000Y-148710000D02*
X136810000Y-136490000D01*
%TO.C,DS1*%
X42460000Y-70460000D02*
X42460000Y-106740000D01*
X42470000Y-70460000D02*
X77600000Y-70460000D01*
%TO.C,C8*%
X157887354Y-96706000D02*
X157257354Y-96706000D01*
X157572354Y-97021000D02*
X157572354Y-96391000D01*
X154387113Y-98097000D02*
X154387113Y-91637000D01*
X154347113Y-98097000D02*
X154347113Y-91637000D01*
X154307113Y-98097000D02*
X154307113Y-91637000D01*
X154267113Y-98095000D02*
X154267113Y-91639000D01*
X154227113Y-98094000D02*
X154227113Y-91640000D01*
X154187113Y-98091000D02*
X154187113Y-91643000D01*
X154147113Y-98089000D02*
X154147113Y-95907000D01*
X154147113Y-93827000D02*
X154147113Y-91645000D01*
X154107113Y-98085000D02*
X154107113Y-95907000D01*
X154107113Y-93827000D02*
X154107113Y-91649000D01*
X154067113Y-98082000D02*
X154067113Y-95907000D01*
X154067113Y-93827000D02*
X154067113Y-91652000D01*
X154027113Y-98078000D02*
X154027113Y-95907000D01*
X154027113Y-93827000D02*
X154027113Y-91656000D01*
X153987113Y-98073000D02*
X153987113Y-95907000D01*
X153987113Y-93827000D02*
X153987113Y-91661000D01*
X153947113Y-98068000D02*
X153947113Y-95907000D01*
X153947113Y-93827000D02*
X153947113Y-91666000D01*
X153907113Y-98062000D02*
X153907113Y-95907000D01*
X153907113Y-93827000D02*
X153907113Y-91672000D01*
X153867113Y-98056000D02*
X153867113Y-95907000D01*
X153867113Y-93827000D02*
X153867113Y-91678000D01*
X153827113Y-98049000D02*
X153827113Y-95907000D01*
X153827113Y-93827000D02*
X153827113Y-91685000D01*
X153787113Y-98042000D02*
X153787113Y-95907000D01*
X153787113Y-93827000D02*
X153787113Y-91692000D01*
X153747113Y-98034000D02*
X153747113Y-95907000D01*
X153747113Y-93827000D02*
X153747113Y-91700000D01*
X153707113Y-98026000D02*
X153707113Y-95907000D01*
X153707113Y-93827000D02*
X153707113Y-91708000D01*
X153666113Y-98017000D02*
X153666113Y-95907000D01*
X153666113Y-93827000D02*
X153666113Y-91717000D01*
X153626113Y-98008000D02*
X153626113Y-95907000D01*
X153626113Y-93827000D02*
X153626113Y-91726000D01*
X153586113Y-97998000D02*
X153586113Y-95907000D01*
X153586113Y-93827000D02*
X153586113Y-91736000D01*
X153546113Y-97988000D02*
X153546113Y-95907000D01*
X153546113Y-93827000D02*
X153546113Y-91746000D01*
X153506113Y-97977000D02*
X153506113Y-95907000D01*
X153506113Y-93827000D02*
X153506113Y-91757000D01*
X153466113Y-97965000D02*
X153466113Y-95907000D01*
X153466113Y-93827000D02*
X153466113Y-91769000D01*
X153426113Y-97953000D02*
X153426113Y-95907000D01*
X153426113Y-93827000D02*
X153426113Y-91781000D01*
X153386113Y-97941000D02*
X153386113Y-95907000D01*
X153386113Y-93827000D02*
X153386113Y-91793000D01*
X153346113Y-97928000D02*
X153346113Y-95907000D01*
X153346113Y-93827000D02*
X153346113Y-91806000D01*
X153306113Y-97914000D02*
X153306113Y-95907000D01*
X153306113Y-93827000D02*
X153306113Y-91820000D01*
X153266113Y-97900000D02*
X153266113Y-95907000D01*
X153266113Y-93827000D02*
X153266113Y-91834000D01*
X153226113Y-97885000D02*
X153226113Y-95907000D01*
X153226113Y-93827000D02*
X153226113Y-91849000D01*
X153186113Y-97869000D02*
X153186113Y-95907000D01*
X153186113Y-93827000D02*
X153186113Y-91865000D01*
X153146113Y-97853000D02*
X153146113Y-95907000D01*
X153146113Y-93827000D02*
X153146113Y-91881000D01*
X153106113Y-97837000D02*
X153106113Y-95907000D01*
X153106113Y-93827000D02*
X153106113Y-91897000D01*
X153066113Y-97819000D02*
X153066113Y-95907000D01*
X153066113Y-93827000D02*
X153066113Y-91915000D01*
X153026113Y-97801000D02*
X153026113Y-95907000D01*
X153026113Y-93827000D02*
X153026113Y-91933000D01*
X152986113Y-97783000D02*
X152986113Y-95907000D01*
X152986113Y-93827000D02*
X152986113Y-91951000D01*
X152946113Y-97763000D02*
X152946113Y-95907000D01*
X152946113Y-93827000D02*
X152946113Y-91971000D01*
X152906113Y-97743000D02*
X152906113Y-95907000D01*
X152906113Y-93827000D02*
X152906113Y-91991000D01*
X152866113Y-97723000D02*
X152866113Y-95907000D01*
X152866113Y-93827000D02*
X152866113Y-92011000D01*
X152826113Y-97701000D02*
X152826113Y-95907000D01*
X152826113Y-93827000D02*
X152826113Y-92033000D01*
X152786113Y-97679000D02*
X152786113Y-95907000D01*
X152786113Y-93827000D02*
X152786113Y-92055000D01*
X152746113Y-97657000D02*
X152746113Y-95907000D01*
X152746113Y-93827000D02*
X152746113Y-92077000D01*
X152706113Y-97633000D02*
X152706113Y-95907000D01*
X152706113Y-93827000D02*
X152706113Y-92101000D01*
X152666113Y-97609000D02*
X152666113Y-95907000D01*
X152666113Y-93827000D02*
X152666113Y-92125000D01*
X152626113Y-97583000D02*
X152626113Y-95907000D01*
X152626113Y-93827000D02*
X152626113Y-92151000D01*
X152586113Y-97557000D02*
X152586113Y-95907000D01*
X152586113Y-93827000D02*
X152586113Y-92177000D01*
X152546113Y-97531000D02*
X152546113Y-95907000D01*
X152546113Y-93827000D02*
X152546113Y-92203000D01*
X152506113Y-97503000D02*
X152506113Y-95907000D01*
X152506113Y-93827000D02*
X152506113Y-92231000D01*
X152466113Y-97474000D02*
X152466113Y-95907000D01*
X152466113Y-93827000D02*
X152466113Y-92260000D01*
X152426113Y-97445000D02*
X152426113Y-95907000D01*
X152426113Y-93827000D02*
X152426113Y-92289000D01*
X152386113Y-97415000D02*
X152386113Y-95907000D01*
X152386113Y-93827000D02*
X152386113Y-92319000D01*
X152346113Y-97383000D02*
X152346113Y-95907000D01*
X152346113Y-93827000D02*
X152346113Y-92351000D01*
X152306113Y-97351000D02*
X152306113Y-95907000D01*
X152306113Y-93827000D02*
X152306113Y-92383000D01*
X152266113Y-97317000D02*
X152266113Y-95907000D01*
X152266113Y-93827000D02*
X152266113Y-92417000D01*
X152226113Y-97283000D02*
X152226113Y-95907000D01*
X152226113Y-93827000D02*
X152226113Y-92451000D01*
X152186113Y-97247000D02*
X152186113Y-95907000D01*
X152186113Y-93827000D02*
X152186113Y-92487000D01*
X152146113Y-97210000D02*
X152146113Y-95907000D01*
X152146113Y-93827000D02*
X152146113Y-92524000D01*
X152106113Y-97172000D02*
X152106113Y-95907000D01*
X152106113Y-93827000D02*
X152106113Y-92562000D01*
X152066113Y-97132000D02*
X152066113Y-92602000D01*
X152026113Y-97091000D02*
X152026113Y-92643000D01*
X151986113Y-97049000D02*
X151986113Y-92685000D01*
X151946113Y-97004000D02*
X151946113Y-92730000D01*
X151906113Y-96959000D02*
X151906113Y-92775000D01*
X151866113Y-96911000D02*
X151866113Y-92823000D01*
X151826113Y-96862000D02*
X151826113Y-92872000D01*
X151786113Y-96811000D02*
X151786113Y-92923000D01*
X151746113Y-96757000D02*
X151746113Y-92977000D01*
X151706113Y-96701000D02*
X151706113Y-93033000D01*
X151666113Y-96643000D02*
X151666113Y-93091000D01*
X151626113Y-96581000D02*
X151626113Y-93153000D01*
X151586113Y-96517000D02*
X151586113Y-93217000D01*
X151546113Y-96448000D02*
X151546113Y-93286000D01*
X151506113Y-96376000D02*
X151506113Y-93358000D01*
X151466113Y-96299000D02*
X151466113Y-93435000D01*
X151426113Y-96217000D02*
X151426113Y-93517000D01*
X151386113Y-96129000D02*
X151386113Y-93605000D01*
X151346113Y-96032000D02*
X151346113Y-93702000D01*
X151306113Y-95926000D02*
X151306113Y-93808000D01*
X151266113Y-95807000D02*
X151266113Y-93927000D01*
X151226113Y-95669000D02*
X151226113Y-94065000D01*
X151186113Y-95500000D02*
X151186113Y-94234000D01*
X151146113Y-95269000D02*
X151146113Y-94465000D01*
X157657113Y-94867000D02*
G75*
G03*
X157657113Y-94867000I-3270000J0D01*
G01*
%TO.C,J6*%
X116986000Y-63194000D02*
X116986000Y-59194000D01*
X116696000Y-64224000D02*
X116696000Y-58204000D01*
X116696000Y-58204000D02*
X108856000Y-58204000D01*
X116116000Y-64224000D02*
X116116000Y-63624000D01*
X116116000Y-63624000D02*
X114516000Y-63624000D01*
X115316000Y-59204000D02*
X115066000Y-59734000D01*
X115316000Y-59204000D02*
X110236000Y-59204000D01*
X115316000Y-58204000D02*
X115316000Y-59204000D01*
X115066000Y-59734000D02*
X110486000Y-59734000D01*
X115066000Y-58204000D02*
X115066000Y-59204000D01*
X114516000Y-63624000D02*
X114516000Y-64224000D01*
X113576000Y-64224000D02*
X113576000Y-63624000D01*
X113576000Y-63624000D02*
X111976000Y-63624000D01*
X111976000Y-63624000D02*
X111976000Y-64224000D01*
X111036000Y-64224000D02*
X111036000Y-63624000D01*
X111036000Y-63624000D02*
X109436000Y-63624000D01*
X110486000Y-59734000D02*
X110236000Y-59204000D01*
X110486000Y-58204000D02*
X110486000Y-59204000D01*
X110236000Y-59204000D02*
X110236000Y-58204000D01*
X109436000Y-63624000D02*
X109436000Y-64224000D01*
X108856000Y-64224000D02*
X116696000Y-64224000D01*
X108856000Y-58204000D02*
X108856000Y-64224000D01*
%TO.C,J5*%
X154992000Y-74822000D02*
X158992000Y-74822000D01*
X153962000Y-74532000D02*
X159982000Y-74532000D01*
X159982000Y-74532000D02*
X159982000Y-64152000D01*
X153962000Y-73952000D02*
X154562000Y-73952000D01*
X154562000Y-73952000D02*
X154562000Y-72352000D01*
X158982000Y-73152000D02*
X158452000Y-72902000D01*
X158982000Y-73152000D02*
X158982000Y-65532000D01*
X159982000Y-73152000D02*
X158982000Y-73152000D01*
X158452000Y-72902000D02*
X158452000Y-65782000D01*
X159982000Y-72902000D02*
X158982000Y-72902000D01*
X154562000Y-72352000D02*
X153962000Y-72352000D01*
X153962000Y-71412000D02*
X154562000Y-71412000D01*
X154562000Y-71412000D02*
X154562000Y-69812000D01*
X154562000Y-69812000D02*
X153962000Y-69812000D01*
X153962000Y-68872000D02*
X154562000Y-68872000D01*
X154562000Y-68872000D02*
X154562000Y-67272000D01*
X154562000Y-67272000D02*
X153962000Y-67272000D01*
X153962000Y-66332000D02*
X154562000Y-66332000D01*
X154562000Y-66332000D02*
X154562000Y-64732000D01*
X158452000Y-65782000D02*
X158982000Y-65532000D01*
X159982000Y-65782000D02*
X158982000Y-65782000D01*
X158982000Y-65532000D02*
X159982000Y-65532000D01*
X154562000Y-64732000D02*
X153962000Y-64732000D01*
X153962000Y-64152000D02*
X153962000Y-74532000D01*
X159982000Y-64152000D02*
X153962000Y-64152000D01*
%TO.C,C2*%
X51643000Y-125208677D02*
X51643000Y-126208677D01*
X52143000Y-125708677D02*
X51143000Y-125708677D01*
X53848000Y-130688323D02*
X43688000Y-130688323D01*
X53848000Y-130728323D02*
X43688000Y-130728323D01*
X53848000Y-130768323D02*
X43688000Y-130768323D01*
X53847000Y-130808323D02*
X43689000Y-130808323D01*
X53846000Y-130848323D02*
X43690000Y-130848323D01*
X53845000Y-130888323D02*
X43691000Y-130888323D01*
X53843000Y-130928323D02*
X43693000Y-130928323D01*
X53841000Y-130968323D02*
X43695000Y-130968323D01*
X53838000Y-131008323D02*
X43698000Y-131008323D01*
X53836000Y-131048323D02*
X43700000Y-131048323D01*
X53833000Y-131088323D02*
X43703000Y-131088323D01*
X53830000Y-131128323D02*
X43706000Y-131128323D01*
X53826000Y-131168323D02*
X43710000Y-131168323D01*
X53822000Y-131208323D02*
X43714000Y-131208323D01*
X53818000Y-131248323D02*
X43718000Y-131248323D01*
X53813000Y-131288323D02*
X43723000Y-131288323D01*
X53808000Y-131328323D02*
X43728000Y-131328323D01*
X53803000Y-131368323D02*
X43733000Y-131368323D01*
X53798000Y-131409323D02*
X43738000Y-131409323D01*
X53792000Y-131449323D02*
X43744000Y-131449323D01*
X53786000Y-131489323D02*
X43750000Y-131489323D01*
X53779000Y-131529323D02*
X43757000Y-131529323D01*
X53772000Y-131569323D02*
X43764000Y-131569323D01*
X53765000Y-131609323D02*
X43771000Y-131609323D01*
X53758000Y-131649323D02*
X43778000Y-131649323D01*
X53750000Y-131689323D02*
X43786000Y-131689323D01*
X53742000Y-131729323D02*
X43794000Y-131729323D01*
X53733000Y-131769323D02*
X43803000Y-131769323D01*
X53724000Y-131809323D02*
X43812000Y-131809323D01*
X53715000Y-131849323D02*
X43821000Y-131849323D01*
X53706000Y-131889323D02*
X43830000Y-131889323D01*
X53696000Y-131929323D02*
X43840000Y-131929323D01*
X53686000Y-131969323D02*
X50009000Y-131969323D01*
X47527000Y-131969323D02*
X43850000Y-131969323D01*
X53675000Y-132009323D02*
X50009000Y-132009323D01*
X47527000Y-132009323D02*
X43861000Y-132009323D01*
X53665000Y-132049323D02*
X50009000Y-132049323D01*
X47527000Y-132049323D02*
X43871000Y-132049323D01*
X53653000Y-132089323D02*
X50009000Y-132089323D01*
X47527000Y-132089323D02*
X43883000Y-132089323D01*
X53642000Y-132129323D02*
X50009000Y-132129323D01*
X47527000Y-132129323D02*
X43894000Y-132129323D01*
X53630000Y-132169323D02*
X50009000Y-132169323D01*
X47527000Y-132169323D02*
X43906000Y-132169323D01*
X53618000Y-132209323D02*
X50009000Y-132209323D01*
X47527000Y-132209323D02*
X43918000Y-132209323D01*
X53605000Y-132249323D02*
X50009000Y-132249323D01*
X47527000Y-132249323D02*
X43931000Y-132249323D01*
X53592000Y-132289323D02*
X50009000Y-132289323D01*
X47527000Y-132289323D02*
X43944000Y-132289323D01*
X53579000Y-132329323D02*
X50009000Y-132329323D01*
X47527000Y-132329323D02*
X43957000Y-132329323D01*
X53565000Y-132369323D02*
X50009000Y-132369323D01*
X47527000Y-132369323D02*
X43971000Y-132369323D01*
X53551000Y-132409323D02*
X50009000Y-132409323D01*
X47527000Y-132409323D02*
X43985000Y-132409323D01*
X53536000Y-132449323D02*
X50009000Y-132449323D01*
X47527000Y-132449323D02*
X44000000Y-132449323D01*
X53522000Y-132489323D02*
X50009000Y-132489323D01*
X47527000Y-132489323D02*
X44014000Y-132489323D01*
X53506000Y-132529323D02*
X50009000Y-132529323D01*
X47527000Y-132529323D02*
X44030000Y-132529323D01*
X53491000Y-132569323D02*
X50009000Y-132569323D01*
X47527000Y-132569323D02*
X44045000Y-132569323D01*
X53475000Y-132609323D02*
X50009000Y-132609323D01*
X47527000Y-132609323D02*
X44061000Y-132609323D01*
X53458000Y-132649323D02*
X50009000Y-132649323D01*
X47527000Y-132649323D02*
X44078000Y-132649323D01*
X53442000Y-132689323D02*
X50009000Y-132689323D01*
X47527000Y-132689323D02*
X44094000Y-132689323D01*
X53425000Y-132729323D02*
X50009000Y-132729323D01*
X47527000Y-132729323D02*
X44111000Y-132729323D01*
X53407000Y-132769323D02*
X50009000Y-132769323D01*
X47527000Y-132769323D02*
X44129000Y-132769323D01*
X53389000Y-132809323D02*
X50009000Y-132809323D01*
X47527000Y-132809323D02*
X44147000Y-132809323D01*
X53371000Y-132849323D02*
X50009000Y-132849323D01*
X47527000Y-132849323D02*
X44165000Y-132849323D01*
X53352000Y-132889323D02*
X50009000Y-132889323D01*
X47527000Y-132889323D02*
X44184000Y-132889323D01*
X53332000Y-132929323D02*
X50009000Y-132929323D01*
X47527000Y-132929323D02*
X44204000Y-132929323D01*
X53313000Y-132969323D02*
X50009000Y-132969323D01*
X47527000Y-132969323D02*
X44223000Y-132969323D01*
X53293000Y-133009323D02*
X50009000Y-133009323D01*
X47527000Y-133009323D02*
X44243000Y-133009323D01*
X53272000Y-133049323D02*
X50009000Y-133049323D01*
X47527000Y-133049323D02*
X44264000Y-133049323D01*
X53251000Y-133089323D02*
X50009000Y-133089323D01*
X47527000Y-133089323D02*
X44285000Y-133089323D01*
X53230000Y-133129323D02*
X50009000Y-133129323D01*
X47527000Y-133129323D02*
X44306000Y-133129323D01*
X53208000Y-133169323D02*
X50009000Y-133169323D01*
X47527000Y-133169323D02*
X44328000Y-133169323D01*
X53185000Y-133209323D02*
X50009000Y-133209323D01*
X47527000Y-133209323D02*
X44351000Y-133209323D01*
X53163000Y-133249323D02*
X50009000Y-133249323D01*
X47527000Y-133249323D02*
X44373000Y-133249323D01*
X53139000Y-133289323D02*
X50009000Y-133289323D01*
X47527000Y-133289323D02*
X44397000Y-133289323D01*
X53115000Y-133329323D02*
X50009000Y-133329323D01*
X47527000Y-133329323D02*
X44421000Y-133329323D01*
X53091000Y-133369323D02*
X50009000Y-133369323D01*
X47527000Y-133369323D02*
X44445000Y-133369323D01*
X53066000Y-133409323D02*
X50009000Y-133409323D01*
X47527000Y-133409323D02*
X44470000Y-133409323D01*
X53041000Y-133449323D02*
X50009000Y-133449323D01*
X47527000Y-133449323D02*
X44495000Y-133449323D01*
X53015000Y-133489323D02*
X50009000Y-133489323D01*
X47527000Y-133489323D02*
X44521000Y-133489323D01*
X52989000Y-133529323D02*
X50009000Y-133529323D01*
X47527000Y-133529323D02*
X44547000Y-133529323D01*
X52962000Y-133569323D02*
X50009000Y-133569323D01*
X47527000Y-133569323D02*
X44574000Y-133569323D01*
X52934000Y-133609323D02*
X50009000Y-133609323D01*
X47527000Y-133609323D02*
X44602000Y-133609323D01*
X52906000Y-133649323D02*
X50009000Y-133649323D01*
X47527000Y-133649323D02*
X44630000Y-133649323D01*
X52878000Y-133689323D02*
X50009000Y-133689323D01*
X47527000Y-133689323D02*
X44658000Y-133689323D01*
X52848000Y-133729323D02*
X50009000Y-133729323D01*
X47527000Y-133729323D02*
X44688000Y-133729323D01*
X52818000Y-133769323D02*
X50009000Y-133769323D01*
X47527000Y-133769323D02*
X44718000Y-133769323D01*
X52788000Y-133809323D02*
X50009000Y-133809323D01*
X47527000Y-133809323D02*
X44748000Y-133809323D01*
X52757000Y-133849323D02*
X50009000Y-133849323D01*
X47527000Y-133849323D02*
X44779000Y-133849323D01*
X52725000Y-133889323D02*
X50009000Y-133889323D01*
X47527000Y-133889323D02*
X44811000Y-133889323D01*
X52693000Y-133929323D02*
X50009000Y-133929323D01*
X47527000Y-133929323D02*
X44843000Y-133929323D01*
X52660000Y-133969323D02*
X50009000Y-133969323D01*
X47527000Y-133969323D02*
X44876000Y-133969323D01*
X52626000Y-134009323D02*
X50009000Y-134009323D01*
X47527000Y-134009323D02*
X44910000Y-134009323D01*
X52592000Y-134049323D02*
X50009000Y-134049323D01*
X47527000Y-134049323D02*
X44944000Y-134049323D01*
X52557000Y-134089323D02*
X50009000Y-134089323D01*
X47527000Y-134089323D02*
X44979000Y-134089323D01*
X52521000Y-134129323D02*
X50009000Y-134129323D01*
X47527000Y-134129323D02*
X45015000Y-134129323D01*
X52484000Y-134169323D02*
X50009000Y-134169323D01*
X47527000Y-134169323D02*
X45052000Y-134169323D01*
X52447000Y-134209323D02*
X50009000Y-134209323D01*
X47527000Y-134209323D02*
X45089000Y-134209323D01*
X52408000Y-134249323D02*
X50009000Y-134249323D01*
X47527000Y-134249323D02*
X45128000Y-134249323D01*
X52369000Y-134289323D02*
X50009000Y-134289323D01*
X47527000Y-134289323D02*
X45167000Y-134289323D01*
X52329000Y-134329323D02*
X50009000Y-134329323D01*
X47527000Y-134329323D02*
X45207000Y-134329323D01*
X52288000Y-134369323D02*
X50009000Y-134369323D01*
X47527000Y-134369323D02*
X45248000Y-134369323D01*
X52246000Y-134409323D02*
X50009000Y-134409323D01*
X47527000Y-134409323D02*
X45290000Y-134409323D01*
X52204000Y-134449323D02*
X45332000Y-134449323D01*
X52160000Y-134489323D02*
X45376000Y-134489323D01*
X52115000Y-134529323D02*
X45421000Y-134529323D01*
X52069000Y-134569323D02*
X45467000Y-134569323D01*
X52022000Y-134609323D02*
X45514000Y-134609323D01*
X51974000Y-134649323D02*
X45562000Y-134649323D01*
X51924000Y-134689323D02*
X45612000Y-134689323D01*
X51874000Y-134729323D02*
X45662000Y-134729323D01*
X51822000Y-134769323D02*
X45714000Y-134769323D01*
X51768000Y-134809323D02*
X45768000Y-134809323D01*
X51713000Y-134849323D02*
X45823000Y-134849323D01*
X51657000Y-134889323D02*
X45879000Y-134889323D01*
X51598000Y-134929323D02*
X45938000Y-134929323D01*
X51538000Y-134969323D02*
X45998000Y-134969323D01*
X51477000Y-135009323D02*
X46059000Y-135009323D01*
X51413000Y-135049323D02*
X46123000Y-135049323D01*
X51347000Y-135089323D02*
X46189000Y-135089323D01*
X51278000Y-135129323D02*
X46258000Y-135129323D01*
X51207000Y-135169323D02*
X46329000Y-135169323D01*
X51133000Y-135209323D02*
X46403000Y-135209323D01*
X51057000Y-135249323D02*
X46479000Y-135249323D01*
X50977000Y-135289323D02*
X46559000Y-135289323D01*
X50893000Y-135329323D02*
X46643000Y-135329323D01*
X50805000Y-135369323D02*
X46731000Y-135369323D01*
X50712000Y-135409323D02*
X46824000Y-135409323D01*
X50614000Y-135449323D02*
X46922000Y-135449323D01*
X50510000Y-135489323D02*
X47026000Y-135489323D01*
X50398000Y-135529323D02*
X47138000Y-135529323D01*
X50278000Y-135569323D02*
X47258000Y-135569323D01*
X50146000Y-135609323D02*
X47390000Y-135609323D01*
X49998000Y-135649323D02*
X47538000Y-135649323D01*
X49830000Y-135689323D02*
X47706000Y-135689323D01*
X49630000Y-135729323D02*
X47906000Y-135729323D01*
X49367000Y-135769323D02*
X48169000Y-135769323D01*
X53888000Y-130688323D02*
G75*
G03*
X53888000Y-130688323I-5120000J0D01*
G01*
%TO.C,C3*%
X152015380Y-76901000D02*
X152645380Y-76901000D01*
X152330380Y-76586000D02*
X152330380Y-77216000D01*
X155515621Y-75510000D02*
X155515621Y-81970000D01*
X155555621Y-75510000D02*
X155555621Y-81970000D01*
X155595621Y-75510000D02*
X155595621Y-81970000D01*
X155635621Y-75512000D02*
X155635621Y-81968000D01*
X155675621Y-75513000D02*
X155675621Y-81967000D01*
X155715621Y-75516000D02*
X155715621Y-81964000D01*
X155755621Y-75518000D02*
X155755621Y-77700000D01*
X155755621Y-79780000D02*
X155755621Y-81962000D01*
X155795621Y-75522000D02*
X155795621Y-77700000D01*
X155795621Y-79780000D02*
X155795621Y-81958000D01*
X155835621Y-75525000D02*
X155835621Y-77700000D01*
X155835621Y-79780000D02*
X155835621Y-81955000D01*
X155875621Y-75529000D02*
X155875621Y-77700000D01*
X155875621Y-79780000D02*
X155875621Y-81951000D01*
X155915621Y-75534000D02*
X155915621Y-77700000D01*
X155915621Y-79780000D02*
X155915621Y-81946000D01*
X155955621Y-75539000D02*
X155955621Y-77700000D01*
X155955621Y-79780000D02*
X155955621Y-81941000D01*
X155995621Y-75545000D02*
X155995621Y-77700000D01*
X155995621Y-79780000D02*
X155995621Y-81935000D01*
X156035621Y-75551000D02*
X156035621Y-77700000D01*
X156035621Y-79780000D02*
X156035621Y-81929000D01*
X156075621Y-75558000D02*
X156075621Y-77700000D01*
X156075621Y-79780000D02*
X156075621Y-81922000D01*
X156115621Y-75565000D02*
X156115621Y-77700000D01*
X156115621Y-79780000D02*
X156115621Y-81915000D01*
X156155621Y-75573000D02*
X156155621Y-77700000D01*
X156155621Y-79780000D02*
X156155621Y-81907000D01*
X156195621Y-75581000D02*
X156195621Y-77700000D01*
X156195621Y-79780000D02*
X156195621Y-81899000D01*
X156236621Y-75590000D02*
X156236621Y-77700000D01*
X156236621Y-79780000D02*
X156236621Y-81890000D01*
X156276621Y-75599000D02*
X156276621Y-77700000D01*
X156276621Y-79780000D02*
X156276621Y-81881000D01*
X156316621Y-75609000D02*
X156316621Y-77700000D01*
X156316621Y-79780000D02*
X156316621Y-81871000D01*
X156356621Y-75619000D02*
X156356621Y-77700000D01*
X156356621Y-79780000D02*
X156356621Y-81861000D01*
X156396621Y-75630000D02*
X156396621Y-77700000D01*
X156396621Y-79780000D02*
X156396621Y-81850000D01*
X156436621Y-75642000D02*
X156436621Y-77700000D01*
X156436621Y-79780000D02*
X156436621Y-81838000D01*
X156476621Y-75654000D02*
X156476621Y-77700000D01*
X156476621Y-79780000D02*
X156476621Y-81826000D01*
X156516621Y-75666000D02*
X156516621Y-77700000D01*
X156516621Y-79780000D02*
X156516621Y-81814000D01*
X156556621Y-75679000D02*
X156556621Y-77700000D01*
X156556621Y-79780000D02*
X156556621Y-81801000D01*
X156596621Y-75693000D02*
X156596621Y-77700000D01*
X156596621Y-79780000D02*
X156596621Y-81787000D01*
X156636621Y-75707000D02*
X156636621Y-77700000D01*
X156636621Y-79780000D02*
X156636621Y-81773000D01*
X156676621Y-75722000D02*
X156676621Y-77700000D01*
X156676621Y-79780000D02*
X156676621Y-81758000D01*
X156716621Y-75738000D02*
X156716621Y-77700000D01*
X156716621Y-79780000D02*
X156716621Y-81742000D01*
X156756621Y-75754000D02*
X156756621Y-77700000D01*
X156756621Y-79780000D02*
X156756621Y-81726000D01*
X156796621Y-75770000D02*
X156796621Y-77700000D01*
X156796621Y-79780000D02*
X156796621Y-81710000D01*
X156836621Y-75788000D02*
X156836621Y-77700000D01*
X156836621Y-79780000D02*
X156836621Y-81692000D01*
X156876621Y-75806000D02*
X156876621Y-77700000D01*
X156876621Y-79780000D02*
X156876621Y-81674000D01*
X156916621Y-75824000D02*
X156916621Y-77700000D01*
X156916621Y-79780000D02*
X156916621Y-81656000D01*
X156956621Y-75844000D02*
X156956621Y-77700000D01*
X156956621Y-79780000D02*
X156956621Y-81636000D01*
X156996621Y-75864000D02*
X156996621Y-77700000D01*
X156996621Y-79780000D02*
X156996621Y-81616000D01*
X157036621Y-75884000D02*
X157036621Y-77700000D01*
X157036621Y-79780000D02*
X157036621Y-81596000D01*
X157076621Y-75906000D02*
X157076621Y-77700000D01*
X157076621Y-79780000D02*
X157076621Y-81574000D01*
X157116621Y-75928000D02*
X157116621Y-77700000D01*
X157116621Y-79780000D02*
X157116621Y-81552000D01*
X157156621Y-75950000D02*
X157156621Y-77700000D01*
X157156621Y-79780000D02*
X157156621Y-81530000D01*
X157196621Y-75974000D02*
X157196621Y-77700000D01*
X157196621Y-79780000D02*
X157196621Y-81506000D01*
X157236621Y-75998000D02*
X157236621Y-77700000D01*
X157236621Y-79780000D02*
X157236621Y-81482000D01*
X157276621Y-76024000D02*
X157276621Y-77700000D01*
X157276621Y-79780000D02*
X157276621Y-81456000D01*
X157316621Y-76050000D02*
X157316621Y-77700000D01*
X157316621Y-79780000D02*
X157316621Y-81430000D01*
X157356621Y-76076000D02*
X157356621Y-77700000D01*
X157356621Y-79780000D02*
X157356621Y-81404000D01*
X157396621Y-76104000D02*
X157396621Y-77700000D01*
X157396621Y-79780000D02*
X157396621Y-81376000D01*
X157436621Y-76133000D02*
X157436621Y-77700000D01*
X157436621Y-79780000D02*
X157436621Y-81347000D01*
X157476621Y-76162000D02*
X157476621Y-77700000D01*
X157476621Y-79780000D02*
X157476621Y-81318000D01*
X157516621Y-76192000D02*
X157516621Y-77700000D01*
X157516621Y-79780000D02*
X157516621Y-81288000D01*
X157556621Y-76224000D02*
X157556621Y-77700000D01*
X157556621Y-79780000D02*
X157556621Y-81256000D01*
X157596621Y-76256000D02*
X157596621Y-77700000D01*
X157596621Y-79780000D02*
X157596621Y-81224000D01*
X157636621Y-76290000D02*
X157636621Y-77700000D01*
X157636621Y-79780000D02*
X157636621Y-81190000D01*
X157676621Y-76324000D02*
X157676621Y-77700000D01*
X157676621Y-79780000D02*
X157676621Y-81156000D01*
X157716621Y-76360000D02*
X157716621Y-77700000D01*
X157716621Y-79780000D02*
X157716621Y-81120000D01*
X157756621Y-76397000D02*
X157756621Y-77700000D01*
X157756621Y-79780000D02*
X157756621Y-81083000D01*
X157796621Y-76435000D02*
X157796621Y-77700000D01*
X157796621Y-79780000D02*
X157796621Y-81045000D01*
X157836621Y-76475000D02*
X157836621Y-81005000D01*
X157876621Y-76516000D02*
X157876621Y-80964000D01*
X157916621Y-76558000D02*
X157916621Y-80922000D01*
X157956621Y-76603000D02*
X157956621Y-80877000D01*
X157996621Y-76648000D02*
X157996621Y-80832000D01*
X158036621Y-76696000D02*
X158036621Y-80784000D01*
X158076621Y-76745000D02*
X158076621Y-80735000D01*
X158116621Y-76796000D02*
X158116621Y-80684000D01*
X158156621Y-76850000D02*
X158156621Y-80630000D01*
X158196621Y-76906000D02*
X158196621Y-80574000D01*
X158236621Y-76964000D02*
X158236621Y-80516000D01*
X158276621Y-77026000D02*
X158276621Y-80454000D01*
X158316621Y-77090000D02*
X158316621Y-80390000D01*
X158356621Y-77159000D02*
X158356621Y-80321000D01*
X158396621Y-77231000D02*
X158396621Y-80249000D01*
X158436621Y-77308000D02*
X158436621Y-80172000D01*
X158476621Y-77390000D02*
X158476621Y-80090000D01*
X158516621Y-77478000D02*
X158516621Y-80002000D01*
X158556621Y-77575000D02*
X158556621Y-79905000D01*
X158596621Y-77681000D02*
X158596621Y-79799000D01*
X158636621Y-77800000D02*
X158636621Y-79680000D01*
X158676621Y-77938000D02*
X158676621Y-79542000D01*
X158716621Y-78107000D02*
X158716621Y-79373000D01*
X158756621Y-78338000D02*
X158756621Y-79142000D01*
X158785621Y-78740000D02*
G75*
G03*
X158785621Y-78740000I-3270000J0D01*
G01*
%TO.C,PS1*%
X137760000Y-105184000D02*
X139010000Y-105184000D01*
X138060000Y-104884000D02*
X157080000Y-104884000D01*
X157080000Y-104884000D02*
X157080000Y-99074000D01*
X137760000Y-103934000D02*
X137760000Y-105184000D01*
X138060000Y-99074000D02*
X138060000Y-104884000D01*
X157080000Y-99074000D02*
X138060000Y-99074000D01*
%TO.C,C7*%
X136775380Y-93028000D02*
X137405380Y-93028000D01*
X137090380Y-92713000D02*
X137090380Y-93343000D01*
X140275621Y-91637000D02*
X140275621Y-98097000D01*
X140315621Y-91637000D02*
X140315621Y-98097000D01*
X140355621Y-91637000D02*
X140355621Y-98097000D01*
X140395621Y-91639000D02*
X140395621Y-98095000D01*
X140435621Y-91640000D02*
X140435621Y-98094000D01*
X140475621Y-91643000D02*
X140475621Y-98091000D01*
X140515621Y-91645000D02*
X140515621Y-93827000D01*
X140515621Y-95907000D02*
X140515621Y-98089000D01*
X140555621Y-91649000D02*
X140555621Y-93827000D01*
X140555621Y-95907000D02*
X140555621Y-98085000D01*
X140595621Y-91652000D02*
X140595621Y-93827000D01*
X140595621Y-95907000D02*
X140595621Y-98082000D01*
X140635621Y-91656000D02*
X140635621Y-93827000D01*
X140635621Y-95907000D02*
X140635621Y-98078000D01*
X140675621Y-91661000D02*
X140675621Y-93827000D01*
X140675621Y-95907000D02*
X140675621Y-98073000D01*
X140715621Y-91666000D02*
X140715621Y-93827000D01*
X140715621Y-95907000D02*
X140715621Y-98068000D01*
X140755621Y-91672000D02*
X140755621Y-93827000D01*
X140755621Y-95907000D02*
X140755621Y-98062000D01*
X140795621Y-91678000D02*
X140795621Y-93827000D01*
X140795621Y-95907000D02*
X140795621Y-98056000D01*
X140835621Y-91685000D02*
X140835621Y-93827000D01*
X140835621Y-95907000D02*
X140835621Y-98049000D01*
X140875621Y-91692000D02*
X140875621Y-93827000D01*
X140875621Y-95907000D02*
X140875621Y-98042000D01*
X140915621Y-91700000D02*
X140915621Y-93827000D01*
X140915621Y-95907000D02*
X140915621Y-98034000D01*
X140955621Y-91708000D02*
X140955621Y-93827000D01*
X140955621Y-95907000D02*
X140955621Y-98026000D01*
X140996621Y-91717000D02*
X140996621Y-93827000D01*
X140996621Y-95907000D02*
X140996621Y-98017000D01*
X141036621Y-91726000D02*
X141036621Y-93827000D01*
X141036621Y-95907000D02*
X141036621Y-98008000D01*
X141076621Y-91736000D02*
X141076621Y-93827000D01*
X141076621Y-95907000D02*
X141076621Y-97998000D01*
X141116621Y-91746000D02*
X141116621Y-93827000D01*
X141116621Y-95907000D02*
X141116621Y-97988000D01*
X141156621Y-91757000D02*
X141156621Y-93827000D01*
X141156621Y-95907000D02*
X141156621Y-97977000D01*
X141196621Y-91769000D02*
X141196621Y-93827000D01*
X141196621Y-95907000D02*
X141196621Y-97965000D01*
X141236621Y-91781000D02*
X141236621Y-93827000D01*
X141236621Y-95907000D02*
X141236621Y-97953000D01*
X141276621Y-91793000D02*
X141276621Y-93827000D01*
X141276621Y-95907000D02*
X141276621Y-97941000D01*
X141316621Y-91806000D02*
X141316621Y-93827000D01*
X141316621Y-95907000D02*
X141316621Y-97928000D01*
X141356621Y-91820000D02*
X141356621Y-93827000D01*
X141356621Y-95907000D02*
X141356621Y-97914000D01*
X141396621Y-91834000D02*
X141396621Y-93827000D01*
X141396621Y-95907000D02*
X141396621Y-97900000D01*
X141436621Y-91849000D02*
X141436621Y-93827000D01*
X141436621Y-95907000D02*
X141436621Y-97885000D01*
X141476621Y-91865000D02*
X141476621Y-93827000D01*
X141476621Y-95907000D02*
X141476621Y-97869000D01*
X141516621Y-91881000D02*
X141516621Y-93827000D01*
X141516621Y-95907000D02*
X141516621Y-97853000D01*
X141556621Y-91897000D02*
X141556621Y-93827000D01*
X141556621Y-95907000D02*
X141556621Y-97837000D01*
X141596621Y-91915000D02*
X141596621Y-93827000D01*
X141596621Y-95907000D02*
X141596621Y-97819000D01*
X141636621Y-91933000D02*
X141636621Y-93827000D01*
X141636621Y-95907000D02*
X141636621Y-97801000D01*
X141676621Y-91951000D02*
X141676621Y-93827000D01*
X141676621Y-95907000D02*
X141676621Y-97783000D01*
X141716621Y-91971000D02*
X141716621Y-93827000D01*
X141716621Y-95907000D02*
X141716621Y-97763000D01*
X141756621Y-91991000D02*
X141756621Y-93827000D01*
X141756621Y-95907000D02*
X141756621Y-97743000D01*
X141796621Y-92011000D02*
X141796621Y-93827000D01*
X141796621Y-95907000D02*
X141796621Y-97723000D01*
X141836621Y-92033000D02*
X141836621Y-93827000D01*
X141836621Y-95907000D02*
X141836621Y-97701000D01*
X141876621Y-92055000D02*
X141876621Y-93827000D01*
X141876621Y-95907000D02*
X141876621Y-97679000D01*
X141916621Y-92077000D02*
X141916621Y-93827000D01*
X141916621Y-95907000D02*
X141916621Y-97657000D01*
X141956621Y-92101000D02*
X141956621Y-93827000D01*
X141956621Y-95907000D02*
X141956621Y-97633000D01*
X141996621Y-92125000D02*
X141996621Y-93827000D01*
X141996621Y-95907000D02*
X141996621Y-97609000D01*
X142036621Y-92151000D02*
X142036621Y-93827000D01*
X142036621Y-95907000D02*
X142036621Y-97583000D01*
X142076621Y-92177000D02*
X142076621Y-93827000D01*
X142076621Y-95907000D02*
X142076621Y-97557000D01*
X142116621Y-92203000D02*
X142116621Y-93827000D01*
X142116621Y-95907000D02*
X142116621Y-97531000D01*
X142156621Y-92231000D02*
X142156621Y-93827000D01*
X142156621Y-95907000D02*
X142156621Y-97503000D01*
X142196621Y-92260000D02*
X142196621Y-93827000D01*
X142196621Y-95907000D02*
X142196621Y-97474000D01*
X142236621Y-92289000D02*
X142236621Y-93827000D01*
X142236621Y-95907000D02*
X142236621Y-97445000D01*
X142276621Y-92319000D02*
X142276621Y-93827000D01*
X142276621Y-95907000D02*
X142276621Y-97415000D01*
X142316621Y-92351000D02*
X142316621Y-93827000D01*
X142316621Y-95907000D02*
X142316621Y-97383000D01*
X142356621Y-92383000D02*
X142356621Y-93827000D01*
X142356621Y-95907000D02*
X142356621Y-97351000D01*
X142396621Y-92417000D02*
X142396621Y-93827000D01*
X142396621Y-95907000D02*
X142396621Y-97317000D01*
X142436621Y-92451000D02*
X142436621Y-93827000D01*
X142436621Y-95907000D02*
X142436621Y-97283000D01*
X142476621Y-92487000D02*
X142476621Y-93827000D01*
X142476621Y-95907000D02*
X142476621Y-97247000D01*
X142516621Y-92524000D02*
X142516621Y-93827000D01*
X142516621Y-95907000D02*
X142516621Y-97210000D01*
X142556621Y-92562000D02*
X142556621Y-93827000D01*
X142556621Y-95907000D02*
X142556621Y-97172000D01*
X142596621Y-92602000D02*
X142596621Y-97132000D01*
X142636621Y-92643000D02*
X142636621Y-97091000D01*
X142676621Y-92685000D02*
X142676621Y-97049000D01*
X142716621Y-92730000D02*
X142716621Y-97004000D01*
X142756621Y-92775000D02*
X142756621Y-96959000D01*
X142796621Y-92823000D02*
X142796621Y-96911000D01*
X142836621Y-92872000D02*
X142836621Y-96862000D01*
X142876621Y-92923000D02*
X142876621Y-96811000D01*
X142916621Y-92977000D02*
X142916621Y-96757000D01*
X142956621Y-93033000D02*
X142956621Y-96701000D01*
X142996621Y-93091000D02*
X142996621Y-96643000D01*
X143036621Y-93153000D02*
X143036621Y-96581000D01*
X143076621Y-93217000D02*
X143076621Y-96517000D01*
X143116621Y-93286000D02*
X143116621Y-96448000D01*
X143156621Y-93358000D02*
X143156621Y-96376000D01*
X143196621Y-93435000D02*
X143196621Y-96299000D01*
X143236621Y-93517000D02*
X143236621Y-96217000D01*
X143276621Y-93605000D02*
X143276621Y-96129000D01*
X143316621Y-93702000D02*
X143316621Y-96032000D01*
X143356621Y-93808000D02*
X143356621Y-95926000D01*
X143396621Y-93927000D02*
X143396621Y-95807000D01*
X143436621Y-94065000D02*
X143436621Y-95669000D01*
X143476621Y-94234000D02*
X143476621Y-95500000D01*
X143516621Y-94465000D02*
X143516621Y-95269000D01*
X143545621Y-94867000D02*
G75*
G03*
X143545621Y-94867000I-3270000J0D01*
G01*
%TO.C,C9*%
X150752621Y-96706000D02*
X150122621Y-96706000D01*
X150437621Y-97021000D02*
X150437621Y-96391000D01*
X147252380Y-98097000D02*
X147252380Y-91637000D01*
X147212380Y-98097000D02*
X147212380Y-91637000D01*
X147172380Y-98097000D02*
X147172380Y-91637000D01*
X147132380Y-98095000D02*
X147132380Y-91639000D01*
X147092380Y-98094000D02*
X147092380Y-91640000D01*
X147052380Y-98091000D02*
X147052380Y-91643000D01*
X147012380Y-98089000D02*
X147012380Y-95907000D01*
X147012380Y-93827000D02*
X147012380Y-91645000D01*
X146972380Y-98085000D02*
X146972380Y-95907000D01*
X146972380Y-93827000D02*
X146972380Y-91649000D01*
X146932380Y-98082000D02*
X146932380Y-95907000D01*
X146932380Y-93827000D02*
X146932380Y-91652000D01*
X146892380Y-98078000D02*
X146892380Y-95907000D01*
X146892380Y-93827000D02*
X146892380Y-91656000D01*
X146852380Y-98073000D02*
X146852380Y-95907000D01*
X146852380Y-93827000D02*
X146852380Y-91661000D01*
X146812380Y-98068000D02*
X146812380Y-95907000D01*
X146812380Y-93827000D02*
X146812380Y-91666000D01*
X146772380Y-98062000D02*
X146772380Y-95907000D01*
X146772380Y-93827000D02*
X146772380Y-91672000D01*
X146732380Y-98056000D02*
X146732380Y-95907000D01*
X146732380Y-93827000D02*
X146732380Y-91678000D01*
X146692380Y-98049000D02*
X146692380Y-95907000D01*
X146692380Y-93827000D02*
X146692380Y-91685000D01*
X146652380Y-98042000D02*
X146652380Y-95907000D01*
X146652380Y-93827000D02*
X146652380Y-91692000D01*
X146612380Y-98034000D02*
X146612380Y-95907000D01*
X146612380Y-93827000D02*
X146612380Y-91700000D01*
X146572380Y-98026000D02*
X146572380Y-95907000D01*
X146572380Y-93827000D02*
X146572380Y-91708000D01*
X146531380Y-98017000D02*
X146531380Y-95907000D01*
X146531380Y-93827000D02*
X146531380Y-91717000D01*
X146491380Y-98008000D02*
X146491380Y-95907000D01*
X146491380Y-93827000D02*
X146491380Y-91726000D01*
X146451380Y-97998000D02*
X146451380Y-95907000D01*
X146451380Y-93827000D02*
X146451380Y-91736000D01*
X146411380Y-97988000D02*
X146411380Y-95907000D01*
X146411380Y-93827000D02*
X146411380Y-91746000D01*
X146371380Y-97977000D02*
X146371380Y-95907000D01*
X146371380Y-93827000D02*
X146371380Y-91757000D01*
X146331380Y-97965000D02*
X146331380Y-95907000D01*
X146331380Y-93827000D02*
X146331380Y-91769000D01*
X146291380Y-97953000D02*
X146291380Y-95907000D01*
X146291380Y-93827000D02*
X146291380Y-91781000D01*
X146251380Y-97941000D02*
X146251380Y-95907000D01*
X146251380Y-93827000D02*
X146251380Y-91793000D01*
X146211380Y-97928000D02*
X146211380Y-95907000D01*
X146211380Y-93827000D02*
X146211380Y-91806000D01*
X146171380Y-97914000D02*
X146171380Y-95907000D01*
X146171380Y-93827000D02*
X146171380Y-91820000D01*
X146131380Y-97900000D02*
X146131380Y-95907000D01*
X146131380Y-93827000D02*
X146131380Y-91834000D01*
X146091380Y-97885000D02*
X146091380Y-95907000D01*
X146091380Y-93827000D02*
X146091380Y-91849000D01*
X146051380Y-97869000D02*
X146051380Y-95907000D01*
X146051380Y-93827000D02*
X146051380Y-91865000D01*
X146011380Y-97853000D02*
X146011380Y-95907000D01*
X146011380Y-93827000D02*
X146011380Y-91881000D01*
X145971380Y-97837000D02*
X145971380Y-95907000D01*
X145971380Y-93827000D02*
X145971380Y-91897000D01*
X145931380Y-97819000D02*
X145931380Y-95907000D01*
X145931380Y-93827000D02*
X145931380Y-91915000D01*
X145891380Y-97801000D02*
X145891380Y-95907000D01*
X145891380Y-93827000D02*
X145891380Y-91933000D01*
X145851380Y-97783000D02*
X145851380Y-95907000D01*
X145851380Y-93827000D02*
X145851380Y-91951000D01*
X145811380Y-97763000D02*
X145811380Y-95907000D01*
X145811380Y-93827000D02*
X145811380Y-91971000D01*
X145771380Y-97743000D02*
X145771380Y-95907000D01*
X145771380Y-93827000D02*
X145771380Y-91991000D01*
X145731380Y-97723000D02*
X145731380Y-95907000D01*
X145731380Y-93827000D02*
X145731380Y-92011000D01*
X145691380Y-97701000D02*
X145691380Y-95907000D01*
X145691380Y-93827000D02*
X145691380Y-92033000D01*
X145651380Y-97679000D02*
X145651380Y-95907000D01*
X145651380Y-93827000D02*
X145651380Y-92055000D01*
X145611380Y-97657000D02*
X145611380Y-95907000D01*
X145611380Y-93827000D02*
X145611380Y-92077000D01*
X145571380Y-97633000D02*
X145571380Y-95907000D01*
X145571380Y-93827000D02*
X145571380Y-92101000D01*
X145531380Y-97609000D02*
X145531380Y-95907000D01*
X145531380Y-93827000D02*
X145531380Y-92125000D01*
X145491380Y-97583000D02*
X145491380Y-95907000D01*
X145491380Y-93827000D02*
X145491380Y-92151000D01*
X145451380Y-97557000D02*
X145451380Y-95907000D01*
X145451380Y-93827000D02*
X145451380Y-92177000D01*
X145411380Y-97531000D02*
X145411380Y-95907000D01*
X145411380Y-93827000D02*
X145411380Y-92203000D01*
X145371380Y-97503000D02*
X145371380Y-95907000D01*
X145371380Y-93827000D02*
X145371380Y-92231000D01*
X145331380Y-97474000D02*
X145331380Y-95907000D01*
X145331380Y-93827000D02*
X145331380Y-92260000D01*
X145291380Y-97445000D02*
X145291380Y-95907000D01*
X145291380Y-93827000D02*
X145291380Y-92289000D01*
X145251380Y-97415000D02*
X145251380Y-95907000D01*
X145251380Y-93827000D02*
X145251380Y-92319000D01*
X145211380Y-97383000D02*
X145211380Y-95907000D01*
X145211380Y-93827000D02*
X145211380Y-92351000D01*
X145171380Y-97351000D02*
X145171380Y-95907000D01*
X145171380Y-93827000D02*
X145171380Y-92383000D01*
X145131380Y-97317000D02*
X145131380Y-95907000D01*
X145131380Y-93827000D02*
X145131380Y-92417000D01*
X145091380Y-97283000D02*
X145091380Y-95907000D01*
X145091380Y-93827000D02*
X145091380Y-92451000D01*
X145051380Y-97247000D02*
X145051380Y-95907000D01*
X145051380Y-93827000D02*
X145051380Y-92487000D01*
X145011380Y-97210000D02*
X145011380Y-95907000D01*
X145011380Y-93827000D02*
X145011380Y-92524000D01*
X144971380Y-97172000D02*
X144971380Y-95907000D01*
X144971380Y-93827000D02*
X144971380Y-92562000D01*
X144931380Y-97132000D02*
X144931380Y-92602000D01*
X144891380Y-97091000D02*
X144891380Y-92643000D01*
X144851380Y-97049000D02*
X144851380Y-92685000D01*
X144811380Y-97004000D02*
X144811380Y-92730000D01*
X144771380Y-96959000D02*
X144771380Y-92775000D01*
X144731380Y-96911000D02*
X144731380Y-92823000D01*
X144691380Y-96862000D02*
X144691380Y-92872000D01*
X144651380Y-96811000D02*
X144651380Y-92923000D01*
X144611380Y-96757000D02*
X144611380Y-92977000D01*
X144571380Y-96701000D02*
X144571380Y-93033000D01*
X144531380Y-96643000D02*
X144531380Y-93091000D01*
X144491380Y-96581000D02*
X144491380Y-93153000D01*
X144451380Y-96517000D02*
X144451380Y-93217000D01*
X144411380Y-96448000D02*
X144411380Y-93286000D01*
X144371380Y-96376000D02*
X144371380Y-93358000D01*
X144331380Y-96299000D02*
X144331380Y-93435000D01*
X144291380Y-96217000D02*
X144291380Y-93517000D01*
X144251380Y-96129000D02*
X144251380Y-93605000D01*
X144211380Y-96032000D02*
X144211380Y-93702000D01*
X144171380Y-95926000D02*
X144171380Y-93808000D01*
X144131380Y-95807000D02*
X144131380Y-93927000D01*
X144091380Y-95669000D02*
X144091380Y-94065000D01*
X144051380Y-95500000D02*
X144051380Y-94234000D01*
X144011380Y-95269000D02*
X144011380Y-94465000D01*
X150522380Y-94867000D02*
G75*
G03*
X150522380Y-94867000I-3270000J0D01*
G01*
D13*
%TO.C,REF\u002A\u002A*%
X63826000Y-59508000D02*
X63826000Y-61508000D01*
X63826000Y-59508000D02*
X67826000Y-63508000D01*
X63826000Y-66508000D02*
X63826000Y-68508000D01*
X63826000Y-68508000D02*
X65826000Y-68508000D01*
X65826000Y-59508000D02*
X63826000Y-59508000D01*
X65826000Y-64508000D02*
X67826000Y-64508000D01*
X67826000Y-63508000D02*
X65826000Y-63508000D01*
X67826000Y-63508000D02*
X67826000Y-61508000D01*
X67826000Y-64508000D02*
X67826000Y-66508000D01*
X68826000Y-64508000D02*
X70826000Y-64508000D01*
X68826000Y-64508000D02*
X72826000Y-68508000D01*
X68826000Y-66508000D02*
X68826000Y-64508000D01*
X70826000Y-68508000D02*
X72826000Y-68508000D01*
X72826000Y-68508000D02*
X72826000Y-66508000D01*
X65826000Y-64508000D02*
G75*
G03*
X63826000Y-66508000I-1J-1999999D01*
G01*
X67826000Y-61508000D02*
G75*
G03*
X65826000Y-59508000I-1999999J1D01*
G01*
X63826000Y-61508000D02*
G75*
G03*
X65826000Y-63508000I1999999J-1D01*
G01*
X65826000Y-68508000D02*
G75*
G03*
X67826000Y-66508000I1J1999999D01*
G01*
X72826000Y-66508000D02*
G75*
G03*
X70826000Y-64508000I-2000000J0D01*
G01*
X68826000Y-66508000D02*
G75*
G03*
X70826000Y-68508000I2000000J0D01*
G01*
X72826000Y-61508000D02*
G75*
G03*
X72826000Y-61508000I-2000000J0D01*
G01*
D12*
%TO.C,C1*%
X62819000Y-125208677D02*
X62819000Y-126208677D01*
X63319000Y-125708677D02*
X62319000Y-125708677D01*
X65024000Y-130688323D02*
X54864000Y-130688323D01*
X65024000Y-130728323D02*
X54864000Y-130728323D01*
X65024000Y-130768323D02*
X54864000Y-130768323D01*
X65023000Y-130808323D02*
X54865000Y-130808323D01*
X65022000Y-130848323D02*
X54866000Y-130848323D01*
X65021000Y-130888323D02*
X54867000Y-130888323D01*
X65019000Y-130928323D02*
X54869000Y-130928323D01*
X65017000Y-130968323D02*
X54871000Y-130968323D01*
X65014000Y-131008323D02*
X54874000Y-131008323D01*
X65012000Y-131048323D02*
X54876000Y-131048323D01*
X65009000Y-131088323D02*
X54879000Y-131088323D01*
X65006000Y-131128323D02*
X54882000Y-131128323D01*
X65002000Y-131168323D02*
X54886000Y-131168323D01*
X64998000Y-131208323D02*
X54890000Y-131208323D01*
X64994000Y-131248323D02*
X54894000Y-131248323D01*
X64989000Y-131288323D02*
X54899000Y-131288323D01*
X64984000Y-131328323D02*
X54904000Y-131328323D01*
X64979000Y-131368323D02*
X54909000Y-131368323D01*
X64974000Y-131409323D02*
X54914000Y-131409323D01*
X64968000Y-131449323D02*
X54920000Y-131449323D01*
X64962000Y-131489323D02*
X54926000Y-131489323D01*
X64955000Y-131529323D02*
X54933000Y-131529323D01*
X64948000Y-131569323D02*
X54940000Y-131569323D01*
X64941000Y-131609323D02*
X54947000Y-131609323D01*
X64934000Y-131649323D02*
X54954000Y-131649323D01*
X64926000Y-131689323D02*
X54962000Y-131689323D01*
X64918000Y-131729323D02*
X54970000Y-131729323D01*
X64909000Y-131769323D02*
X54979000Y-131769323D01*
X64900000Y-131809323D02*
X54988000Y-131809323D01*
X64891000Y-131849323D02*
X54997000Y-131849323D01*
X64882000Y-131889323D02*
X55006000Y-131889323D01*
X64872000Y-131929323D02*
X55016000Y-131929323D01*
X64862000Y-131969323D02*
X61185000Y-131969323D01*
X58703000Y-131969323D02*
X55026000Y-131969323D01*
X64851000Y-132009323D02*
X61185000Y-132009323D01*
X58703000Y-132009323D02*
X55037000Y-132009323D01*
X64841000Y-132049323D02*
X61185000Y-132049323D01*
X58703000Y-132049323D02*
X55047000Y-132049323D01*
X64829000Y-132089323D02*
X61185000Y-132089323D01*
X58703000Y-132089323D02*
X55059000Y-132089323D01*
X64818000Y-132129323D02*
X61185000Y-132129323D01*
X58703000Y-132129323D02*
X55070000Y-132129323D01*
X64806000Y-132169323D02*
X61185000Y-132169323D01*
X58703000Y-132169323D02*
X55082000Y-132169323D01*
X64794000Y-132209323D02*
X61185000Y-132209323D01*
X58703000Y-132209323D02*
X55094000Y-132209323D01*
X64781000Y-132249323D02*
X61185000Y-132249323D01*
X58703000Y-132249323D02*
X55107000Y-132249323D01*
X64768000Y-132289323D02*
X61185000Y-132289323D01*
X58703000Y-132289323D02*
X55120000Y-132289323D01*
X64755000Y-132329323D02*
X61185000Y-132329323D01*
X58703000Y-132329323D02*
X55133000Y-132329323D01*
X64741000Y-132369323D02*
X61185000Y-132369323D01*
X58703000Y-132369323D02*
X55147000Y-132369323D01*
X64727000Y-132409323D02*
X61185000Y-132409323D01*
X58703000Y-132409323D02*
X55161000Y-132409323D01*
X64712000Y-132449323D02*
X61185000Y-132449323D01*
X58703000Y-132449323D02*
X55176000Y-132449323D01*
X64698000Y-132489323D02*
X61185000Y-132489323D01*
X58703000Y-132489323D02*
X55190000Y-132489323D01*
X64682000Y-132529323D02*
X61185000Y-132529323D01*
X58703000Y-132529323D02*
X55206000Y-132529323D01*
X64667000Y-132569323D02*
X61185000Y-132569323D01*
X58703000Y-132569323D02*
X55221000Y-132569323D01*
X64651000Y-132609323D02*
X61185000Y-132609323D01*
X58703000Y-132609323D02*
X55237000Y-132609323D01*
X64634000Y-132649323D02*
X61185000Y-132649323D01*
X58703000Y-132649323D02*
X55254000Y-132649323D01*
X64618000Y-132689323D02*
X61185000Y-132689323D01*
X58703000Y-132689323D02*
X55270000Y-132689323D01*
X64601000Y-132729323D02*
X61185000Y-132729323D01*
X58703000Y-132729323D02*
X55287000Y-132729323D01*
X64583000Y-132769323D02*
X61185000Y-132769323D01*
X58703000Y-132769323D02*
X55305000Y-132769323D01*
X64565000Y-132809323D02*
X61185000Y-132809323D01*
X58703000Y-132809323D02*
X55323000Y-132809323D01*
X64547000Y-132849323D02*
X61185000Y-132849323D01*
X58703000Y-132849323D02*
X55341000Y-132849323D01*
X64528000Y-132889323D02*
X61185000Y-132889323D01*
X58703000Y-132889323D02*
X55360000Y-132889323D01*
X64508000Y-132929323D02*
X61185000Y-132929323D01*
X58703000Y-132929323D02*
X55380000Y-132929323D01*
X64489000Y-132969323D02*
X61185000Y-132969323D01*
X58703000Y-132969323D02*
X55399000Y-132969323D01*
X64469000Y-133009323D02*
X61185000Y-133009323D01*
X58703000Y-133009323D02*
X55419000Y-133009323D01*
X64448000Y-133049323D02*
X61185000Y-133049323D01*
X58703000Y-133049323D02*
X55440000Y-133049323D01*
X64427000Y-133089323D02*
X61185000Y-133089323D01*
X58703000Y-133089323D02*
X55461000Y-133089323D01*
X64406000Y-133129323D02*
X61185000Y-133129323D01*
X58703000Y-133129323D02*
X55482000Y-133129323D01*
X64384000Y-133169323D02*
X61185000Y-133169323D01*
X58703000Y-133169323D02*
X55504000Y-133169323D01*
X64361000Y-133209323D02*
X61185000Y-133209323D01*
X58703000Y-133209323D02*
X55527000Y-133209323D01*
X64339000Y-133249323D02*
X61185000Y-133249323D01*
X58703000Y-133249323D02*
X55549000Y-133249323D01*
X64315000Y-133289323D02*
X61185000Y-133289323D01*
X58703000Y-133289323D02*
X55573000Y-133289323D01*
X64291000Y-133329323D02*
X61185000Y-133329323D01*
X58703000Y-133329323D02*
X55597000Y-133329323D01*
X64267000Y-133369323D02*
X61185000Y-133369323D01*
X58703000Y-133369323D02*
X55621000Y-133369323D01*
X64242000Y-133409323D02*
X61185000Y-133409323D01*
X58703000Y-133409323D02*
X55646000Y-133409323D01*
X64217000Y-133449323D02*
X61185000Y-133449323D01*
X58703000Y-133449323D02*
X55671000Y-133449323D01*
X64191000Y-133489323D02*
X61185000Y-133489323D01*
X58703000Y-133489323D02*
X55697000Y-133489323D01*
X64165000Y-133529323D02*
X61185000Y-133529323D01*
X58703000Y-133529323D02*
X55723000Y-133529323D01*
X64138000Y-133569323D02*
X61185000Y-133569323D01*
X58703000Y-133569323D02*
X55750000Y-133569323D01*
X64110000Y-133609323D02*
X61185000Y-133609323D01*
X58703000Y-133609323D02*
X55778000Y-133609323D01*
X64082000Y-133649323D02*
X61185000Y-133649323D01*
X58703000Y-133649323D02*
X55806000Y-133649323D01*
X64054000Y-133689323D02*
X61185000Y-133689323D01*
X58703000Y-133689323D02*
X55834000Y-133689323D01*
X64024000Y-133729323D02*
X61185000Y-133729323D01*
X58703000Y-133729323D02*
X55864000Y-133729323D01*
X63994000Y-133769323D02*
X61185000Y-133769323D01*
X58703000Y-133769323D02*
X55894000Y-133769323D01*
X63964000Y-133809323D02*
X61185000Y-133809323D01*
X58703000Y-133809323D02*
X55924000Y-133809323D01*
X63933000Y-133849323D02*
X61185000Y-133849323D01*
X58703000Y-133849323D02*
X55955000Y-133849323D01*
X63901000Y-133889323D02*
X61185000Y-133889323D01*
X58703000Y-133889323D02*
X55987000Y-133889323D01*
X63869000Y-133929323D02*
X61185000Y-133929323D01*
X58703000Y-133929323D02*
X56019000Y-133929323D01*
X63836000Y-133969323D02*
X61185000Y-133969323D01*
X58703000Y-133969323D02*
X56052000Y-133969323D01*
X63802000Y-134009323D02*
X61185000Y-134009323D01*
X58703000Y-134009323D02*
X56086000Y-134009323D01*
X63768000Y-134049323D02*
X61185000Y-134049323D01*
X58703000Y-134049323D02*
X56120000Y-134049323D01*
X63733000Y-134089323D02*
X61185000Y-134089323D01*
X58703000Y-134089323D02*
X56155000Y-134089323D01*
X63697000Y-134129323D02*
X61185000Y-134129323D01*
X58703000Y-134129323D02*
X56191000Y-134129323D01*
X63660000Y-134169323D02*
X61185000Y-134169323D01*
X58703000Y-134169323D02*
X56228000Y-134169323D01*
X63623000Y-134209323D02*
X61185000Y-134209323D01*
X58703000Y-134209323D02*
X56265000Y-134209323D01*
X63584000Y-134249323D02*
X61185000Y-134249323D01*
X58703000Y-134249323D02*
X56304000Y-134249323D01*
X63545000Y-134289323D02*
X61185000Y-134289323D01*
X58703000Y-134289323D02*
X56343000Y-134289323D01*
X63505000Y-134329323D02*
X61185000Y-134329323D01*
X58703000Y-134329323D02*
X56383000Y-134329323D01*
X63464000Y-134369323D02*
X61185000Y-134369323D01*
X58703000Y-134369323D02*
X56424000Y-134369323D01*
X63422000Y-134409323D02*
X61185000Y-134409323D01*
X58703000Y-134409323D02*
X56466000Y-134409323D01*
X63380000Y-134449323D02*
X56508000Y-134449323D01*
X63336000Y-134489323D02*
X56552000Y-134489323D01*
X63291000Y-134529323D02*
X56597000Y-134529323D01*
X63245000Y-134569323D02*
X56643000Y-134569323D01*
X63198000Y-134609323D02*
X56690000Y-134609323D01*
X63150000Y-134649323D02*
X56738000Y-134649323D01*
X63100000Y-134689323D02*
X56788000Y-134689323D01*
X63050000Y-134729323D02*
X56838000Y-134729323D01*
X62998000Y-134769323D02*
X56890000Y-134769323D01*
X62944000Y-134809323D02*
X56944000Y-134809323D01*
X62889000Y-134849323D02*
X56999000Y-134849323D01*
X62833000Y-134889323D02*
X57055000Y-134889323D01*
X62774000Y-134929323D02*
X57114000Y-134929323D01*
X62714000Y-134969323D02*
X57174000Y-134969323D01*
X62653000Y-135009323D02*
X57235000Y-135009323D01*
X62589000Y-135049323D02*
X57299000Y-135049323D01*
X62523000Y-135089323D02*
X57365000Y-135089323D01*
X62454000Y-135129323D02*
X57434000Y-135129323D01*
X62383000Y-135169323D02*
X57505000Y-135169323D01*
X62309000Y-135209323D02*
X57579000Y-135209323D01*
X62233000Y-135249323D02*
X57655000Y-135249323D01*
X62153000Y-135289323D02*
X57735000Y-135289323D01*
X62069000Y-135329323D02*
X57819000Y-135329323D01*
X61981000Y-135369323D02*
X57907000Y-135369323D01*
X61888000Y-135409323D02*
X58000000Y-135409323D01*
X61790000Y-135449323D02*
X58098000Y-135449323D01*
X61686000Y-135489323D02*
X58202000Y-135489323D01*
X61574000Y-135529323D02*
X58314000Y-135529323D01*
X61454000Y-135569323D02*
X58434000Y-135569323D01*
X61322000Y-135609323D02*
X58566000Y-135609323D01*
X61174000Y-135649323D02*
X58714000Y-135649323D01*
X61006000Y-135689323D02*
X58882000Y-135689323D01*
X60806000Y-135729323D02*
X59082000Y-135729323D01*
X60543000Y-135769323D02*
X59345000Y-135769323D01*
X65064000Y-130688323D02*
G75*
G03*
X65064000Y-130688323I-5120000J0D01*
G01*
%TO.C,TP2*%
X158930000Y-115570000D02*
G75*
G03*
X158930000Y-115570000I-1450000J0D01*
G01*
%TO.C,U1*%
X125500000Y-77640000D02*
X125500000Y-52210000D01*
X125500000Y-77640000D02*
X128040000Y-77640000D01*
X128040000Y-77640000D02*
X128040000Y-84540000D01*
X128040000Y-84540000D02*
X151360000Y-84540000D01*
X149240000Y-50080000D02*
X127630000Y-50080000D01*
X151360000Y-84540000D02*
X151360000Y-52210000D01*
X127630000Y-50080000D02*
G75*
G03*
X125500000Y-52210000I2J-2130002D01*
G01*
X151360000Y-52210000D02*
G75*
G03*
X149230000Y-50080000I-2130000J0D01*
G01*
D11*
X125095000Y-58420000D02*
X124460000Y-59055000D01*
X124460000Y-57785000D01*
X125095000Y-58420000D01*
G36*
X125095000Y-58420000D02*
G01*
X124460000Y-59055000D01*
X124460000Y-57785000D01*
X125095000Y-58420000D01*
G37*
D12*
%TO.C,S1*%
X116700000Y-115800000D02*
X116700000Y-116400000D01*
X116400000Y-116100000D02*
X116700000Y-115800000D01*
X116700000Y-116400000D02*
X116400000Y-116100000D01*
X118500000Y-117500000D02*
X106700000Y-117500000D01*
X118500000Y-121600000D02*
X118500000Y-117500000D01*
X106700000Y-121600000D02*
X106700000Y-117500000D01*
X112600000Y-123100000D02*
X112600000Y-124100000D01*
X113100000Y-123600000D02*
X112100000Y-123600000D01*
X118500000Y-125600000D02*
X118500000Y-129700000D01*
X118500000Y-129700000D02*
X116100000Y-129700000D01*
X113900000Y-129700000D02*
X111300000Y-129700000D01*
X109100000Y-129700000D02*
X106700000Y-129700000D01*
X106700000Y-129700000D02*
X106700000Y-125600000D01*
X115600000Y-123600000D02*
G75*
G03*
X115600000Y-123600000I-3000000J0D01*
G01*
%TO.C,R51*%
X56301000Y-65183999D02*
G75*
G03*
X59270202Y-65183387I1484000J2913999D01*
G01*
X56721000Y-59178000D02*
G75*
G03*
X54871171Y-63753968I1064000J-3092000D01*
G01*
X60699000Y-63755000D02*
G75*
G03*
X61055075Y-62213137I-2914000J1485000D01*
G01*
X61055000Y-62270000D02*
G75*
G03*
X58849608Y-59178154I-3270000J0D01*
G01*
%TD*%
D14*
X161600000Y-147600000D02*
X41600000Y-147600000D01*
X41600000Y-147600000D02*
X41600000Y-55600000D01*
X41600000Y-55600000D02*
X161600000Y-55600000D01*
X161600000Y-55600000D02*
X161600000Y-147600000D01*
M02*
