%TF.GenerationSoftware,KiCad,Pcbnew,7.0.7*%
%TF.CreationDate,2025-07-01T12:31:18-10:00*%
%TF.ProjectId,Controller,436f6e74-726f-46c6-9c65-722e6b696361,New*%
%TF.SameCoordinates,Original*%
%TF.FileFunction,Soldermask,Bot*%
%TF.FilePolarity,Negative*%
%FSLAX46Y46*%
G04 Gerber Fmt 4.6, Leading zero omitted, Abs format (unit mm)*
G04 Created by KiCad (PCBNEW 7.0.7) date 2025-07-01 12:31:18*
%MOMM*%
%LPD*%
G01*
G04 APERTURE LIST*
G04 Aperture macros list*
%AMRoundRect*
0 Rectangle with rounded corners*
0 $1 Rounding radius*
0 $2 $3 $4 $5 $6 $7 $8 $9 X,Y pos of 4 corners*
0 Add a 4 corners polygon primitive as box body*
4,1,4,$2,$3,$4,$5,$6,$7,$8,$9,$2,$3,0*
0 Add four circle primitives for the rounded corners*
1,1,$1+$1,$2,$3*
1,1,$1+$1,$4,$5*
1,1,$1+$1,$6,$7*
1,1,$1+$1,$8,$9*
0 Add four rect primitives between the rounded corners*
20,1,$1+$1,$2,$3,$4,$5,0*
20,1,$1+$1,$4,$5,$6,$7,0*
20,1,$1+$1,$6,$7,$8,$9,0*
20,1,$1+$1,$8,$9,$2,$3,0*%
%AMFreePoly0*
4,1,19,0.500000,-0.750000,0.000000,-0.750000,0.000000,-0.744911,-0.071157,-0.744911,-0.207708,-0.704816,-0.327430,-0.627875,-0.420627,-0.520320,-0.479746,-0.390866,-0.500000,-0.250000,-0.500000,0.250000,-0.479746,0.390866,-0.420627,0.520320,-0.327430,0.627875,-0.207708,0.704816,-0.071157,0.744911,0.000000,0.744911,0.000000,0.750000,0.500000,0.750000,0.500000,-0.750000,0.500000,-0.750000,
$1*%
%AMFreePoly1*
4,1,19,0.000000,0.744911,0.071157,0.744911,0.207708,0.704816,0.327430,0.627875,0.420627,0.520320,0.479746,0.390866,0.500000,0.250000,0.500000,-0.250000,0.479746,-0.390866,0.420627,-0.520320,0.327430,-0.627875,0.207708,-0.704816,0.071157,-0.744911,0.000000,-0.744911,0.000000,-0.750000,-0.500000,-0.750000,-0.500000,0.750000,0.000000,0.750000,0.000000,0.744911,0.000000,0.744911,
$1*%
%AMFreePoly2*
4,1,9,5.362500,-0.866500,1.237500,-0.866500,1.237500,-0.450000,-1.237500,-0.450000,-1.237500,0.450000,1.237500,0.450000,1.237500,0.866500,5.362500,0.866500,5.362500,-0.866500,5.362500,-0.866500,$1*%
G04 Aperture macros list end*
%ADD10C,2.500000*%
%ADD11RoundRect,0.341000X-0.759000X0.759000X-0.759000X-0.759000X0.759000X-0.759000X0.759000X0.759000X0*%
%ADD12C,2.200000*%
%ADD13C,3.500000*%
%ADD14O,3.500000X3.500000*%
%ADD15R,2.000000X1.905000*%
%ADD16O,2.000000X1.905000*%
%ADD17O,1.600000X2.500000*%
%ADD18O,3.500000X7.000000*%
%ADD19RoundRect,0.249997X-0.790003X-1.550003X0.790003X-1.550003X0.790003X1.550003X-0.790003X1.550003X0*%
%ADD20O,2.080000X3.600000*%
%ADD21C,3.000000*%
%ADD22R,1.800000X2.600000*%
%ADD23O,1.800000X2.600000*%
%ADD24R,1.600000X1.600000*%
%ADD25C,1.600000*%
%ADD26RoundRect,0.250000X0.620000X0.845000X-0.620000X0.845000X-0.620000X-0.845000X0.620000X-0.845000X0*%
%ADD27O,1.740000X2.190000*%
%ADD28RoundRect,0.250000X0.845000X-0.620000X0.845000X0.620000X-0.845000X0.620000X-0.845000X-0.620000X0*%
%ADD29O,2.190000X1.740000*%
%ADD30R,2.000000X2.000000*%
%ADD31C,2.000000*%
%ADD32R,1.850000X1.850000*%
%ADD33C,1.850000*%
%ADD34R,2.000000X1.600000*%
%ADD35O,2.000000X1.600000*%
%ADD36C,3.200000*%
%ADD37C,1.620000*%
%ADD38RoundRect,0.250000X0.625000X-0.400000X0.625000X0.400000X-0.625000X0.400000X-0.625000X-0.400000X0*%
%ADD39RoundRect,0.250000X-0.650000X0.412500X-0.650000X-0.412500X0.650000X-0.412500X0.650000X0.412500X0*%
%ADD40RoundRect,0.250000X-0.625000X0.400000X-0.625000X-0.400000X0.625000X-0.400000X0.625000X0.400000X0*%
%ADD41RoundRect,0.250000X0.412500X0.650000X-0.412500X0.650000X-0.412500X-0.650000X0.412500X-0.650000X0*%
%ADD42RoundRect,0.250000X-0.650000X1.000000X-0.650000X-1.000000X0.650000X-1.000000X0.650000X1.000000X0*%
%ADD43RoundRect,0.250000X-1.000000X-0.650000X1.000000X-0.650000X1.000000X0.650000X-1.000000X0.650000X0*%
%ADD44RoundRect,0.250000X0.650000X-1.000000X0.650000X1.000000X-0.650000X1.000000X-0.650000X-1.000000X0*%
%ADD45RoundRect,0.250000X0.400000X0.625000X-0.400000X0.625000X-0.400000X-0.625000X0.400000X-0.625000X0*%
%ADD46RoundRect,0.250000X-1.075000X0.400000X-1.075000X-0.400000X1.075000X-0.400000X1.075000X0.400000X0*%
%ADD47RoundRect,0.250000X-0.412500X-0.650000X0.412500X-0.650000X0.412500X0.650000X-0.412500X0.650000X0*%
%ADD48FreePoly0,180.000000*%
%ADD49FreePoly1,180.000000*%
%ADD50RoundRect,0.250000X-0.400000X-0.625000X0.400000X-0.625000X0.400000X0.625000X-0.400000X0.625000X0*%
%ADD51RoundRect,0.250000X0.650000X-0.412500X0.650000X0.412500X-0.650000X0.412500X-0.650000X-0.412500X0*%
%ADD52RoundRect,0.150000X0.587500X0.150000X-0.587500X0.150000X-0.587500X-0.150000X0.587500X-0.150000X0*%
%ADD53RoundRect,0.150000X0.825000X0.150000X-0.825000X0.150000X-0.825000X-0.150000X0.825000X-0.150000X0*%
%ADD54RoundRect,0.150000X-0.150000X0.587500X-0.150000X-0.587500X0.150000X-0.587500X0.150000X0.587500X0*%
%ADD55RoundRect,0.150000X0.150000X-0.587500X0.150000X0.587500X-0.150000X0.587500X-0.150000X-0.587500X0*%
%ADD56RoundRect,0.150000X-0.825000X-0.150000X0.825000X-0.150000X0.825000X0.150000X-0.825000X0.150000X0*%
%ADD57R,1.560000X0.650000*%
%ADD58RoundRect,0.150000X0.150000X-0.725000X0.150000X0.725000X-0.150000X0.725000X-0.150000X-0.725000X0*%
%ADD59R,0.650000X1.560000*%
%ADD60RoundRect,0.250000X0.450000X-0.350000X0.450000X0.350000X-0.450000X0.350000X-0.450000X-0.350000X0*%
%ADD61RoundRect,0.249999X-0.790001X-1.550001X0.790001X-1.550001X0.790001X1.550001X-0.790001X1.550001X0*%
%ADD62RoundRect,0.150000X-0.587500X-0.150000X0.587500X-0.150000X0.587500X0.150000X-0.587500X0.150000X0*%
%ADD63R,0.900000X2.300000*%
%ADD64FreePoly2,270.000000*%
%TA.AperFunction,Profile*%
%ADD65C,0.050000*%
%TD*%
G04 APERTURE END LIST*
D10*
%TO.C,TP4*%
X104648000Y-108712000D03*
%TD*%
%TO.C,TP1*%
X157480000Y-88900000D03*
%TD*%
%TO.C,TP3*%
X157480000Y-111252000D03*
%TD*%
%TO.C,TP5*%
X104648000Y-112776000D03*
%TD*%
%TO.C,TP0*%
X157480000Y-83820000D03*
%TD*%
D11*
%TO.C,K1*%
X74930000Y-114935000D03*
D10*
X67330000Y-125135000D03*
X67330000Y-132835000D03*
D12*
X67330000Y-114935000D03*
%TD*%
D11*
%TO.C,K2*%
X86360000Y-114935000D03*
D10*
X78760000Y-125135000D03*
X78760000Y-132835000D03*
D12*
X78760000Y-114935000D03*
%TD*%
D13*
%TO.C,H4*%
X45600000Y-143600000D03*
%TD*%
%TO.C,H3*%
X157600000Y-143600000D03*
%TD*%
%TO.C,H1*%
X45600000Y-59600000D03*
%TD*%
%TO.C,H2*%
X157600000Y-59600000D03*
%TD*%
D14*
%TO.C,U2*%
X46840000Y-116586000D03*
D15*
X63500000Y-119126000D03*
D16*
X63500000Y-116586000D03*
X63500000Y-114046000D03*
%TD*%
D17*
%TO.C,J3*%
X146600000Y-127600000D03*
D18*
X151680000Y-132680000D03*
D17*
X149140000Y-127600000D03*
X144060000Y-127600000D03*
D18*
X141520000Y-132680000D03*
%TD*%
D19*
%TO.C,J1*%
X53600000Y-138600000D03*
X53600000Y-143680000D03*
D20*
X58680000Y-138600000D03*
X58680000Y-143680000D03*
X63760000Y-138600000D03*
X63760000Y-143680000D03*
X68840000Y-138600000D03*
X68840000Y-143680000D03*
X73920000Y-138600000D03*
X73920000Y-143680000D03*
X79000000Y-138600000D03*
X79000000Y-143680000D03*
X84080000Y-138600000D03*
X84080000Y-143680000D03*
X89160000Y-138600000D03*
X89160000Y-143680000D03*
%TD*%
D19*
%TO.C,J2*%
X97600000Y-138600000D03*
X97600000Y-143680000D03*
D20*
X102680000Y-138600000D03*
X102680000Y-143680000D03*
X107760000Y-138600000D03*
X107760000Y-143680000D03*
X112840000Y-138600000D03*
X112840000Y-143680000D03*
X117920000Y-138600000D03*
X117920000Y-143680000D03*
X123000000Y-138600000D03*
X123000000Y-143680000D03*
X128080000Y-138600000D03*
X128080000Y-143680000D03*
X133160000Y-138600000D03*
X133160000Y-143680000D03*
%TD*%
D21*
%TO.C,DS1*%
X45100900Y-73100000D03*
X45100900Y-104100700D03*
X120099480Y-104100700D03*
X120100000Y-73100000D03*
D22*
X50600000Y-73100000D03*
D23*
X53140000Y-73100000D03*
X55680000Y-73100000D03*
X58220000Y-73100000D03*
X60760000Y-73100000D03*
X63300000Y-73100000D03*
X65840000Y-73100000D03*
X68380000Y-73100000D03*
X70920000Y-73100000D03*
X73460000Y-73100000D03*
X76000000Y-73100000D03*
X78540000Y-73100000D03*
X81080000Y-73100000D03*
X83620000Y-73100000D03*
X86160000Y-73100000D03*
X88700000Y-73100000D03*
%TD*%
D24*
%TO.C,C8*%
X155637113Y-94867000D03*
D25*
X153137113Y-94867000D03*
%TD*%
D26*
%TO.C,J6*%
X115316000Y-61194000D03*
D27*
X112776000Y-61194000D03*
X110236000Y-61194000D03*
%TD*%
D28*
%TO.C,J5*%
X156992000Y-73152000D03*
D29*
X156992000Y-70612000D03*
X156992000Y-68072000D03*
X156992000Y-65532000D03*
%TD*%
D30*
%TO.C,C2*%
X48768000Y-128188323D03*
D31*
X48768000Y-133188323D03*
%TD*%
D24*
%TO.C,C3*%
X154265621Y-78740000D03*
D25*
X156765621Y-78740000D03*
%TD*%
D32*
%TO.C,PS1*%
X139700000Y-100584000D03*
D33*
X142240000Y-100584000D03*
X147320000Y-100584000D03*
X149860000Y-100584000D03*
X152400000Y-100584000D03*
%TD*%
D24*
%TO.C,C7*%
X139025621Y-94867000D03*
D25*
X141525621Y-94867000D03*
%TD*%
D24*
%TO.C,C9*%
X148502380Y-94867000D03*
D25*
X146002380Y-94867000D03*
%TD*%
D30*
%TO.C,C1*%
X59944000Y-128188323D03*
D31*
X59944000Y-133188323D03*
%TD*%
D10*
%TO.C,TP2*%
X157480000Y-115570000D03*
%TD*%
D34*
%TO.C,U1*%
X127000000Y-58420000D03*
D35*
X127000000Y-60960000D03*
X127000000Y-63500000D03*
X127000000Y-66040000D03*
X127000000Y-68580000D03*
X127000000Y-71120000D03*
X127000000Y-73660000D03*
X127000000Y-76200000D03*
X149860000Y-76200000D03*
X149860000Y-73660000D03*
X149860000Y-71120000D03*
X149860000Y-68580000D03*
X149860000Y-66040000D03*
X149860000Y-63500000D03*
X149860000Y-60960000D03*
X149860000Y-58420000D03*
X129540000Y-58420000D03*
X129540000Y-60960000D03*
X129540000Y-63500000D03*
X129540000Y-66040000D03*
X129540000Y-68580000D03*
X129540000Y-71120000D03*
X129540000Y-73660000D03*
X129540000Y-76200000D03*
X147320000Y-76200000D03*
X147320000Y-73660000D03*
X147320000Y-71120000D03*
X147320000Y-68580000D03*
X147320000Y-66040000D03*
X147320000Y-63500000D03*
X147320000Y-60960000D03*
X147320000Y-58420000D03*
%TD*%
D30*
%TO.C,S1*%
X115100000Y-116100000D03*
D31*
X110100000Y-116100000D03*
X112600000Y-116100000D03*
D36*
X118200000Y-123600000D03*
X107000000Y-123600000D03*
D31*
X110100000Y-130600000D03*
X115100000Y-130600000D03*
%TD*%
%TO.C,R51*%
X57785000Y-62270000D03*
D37*
X60285000Y-64770000D03*
X57785000Y-59770000D03*
X55285000Y-64770000D03*
%TD*%
D38*
%TO.C,R47*%
X109728000Y-128042000D03*
X109728000Y-124942000D03*
%TD*%
D39*
%TO.C,C29*%
X111252000Y-110197500D03*
X111252000Y-113322500D03*
%TD*%
%TO.C,C30*%
X113792000Y-110197500D03*
X113792000Y-113322500D03*
%TD*%
%TO.C,C31*%
X114808000Y-124929500D03*
X114808000Y-128054500D03*
%TD*%
D40*
%TO.C,R48*%
X116332000Y-110210000D03*
X116332000Y-113310000D03*
%TD*%
%TO.C,R49*%
X108712000Y-110210000D03*
X108712000Y-113310000D03*
%TD*%
D38*
%TO.C,R50*%
X112268000Y-128042000D03*
X112268000Y-124942000D03*
%TD*%
D41*
%TO.C,C5*%
X53632500Y-69215000D03*
X50507500Y-69215000D03*
%TD*%
D42*
%TO.C,D1*%
X53594000Y-130588000D03*
X53594000Y-134588000D03*
%TD*%
D39*
%TO.C,C4*%
X60452000Y-113753500D03*
X60452000Y-116878500D03*
%TD*%
D43*
%TO.C,D2*%
X67310000Y-111125000D03*
X71310000Y-111125000D03*
%TD*%
D44*
%TO.C,D4*%
X90932000Y-116808000D03*
X90932000Y-112808000D03*
%TD*%
D38*
%TO.C,R12*%
X123698000Y-124232000D03*
X123698000Y-121132000D03*
%TD*%
%TO.C,R18*%
X126238000Y-124232000D03*
X126238000Y-121132000D03*
%TD*%
%TO.C,R17*%
X121158000Y-124232000D03*
X121158000Y-121132000D03*
%TD*%
%TO.C,R22*%
X138010500Y-116993000D03*
X138010500Y-113893000D03*
%TD*%
D45*
%TO.C,R33*%
X76226000Y-98552000D03*
X73126000Y-98552000D03*
%TD*%
D39*
%TO.C,C28*%
X135470500Y-113880500D03*
X135470500Y-117005500D03*
%TD*%
D45*
%TO.C,R34*%
X69114000Y-98552000D03*
X66014000Y-98552000D03*
%TD*%
D40*
%TO.C,R11*%
X123952000Y-127990000D03*
X123952000Y-131090000D03*
%TD*%
%TO.C,R45*%
X109728000Y-118846000D03*
X109728000Y-121946000D03*
%TD*%
%TO.C,R46*%
X112268000Y-118846000D03*
X112268000Y-121946000D03*
%TD*%
D38*
%TO.C,R39*%
X94996000Y-126518000D03*
X94996000Y-123418000D03*
%TD*%
D40*
%TO.C,R35*%
X97536000Y-123444000D03*
X97536000Y-126544000D03*
%TD*%
D46*
%TO.C,R43*%
X94996000Y-129006000D03*
X94996000Y-132106000D03*
%TD*%
D38*
%TO.C,R15*%
X126492000Y-131090000D03*
X126492000Y-127990000D03*
%TD*%
D44*
%TO.C,D5*%
X96520000Y-116808000D03*
X96520000Y-112808000D03*
%TD*%
D47*
%TO.C,C10*%
X57873500Y-103632000D03*
X60998500Y-103632000D03*
%TD*%
D48*
%TO.C,JP3*%
X116220000Y-135255000D03*
D49*
X114920000Y-135255000D03*
%TD*%
D40*
%TO.C,R36*%
X102616000Y-123418000D03*
X102616000Y-126518000D03*
%TD*%
D48*
%TO.C,JP1*%
X95646000Y-134620000D03*
D49*
X94346000Y-134620000D03*
%TD*%
D48*
%TO.C,JP2*%
X100868000Y-134620000D03*
D49*
X99568000Y-134620000D03*
%TD*%
D45*
%TO.C,R25*%
X60986000Y-100838000D03*
X57886000Y-100838000D03*
%TD*%
%TO.C,R23*%
X60986000Y-109220000D03*
X57886000Y-109220000D03*
%TD*%
D50*
%TO.C,R24*%
X57886000Y-106426000D03*
X60986000Y-106426000D03*
%TD*%
D46*
%TO.C,R44*%
X100076000Y-129006000D03*
X100076000Y-132106000D03*
%TD*%
D43*
%TO.C,D3*%
X78740000Y-111125000D03*
X82740000Y-111125000D03*
%TD*%
D38*
%TO.C,R40*%
X100076000Y-126518000D03*
X100076000Y-123418000D03*
%TD*%
D51*
%TO.C,C12*%
X117282000Y-97400500D03*
X117282000Y-94275500D03*
%TD*%
D39*
%TO.C,C27*%
X121412000Y-113880500D03*
X121412000Y-117005500D03*
%TD*%
D52*
%TO.C,D18*%
X154607500Y-66614000D03*
X154607500Y-68514000D03*
X152732500Y-67564000D03*
%TD*%
D47*
%TO.C,C6*%
X152361500Y-76200000D03*
X155486500Y-76200000D03*
%TD*%
D38*
%TO.C,R37*%
X71120000Y-124486000D03*
X71120000Y-121386000D03*
%TD*%
D53*
%TO.C,U5*%
X152335000Y-113411000D03*
X152335000Y-114681000D03*
X152335000Y-115951000D03*
X152335000Y-117221000D03*
X147385000Y-117221000D03*
X147385000Y-115951000D03*
X147385000Y-114681000D03*
X147385000Y-113411000D03*
%TD*%
D38*
%TO.C,R19*%
X132334000Y-124232000D03*
X132334000Y-121132000D03*
%TD*%
%TO.C,R27*%
X117856000Y-131090000D03*
X117856000Y-127990000D03*
%TD*%
D54*
%TO.C,D9*%
X101666000Y-119204500D03*
X103566000Y-119204500D03*
X102616000Y-121079500D03*
%TD*%
D41*
%TO.C,C14*%
X149390500Y-97536000D03*
X146265500Y-97536000D03*
%TD*%
D55*
%TO.C,D14*%
X73848000Y-79423500D03*
X71948000Y-79423500D03*
X72898000Y-77548500D03*
%TD*%
D38*
%TO.C,R5*%
X144272000Y-116866000D03*
X144272000Y-113766000D03*
%TD*%
D41*
%TO.C,C16*%
X151461000Y-104011000D03*
X148336000Y-104011000D03*
%TD*%
D38*
%TO.C,R16*%
X137668000Y-131090000D03*
X137668000Y-127990000D03*
%TD*%
D56*
%TO.C,U9*%
X106999000Y-99187000D03*
X106999000Y-97917000D03*
X106999000Y-96647000D03*
X106999000Y-95377000D03*
X111949000Y-95377000D03*
X111949000Y-96647000D03*
X111949000Y-97917000D03*
X111949000Y-99187000D03*
%TD*%
D39*
%TO.C,C19*%
X157480000Y-120357500D03*
X157480000Y-123482500D03*
%TD*%
D38*
%TO.C,R21*%
X123952000Y-116993000D03*
X123952000Y-113893000D03*
%TD*%
D54*
%TO.C,D6*%
X98364000Y-86438500D03*
X100264000Y-86438500D03*
X99314000Y-88313500D03*
%TD*%
D55*
%TO.C,D13*%
X133030000Y-129969500D03*
X131130000Y-129969500D03*
X132080000Y-128094500D03*
%TD*%
D54*
%TO.C,D12*%
X134432000Y-121236500D03*
X136332000Y-121236500D03*
X135382000Y-123111500D03*
%TD*%
D57*
%TO.C,U4*%
X154766000Y-106109000D03*
X154766000Y-107059000D03*
X154766000Y-108009000D03*
X152066000Y-108009000D03*
X152066000Y-106109000D03*
%TD*%
D48*
%TO.C,JP4*%
X131206000Y-135128000D03*
D49*
X129906000Y-135128000D03*
%TD*%
D38*
%TO.C,R29*%
X104140000Y-105436000D03*
X104140000Y-102336000D03*
%TD*%
D45*
%TO.C,R31*%
X83338000Y-98552000D03*
X80238000Y-98552000D03*
%TD*%
D38*
%TO.C,R53*%
X86106000Y-80798000D03*
X86106000Y-77698000D03*
%TD*%
D41*
%TO.C,C25*%
X101130500Y-101346000D03*
X98005500Y-101346000D03*
%TD*%
D45*
%TO.C,R26*%
X112294000Y-93218000D03*
X109194000Y-93218000D03*
%TD*%
%TO.C,R10*%
X133630000Y-93980000D03*
X130530000Y-93980000D03*
%TD*%
D53*
%TO.C,U8*%
X132015000Y-113538000D03*
X132015000Y-114808000D03*
X132015000Y-116078000D03*
X132015000Y-117348000D03*
X127065000Y-117348000D03*
X127065000Y-116078000D03*
X127065000Y-114808000D03*
X127065000Y-113538000D03*
%TD*%
D50*
%TO.C,R2*%
X149326000Y-111252000D03*
X152426000Y-111252000D03*
%TD*%
%TO.C,R3*%
X143738000Y-119380000D03*
X146838000Y-119380000D03*
%TD*%
D38*
%TO.C,R38*%
X74676000Y-124486000D03*
X74676000Y-121386000D03*
%TD*%
D41*
%TO.C,C13*%
X155486500Y-97536000D03*
X152361500Y-97536000D03*
%TD*%
D40*
%TO.C,R1*%
X155000000Y-120370000D03*
X155000000Y-123470000D03*
%TD*%
D52*
%TO.C,D19*%
X119555500Y-59502000D03*
X119555500Y-61402000D03*
X117680500Y-60452000D03*
%TD*%
D38*
%TO.C,R20*%
X140970000Y-124232000D03*
X140970000Y-121132000D03*
%TD*%
D45*
%TO.C,R9*%
X133630000Y-91440000D03*
X130530000Y-91440000D03*
%TD*%
D38*
%TO.C,R28*%
X135128000Y-131090000D03*
X135128000Y-127990000D03*
%TD*%
D55*
%TO.C,D16*%
X66482000Y-79423500D03*
X64582000Y-79423500D03*
X65532000Y-77548500D03*
%TD*%
D54*
%TO.C,D11*%
X119954000Y-128094500D03*
X121854000Y-128094500D03*
X120904000Y-129969500D03*
%TD*%
D58*
%TO.C,U7*%
X133477000Y-102143000D03*
X132207000Y-102143000D03*
X130937000Y-102143000D03*
X129667000Y-102143000D03*
X129667000Y-96993000D03*
X130937000Y-96993000D03*
X132207000Y-96993000D03*
X133477000Y-96993000D03*
%TD*%
D40*
%TO.C,R42*%
X88900000Y-77698000D03*
X88900000Y-80798000D03*
%TD*%
D59*
%TO.C,U3*%
X119888000Y-94488000D03*
X120838000Y-94488000D03*
X121788000Y-94488000D03*
X121788000Y-97188000D03*
X119888000Y-97188000D03*
%TD*%
D47*
%TO.C,C21*%
X141439500Y-107188000D03*
X144564500Y-107188000D03*
%TD*%
D54*
%TO.C,D10*%
X128336000Y-121236500D03*
X130236000Y-121236500D03*
X129286000Y-123111500D03*
%TD*%
D47*
%TO.C,C18*%
X149313500Y-119380000D03*
X152438500Y-119380000D03*
%TD*%
D40*
%TO.C,R55*%
X121920000Y-58648000D03*
X121920000Y-61748000D03*
%TD*%
D51*
%TO.C,C17*%
X136144000Y-102146500D03*
X136144000Y-99021500D03*
%TD*%
D56*
%TO.C,U10*%
X97601000Y-99187000D03*
X97601000Y-97917000D03*
X97601000Y-96647000D03*
X97601000Y-95377000D03*
X97601000Y-94107000D03*
X97601000Y-92837000D03*
X97601000Y-91567000D03*
X97601000Y-90297000D03*
X102551000Y-90297000D03*
X102551000Y-91567000D03*
X102551000Y-92837000D03*
X102551000Y-94107000D03*
X102551000Y-95377000D03*
X102551000Y-96647000D03*
X102551000Y-97917000D03*
X102551000Y-99187000D03*
%TD*%
D38*
%TO.C,R7*%
X126544000Y-101626000D03*
X126544000Y-98526000D03*
%TD*%
D40*
%TO.C,R41*%
X78994000Y-77444000D03*
X78994000Y-80544000D03*
%TD*%
D51*
%TO.C,C22*%
X136144000Y-94018500D03*
X136144000Y-90893500D03*
%TD*%
D47*
%TO.C,C11*%
X118767500Y-90758000D03*
X121892500Y-90758000D03*
%TD*%
D60*
%TO.C,R30*%
X109220000Y-104886000D03*
X109220000Y-102886000D03*
%TD*%
D50*
%TO.C,R6*%
X141452000Y-109728000D03*
X144552000Y-109728000D03*
%TD*%
D51*
%TO.C,C24*%
X106680000Y-105448500D03*
X106680000Y-102323500D03*
%TD*%
D40*
%TO.C,R14*%
X138430000Y-121132000D03*
X138430000Y-124232000D03*
%TD*%
D38*
%TO.C,R52*%
X76200000Y-80544000D03*
X76200000Y-77444000D03*
%TD*%
D52*
%TO.C,D17*%
X154607500Y-70424000D03*
X154607500Y-72324000D03*
X152732500Y-71374000D03*
%TD*%
D40*
%TO.C,R54*%
X68834000Y-77444000D03*
X68834000Y-80544000D03*
%TD*%
D50*
%TO.C,R8*%
X126492000Y-104648000D03*
X129592000Y-104648000D03*
%TD*%
D61*
%TO.C,J4*%
X48260000Y-86868000D03*
D20*
X53340000Y-86868000D03*
X58420000Y-86868000D03*
X63500000Y-86868000D03*
X68580000Y-86868000D03*
X73660000Y-86868000D03*
X78740000Y-86868000D03*
X83820000Y-86868000D03*
%TD*%
D62*
%TO.C,D7*%
X137238500Y-110678000D03*
X137238500Y-108778000D03*
X139113500Y-109728000D03*
%TD*%
D57*
%TO.C,U6*%
X136144000Y-105222000D03*
X136144000Y-106172000D03*
X136144000Y-107122000D03*
X133444000Y-107122000D03*
X133444000Y-105222000D03*
%TD*%
D47*
%TO.C,C26*%
X127977500Y-111379000D03*
X131102500Y-111379000D03*
%TD*%
D45*
%TO.C,R32*%
X90450000Y-98552000D03*
X87350000Y-98552000D03*
%TD*%
D63*
%TO.C,Q2*%
X73176000Y-102706000D03*
D64*
X74676000Y-102793500D03*
D63*
X76176000Y-102706000D03*
%TD*%
D40*
%TO.C,R13*%
X129032000Y-127990000D03*
X129032000Y-131090000D03*
%TD*%
D55*
%TO.C,D15*%
X83754000Y-79677500D03*
X81854000Y-79677500D03*
X82804000Y-77802500D03*
%TD*%
D63*
%TO.C,Q4*%
X87400000Y-102706000D03*
D64*
X88900000Y-102793500D03*
D63*
X90400000Y-102706000D03*
%TD*%
D45*
%TO.C,R4*%
X146838000Y-121920000D03*
X143738000Y-121920000D03*
%TD*%
D55*
%TO.C,D8*%
X92710000Y-126492000D03*
X90810000Y-126492000D03*
X91760000Y-124617000D03*
%TD*%
D63*
%TO.C,Q3*%
X80288000Y-102706000D03*
D64*
X81788000Y-102793500D03*
D63*
X83288000Y-102706000D03*
%TD*%
D39*
%TO.C,C20*%
X141732000Y-113753500D03*
X141732000Y-116878500D03*
%TD*%
D63*
%TO.C,Q1*%
X66064000Y-102706000D03*
D64*
X67564000Y-102793500D03*
D63*
X69064000Y-102706000D03*
%TD*%
D47*
%TO.C,C15*%
X153924000Y-104011000D03*
X157049000Y-104011000D03*
%TD*%
D65*
X161600000Y-147600000D02*
X41600000Y-147600000D01*
X41600000Y-147600000D02*
X41600000Y-55600000D01*
X41600000Y-55600000D02*
X161600000Y-55600000D01*
X161600000Y-55600000D02*
X161600000Y-147600000D01*
M02*
